<?xml version="1.0" encoding="UTF-8"?>
<svg xmlns="http://www.w3.org/2000/svg" xmlns:xlink="http://www.w3.org/1999/xlink" width="24px" height="24px" viewBox="0 0 24 48" version="1.1">
<defs>
<linearGradient id="linear0" gradientUnits="userSpaceOnUse" x1="0.16363" y1="0.63905" x2="1.5999" y2="0.20213" gradientTransform="matrix(6.863281,0,0,6.183594,16.949219,0.269531)">
<stop offset="0" style="stop-color:rgb(96.470588%,60%,13.72549%);stop-opacity:1;"/>
<stop offset="0.3123" style="stop-color:rgb(96.862745%,60.392157%,13.72549%);stop-opacity:1;"/>
<stop offset="0.8383" style="stop-color:rgb(91.372549%,47.058824%,14.901961%);stop-opacity:1;"/>
</linearGradient>
<linearGradient id="linear1" gradientUnits="userSpaceOnUse" x1="-2.17651" y1="3.94672" x2="0.74743" y2="0.13846" gradientTransform="matrix(6.972656,0,0,11.488281,11.347656,3.78125)">
<stop offset="0.3233" style="stop-color:rgb(61.960784%,12.54902%,39.215686%);stop-opacity:1;"/>
<stop offset="0.6302" style="stop-color:rgb(78.823529%,12.54902%,21.568627%);stop-opacity:1;"/>
<stop offset="0.7514" style="stop-color:rgb(80.392157%,13.72549%,20.784314%);stop-opacity:1;"/>
<stop offset="1" style="stop-color:rgb(91.372549%,47.058824%,14.901961%);stop-opacity:1;"/>
</linearGradient>
<linearGradient id="linear2" gradientUnits="userSpaceOnUse" x1="-0.80044" y1="1.70418" x2="1.4624" y2="-0.44299" gradientTransform="matrix(9.011719,0,0,20.367187,4.117188,11.746094)">
<stop offset="0.3233" style="stop-color:rgb(61.960784%,12.54902%,39.215686%);stop-opacity:1;"/>
<stop offset="0.6302" style="stop-color:rgb(78.823529%,12.54902%,21.568627%);stop-opacity:1;"/>
<stop offset="0.7514" style="stop-color:rgb(80.392157%,13.72549%,20.784314%);stop-opacity:1;"/>
<stop offset="1" style="stop-color:rgb(91.372549%,47.058824%,14.901961%);stop-opacity:1;"/>
</linearGradient>
<linearGradient id="linear3" gradientUnits="userSpaceOnUse" x1="-0.18316" y1="0.7736" x2="1.65002" y2="-0.41416" gradientTransform="matrix(5.847656,0,0,19.351562,0.0546875,28.574219)">
<stop offset="0" style="stop-color:rgb(15.686275%,14.901961%,38.431373%);stop-opacity:1;"/>
<stop offset="0.09548" style="stop-color:rgb(40%,18.039216%,55.294118%);stop-opacity:1;"/>
<stop offset="0.7882" style="stop-color:rgb(62.352941%,12.54902%,39.215686%);stop-opacity:1;"/>
<stop offset="0.9487" style="stop-color:rgb(80.392157%,12.54902%,19.607843%);stop-opacity:1;"/>
</linearGradient>
<linearGradient id="linear4" gradientUnits="userSpaceOnUse" x1="-1.29783" y1="4.63715" x2="0.66456" y2="0.1719" gradientTransform="matrix(10.394531,0,0,9.796875,13.429688,5.761719)">
<stop offset="0.3233" style="stop-color:rgb(61.960784%,12.54902%,39.215686%);stop-opacity:1;"/>
<stop offset="0.6302" style="stop-color:rgb(78.823529%,12.54902%,21.568627%);stop-opacity:1;"/>
<stop offset="0.7514" style="stop-color:rgb(80.392157%,13.72549%,20.784314%);stop-opacity:1;"/>
<stop offset="1" style="stop-color:rgb(91.372549%,47.058824%,14.901961%);stop-opacity:1;"/>
</linearGradient>
<linearGradient id="linear5" gradientUnits="userSpaceOnUse" x1="-0.3488" y1="1.87706" x2="1.10599" y2="-0.511" gradientTransform="matrix(14.027344,0,0,18.34375,6.3125,14.195312)">
<stop offset="0.3233" style="stop-color:rgb(61.960784%,12.54902%,39.215686%);stop-opacity:1;"/>
<stop offset="0.6302" style="stop-color:rgb(78.823529%,12.54902%,21.568627%);stop-opacity:1;"/>
<stop offset="0.7514" style="stop-color:rgb(80.392157%,13.72549%,20.784314%);stop-opacity:1;"/>
<stop offset="1" style="stop-color:rgb(91.372549%,47.058824%,14.901961%);stop-opacity:1;"/>
</linearGradient>
<linearGradient id="linear6" gradientUnits="userSpaceOnUse" x1="-0.20619" y1="1.92564" x2="1.2526" y2="-1.36906" gradientTransform="matrix(8.332031,0,0,7.910156,4.734375,30.640625)">
<stop offset="0" style="stop-color:rgb(15.686275%,14.901961%,38.431373%);stop-opacity:1;"/>
<stop offset="0.09548" style="stop-color:rgb(40%,18.039216%,55.294118%);stop-opacity:1;"/>
<stop offset="0.7882" style="stop-color:rgb(62.352941%,12.54902%,39.215686%);stop-opacity:1;"/>
<stop offset="0.9487" style="stop-color:rgb(80.392157%,12.54902%,19.607843%);stop-opacity:1;"/>
</linearGradient>
</defs>
<g id="surface1">
<path style=" stroke:none;fill-rule:nonzero;fill:url(#linear0);" d="M 20.441406 0.269531 C 19.695312 0.710938 18.445312 1.96875 16.949219 3.792969 L 16.949219 3.902344 L 18.257812 6.320312 L 18.320312 6.367188 C 19.285156 4.996094 20.253906 3.753906 21.246094 2.699219 C 21.320312 2.613281 21.355469 2.578125 21.355469 2.578125 C 21.320312 2.613281 21.28125 2.660156 21.246094 2.699219 C 20.925781 3.054688 19.957031 4.175781 18.5 6.414062 L 18.667969 6.453125 C 18.667969 6.453125 22.078125 6.117188 23.71875 5.835938 L 23.8125 5.753906 C 24.335938 2.820312 23.300781 1.476562 23.300781 1.476562 C 23.300781 1.476562 21.992188 -0.636719 20.441406 0.269531 "/>
<path style=" stroke:none;fill-rule:nonzero;fill:url(#linear1);" d="M 14.289062 13.046875 C 14.707031 12.269531 15.128906 11.503906 15.546875 10.765625 C 15.988281 10 16.4375 9.253906 16.894531 8.535156 C 16.921875 8.5 16.949219 8.453125 16.96875 8.40625 C 17.402344 7.714844 17.855469 7.035156 18.320312 6.367188 L 16.949219 3.78125 C 16.847656 3.902344 16.742188 4.035156 16.640625 4.164062 C 16.25 4.660156 15.839844 5.183594 15.417969 5.742188 C 14.921875 6.40625 14.433594 7.078125 13.960938 7.761719 C 13.488281 8.433594 13.027344 9.117188 12.578125 9.804688 C 12.1875 10.414062 11.785156 11.027344 11.394531 11.671875 C 11.375 11.699219 11.363281 11.71875 11.347656 11.746094 L 11.347656 11.851562 L 13.054688 15.242188 L 13.128906 15.269531 C 13.511719 14.519531 13.894531 13.773438 14.289062 13.046875 "/>
<path style=" stroke:none;fill-rule:nonzero;fill:url(#linear2);" d="M 6.84375 29.640625 C 7.152344 28.835938 7.480469 28.023438 7.808594 27.203125 C 8.125 26.417969 8.441406 25.625 8.777344 24.832031 C 9.105469 24.039062 9.449219 23.242188 9.796875 22.441406 C 10.152344 21.628906 10.503906 20.816406 10.871094 20.011719 C 11.234375 19.21875 11.597656 18.425781 11.972656 17.640625 C 12.105469 17.355469 12.242188 17.070312 12.382812 16.789062 C 12.617188 16.304688 12.859375 15.820312 13.09375 15.34375 C 13.101562 15.316406 13.121094 15.296875 13.128906 15.269531 L 11.347656 11.746094 L 11.261719 11.886719 C 10.851562 12.570312 10.429688 13.261719 10.03125 13.96875 C 9.617188 14.691406 9.214844 15.421875 8.824219 16.15625 C 8.488281 16.78125 8.171875 17.40625 7.855469 18.042969 C 7.789062 18.171875 7.730469 18.292969 7.667969 18.425781 C 7.292969 19.1875 6.941406 19.960938 6.613281 20.742188 C 6.257812 21.582031 5.9375 22.382812 5.660156 23.148438 C 5.472656 23.65625 5.3125 24.128906 5.15625 24.597656 C 5.03125 24.992188 4.914062 25.386719 4.800781 25.785156 C 4.535156 26.703125 4.304688 27.636719 4.117188 28.574219 L 4.144531 28.6875 L 5.855469 32.085938 L 5.910156 32.113281 C 6.144531 31.480469 6.386719 30.84375 6.640625 30.191406 C 6.707031 30.003906 6.78125 29.828125 6.84375 29.640625 "/>
<path style=" stroke:none;fill-rule:nonzero;fill:url(#linear3);" d="M 4.101562 28.695312 C 3.875 29.828125 3.714844 30.957031 3.632812 32.078125 C 3.632812 32.113281 3.625 32.152344 3.625 32.199219 C 3.0625 31.304688 1.570312 30.433594 1.570312 30.433594 C 2.644531 31.984375 3.457031 33.523438 3.578125 35.039062 C 3.007812 35.160156 2.222656 34.980469 1.308594 34.65625 C 2.25 35.523438 2.960938 35.765625 3.242188 35.832031 C 2.371094 35.886719 1.464844 36.484375 0.550781 37.167969 C 1.886719 36.625 2.960938 36.410156 3.734375 36.578125 C 2.511719 40.042969 1.289062 43.871094 0.0546875 47.925781 C 0.429688 47.8125 0.652344 47.5625 0.785156 47.214844 C 1 46.476562 2.457031 41.660156 4.726562 35.316406 C 4.789062 35.140625 4.855469 34.953125 4.921875 34.777344 C 4.941406 34.730469 4.957031 34.675781 4.976562 34.628906 C 5.21875 33.964844 5.464844 33.28125 5.722656 32.589844 C 5.78125 32.433594 5.847656 32.273438 5.902344 32.113281 L 5.902344 32.105469 L 4.117188 28.574219 C 4.117188 28.621094 4.109375 28.660156 4.097656 28.699219 "/>
<path style=" stroke:none;fill-rule:nonzero;fill:url(#linear4);" d="M 18.5 6.425781 C 18.097656 7.042969 17.660156 7.742188 17.183594 8.535156 C 17.15625 8.574219 17.136719 8.621094 17.109375 8.65625 C 16.664062 9.40625 16.230469 10.164062 15.808594 10.925781 C 15.386719 11.6875 14.976562 12.457031 14.578125 13.234375 C 14.183594 13.988281 13.800781 14.753906 13.429688 15.519531 L 13.511719 15.558594 L 17.855469 15.089844 L 17.957031 15.015625 C 19.273438 14.410156 19.863281 13.859375 20.433594 13.066406 C 20.589844 12.839844 20.742188 12.613281 20.890625 12.382812 C 21.355469 11.65625 21.816406 10.859375 22.214844 10.066406 C 22.609375 9.300781 22.953125 8.535156 23.226562 7.855469 C 23.394531 7.414062 23.53125 7.011719 23.625 6.660156 C 23.710938 6.339844 23.777344 6.042969 23.824219 5.761719 C 22.066406 6.070312 19.910156 6.359375 18.5 6.425781 "/>
<path style=" stroke:none;fill-rule:nonzero;fill:url(#linear5);" d="M 13.261719 15.886719 C 13.109375 16.203125 12.953125 16.527344 12.792969 16.855469 C 12.625 17.210938 12.449219 17.585938 12.28125 17.957031 C 12.195312 18.144531 12.101562 18.339844 12.019531 18.527344 C 11.746094 19.105469 11.488281 19.703125 11.207031 20.320312 C 10.859375 21.105469 10.515625 21.894531 10.179688 22.683594 C 9.84375 23.46875 9.507812 24.269531 9.171875 25.109375 C 8.835938 25.925781 8.507812 26.746094 8.191406 27.566406 C 7.890625 28.324219 7.59375 29.089844 7.292969 29.890625 C 7.273438 29.929688 7.265625 29.96875 7.246094 30.003906 C 6.949219 30.796875 6.65625 31.605469 6.347656 32.4375 C 6.339844 32.457031 6.320312 32.503906 6.3125 32.523438 L 6.378906 32.539062 L 7.675781 32.398438 L 7.75 32.367188 C 7.722656 32.359375 7.703125 32.320312 7.675781 32.3125 C 9.394531 32.097656 11.683594 30.808594 13.167969 29.21875 C 13.847656 28.492188 14.464844 27.625 15.042969 26.613281 C 15.472656 25.859375 15.867188 25.027344 16.25 24.101562 C 16.585938 23.300781 16.902344 22.421875 17.210938 21.480469 C 16.820312 21.683594 16.359375 21.84375 15.867188 21.945312 C 15.78125 21.964844 15.6875 21.984375 15.59375 22 C 15.5 22.019531 15.410156 22.03125 15.324219 22.046875 C 16.929688 21.433594 17.9375 20.238281 18.675781 18.78125 C 18.257812 19.070312 17.566406 19.441406 16.742188 19.628906 C 16.632812 19.65625 16.519531 19.675781 16.398438 19.695312 C 16.371094 19.695312 16.34375 19.703125 16.3125 19.703125 C 16.875 19.472656 17.339844 19.210938 17.753906 18.902344 C 17.835938 18.835938 17.921875 18.769531 18.003906 18.695312 C 18.125 18.582031 18.246094 18.472656 18.359375 18.359375 C 18.433594 18.285156 18.5 18.210938 18.574219 18.125 C 18.738281 17.933594 18.886719 17.726562 19.023438 17.507812 C 19.070312 17.445312 19.105469 17.371094 19.152344 17.304688 C 19.210938 17.203125 19.257812 17.097656 19.304688 16.996094 C 19.527344 16.546875 19.703125 16.144531 19.84375 15.792969 C 19.917969 15.613281 19.976562 15.457031 20.03125 15.296875 C 20.050781 15.242188 20.070312 15.175781 20.097656 15.117188 C 20.152344 14.949219 20.199219 14.800781 20.238281 14.660156 C 20.28125 14.507812 20.3125 14.351562 20.339844 14.195312 C 20.285156 14.242188 20.226562 14.277344 20.152344 14.324219 C 19.667969 14.613281 18.835938 14.875 18.164062 14.996094 L 19.488281 14.847656 L 18.164062 14.996094 C 18.070312 15.015625 18.003906 15.027344 17.929688 15.042969 C 17.9375 15.039062 16.4375 15.195312 13.4375 15.519531 C 13.417969 15.539062 13.308594 15.773438 13.261719 15.886719 "/>
<path style=" stroke:none;fill-rule:nonzero;fill:url(#linear6);" d="M 6.171875 32.871094 C 5.9375 33.515625 5.695312 34.179688 5.464844 34.851562 C 5.464844 34.859375 5.453125 34.871094 5.453125 34.878906 C 5.417969 34.972656 5.386719 35.066406 5.351562 35.167969 C 5.191406 35.625 5.050781 36.027344 4.734375 36.960938 C 5.257812 37.203125 5.679688 37.832031 6.078125 38.550781 C 6.042969 37.8125 5.734375 37.109375 5.144531 36.578125 C 7.730469 36.691406 9.964844 36.039062 11.113281 34.152344 C 11.21875 33.980469 11.3125 33.800781 11.394531 33.617188 C 10.871094 34.28125 10.214844 34.5625 9.003906 34.496094 L 8.992188 34.496094 L 9.003906 34.496094 C 10.804688 33.695312 11.699219 32.917969 12.503906 31.640625 C 12.703125 31.3125 12.890625 30.980469 13.066406 30.640625 C 11.488281 32.253906 9.664062 32.710938 7.75 32.367188 L 6.3125 32.527344 C 6.265625 32.628906 6.21875 32.75 6.171875 32.871094 "/>
</g>
</svg>
