<?xml version="1.0" encoding="UTF-8"?>
<svg xmlns="http://www.w3.org/2000/svg" xmlns:xlink="http://www.w3.org/1999/xlink" width="24px" height="24px" viewBox="0 0 24 19" version="1.1">
<g id="surface1">
<path style=" stroke:none;fill-rule:evenodd;fill:rgb(30.980393%,68.235296%,84.313726%);fill-opacity:1;" d="M 20.042969 1.347656 L 20.546875 1.992188 C 20.675781 2.164062 20.644531 2.40625 20.46875 2.535156 L 19.933594 2.929688 C 20.03125 3.183594 20.09375 3.453125 20.121094 3.726562 L 20.726562 3.808594 C 20.945312 3.835938 21.097656 4.035156 21.070312 4.246094 L 20.957031 5.050781 C 20.925781 5.261719 20.722656 5.414062 20.507812 5.382812 L 19.839844 5.292969 C 19.722656 5.542969 19.570312 5.777344 19.390625 5.980469 L 19.765625 6.460938 C 19.898438 6.628906 19.863281 6.875 19.6875 7.003906 L 19.023438 7.492188 C 18.847656 7.621094 18.597656 7.589844 18.464844 7.417969 L 18.058594 6.898438 C 17.800781 6.992188 17.523438 7.054688 17.242188 7.078125 L 17.15625 7.671875 C 17.128906 7.882812 16.925781 8.03125 16.707031 8.003906 L 15.882812 7.894531 C 15.664062 7.863281 15.511719 7.667969 15.542969 7.457031 L 15.632812 6.808594 C 15.375 6.691406 15.136719 6.542969 14.925781 6.371094 L 14.433594 6.734375 C 14.261719 6.863281 14.007812 6.832031 13.875 6.660156 L 13.371094 6.015625 C 13.242188 5.84375 13.273438 5.601562 13.449219 5.472656 L 13.984375 5.074219 C 13.886719 4.820312 13.824219 4.554688 13.800781 4.28125 L 13.191406 4.199219 C 12.972656 4.171875 12.820312 3.972656 12.851562 3.761719 L 12.960938 2.957031 C 12.992188 2.742188 13.195312 2.597656 13.410156 2.625 L 14.078125 2.714844 C 14.195312 2.464844 14.347656 2.230469 14.523438 2.023438 L 14.152344 1.546875 C 14.019531 1.378906 14.054688 1.132812 14.230469 1.003906 L 14.890625 0.515625 C 15.066406 0.386719 15.316406 0.417969 15.449219 0.589844 L 15.855469 1.109375 C 16.113281 1.015625 16.390625 0.953125 16.671875 0.929688 L 16.757812 0.335938 C 16.785156 0.125 16.988281 -0.0234375 17.207031 0.00390625 L 18.03125 0.113281 C 18.25 0.140625 18.402344 0.339844 18.375 0.550781 L 18.28125 1.199219 C 18.539062 1.3125 18.777344 1.460938 18.992188 1.636719 L 19.480469 1.273438 C 19.65625 1.144531 19.90625 1.175781 20.042969 1.347656 Z M 5.820312 12.710938 L 5.820312 9.585938 L 7.472656 9.585938 C 7.78125 9.585938 8.015625 9.609375 8.175781 9.664062 C 8.339844 9.714844 8.46875 9.808594 8.566406 9.949219 C 8.667969 10.089844 8.71875 10.257812 8.71875 10.457031 C 8.71875 10.628906 8.679688 10.777344 8.601562 10.902344 C 8.527344 11.03125 8.421875 11.132812 8.289062 11.210938 C 8.207031 11.261719 8.089844 11.300781 7.941406 11.335938 C 8.058594 11.375 8.144531 11.410156 8.199219 11.449219 C 8.234375 11.476562 8.289062 11.53125 8.355469 11.613281 C 8.421875 11.699219 8.46875 11.765625 8.492188 11.808594 L 8.976562 12.710938 L 7.855469 12.710938 L 7.328125 11.761719 C 7.257812 11.636719 7.199219 11.554688 7.148438 11.519531 C 7.074219 11.472656 6.992188 11.449219 6.90625 11.449219 L 6.816406 11.449219 L 6.816406 12.710938 Z M 9.316406 18.152344 L 7.464844 18.152344 L 7.199219 19 L 5.53125 19 L 7.519531 13.851562 L 9.308594 13.851562 L 11.292969 19 L 9.582031 19 Z M 8.972656 17.035156 L 8.394531 15.183594 L 7.816406 17.035156 Z M 11.675781 13.851562 L 14.394531 13.851562 C 14.988281 13.851562 15.433594 13.988281 15.726562 14.261719 C 16.019531 14.535156 16.167969 14.929688 16.167969 15.433594 C 16.167969 15.953125 16.007812 16.363281 15.683594 16.65625 C 15.363281 16.949219 14.871094 17.09375 14.214844 17.09375 L 13.316406 17.09375 L 13.316406 19 L 11.675781 19 Z M 13.316406 16.050781 L 13.71875 16.050781 C 14.035156 16.050781 14.261719 16 14.386719 15.890625 C 14.515625 15.785156 14.582031 15.644531 14.582031 15.480469 C 14.582031 15.320312 14.523438 15.183594 14.414062 15.070312 C 14.300781 14.957031 14.09375 14.902344 13.785156 14.902344 L 13.316406 14.902344 Z M 16.828125 13.851562 L 18.46875 13.851562 L 18.46875 19 L 16.828125 19 Z M 6.816406 10.855469 L 7.234375 10.855469 C 7.28125 10.855469 7.367188 10.839844 7.496094 10.8125 C 7.5625 10.796875 7.617188 10.765625 7.660156 10.714844 C 7.703125 10.660156 7.722656 10.597656 7.722656 10.53125 C 7.722656 10.429688 7.6875 10.351562 7.621094 10.296875 C 7.554688 10.242188 7.433594 10.214844 7.253906 10.214844 L 6.816406 10.214844 Z M 9.167969 9.585938 L 11.820312 9.585938 L 11.820312 10.253906 L 10.164062 10.253906 L 10.164062 10.75 L 11.699219 10.75 L 11.699219 11.386719 L 10.164062 11.386719 L 10.164062 12.003906 L 11.871094 12.003906 L 11.871094 12.707031 L 9.167969 12.707031 Z M 12.105469 11.675781 L 13.046875 11.621094 C 13.066406 11.769531 13.109375 11.882812 13.171875 11.960938 C 13.273438 12.085938 13.417969 12.148438 13.609375 12.148438 C 13.75 12.148438 13.859375 12.117188 13.933594 12.050781 C 14.011719 11.988281 14.050781 11.910156 14.050781 11.828125 C 14.050781 11.746094 14.011719 11.671875 13.941406 11.609375 C 13.867188 11.542969 13.699219 11.484375 13.433594 11.425781 C 13 11.332031 12.691406 11.207031 12.503906 11.046875 C 12.316406 10.890625 12.222656 10.691406 12.222656 10.445312 C 12.222656 10.285156 12.273438 10.132812 12.367188 9.992188 C 12.460938 9.847656 12.605469 9.734375 12.800781 9.65625 C 12.992188 9.574219 13.253906 9.53125 13.589844 9.53125 C 14 9.53125 14.308594 9.605469 14.527344 9.757812 C 14.738281 9.90625 14.867188 10.140625 14.910156 10.464844 L 13.976562 10.523438 C 13.953125 10.378906 13.898438 10.277344 13.824219 10.214844 C 13.742188 10.148438 13.632812 10.117188 13.492188 10.117188 C 13.378906 10.117188 13.292969 10.140625 13.234375 10.1875 C 13.175781 10.234375 13.144531 10.292969 13.144531 10.363281 C 13.144531 10.410156 13.171875 10.457031 13.21875 10.496094 C 13.265625 10.535156 13.371094 10.578125 13.546875 10.613281 C 13.980469 10.703125 14.292969 10.796875 14.480469 10.890625 C 14.667969 10.980469 14.804688 11.097656 14.886719 11.234375 C 14.972656 11.371094 15.015625 11.527344 15.015625 11.699219 C 15.015625 11.898438 14.960938 12.082031 14.84375 12.25 C 14.734375 12.417969 14.574219 12.546875 14.367188 12.636719 C 14.164062 12.722656 13.90625 12.765625 13.597656 12.765625 C 13.050781 12.765625 12.671875 12.664062 12.460938 12.460938 C 12.253906 12.25 12.132812 11.992188 12.105469 11.675781 Z M 15.160156 9.585938 L 18.175781 9.585938 L 18.175781 10.359375 L 17.164062 10.359375 L 17.164062 12.710938 L 16.171875 12.710938 L 16.171875 10.359375 L 15.160156 10.359375 Z M 11.824219 2.171875 C 11.46875 2.144531 11.105469 2.148438 10.75 2.179688 C 9.65625 2.285156 8.59375 2.671875 7.714844 3.335938 C 6.695312 4.105469 5.925781 5.25 5.625 6.773438 L 5.535156 7.246094 L 5.046875 7.332031 C 4.570312 7.414062 4.144531 7.523438 3.773438 7.664062 C 3.410156 7.800781 3.085938 7.972656 2.804688 8.167969 C 2.578125 8.328125 2.386719 8.507812 2.21875 8.699219 C 1.707031 9.296875 1.472656 10.042969 1.476562 10.800781 C 1.484375 11.570312 1.738281 12.347656 2.214844 12.984375 C 2.390625 13.222656 2.59375 13.441406 2.828125 13.628906 C 3.066406 13.820312 3.332031 13.980469 3.632812 14.097656 C 3.800781 14.167969 3.980469 14.222656 4.171875 14.269531 L 4.171875 15.6875 C 3.78125 15.621094 3.421875 15.515625 3.089844 15.382812 C 2.648438 15.203125 2.257812 14.976562 1.914062 14.695312 C 1.585938 14.429688 1.300781 14.128906 1.054688 13.800781 C 0.410156 12.929688 0.0585938 11.867188 0.0507812 10.804688 C 0.0429688 9.734375 0.386719 8.667969 1.125 7.804688 C 1.363281 7.523438 1.644531 7.265625 1.96875 7.039062 C 2.34375 6.773438 2.773438 6.550781 3.261719 6.367188 C 3.59375 6.238281 3.953125 6.132812 4.328125 6.046875 C 4.757812 4.394531 5.667969 3.117188 6.84375 2.234375 C 7.9375 1.40625 9.261719 0.925781 10.621094 0.796875 C 11.332031 0.730469 12.054688 0.761719 12.765625 0.890625 C 12.75 0.953125 12.734375 1.015625 12.726562 1.078125 L 12.726562 1.089844 C 12.710938 1.199219 12.707031 1.308594 12.710938 1.417969 C 12.5625 1.472656 12.421875 1.550781 12.296875 1.644531 L 12.289062 1.648438 C 12.101562 1.789062 11.941406 1.964844 11.824219 2.171875 Z M 22.113281 5.804688 C 22.222656 5.902344 22.328125 6.003906 22.429688 6.109375 C 22.636719 6.328125 22.835938 6.574219 23.019531 6.851562 C 23.640625 7.78125 23.960938 9.027344 23.945312 10.242188 C 23.933594 11.4375 23.601562 12.628906 22.925781 13.503906 C 22.484375 14.074219 21.917969 14.539062 21.238281 14.90625 C 20.773438 15.160156 20.25 15.371094 19.683594 15.542969 L 19.683594 14.074219 C 19.988281 13.960938 20.273438 13.835938 20.539062 13.695312 C 21.050781 13.417969 21.46875 13.078125 21.78125 12.671875 C 22.265625 12.039062 22.503906 11.148438 22.515625 10.234375 C 22.527344 9.273438 22.285156 8.308594 21.816406 7.609375 C 21.683594 7.40625 21.535156 7.226562 21.378906 7.0625 C 21.320312 7 21.257812 6.941406 21.195312 6.882812 C 21.207031 6.789062 21.210938 6.691406 21.203125 6.597656 C 21.355469 6.539062 21.496094 6.460938 21.621094 6.367188 L 21.625 6.363281 C 21.828125 6.214844 21.996094 6.023438 22.113281 5.804688 Z M 17.179688 2.425781 C 18.078125 2.542969 18.703125 3.347656 18.582031 4.222656 C 18.457031 5.09375 17.632812 5.707031 16.734375 5.585938 C 15.839844 5.46875 15.210938 4.664062 15.335938 3.789062 C 15.460938 2.917969 16.285156 2.304688 17.179688 2.425781 Z M 17.179688 2.425781 "/>
</g>
</svg>
