<?xml version="1.0" encoding="UTF-8"?>
<svg xmlns="http://www.w3.org/2000/svg" xmlns:xlink="http://www.w3.org/1999/xlink" width="24px" height="24px" viewBox="0 0 24 24" version="1.1">
<g id="surface1">
<path style=" stroke:none;fill-rule:nonzero;fill:rgb(95.686275%,94.901961%,92.941177%);fill-opacity:1;" d="M 5.625 0 L 18.375 0 C 21.480469 0 24 2.519531 24 5.625 L 24 18.375 C 24 21.480469 21.480469 24 18.375 24 L 5.625 24 C 2.519531 24 0 21.480469 0 18.375 L 0 5.625 C 0 2.519531 2.519531 0 5.625 0 Z M 5.625 0 "/>
<path style=" stroke:none;fill-rule:nonzero;fill:rgb(14.509805%,18.431373%,24.313726%);fill-opacity:1;" d="M 7.945312 10.496094 C 7.945312 10.722656 7.96875 10.910156 8.011719 11.046875 C 8.066406 11.199219 8.132812 11.347656 8.210938 11.488281 C 8.242188 11.539062 8.253906 11.589844 8.253906 11.632812 C 8.253906 11.691406 8.214844 11.753906 8.136719 11.816406 L 7.746094 12.074219 C 7.691406 12.113281 7.636719 12.128906 7.585938 12.128906 C 7.527344 12.128906 7.464844 12.101562 7.402344 12.042969 C 7.320312 11.957031 7.246094 11.859375 7.179688 11.753906 C 7.109375 11.636719 7.046875 11.515625 6.988281 11.390625 C 6.507812 11.957031 5.902344 12.242188 5.175781 12.242188 C 4.65625 12.242188 4.246094 12.09375 3.941406 11.796875 C 3.640625 11.5 3.484375 11.105469 3.484375 10.613281 C 3.484375 10.089844 3.671875 9.664062 4.046875 9.34375 C 4.421875 9.023438 4.921875 8.863281 5.558594 8.863281 C 5.769531 8.863281 5.984375 8.878906 6.210938 8.910156 C 6.441406 8.941406 6.675781 8.992188 6.921875 9.046875 L 6.921875 8.597656 C 6.921875 8.128906 6.824219 7.800781 6.632812 7.609375 C 6.433594 7.417969 6.101562 7.324219 5.625 7.324219 C 5.410156 7.324219 5.1875 7.351562 4.960938 7.40625 C 4.730469 7.460938 4.507812 7.53125 4.292969 7.617188 C 4.222656 7.648438 4.152344 7.675781 4.078125 7.695312 C 4.035156 7.707031 4.003906 7.714844 3.980469 7.714844 C 3.894531 7.714844 3.847656 7.652344 3.847656 7.523438 L 3.847656 7.222656 C 3.847656 7.121094 3.863281 7.046875 3.894531 7.003906 C 3.921875 6.960938 3.980469 6.917969 4.066406 6.875 C 4.28125 6.765625 4.539062 6.671875 4.84375 6.597656 C 5.144531 6.519531 5.464844 6.480469 5.804688 6.480469 C 6.539062 6.480469 7.074219 6.648438 7.421875 6.980469 C 7.761719 7.3125 7.933594 7.820312 7.933594 8.496094 L 7.933594 10.496094 Z M 5.441406 11.433594 C 5.644531 11.433594 5.855469 11.398438 6.074219 11.324219 C 6.296875 11.25 6.496094 11.113281 6.660156 10.929688 C 6.761719 10.8125 6.835938 10.679688 6.871094 10.535156 C 6.910156 10.386719 6.933594 10.207031 6.933594 9.996094 L 6.933594 9.738281 C 6.746094 9.691406 6.558594 9.65625 6.367188 9.632812 C 6.171875 9.609375 5.980469 9.597656 5.785156 9.597656 C 5.371094 9.597656 5.070312 9.675781 4.867188 9.84375 C 4.664062 10.007812 4.566406 10.242188 4.566406 10.550781 C 4.566406 10.839844 4.640625 11.058594 4.792969 11.207031 C 4.941406 11.359375 5.15625 11.433594 5.441406 11.433594 M 10.394531 12.101562 C 10.28125 12.101562 10.207031 12.082031 10.160156 12.039062 C 10.109375 12 10.066406 11.914062 10.03125 11.796875 L 8.582031 7.03125 C 8.542969 6.90625 8.523438 6.828125 8.523438 6.785156 C 8.523438 6.683594 8.574219 6.628906 8.671875 6.628906 L 9.277344 6.628906 C 9.394531 6.628906 9.472656 6.648438 9.515625 6.691406 C 9.566406 6.726562 9.605469 6.8125 9.640625 6.929688 L 10.675781 11.015625 L 11.640625 6.929688 C 11.671875 6.808594 11.707031 6.726562 11.757812 6.691406 C 11.804688 6.652344 11.890625 6.628906 12.003906 6.628906 L 12.496094 6.628906 C 12.613281 6.628906 12.695312 6.648438 12.742188 6.691406 C 12.792969 6.726562 12.835938 6.8125 12.859375 6.929688 L 13.835938 11.0625 L 14.902344 6.929688 C 14.9375 6.808594 14.980469 6.726562 15.023438 6.691406 C 15.074219 6.652344 15.15625 6.628906 15.265625 6.628906 L 15.839844 6.628906 C 15.9375 6.628906 15.992188 6.679688 15.992188 6.785156 C 15.992188 6.8125 15.988281 6.84375 15.980469 6.882812 C 15.976562 6.917969 15.960938 6.96875 15.9375 7.035156 L 14.453125 11.804688 C 14.414062 11.925781 14.371094 12.007812 14.320312 12.042969 C 14.273438 12.082031 14.191406 12.105469 14.085938 12.105469 L 13.558594 12.105469 C 13.441406 12.105469 13.359375 12.085938 13.3125 12.042969 C 13.261719 12 13.21875 11.921875 13.195312 11.796875 L 12.238281 7.820312 L 11.289062 11.792969 C 11.257812 11.914062 11.21875 11.996094 11.171875 12.039062 C 11.121094 12.082031 11.035156 12.101562 10.921875 12.101562 Z M 18.320312 12.265625 C 18 12.265625 17.675781 12.230469 17.367188 12.15625 C 17.0625 12.082031 16.820312 12 16.660156 11.910156 C 16.5625 11.851562 16.492188 11.792969 16.46875 11.734375 C 16.445312 11.679688 16.433594 11.621094 16.429688 11.5625 L 16.429688 11.25 C 16.429688 11.121094 16.480469 11.058594 16.574219 11.058594 C 16.609375 11.058594 16.648438 11.0625 16.683594 11.074219 C 16.722656 11.089844 16.777344 11.113281 16.839844 11.136719 C 17.054688 11.234375 17.285156 11.304688 17.515625 11.355469 C 17.757812 11.402344 18.003906 11.425781 18.25 11.425781 C 18.640625 11.425781 18.941406 11.359375 19.152344 11.222656 C 19.359375 11.089844 19.472656 10.890625 19.472656 10.636719 C 19.472656 10.464844 19.417969 10.324219 19.304688 10.207031 C 19.195312 10.089844 18.984375 9.984375 18.683594 9.886719 L 17.789062 9.609375 C 17.339844 9.464844 17.003906 9.257812 16.800781 8.980469 C 16.597656 8.707031 16.492188 8.40625 16.492188 8.085938 C 16.492188 7.824219 16.546875 7.597656 16.660156 7.398438 C 16.769531 7.203125 16.917969 7.03125 17.105469 6.894531 C 17.289062 6.753906 17.5 6.648438 17.746094 6.574219 C 17.992188 6.5 18.25 6.46875 18.523438 6.46875 C 18.65625 6.46875 18.800781 6.476562 18.9375 6.492188 C 19.078125 6.511719 19.207031 6.535156 19.335938 6.5625 C 19.460938 6.59375 19.578125 6.621094 19.6875 6.660156 C 19.800781 6.695312 19.886719 6.734375 19.945312 6.769531 C 20.035156 6.820312 20.09375 6.871094 20.132812 6.925781 C 20.167969 6.972656 20.1875 7.042969 20.1875 7.128906 L 20.1875 7.417969 C 20.1875 7.546875 20.136719 7.617188 20.046875 7.617188 C 19.996094 7.617188 19.917969 7.589844 19.8125 7.542969 C 19.460938 7.382812 19.066406 7.300781 18.628906 7.300781 C 18.277344 7.300781 18 7.355469 17.808594 7.472656 C 17.617188 7.589844 17.515625 7.769531 17.515625 8.023438 C 17.515625 8.195312 17.578125 8.34375 17.703125 8.460938 C 17.824219 8.578125 18.054688 8.695312 18.378906 8.800781 L 19.257812 9.078125 C 19.699219 9.21875 20.019531 9.417969 20.210938 9.667969 C 20.402344 9.921875 20.496094 10.210938 20.496094 10.535156 C 20.496094 10.796875 20.441406 11.039062 20.335938 11.25 C 20.226562 11.457031 20.078125 11.644531 19.886719 11.792969 C 19.695312 11.945312 19.464844 12.058594 19.199219 12.136719 C 18.921875 12.222656 18.632812 12.265625 18.320312 12.265625 "/>
<path style=" stroke:none;fill-rule:evenodd;fill:rgb(100%,60.000002%,0%);fill-opacity:1;" d="M 19.484375 15.265625 C 17.457031 16.761719 14.507812 17.558594 11.972656 17.558594 C 8.417969 17.558594 5.21875 16.246094 2.800781 14.0625 C 2.609375 13.886719 2.78125 13.652344 3.011719 13.789062 C 5.625 15.308594 8.851562 16.226562 12.1875 16.226562 C 14.441406 16.226562 16.914062 15.757812 19.1875 14.796875 C 19.527344 14.640625 19.816406 15.015625 19.484375 15.265625 "/>
<path style=" stroke:none;fill-rule:evenodd;fill:rgb(100%,60.000002%,0%);fill-opacity:1;" d="M 20.328125 14.300781 C 20.070312 13.96875 18.613281 14.140625 17.957031 14.222656 C 17.757812 14.246094 17.726562 14.074219 17.90625 13.945312 C 19.066406 13.128906 20.972656 13.363281 21.191406 13.636719 C 21.414062 13.914062 21.132812 15.820312 20.046875 16.730469 C 19.878906 16.875 19.71875 16.800781 19.792969 16.613281 C 20.039062 16.003906 20.589844 14.628906 20.328125 14.300781 "/>
</g>
</svg>
