<?xml version="1.0" encoding="UTF-8"?>
<svg xmlns="http://www.w3.org/2000/svg" xmlns:xlink="http://www.w3.org/1999/xlink" width="24px" height="24px" viewBox="0 0 24 24" version="1.1">
<defs>
<linearGradient id="linear0" gradientUnits="userSpaceOnUse" x1="9.908" y1="15.943" x2="7.516" y2="2.383" gradientTransform="matrix(1.333333,0,0,1.333333,0,0)">
<stop offset="0.15" style="stop-color:rgb(0%,47.058824%,83.137255%);stop-opacity:1;"/>
<stop offset="0.8" style="stop-color:rgb(36.862745%,62.745098%,93.72549%);stop-opacity:1;"/>
<stop offset="1" style="stop-color:rgb(51.372549%,72.54902%,97.647059%);stop-opacity:1;"/>
</linearGradient>
</defs>
<g id="surface1">
<path style=" stroke:none;fill-rule:nonzero;fill:url(#linear0);" d="M 19.320312 9.535156 C 19.203125 5.773438 16.082031 2.808594 12.320312 2.886719 C 9.324219 2.851562 6.632812 4.71875 5.621094 7.539062 C 2.441406 7.96875 0.0507812 10.65625 0 13.867188 C 0.0976562 17.503906 3.121094 20.375 6.757812 20.285156 L 18.425781 20.285156 C 21.425781 20.210938 23.859375 17.832031 24 14.835938 C 23.945312 12.164062 21.964844 9.921875 19.320312 9.535156 Z M 19.320312 9.535156 "/>
<path style=" stroke:none;fill-rule:nonzero;fill:rgb(94.901961%,94.901961%,94.901961%);fill-opacity:1;" d="M 17.199219 15.199219 L 17.199219 10.667969 L 16 10.667969 L 16 16.171875 L 19.28125 16.171875 L 19.28125 15.199219 Z M 7.679688 12.972656 C 7.433594 12.875 7.203125 12.734375 7 12.558594 C 6.890625 12.445312 6.832031 12.292969 6.839844 12.132812 C 7.203125 11.621094 7.402344 11.5625 7.601562 11.574219 C 8.074219 11.550781 8.542969 11.6875 8.933594 11.960938 L 8.933594 10.8125 C 8.507812 10.65625 8.054688 10.582031 7.601562 10.601562 C 7.078125 10.574219 6.5625 10.734375 6.148438 11.054688 C 5.78125 11.335938 5.570312 11.777344 5.585938 12.238281 C 5.585938 12.921875 6.011719 13.453125 6.921875 13.851562 C 7.214844 13.980469 7.492188 14.140625 7.746094 14.332031 C 7.871094 14.4375 7.945312 14.59375 7.945312 14.761719 C 7.945312 14.925781 7.867188 15.078125 7.734375 15.171875 C 7.550781 15.28125 7.34375 15.332031 7.132812 15.320312 C 6.597656 15.316406 6.082031 15.117188 5.679688 14.761719 L 5.679688 16 C 6.121094 16.226562 6.613281 16.335938 7.105469 16.320312 C 7.664062 16.351562 8.21875 16.199219 8.679688 15.878906 C 9.011719 15.566406 9.171875 15.117188 9.121094 14.667969 C 9.125 14.324219 9.007812 13.992188 8.785156 13.734375 C 8.476562 13.40625 8.097656 13.144531 7.679688 12.972656 Z M 14.667969 15.09375 C 15.257812 14.148438 15.257812 12.945312 14.667969 12 C 14.457031 11.582031 14.132812 11.234375 13.734375 11 C 13.328125 10.769531 12.867188 10.648438 12.398438 10.652344 C 11.894531 10.640625 11.398438 10.765625 10.960938 11.011719 C 10.546875 11.242188 10.210938 11.585938 9.988281 12 C 9.75 12.472656 9.632812 12.992188 9.640625 13.519531 C 9.644531 13.984375 9.753906 14.4375 9.960938 14.851562 C 10.164062 15.265625 10.484375 15.609375 10.878906 15.839844 C 11.28125 16.085938 11.742188 16.222656 12.214844 16.238281 L 13.359375 17.574219 L 14.972656 17.574219 L 13.332031 16.105469 C 13.886719 15.941406 14.359375 15.582031 14.667969 15.09375 Z M 13.332031 14.761719 C 13.085938 15.066406 12.710938 15.238281 12.320312 15.226562 C 11.925781 15.242188 11.546875 15.0625 11.308594 14.746094 C 11.023438 14.363281 10.886719 13.890625 10.921875 13.414062 C 10.890625 12.9375 11.027344 12.464844 11.308594 12.078125 C 11.5625 11.765625 11.941406 11.585938 12.347656 11.585938 C 12.742188 11.570312 13.121094 11.753906 13.347656 12.078125 C 13.609375 12.472656 13.734375 12.941406 13.707031 13.414062 C 13.753906 13.894531 13.621094 14.371094 13.332031 14.761719 Z M 13.332031 14.761719 "/>
</g>
</svg>
