<?xml version="1.0" encoding="UTF-8"?>
<svg xmlns="http://www.w3.org/2000/svg" xmlns:xlink="http://www.w3.org/1999/xlink" width="24px" height="24px" viewBox="0 0 24 24" version="1.1">
<defs>
<linearGradient id="linear0" gradientUnits="userSpaceOnUse" x1="60.918999" y1="9.602" x2="18.667" y2="134.423004" gradientTransform="matrix(0.17232,0,0,0.17232,0.110063,0.83775)">
<stop offset="0" style="stop-color:rgb(6.666667%,29.019608%,54.509804%);stop-opacity:1;"/>
<stop offset="1" style="stop-color:rgb(2.352941%,41.176471%,73.72549%);stop-opacity:1;"/>
</linearGradient>
<linearGradient id="linear1" gradientUnits="userSpaceOnUse" x1="74.116997" y1="67.772003" x2="64.344002" y2="71.075996" gradientTransform="matrix(0.17232,0,0,0.17232,0.110063,0.83775)">
<stop offset="0" style="stop-color:rgb(0%,0%,0%);stop-opacity:0.301961;"/>
<stop offset="0.071" style="stop-color:rgb(0%,0%,0%);stop-opacity:0.2;"/>
<stop offset="0.321" style="stop-color:rgb(0%,0%,0%);stop-opacity:0.101961;"/>
<stop offset="0.623" style="stop-color:rgb(0%,0%,0%);stop-opacity:0.0509804;"/>
<stop offset="1" style="stop-color:rgb(0%,0%,0%);stop-opacity:0;"/>
</linearGradient>
<linearGradient id="linear2" gradientUnits="userSpaceOnUse" x1="68.741997" y1="5.961" x2="115.122002" y2="129.524994" gradientTransform="matrix(0.17232,0,0,0.17232,0.110063,0.83775)">
<stop offset="0" style="stop-color:rgb(23.529412%,79.607843%,95.686275%);stop-opacity:1;"/>
<stop offset="1" style="stop-color:rgb(15.686275%,57.254902%,87.45098%);stop-opacity:1;"/>
</linearGradient>
</defs>
<g id="surface1">
<path style=" stroke:none;fill-rule:nonzero;fill:url(#linear0);" d="M 8.050781 0.839844 L 15.0625 0.839844 L 7.785156 22.402344 C 7.632812 22.855469 7.207031 23.160156 6.726562 23.160156 L 1.269531 23.160156 C 0.910156 23.160156 0.574219 22.988281 0.363281 22.695312 C 0.152344 22.40625 0.0976562 22.03125 0.210938 21.6875 L 6.992188 1.597656 C 7.148438 1.144531 7.574219 0.839844 8.050781 0.835938 Z M 8.050781 0.839844 "/>
<path style=" stroke:none;fill-rule:nonzero;fill:rgb(0%,47.058824%,83.137256%);fill-opacity:1;" d="M 18.238281 15.300781 L 7.121094 15.300781 C 6.910156 15.300781 6.722656 15.429688 6.644531 15.625 C 6.566406 15.824219 6.617188 16.046875 6.769531 16.191406 L 13.914062 22.859375 C 14.121094 23.054688 14.398438 23.160156 14.679688 23.160156 L 20.976562 23.160156 Z M 18.238281 15.300781 "/>
<path style=" stroke:none;fill-rule:nonzero;fill:url(#linear1);" d="M 8.050781 0.839844 C 7.566406 0.835938 7.136719 1.148438 6.992188 1.613281 L 0.222656 21.671875 C 0.0976562 22.011719 0.148438 22.394531 0.359375 22.691406 C 0.570312 22.988281 0.910156 23.164062 1.273438 23.160156 L 6.871094 23.160156 C 7.292969 23.085938 7.644531 22.789062 7.789062 22.382812 L 9.136719 18.402344 L 13.960938 22.898438 C 14.164062 23.066406 14.417969 23.160156 14.679688 23.160156 L 20.949219 23.160156 L 18.199219 15.300781 L 10.179688 15.304688 L 15.089844 0.839844 Z M 8.050781 0.839844 "/>
<path style=" stroke:none;fill-rule:nonzero;fill:url(#linear2);" d="M 17.007812 1.597656 C 16.855469 1.144531 16.429688 0.839844 15.949219 0.839844 L 8.136719 0.839844 C 8.613281 0.839844 9.039062 1.144531 9.195312 1.597656 L 15.972656 21.6875 C 16.089844 22.03125 16.035156 22.40625 15.824219 22.695312 C 15.613281 22.988281 15.277344 23.164062 14.917969 23.164062 L 22.730469 23.164062 C 23.089844 23.160156 23.425781 22.988281 23.636719 22.695312 C 23.847656 22.40625 23.902344 22.03125 23.789062 21.6875 Z M 17.007812 1.597656 "/>
</g>
</svg>
