<?xml version="1.0" encoding="UTF-8"?>
<svg xmlns="http://www.w3.org/2000/svg" xmlns:xlink="http://www.w3.org/1999/xlink" width="24px" height="24px" viewBox="0 0 24 24" version="1.1">
<g id="surface1">
<path style=" stroke:none;fill-rule:nonzero;fill:rgb(100%,100%,100%);fill-opacity:1;" d="M 20.996094 4.890625 L 13.4375 0.402344 C 12.539062 -0.132812 11.417969 -0.132812 10.519531 0.402344 L 2.957031 4.890625 C 2.046875 5.4375 1.496094 6.425781 1.5 7.488281 L 1.5 16.460938 C 1.496094 17.523438 2.046875 18.511719 2.957031 19.058594 L 10.515625 23.546875 C 11.417969 24.082031 12.535156 24.082031 13.433594 23.546875 L 20.992188 19.058594 C 21.902344 18.511719 22.457031 17.523438 22.453125 16.460938 L 22.453125 7.488281 C 22.457031 6.425781 21.90625 5.4375 20.996094 4.890625 Z M 20.996094 4.890625 "/>
<path style=" stroke:none;fill-rule:nonzero;fill:rgb(18.431373%,22.745098%,24.313726%);fill-opacity:1;" d="M 21.039062 4.902344 L 13.460938 0.402344 C 12.5625 -0.132812 11.4375 -0.132812 10.539062 0.402344 L 2.960938 4.902344 C 2.050781 5.449219 1.496094 6.441406 1.5 7.503906 L 1.5 16.5 C 1.496094 17.5625 2.050781 18.550781 2.960938 19.101562 L 10.539062 23.597656 C 11.4375 24.132812 12.558594 24.132812 13.460938 23.597656 L 21.035156 19.101562 C 21.949219 18.550781 22.503906 17.5625 22.5 16.496094 L 22.5 7.503906 C 22.503906 6.441406 21.949219 5.449219 21.039062 4.902344 Z M 10.804688 23.136719 L 3.226562 18.640625 C 2.476562 18.1875 2.023438 17.375 2.023438 16.5 L 2.023438 7.503906 C 2.023438 6.628906 2.476562 5.816406 3.226562 5.363281 L 10.804688 0.863281 C 11.539062 0.425781 12.460938 0.425781 13.195312 0.863281 L 20.765625 5.363281 C 21.390625 5.738281 21.816406 6.375 21.929688 7.09375 C 21.679688 6.558594 21.113281 6.410156 20.453125 6.792969 L 13.289062 11.226562 C 12.398438 11.746094 11.738281 12.335938 11.738281 13.410156 L 11.738281 22.246094 C 11.738281 22.890625 11.996094 23.304688 12.398438 23.429688 C 12.265625 23.453125 12.132812 23.464844 12 23.46875 C 11.578125 23.464844 11.164062 23.351562 10.804688 23.136719 Z M 10.804688 23.136719 "/>
<path style=" stroke:none;fill-rule:nonzero;fill:rgb(22.745098%,69.411767%,29.019609%);fill-opacity:1;" d="M 19.03125 17.347656 L 17.148438 18.476562 C 17.097656 18.496094 17.066406 18.542969 17.0625 18.597656 L 17.0625 19.09375 C 17.0625 19.152344 17.101562 19.179688 17.152344 19.148438 L 19.066406 17.988281 C 19.113281 17.953125 19.132812 17.894531 19.121094 17.835938 L 19.121094 17.402344 C 19.121094 17.34375 19.078125 17.320312 19.03125 17.347656 Z M 19.03125 17.347656 "/>
<path style=" stroke:none;fill-rule:nonzero;fill:rgb(100%,100%,100%);fill-opacity:1;" d="M 15.023438 13.203125 C 15.085938 13.171875 15.136719 13.203125 15.136719 13.289062 L 15.144531 13.945312 C 15.371094 13.84375 15.621094 13.8125 15.867188 13.859375 C 15.914062 13.871094 15.933594 13.933594 15.914062 14.011719 L 15.769531 14.585938 C 15.761719 14.628906 15.738281 14.667969 15.707031 14.703125 C 15.695312 14.710938 15.683594 14.722656 15.667969 14.730469 C 15.652344 14.738281 15.632812 14.742188 15.613281 14.738281 C 15.375 14.683594 15.125 14.726562 14.914062 14.851562 C 14.605469 14.988281 14.40625 15.289062 14.398438 15.625 C 14.398438 15.929688 14.550781 16.011719 15.078125 16.023438 C 15.777344 16.035156 16.078125 16.339844 16.085938 17.042969 C 16.070312 17.777344 15.730469 18.46875 15.160156 18.929688 L 15.171875 19.574219 C 15.171875 19.65625 15.128906 19.730469 15.0625 19.769531 L 14.679688 19.992188 C 14.617188 20.019531 14.570312 19.992188 14.566406 19.90625 L 14.566406 19.273438 C 14.242188 19.40625 13.910156 19.441406 13.695312 19.355469 C 13.65625 19.339844 13.640625 19.28125 13.65625 19.210938 L 13.792969 18.628906 C 13.804688 18.582031 13.828125 18.542969 13.863281 18.507812 C 13.871094 18.5 13.886719 18.488281 13.898438 18.484375 C 13.917969 18.472656 13.941406 18.472656 13.960938 18.484375 C 14.230469 18.554688 14.519531 18.519531 14.761719 18.382812 C 15.113281 18.210938 15.339844 17.863281 15.351562 17.472656 C 15.351562 17.144531 15.171875 17.011719 14.746094 17.007812 C 14.199219 17.007812 13.6875 16.902344 13.675781 16.097656 C 13.691406 15.398438 14.015625 14.738281 14.566406 14.304688 L 14.539062 13.644531 C 14.535156 13.5625 14.578125 13.488281 14.648438 13.445312 Z M 15.023438 13.203125 "/>
</g>
</svg>
