<?xml version="1.0" encoding="UTF-8"?>
<svg xmlns="http://www.w3.org/2000/svg" xmlns:xlink="http://www.w3.org/1999/xlink" width="24px" height="24px" viewBox="0 0 24 24" version="1.1">
<g id="surface1">
<path style=" stroke:none;fill-rule:nonzero;fill:rgb(26.666668%,26.666668%,27.058825%);fill-opacity:1;" d="M 18.71875 19.679688 L 5.28125 19.679688 C 4.75 19.679688 4.320312 19.25 4.320312 18.71875 L 4.320312 5.28125 C 4.320312 4.75 4.75 4.320312 5.28125 4.320312 L 18.71875 4.320312 C 19.25 4.320312 19.679688 4.75 19.679688 5.28125 L 19.679688 18.71875 C 19.679688 19.25 19.25 19.679688 18.71875 19.679688 Z M 18.71875 19.679688 "/>
<path style=" stroke:none;fill-rule:nonzero;fill:rgb(89.019608%,88.627452%,89.019608%);fill-opacity:1;" d="M 10.558594 11.769531 C 10.558594 11.769531 11.398438 11.226562 11.398438 10.386719 C 11.398438 9.449219 10.71875 8.519531 9.164062 8.519531 L 6.121094 8.519531 L 6.121094 15.480469 L 9.441406 15.480469 C 10.84375 15.480469 11.878906 14.703125 11.878906 13.605469 C 11.878906 12.269531 10.558594 11.769531 10.558594 11.769531 Z M 9.042969 9.71875 C 9.738281 9.71875 10.199219 10.097656 10.199219 10.558594 C 10.199219 11.023438 9.738281 11.398438 9.042969 11.398438 L 7.320312 11.398438 L 7.320312 9.71875 Z M 9.339844 14.28125 L 7.320312 14.28125 L 7.320312 12.601562 L 9.339844 12.601562 C 9.976562 12.601562 10.441406 12.976562 10.441406 13.441406 C 10.441406 13.902344 9.976562 14.28125 9.339844 14.28125 Z M 9.339844 14.28125 "/>
<path style=" stroke:none;fill-rule:nonzero;fill:rgb(89.019608%,88.627452%,89.019608%);fill-opacity:1;" d="M 15.421875 10.199219 C 14.21875 10.199219 13.558594 11.160156 13.558594 11.160156 L 13.558594 8.519531 L 12.359375 8.519531 L 12.359375 15.480469 L 13.558594 15.480469 L 13.558594 14.519531 C 13.558594 14.519531 14.21875 15.480469 15.421875 15.480469 C 16.859375 15.480469 17.878906 14.398438 17.878906 12.839844 C 17.878906 11.28125 16.859375 10.199219 15.421875 10.199219 Z M 15.238281 14.519531 C 14.445312 14.519531 13.800781 13.769531 13.800781 12.839844 C 13.800781 11.914062 14.445312 11.160156 15.238281 11.160156 C 16.035156 11.160156 16.679688 11.914062 16.679688 12.839844 C 16.679688 13.769531 16.035156 14.519531 15.238281 14.519531 Z M 15.238281 14.519531 "/>
<path style=" stroke:none;fill-rule:nonzero;fill:rgb(12.156863%,12.941177%,16.862746%);fill-opacity:1;" d="M 9.441406 15.601562 L 6.121094 15.601562 C 6.054688 15.601562 6 15.546875 6 15.480469 L 6 8.519531 C 6 8.453125 6.054688 8.398438 6.121094 8.398438 L 9.164062 8.398438 C 10.792969 8.398438 11.519531 9.398438 11.519531 10.386719 C 11.519531 11.050781 11.046875 11.53125 10.789062 11.746094 C 11.167969 11.953125 12 12.519531 12 13.605469 C 12 14.761719 10.925781 15.601562 9.441406 15.601562 Z M 6.238281 15.359375 L 9.441406 15.359375 C 10.785156 15.359375 11.761719 14.621094 11.761719 13.605469 C 11.761719 12.371094 10.566406 11.902344 10.515625 11.882812 C 10.472656 11.867188 10.441406 11.828125 10.4375 11.78125 C 10.433594 11.738281 10.453125 11.695312 10.492188 11.667969 C 10.5 11.664062 11.28125 11.152344 11.28125 10.386719 C 11.28125 9.582031 10.726562 8.640625 9.164062 8.640625 L 6.238281 8.640625 Z M 9.339844 14.398438 L 7.320312 14.398438 C 7.253906 14.398438 7.199219 14.347656 7.199219 14.28125 L 7.199219 12.601562 C 7.199219 12.535156 7.253906 12.480469 7.320312 12.480469 L 9.339844 12.480469 C 10.035156 12.480469 10.558594 12.894531 10.558594 13.441406 C 10.558594 13.988281 10.035156 14.398438 9.339844 14.398438 Z M 7.441406 14.160156 L 9.339844 14.160156 C 9.890625 14.160156 10.320312 13.84375 10.320312 13.441406 C 10.320312 13.035156 9.890625 12.71875 9.339844 12.71875 L 7.441406 12.71875 Z M 9.042969 11.519531 L 7.320312 11.519531 C 7.253906 11.519531 7.199219 11.464844 7.199219 11.398438 L 7.199219 9.71875 C 7.199219 9.652344 7.253906 9.601562 7.320312 9.601562 L 9.042969 9.601562 C 9.785156 9.601562 10.320312 10.003906 10.320312 10.558594 C 10.320312 11.117188 9.785156 11.519531 9.042969 11.519531 Z M 7.441406 11.28125 L 9.042969 11.28125 C 9.644531 11.28125 10.078125 10.976562 10.078125 10.558594 C 10.078125 10.144531 9.644531 9.839844 9.042969 9.839844 L 7.441406 9.839844 Z M 7.441406 11.28125 "/>
<path style=" stroke:none;fill-rule:nonzero;fill:rgb(12.156863%,12.941177%,16.862746%);fill-opacity:1;" d="M 15.421875 15.601562 C 14.566406 15.601562 13.976562 15.144531 13.679688 14.84375 L 13.679688 15.480469 C 13.679688 15.546875 13.625 15.601562 13.558594 15.601562 L 12.359375 15.601562 C 12.292969 15.601562 12.238281 15.546875 12.238281 15.480469 L 12.238281 8.519531 C 12.238281 8.453125 12.292969 8.398438 12.359375 8.398438 L 13.558594 8.398438 C 13.625 8.398438 13.679688 8.453125 13.679688 8.519531 L 13.679688 10.835938 C 13.976562 10.535156 14.566406 10.078125 15.421875 10.078125 C 16.9375 10.078125 18 11.214844 18 12.839844 C 18 14.464844 16.9375 15.601562 15.421875 15.601562 Z M 13.558594 14.398438 C 13.597656 14.398438 13.636719 14.417969 13.660156 14.453125 C 13.664062 14.460938 14.300781 15.359375 15.421875 15.359375 C 16.796875 15.359375 17.761719 14.324219 17.761719 12.839844 C 17.761719 11.355469 16.796875 10.320312 15.421875 10.320312 C 14.300781 10.320312 13.664062 11.21875 13.660156 11.226562 C 13.628906 11.269531 13.574219 11.289062 13.523438 11.273438 C 13.472656 11.257812 13.441406 11.210938 13.441406 11.160156 L 13.441406 8.640625 L 12.480469 8.640625 L 12.480469 15.359375 L 13.441406 15.359375 L 13.441406 14.519531 C 13.441406 14.46875 13.472656 14.421875 13.523438 14.40625 C 13.535156 14.402344 13.546875 14.398438 13.558594 14.398438 Z M 15.238281 14.640625 C 14.378906 14.640625 13.679688 13.832031 13.679688 12.839844 C 13.679688 11.847656 14.378906 11.039062 15.238281 11.039062 C 16.101562 11.039062 16.800781 11.847656 16.800781 12.839844 C 16.800781 13.832031 16.101562 14.640625 15.238281 14.640625 Z M 15.238281 11.28125 C 14.511719 11.28125 13.921875 11.980469 13.921875 12.839844 C 13.921875 13.699219 14.511719 14.398438 15.238281 14.398438 C 15.96875 14.398438 16.558594 13.699219 16.558594 12.839844 C 16.558594 11.980469 15.96875 11.28125 15.238281 11.28125 Z M 15.238281 11.28125 "/>
<path style=" stroke:none;fill-rule:nonzero;fill:rgb(12.156863%,12.941177%,16.862746%);fill-opacity:1;" d="M 18.71875 19.921875 L 5.28125 19.921875 C 4.617188 19.921875 4.078125 19.382812 4.078125 18.71875 L 4.078125 5.28125 C 4.078125 4.617188 4.617188 4.078125 5.28125 4.078125 L 18.71875 4.078125 C 19.382812 4.078125 19.921875 4.617188 19.921875 5.28125 L 19.921875 18.71875 C 19.921875 19.382812 19.382812 19.921875 18.71875 19.921875 Z M 5.28125 4.558594 C 4.882812 4.558594 4.558594 4.882812 4.558594 5.28125 L 4.558594 18.71875 C 4.558594 19.117188 4.882812 19.441406 5.28125 19.441406 L 18.71875 19.441406 C 19.117188 19.441406 19.441406 19.117188 19.441406 18.71875 L 19.441406 5.28125 C 19.441406 4.882812 19.117188 4.558594 18.71875 4.558594 Z M 5.28125 4.558594 "/>
<path style=" stroke:none;fill-rule:nonzero;fill:rgb(12.156863%,12.941177%,16.862746%);fill-opacity:1;" d="M 15.71875 18.71875 L 5.398438 18.71875 C 5.332031 18.71875 5.28125 18.667969 5.28125 18.601562 C 5.28125 18.535156 5.332031 18.480469 5.398438 18.480469 L 15.71875 18.480469 C 15.785156 18.480469 15.839844 18.535156 15.839844 18.601562 C 15.839844 18.667969 15.785156 18.71875 15.71875 18.71875 Z M 15.71875 18.71875 "/>
<path style=" stroke:none;fill-rule:nonzero;fill:rgb(12.156863%,12.941177%,16.862746%);fill-opacity:1;" d="M 7.558594 5.519531 L 5.398438 5.519531 C 5.332031 5.519531 5.28125 5.464844 5.28125 5.398438 C 5.28125 5.332031 5.332031 5.28125 5.398438 5.28125 L 7.558594 5.28125 C 7.625 5.28125 7.679688 5.332031 7.679688 5.398438 C 7.679688 5.464844 7.625 5.519531 7.558594 5.519531 Z M 7.558594 5.519531 "/>
<path style=" stroke:none;fill-rule:nonzero;fill:rgb(12.156863%,12.941177%,16.862746%);fill-opacity:1;" d="M 18.601562 5.519531 L 8.761719 5.519531 C 8.695312 5.519531 8.640625 5.464844 8.640625 5.398438 C 8.640625 5.332031 8.695312 5.28125 8.761719 5.28125 L 18.601562 5.28125 C 18.667969 5.28125 18.71875 5.332031 18.71875 5.398438 C 18.71875 5.464844 18.667969 5.519531 18.601562 5.519531 Z M 18.601562 5.519531 "/>
<path style=" stroke:none;fill-rule:nonzero;fill:rgb(12.156863%,12.941177%,16.862746%);fill-opacity:1;" d="M 18.601562 18.71875 L 18.121094 18.71875 C 18.054688 18.71875 18 18.667969 18 18.601562 C 18 18.535156 18.054688 18.480469 18.121094 18.480469 L 18.601562 18.480469 C 18.667969 18.480469 18.71875 18.535156 18.71875 18.601562 C 18.71875 18.667969 18.667969 18.71875 18.601562 18.71875 Z M 18.601562 18.71875 "/>
<path style=" stroke:none;fill-rule:nonzero;fill:rgb(12.156863%,12.941177%,16.862746%);fill-opacity:1;" d="M 17.398438 18.71875 L 16.441406 18.71875 C 16.375 18.71875 16.320312 18.667969 16.320312 18.601562 C 16.320312 18.535156 16.375 18.480469 16.441406 18.480469 L 17.398438 18.480469 C 17.464844 18.480469 17.519531 18.535156 17.519531 18.601562 C 17.519531 18.667969 17.464844 18.71875 17.398438 18.71875 Z M 17.398438 18.71875 "/>
</g>
</svg>
