<?xml version="1.0" encoding="UTF-8"?>
<svg xmlns="http://www.w3.org/2000/svg" xmlns:xlink="http://www.w3.org/1999/xlink" width="24px" height="24px" viewBox="0 0 24 24" version="1.1">
<g id="surface1">
<path style=" stroke:none;fill-rule:nonzero;fill:rgb(96.470588%,79.215688%,30.19608%);fill-opacity:1;" d="M 3.148438 4.648438 C 3.449219 6.601562 3.75 7.050781 3.75 9 C 3.75 10.199219 1.5 11.25 1.5 11.25 L 1.5 12.75 C 1.5 12.75 3.75 13.800781 3.75 15 C 3.75 16.949219 3.449219 17.398438 3.148438 19.351562 C 2.699219 22.5 4.351562 24 5.851562 24 L 9 24 L 9 21 C 9 21 6.300781 21.300781 6.300781 19.5 C 6.300781 18.148438 6.601562 18.148438 6.898438 15.148438 C 7.050781 13.800781 6.148438 12.75 5.25 12 C 6.148438 11.25 7.050781 10.351562 6.898438 9 C 6.449219 6 6.300781 6 6.300781 4.648438 C 6.300781 2.851562 9 3 9 3 L 9 0 L 5.851562 0 C 4.199219 0 2.699219 1.5 3.148438 4.648438 M 20.851562 4.648438 C 20.550781 6.601562 20.25 7.050781 20.25 9 C 20.25 10.199219 22.5 11.25 22.5 11.25 L 22.5 12.75 C 22.5 12.75 20.25 13.800781 20.25 15 C 20.25 16.949219 20.550781 17.398438 20.851562 19.351562 C 21.300781 22.5 19.648438 24 18.148438 24 L 15 24 L 15 21 C 15 21 17.699219 21.300781 17.699219 19.5 C 17.699219 18.148438 17.398438 18.148438 17.101562 15.148438 C 16.949219 13.800781 17.851562 12.75 18.75 12 C 17.851562 11.25 16.949219 10.351562 17.101562 9 C 17.398438 6 17.699219 6 17.699219 4.648438 C 17.699219 2.851562 15 3 15 3 L 15 0 L 18.148438 0 C 19.800781 0 21.300781 1.5 20.851562 4.648438 "/>
</g>
</svg>
