<?xml version="1.0" encoding="UTF-8"?>
<svg xmlns="http://www.w3.org/2000/svg" xmlns:xlink="http://www.w3.org/1999/xlink" width="24px" height="24px" viewBox="0 0 24 24" version="1.1">
<g id="surface1">
<path style=" stroke:none;fill-rule:nonzero;fill:rgb(0.784314%,67.058825%,27.843139%);fill-opacity:1;" d="M 11.207031 0.691406 C 10.910156 0.691406 10.757812 0.722656 10.757812 1.394531 C 10.757812 2.066406 10.824219 22.746094 10.824219 22.96875 C 10.824219 23.195312 11.046875 23.292969 11.433594 23.292969 L 13.003906 23.292969 C 13.261719 23.292969 13.355469 23.132812 13.324219 22.714844 C 13.292969 22.296875 13.289062 1.425781 13.289062 1.171875 C 13.289062 0.917969 13.171875 0.714844 12.761719 0.703125 C 12.425781 0.691406 11.558594 0.6875 11.207031 0.691406 "/>
<path style=" stroke:none;fill-rule:nonzero;fill:rgb(18.431373%,48.627451%,19.215687%);fill-opacity:1;" d="M 8.511719 8.242188 C 8.511719 8.242188 8.464844 7.066406 9.292969 6.308594 C 10.054688 5.609375 10.769531 5.660156 10.769531 5.660156 L 10.777344 6.824219 C 10.777344 6.824219 11.210938 6.675781 11.945312 6.703125 C 12.679688 6.734375 13.285156 6.992188 13.285156 6.992188 L 13.285156 5.769531 C 13.285156 5.769531 13.691406 5.75 14.308594 6.472656 C 14.617188 6.835938 14.867188 7.589844 14.953125 7.984375 C 15.058594 8.488281 15.246094 8.722656 15.734375 8.761719 C 16.222656 8.796875 16.59375 8.792969 16.898438 8.78125 C 17.328125 8.765625 15.980469 6.425781 15.980469 6.425781 C 15.980469 6.425781 14.476562 4.160156 13.988281 4.144531 C 13.496094 4.128906 10.457031 4.207031 10.167969 4.359375 C 9.878906 4.515625 7.972656 5.851562 7.972656 5.851562 L 7.714844 7.921875 C 7.714844 7.921875 8.4375 8.765625 8.4375 8.703125 C 8.433594 8.640625 8.511719 8.242188 8.511719 8.242188 M 7.050781 8.242188 L 5.617188 7.117188 C 5.617188 7.117188 5.3125 9.4375 6.46875 10.835938 C 7.316406 11.859375 8.308594 12.277344 9.183594 12.660156 C 10 13.019531 10.789062 13.265625 10.789062 13.265625 L 10.792969 14.640625 L 13.296875 15.972656 L 13.292969 14.167969 C 13.292969 14.167969 14.246094 14.683594 14.71875 15.191406 C 15.195312 15.699219 15.242188 16.324219 15.257812 16.726562 C 15.273438 17.125 15.074219 17.753906 15.074219 17.753906 L 14.796875 18.980469 L 17.988281 15.757812 L 10.457031 10.757812 Z M 7.050781 8.242188 "/>
<path style=" stroke:none;fill-rule:nonzero;fill:rgb(18.431373%,48.627451%,19.215687%);fill-opacity:1;" d="M 5.792969 15.445312 C 5.792969 15.445312 5.410156 15.773438 5.519531 16.664062 C 5.621094 17.488281 6.089844 18.78125 7.484375 19.914062 C 8.878906 21.046875 10.820312 21.265625 10.820312 21.265625 L 10.820312 22.214844 L 13.3125 22.210938 L 13.3125 21.269531 C 13.3125 21.269531 14.800781 21.207031 16.058594 20.410156 C 17.375 19.574219 18.335938 17.871094 18.28125 16.273438 C 18.261719 15.710938 17.90625 15.800781 17.90625 15.800781 C 17.90625 15.800781 13.328125 19.761719 13.019531 19.789062 C 12.710938 19.820312 9.738281 19.300781 9.738281 19.300781 L 6.960938 16.277344 Z M 5.792969 15.445312 "/>
<path style=" stroke:none;fill-rule:nonzero;fill:rgb(0.784314%,67.058825%,27.843139%);fill-opacity:1;" d="M 6.960938 15.113281 C 6.027344 15.203125 5.703125 15.386719 5.6875 15.664062 C 5.671875 15.941406 6.484375 20.761719 12.160156 20.679688 C 17.605469 20.605469 18.25 17.292969 18.296875 16.003906 C 18.351562 14.453125 17.4375 13.167969 15.382812 11.953125 C 13.851562 11.050781 10.152344 9.699219 9.539062 9.316406 C 8.972656 8.960938 8.1875 8.179688 8.296875 7.015625 C 8.402344 5.847656 9.675781 4.699219 12.023438 4.714844 C 14.371094 4.730469 15.292969 6.363281 15.472656 6.84375 C 15.761719 7.625 15.707031 8.636719 16.132812 8.769531 C 16.332031 8.832031 16.917969 8.8125 17.253906 8.765625 C 17.589844 8.71875 18.070312 8.457031 18.097656 7.78125 C 18.128906 7 17.316406 2.625 11.886719 2.671875 C 6.703125 2.71875 5.425781 5.898438 5.625 7.722656 C 5.8125 9.453125 7.222656 11.078125 9.492188 12 C 11.765625 12.921875 15.78125 14.039062 15.738281 16.109375 C 15.695312 17.96875 13.542969 18.625 11.765625 18.535156 C 9.96875 18.441406 8.988281 17.398438 8.621094 16.171875 C 8.265625 14.996094 7.589844 15.050781 6.960938 15.113281 "/>
<path style=" stroke:none;fill-rule:nonzero;fill:rgb(47.843137%,86.274511%,54.11765%);fill-opacity:1;" d="M 7.824219 15.699219 C 7.632812 15.34375 6.351562 15.398438 6.1875 16 C 6.023438 16.601562 6.609375 17.542969 7 17.460938 C 7.539062 17.347656 7.082031 16.703125 7.292969 16.457031 C 7.5 16.210938 8.058594 16.140625 7.824219 15.699219 M 11.929688 1.011719 C 11.554688 1 11.136719 0.996094 11.113281 1.5 C 11.09375 1.984375 11.128906 2.359375 11.316406 2.378906 C 11.53125 2.398438 11.832031 1.9375 11.960938 1.738281 C 12.132812 1.488281 12.332031 1.023438 11.929688 1.011719 M 9.0625 3.96875 C 8.917969 3.761719 8.117188 3.59375 7.011719 4.964844 C 5.902344 6.332031 6.3125 7.054688 6.5625 7.085938 C 6.910156 7.128906 7.101562 6.84375 7.3125 6.378906 C 7.613281 5.71875 7.972656 5.316406 8.535156 4.890625 C 9.015625 4.527344 9.308594 4.328125 9.0625 3.96875 "/>
</g>
</svg>
