<?xml version="1.0" encoding="UTF-8"?>
<svg xmlns="http://www.w3.org/2000/svg" xmlns:xlink="http://www.w3.org/1999/xlink" width="24px" height="24px" viewBox="0 0 24 24" version="1.1">
<g id="surface1">
<path style=" stroke:none;fill-rule:nonzero;fill:rgb(23.137255%,46.27451%,73.725492%);fill-opacity:1;" d="M 9.488281 0.988281 C 9.386719 0.992188 9.265625 1.015625 9.121094 1.0625 C 6.996094 1.800781 3.757812 3.738281 0.890625 4.605469 C 1.398438 4.921875 1.953125 5.199219 2.527344 5.421875 C 3.167969 5.125 3.796875 4.832031 4.328125 4.539062 C 4.976562 4.179688 5.480469 3.804688 5.691406 3.5 L 6.308594 3.921875 C 5.964844 4.421875 5.382812 4.8125 4.691406 5.195312 C 4.347656 5.386719 3.972656 5.570312 3.589844 5.753906 C 3.941406 5.835938 4.296875 5.898438 4.648438 5.925781 C 4.804688 5.941406 4.960938 5.945312 5.117188 5.949219 C 5.859375 5.488281 6.5625 4.894531 6.789062 4.464844 L 7.453125 4.816406 C 7.289062 5.121094 7.046875 5.417969 6.753906 5.691406 C 7.484375 5.433594 8.148438 4.96875 8.699219 4.234375 L 9.039062 3.78125 L 9.324219 4.269531 C 9.542969 4.648438 9.839844 4.964844 10.179688 5.238281 C 10.429688 5.199219 10.648438 5.171875 10.875 5.160156 L 10.875 3.707031 C 10.421875 3.363281 10.125 2.820312 10.125 2.210938 C 10.125 1.964844 10.171875 1.71875 10.269531 1.492188 C 10.148438 1.324219 10.027344 1.195312 9.902344 1.113281 C 9.800781 1.046875 9.699219 1.003906 9.578125 0.988281 C 9.546875 0.988281 9.519531 0.988281 9.488281 0.988281 M 14.46875 0.988281 C 14.453125 0.988281 14.4375 0.988281 14.421875 0.988281 C 14.300781 1.003906 14.199219 1.046875 14.097656 1.113281 C 13.972656 1.195312 13.851562 1.324219 13.730469 1.492188 C 13.828125 1.71875 13.875 1.964844 13.875 2.210938 C 13.875 2.820312 13.578125 3.363281 13.125 3.707031 L 13.125 5.160156 C 13.359375 5.171875 13.613281 5.203125 13.820312 5.238281 C 14.160156 4.964844 14.457031 4.648438 14.675781 4.269531 L 14.960938 3.78125 L 15.300781 4.234375 C 15.851562 4.96875 16.515625 5.433594 17.246094 5.691406 C 16.953125 5.417969 16.710938 5.121094 16.546875 4.816406 L 17.210938 4.464844 C 17.4375 4.894531 18.140625 5.488281 18.882812 5.949219 C 19.039062 5.945312 19.195312 5.941406 19.351562 5.925781 C 19.703125 5.898438 20.058594 5.835938 20.410156 5.753906 C 20.027344 5.570312 19.652344 5.386719 19.308594 5.195312 C 18.617188 4.8125 18.035156 4.421875 17.691406 3.921875 L 18.308594 3.5 C 18.519531 3.804688 19.023438 4.179688 19.671875 4.539062 C 20.203125 4.832031 20.832031 5.125 21.472656 5.421875 C 22.046875 5.199219 22.601562 4.921875 23.109375 4.605469 C 20.242188 3.738281 17.003906 1.800781 14.878906 1.0625 C 14.710938 1.007812 14.582031 0.984375 14.46875 0.988281 Z M 12 1.125 C 11.375 1.125 10.875 1.625 10.875 2.25 C 10.875 2.875 11.375 3.375 12 3.375 C 12.625 3.375 13.125 2.875 13.125 2.25 C 13.125 1.625 12.625 1.125 12 1.125 M 11.625 4.046875 L 11.625 5.203125 C 11.757812 5.230469 11.894531 5.277344 12 5.335938 C 12.125 5.269531 12.246094 5.230469 12.375 5.203125 L 12.375 4.046875 C 12.253906 4.070312 12.128906 4.085938 12 4.085938 C 11.871094 4.085938 11.746094 4.070312 11.625 4.046875 M 11.035156 5.90625 C 10.964844 5.90625 10.890625 5.910156 10.816406 5.914062 C 10.214844 5.960938 9.46875 6.152344 9.160156 6.296875 C 8.460938 6.628906 8.167969 6.945312 8.027344 7.234375 C 7.882812 7.527344 7.875 7.835938 7.875 8.210938 C 7.875 8.648438 8.078125 8.96875 8.445312 9.277344 C 8.8125 9.589844 9.34375 9.847656 9.886719 10.0625 C 10.894531 10.59375 11.957031 11.140625 12.796875 11.75 C 13.027344 11.914062 13.320312 12.015625 13.546875 12.132812 C 13.769531 11.902344 13.875 11.6875 13.875 11.492188 C 13.875 11.375 13.84375 11.246094 13.785156 11.109375 C 13.214844 10.027344 12.136719 9.503906 11.007812 8.878906 L 11.003906 8.882812 C 10.515625 8.695312 10.066406 8.585938 9.75 8.585938 L 9.582031 7.875 C 10.324219 7.503906 10.867188 7.191406 11.191406 6.894531 C 11.507812 6.605469 11.625 6.367188 11.625 5.992188 C 11.4375 5.90625 11.222656 5.902344 11.035156 5.90625 Z M 12.964844 5.90625 C 12.765625 5.914062 12.527344 5.910156 12.375 5.992188 C 12.375 6.367188 12.492188 6.605469 12.808594 6.894531 C 13.132812 7.191406 13.675781 7.503906 14.417969 7.875 L 14.25 8.585938 C 13.875 8.585938 13.3125 8.738281 12.726562 8.996094 C 13.195312 9.296875 13.644531 9.648438 14.015625 10.101562 C 14.046875 10.089844 14.078125 10.078125 14.113281 10.0625 C 14.65625 9.847656 15.1875 9.589844 15.554688 9.277344 C 15.921875 8.96875 16.125 8.648438 16.125 8.210938 C 16.125 7.835938 16.117188 7.527344 15.972656 7.234375 C 15.832031 6.945312 15.539062 6.628906 14.839844 6.296875 C 14.53125 6.152344 13.785156 5.960938 13.183594 5.914062 C 13.109375 5.910156 13.035156 5.90625 12.964844 5.90625 M 12 7.113281 C 11.910156 7.234375 11.808594 7.347656 11.699219 7.449219 C 11.675781 7.46875 11.648438 7.492188 11.625 7.511719 L 11.625 8.316406 C 11.75 8.375 11.878906 8.4375 12 8.5 C 12.125 8.4375 12.25 8.375 12.375 8.316406 L 12.375 7.511719 C 12.351562 7.492188 12.324219 7.472656 12.300781 7.449219 C 12.191406 7.347656 12.089844 7.234375 12 7.113281 M 10.242188 11.046875 C 10.164062 11.207031 10.125 11.355469 10.125 11.492188 C 10.125 11.71875 10.265625 11.96875 10.5625 12.242188 C 10.855469 12.515625 11.28125 12.789062 11.71875 13.042969 C 12.15625 13.292969 12.601562 13.527344 12.960938 13.761719 C 13.140625 13.875 13.296875 13.992188 13.429688 14.125 C 13.558594 14.261719 13.6875 14.4375 13.6875 14.679688 C 13.6875 14.878906 13.585938 15.066406 13.46875 15.183594 C 13.347656 15.304688 13.214844 15.375 13.078125 15.441406 C 12.972656 15.492188 12.859375 15.539062 12.742188 15.585938 C 13.050781 15.8125 13.335938 16.058594 13.5625 16.300781 C 13.691406 16.242188 13.820312 16.183594 13.945312 16.121094 C 14.273438 15.964844 14.582031 15.789062 14.785156 15.59375 C 14.992188 15.402344 15.09375 15.222656 15.09375 14.960938 C 15.09375 14.492188 14.925781 14.140625 14.644531 13.820312 C 14.363281 13.5 13.964844 13.226562 13.550781 12.988281 C 13.132812 12.753906 12.707031 12.558594 12.355469 12.359375 C 12.183594 12.261719 12.027344 12.164062 11.890625 12.035156 C 11.886719 12.03125 11.878906 12.023438 11.871094 12.015625 C 11.378906 11.6875 10.746094 11.300781 10.242188 11.046875 M 10.351562 13.046875 C 9.972656 13.269531 9.613281 13.523438 9.355469 13.820312 C 9.074219 14.140625 8.90625 14.492188 8.90625 14.960938 C 8.90625 15.222656 9.007812 15.402344 9.214844 15.59375 C 9.417969 15.789062 9.726562 15.964844 10.054688 16.121094 C 10.175781 16.183594 10.300781 16.238281 10.425781 16.296875 C 11.320312 16.753906 12.144531 17.191406 12.957031 17.414062 C 13.144531 17.347656 13.183594 17.171875 13.140625 16.957031 C 12.445312 16.253906 11.742188 15.839844 10.921875 15.441406 C 10.785156 15.375 10.652344 15.304688 10.53125 15.183594 C 10.414062 15.066406 10.3125 14.878906 10.3125 14.679688 C 10.3125 14.4375 10.441406 14.261719 10.570312 14.125 C 10.703125 13.992188 10.859375 13.875 11.039062 13.761719 C 11.109375 13.71875 11.175781 13.675781 11.246094 13.632812 C 10.9375 13.453125 10.632812 13.261719 10.351562 13.046875 Z M 12 14.0625 C 11.867188 14.136719 11.738281 14.210938 11.625 14.28125 L 11.625 14.917969 C 11.660156 14.933594 11.695312 14.949219 11.730469 14.96875 C 11.816406 15.003906 11.90625 15.042969 12 15.082031 C 12.132812 15.023438 12.257812 14.972656 12.375 14.925781 L 12.375 14.28125 C 12.25 14.207031 12.125 14.132812 12 14.0625 M 11.164062 17.523438 C 11.195312 17.722656 11.285156 17.902344 11.4375 18.09375 C 11.625 18.320312 11.890625 18.542969 12.175781 18.75 C 12.460938 18.960938 12.753906 19.15625 13.003906 19.367188 C 13.25 19.582031 13.5 19.828125 13.5 20.210938 C 13.5 20.675781 13.226562 21.050781 12.890625 21.476562 C 12.558594 21.902344 12.125 22.34375 11.695312 22.753906 C 11.601562 22.84375 11.507812 22.925781 11.414062 23.011719 C 11.800781 22.8125 12.199219 22.566406 12.578125 22.292969 C 13.628906 21.527344 14.4375 20.527344 14.4375 19.835938 C 14.4375 19.625 14.359375 19.457031 14.203125 19.273438 C 14.046875 19.089844 13.816406 18.910156 13.566406 18.734375 C 13.316406 18.5625 13.054688 18.398438 12.828125 18.203125 C 12.800781 18.179688 12.777344 18.15625 12.75 18.132812 C 12.140625 17.972656 11.628906 17.753906 11.164062 17.523438 M 10.796875 18.488281 C 10.675781 18.570312 10.554688 18.652344 10.433594 18.734375 C 10.183594 18.910156 9.953125 19.089844 9.796875 19.273438 C 9.640625 19.457031 9.5625 19.625 9.5625 19.835938 C 9.5625 20.175781 9.75 20.601562 10.09375 21.035156 C 10.390625 21.414062 10.800781 21.792969 11.257812 22.136719 C 11.335938 22.058594 11.417969 21.980469 11.496094 21.902344 C 11.363281 21.761719 11.238281 21.617188 11.125 21.480469 C 10.78125 21.054688 10.5 20.679688 10.5 20.210938 C 10.5 19.828125 10.75 19.582031 10.996094 19.367188 C 11.113281 19.269531 11.242188 19.171875 11.371094 19.078125 C 11.1875 18.921875 11.011719 18.753906 10.855469 18.5625 C 10.835938 18.539062 10.816406 18.511719 10.796875 18.488281 M 12 19.550781 C 11.863281 19.648438 11.734375 19.742188 11.625 19.824219 L 11.625 20.898438 C 11.652344 20.9375 11.679688 20.972656 11.707031 21.007812 C 11.800781 21.121094 11.902344 21.238281 12.011719 21.355469 C 12.117188 21.238281 12.214844 21.121094 12.304688 21.011719 C 12.328125 20.980469 12.351562 20.949219 12.375 20.917969 L 12.375 19.824219 C 12.265625 19.738281 12.136719 19.648438 12 19.550781 "/>
</g>
</svg>
