<?xml version="1.0" encoding="UTF-8"?>
<svg xmlns="http://www.w3.org/2000/svg" xmlns:xlink="http://www.w3.org/1999/xlink" width="24px" height="24px" viewBox="0 0 24 24" version="1.1">
<g id="surface1">
<path style=" stroke:none;fill-rule:nonzero;fill:rgb(58.431375%,34.509805%,33.333334%);fill-opacity:1;" d="M 6.75 0.75 C 6.75 0.335938 6.414062 0 6 0 C 5.585938 0 5.25 0.335938 5.25 0.75 L 5.25 1.5 L 4.5 1.5 C 4.085938 1.5 3.75 1.835938 3.75 2.25 C 3.75 2.664062 4.085938 3 4.5 3 L 5.25 3 L 5.25 4.5 L 2.820312 4.5 C 2.300781 4.5 1.875 4.925781 1.875 5.445312 C 1.875 5.5625 1.898438 5.675781 1.9375 5.789062 L 3.460938 9.75 L 3.375 9.75 C 2.75 9.75 2.25 10.25 2.25 10.875 C 2.25 11.5 2.75 12 3.375 12 L 3.5625 12 L 2.8125 18 L 9.1875 18 L 8.4375 12 L 8.625 12 C 9.25 12 9.75 11.5 9.75 10.875 C 9.75 10.25 9.25 9.75 8.625 9.75 L 8.539062 9.75 L 10.0625 5.789062 C 10.105469 5.679688 10.125 5.5625 10.125 5.445312 C 10.125 4.921875 9.699219 4.5 9.179688 4.5 L 6.75 4.5 L 6.75 3 L 7.5 3 C 7.914062 3 8.25 2.664062 8.25 2.25 C 8.25 1.835938 7.914062 1.5 7.5 1.5 L 6.75 1.5 Z M 2.25 19.5 L 0.226562 22.199219 C 0.078125 22.398438 0 22.632812 0 22.875 C 0 23.5 0.5 24 1.125 24 L 10.875 24 C 11.5 24 12 23.5 12 22.875 C 12 22.632812 11.921875 22.398438 11.773438 22.199219 L 9.75 19.5 Z M 15.75 19.5 L 13.726562 22.199219 C 13.578125 22.398438 13.5 22.632812 13.5 22.875 C 13.5 23.5 14 24 14.625 24 L 22.875 24 C 23.5 24 24 23.5 24 22.875 C 24 22.632812 23.921875 22.398438 23.773438 22.199219 L 21.75 19.5 Z M 14.25 9.75 L 14.25 12.183594 C 14.25 12.546875 14.382812 12.898438 14.625 13.171875 L 15.898438 14.625 L 15.796875 18 L 21.679688 18 L 21.523438 14.625 L 22.851562 13.179688 C 23.105469 12.90625 23.25 12.542969 23.25 12.164062 L 23.25 9.75 C 23.25 9.335938 22.914062 9 22.5 9 L 21.75 9 C 21.335938 9 21 9.335938 21 9.75 L 21 10.5 L 19.875 10.5 L 19.875 9.75 C 19.875 9.335938 19.539062 9 19.125 9 L 18.375 9 C 17.960938 9 17.625 9.335938 17.625 9.75 L 17.625 10.5 L 16.5 10.5 L 16.5 9.75 C 16.5 9.335938 16.164062 9 15.75 9 L 15 9 C 14.585938 9 14.25 9.335938 14.25 9.75 M 18 14.25 C 18 13.835938 18.335938 13.5 18.75 13.5 C 19.164062 13.5 19.5 13.835938 19.5 14.25 L 19.5 15.75 L 18 15.75 Z M 18 14.25 "/>
</g>
</svg>
