<?xml version="1.0" encoding="UTF-8"?>
<svg xmlns="http://www.w3.org/2000/svg" xmlns:xlink="http://www.w3.org/1999/xlink" width="24px" height="24px" viewBox="0 0 24 24" version="1.1">
<g id="surface1">
<path style=" stroke:none;fill-rule:nonzero;fill:rgb(90.980393%,48.235294%,20.784314%);fill-opacity:1;" d="M 15 7.714844 C 14.535156 7.976562 14.246094 8.464844 14.246094 9 C 14.246094 9.535156 14.535156 10.023438 15 10.285156 L 14.496094 11.96875 C 13.945312 11.875 13.386719 12.101562 13.054688 12.554688 C 12.726562 13.011719 12.683594 13.613281 12.945312 14.109375 L 11.503906 15.230469 C 11.113281 14.914062 10.589844 14.816406 10.113281 14.972656 C 9.636719 15.125 9.269531 15.515625 9.144531 16 L 6.839844 15.992188 C 6.710938 15.511719 6.347656 15.125 5.871094 14.972656 C 5.394531 14.816406 4.875 14.914062 4.488281 15.230469 L 3.046875 14.097656 C 3.300781 13.605469 3.253906 13.007812 2.929688 12.558594 C 2.601562 12.105469 2.050781 11.878906 1.5 11.96875 L 1 10.277344 C 1.457031 10.015625 1.738281 9.527344 1.738281 9 C 1.738281 8.472656 1.457031 7.984375 1 7.722656 L 1.5 6.03125 C 2.050781 6.121094 2.601562 5.894531 2.929688 5.445312 C 3.253906 4.992188 3.300781 4.398438 3.046875 3.902344 L 4.488281 2.769531 C 4.875 3.085938 5.394531 3.183594 5.871094 3.027344 C 6.347656 2.875 6.710938 2.488281 6.839844 2.003906 L 9.144531 2 C 9.269531 2.484375 9.636719 2.875 10.113281 3.027344 C 10.589844 3.183594 11.113281 3.085938 11.5 2.769531 L 12.945312 3.890625 C 12.683594 4.386719 12.726562 4.988281 13.054688 5.445312 C 13.386719 5.898438 13.945312 6.125 14.496094 6.03125 Z M 8 12 C 9.65625 12 11 10.65625 11 9 C 11 7.34375 9.65625 6 8 6 C 6.34375 6 5 7.34375 5 9 C 5 10.65625 6.34375 12 8 12 M 15.394531 12.0625 C 15.921875 10.777344 16.113281 9.378906 15.9375 8.003906 L 17.144531 8 C 17.269531 8.484375 17.636719 8.875 18.113281 9.027344 C 18.589844 9.183594 19.113281 9.085938 19.503906 8.769531 L 20.945312 9.890625 C 20.683594 10.386719 20.726562 10.988281 21.054688 11.445312 C 21.386719 11.898438 21.945312 12.125 22.5 12.03125 L 23 13.714844 C 22.535156 13.976562 22.246094 14.464844 22.246094 15 C 22.246094 15.535156 22.535156 16.023438 23 16.285156 L 22.496094 17.96875 C 21.945312 17.875 21.386719 18.101562 21.054688 18.554688 C 20.726562 19.011719 20.683594 19.613281 20.945312 20.109375 L 19.503906 21.230469 C 19.113281 20.914062 18.589844 20.816406 18.113281 20.972656 C 17.636719 21.125 17.269531 21.515625 17.144531 22 L 14.839844 21.992188 C 14.710938 21.511719 14.347656 21.125 13.871094 20.972656 C 13.394531 20.816406 12.875 20.914062 12.488281 21.230469 L 11.046875 20.097656 C 11.300781 19.605469 11.253906 19.007812 10.929688 18.558594 C 10.601562 18.105469 10.050781 17.878906 9.5 17.96875 L 9.1875 16.910156 C 10.585938 16.703125 11.90625 16.125 13.007812 15.238281 C 13.109375 16.480469 13.964844 17.535156 15.164062 17.878906 C 16.363281 18.226562 17.652344 17.796875 18.398438 16.800781 C 19.148438 15.800781 19.199219 14.445312 18.53125 13.390625 C 17.863281 12.339844 16.613281 11.808594 15.394531 12.0625 "/>
</g>
</svg>
