<?xml version="1.0" encoding="UTF-8"?>
<svg xmlns="http://www.w3.org/2000/svg" xmlns:xlink="http://www.w3.org/1999/xlink" width="24px" height="24px" viewBox="0 0 24 24" version="1.1">
<g id="surface1">
<path style=" stroke:none;fill-rule:nonzero;fill:rgb(8.235294%,44.705883%,71.372551%);fill-opacity:1;" d="M 3.527344 21.398438 L 1.640625 0.253906 L 22.359375 0.253906 L 20.46875 21.394531 L 11.988281 23.746094 Z M 3.527344 21.398438 "/>
<path style=" stroke:none;fill-rule:nonzero;fill:rgb(20%,66.274512%,86.274511%);fill-opacity:1;" d="M 12 21.949219 L 18.855469 20.046875 L 20.46875 1.980469 L 12 1.980469 Z M 12 21.949219 "/>
<path style=" stroke:none;fill-rule:nonzero;fill:rgb(100%,100%,100%);fill-opacity:1;" d="M 12 9.644531 L 15.433594 9.644531 L 15.667969 6.988281 L 12 6.988281 L 12 4.394531 L 18.503906 4.394531 L 18.441406 5.089844 L 17.804688 12.234375 L 12 12.234375 Z M 12 9.644531 "/>
<path style=" stroke:none;fill-rule:nonzero;fill:rgb(92.156863%,92.156863%,92.156863%);fill-opacity:1;" d="M 12.015625 16.378906 L 12.003906 16.382812 L 9.117188 15.601562 L 8.929688 13.53125 L 6.328125 13.53125 L 6.691406 17.605469 L 12.003906 19.078125 L 12.015625 19.074219 Z M 12.015625 16.378906 "/>
<path style=" stroke:none;fill-rule:nonzero;fill:rgb(100%,100%,100%);fill-opacity:1;" d="M 15.210938 12.125 L 14.898438 15.597656 L 12.007812 16.378906 L 12.007812 19.078125 L 17.324219 17.605469 L 17.363281 17.167969 L 17.8125 12.125 Z M 15.210938 12.125 "/>
<path style=" stroke:none;fill-rule:nonzero;fill:rgb(92.156863%,92.156863%,92.156863%);fill-opacity:1;" d="M 12.007812 4.394531 L 12.007812 6.988281 L 5.746094 6.988281 L 5.691406 6.40625 L 5.574219 5.089844 L 5.511719 4.394531 Z M 12 9.644531 L 12 12.238281 L 9.148438 12.238281 L 9.097656 11.652344 L 8.976562 10.339844 L 8.917969 9.644531 Z M 12 9.644531 "/>
</g>
</svg>
