<?xml version="1.0" encoding="UTF-8"?>
<svg xmlns="http://www.w3.org/2000/svg" xmlns:xlink="http://www.w3.org/1999/xlink" width="24px" height="24px" viewBox="0 0 24 24" version="1.1">
<g id="surface1">
<path style=" stroke:none;fill-rule:nonzero;fill:rgb(65.882355%,0%,18.82353%);fill-opacity:1;" d="M 13.832031 12.660156 C 13.445312 12.667969 13.90625 12.863281 14.410156 12.9375 C 14.542969 12.835938 14.671875 12.726562 14.792969 12.613281 C 14.476562 12.691406 14.15625 12.691406 13.832031 12.660156 M 15.910156 12.144531 C 16.140625 11.824219 16.308594 11.476562 16.371094 11.117188 C 16.316406 11.375 16.179688 11.59375 16.046875 11.828125 C 15.324219 12.285156 15.980469 11.558594 16.046875 11.28125 C 15.269531 12.261719 15.941406 11.871094 15.910156 12.144531 M 16.679688 10.148438 C 16.726562 9.449219 16.542969 9.671875 16.480469 9.9375 C 16.550781 9.972656 16.609375 10.429688 16.679688 10.148438 M 12.363281 0.617188 C 12.570312 0.652344 12.8125 0.679688 12.777344 0.730469 C 13.003906 0.679688 13.054688 0.636719 12.363281 0.617188 M 12.777344 0.730469 L 12.632812 0.761719 L 12.765625 0.75 Z M 19.222656 10.410156 C 19.246094 11.039062 19.039062 11.34375 18.851562 11.878906 L 18.519531 12.046875 C 18.246094 12.578125 18.542969 12.386719 18.347656 12.808594 C 17.921875 13.1875 17.050781 13.996094 16.773438 14.070312 C 16.570312 14.066406 16.910156 13.832031 16.953125 13.738281 C 16.382812 14.132812 16.496094 14.328125 15.621094 14.570312 L 15.59375 14.511719 C 13.433594 15.527344 10.4375 13.515625 10.476562 10.769531 C 10.453125 10.941406 10.410156 10.898438 10.363281 10.96875 C 10.25 9.554688 11.015625 8.136719 12.304688 7.558594 C 13.5625 6.933594 15.042969 7.1875 15.945312 8.03125 C 15.449219 7.382812 14.460938 6.691406 13.292969 6.757812 C 12.144531 6.773438 11.074219 7.503906 10.714844 8.292969 C 10.128906 8.664062 10.0625 9.71875 9.804688 9.910156 C 9.460938 12.441406 10.453125 13.535156 12.128906 14.820312 C 12.394531 14.996094 12.203125 15.023438 12.238281 15.160156 C 11.683594 14.898438 11.171875 14.503906 10.753906 14.023438 C 10.976562 14.347656 11.214844 14.664062 11.527344 14.914062 C 11 14.734375 10.300781 13.640625 10.09375 13.597656 C 11 15.21875 13.769531 16.441406 15.21875 15.835938 C 14.546875 15.859375 13.695312 15.847656 12.941406 15.570312 C 12.625 15.40625 12.195312 15.070312 12.273438 15.003906 C 14.25 15.746094 16.292969 15.566406 18.007812 14.191406 C 18.441406 13.855469 18.917969 13.277344 19.054688 13.269531 C 18.847656 13.578125 19.089844 13.417969 18.933594 13.695312 C 19.367188 12.992188 18.742188 13.410156 19.378906 12.484375 L 19.617188 12.808594 C 19.527344 12.226562 20.335938 11.523438 20.253906 10.601562 C 20.441406 10.320312 20.460938 10.90625 20.265625 11.550781 C 20.539062 10.835938 20.335938 10.71875 20.40625 10.128906 C 20.484375 10.328125 20.582031 10.539062 20.632812 10.75 C 20.457031 10.054688 20.816406 9.582031 20.90625 9.179688 C 20.820312 9.140625 20.632812 9.484375 20.589844 8.664062 C 20.59375 8.308594 20.6875 8.480469 20.722656 8.390625 C 20.652344 8.351562 20.46875 8.078125 20.359375 7.554688 C 20.441406 7.433594 20.574219 7.875 20.683594 7.894531 C 20.613281 7.476562 20.492188 7.160156 20.488281 6.839844 C 20.167969 6.171875 20.375 6.929688 20.113281 6.554688 C 19.773438 5.488281 20.398438 6.304688 20.4375 5.820312 C 20.957031 6.570312 21.253906 7.734375 21.386719 8.21875 C 21.285156 7.628906 21.117188 7.0625 20.914062 6.511719 C 21.070312 6.578125 20.660156 5.300781 21.117188 6.144531 C 20.628906 4.347656 19.023438 2.664062 17.546875 1.875 C 17.730469 2.039062 17.957031 2.246094 17.875 2.28125 C 17.140625 1.84375 17.269531 1.808594 17.164062 1.625 C 16.566406 1.382812 16.527344 1.644531 16.132812 1.625 C 15.003906 1.027344 14.789062 1.089844 13.75 0.714844 L 13.796875 0.9375 C 13.050781 0.6875 12.925781 1.03125 12.121094 0.9375 C 12.070312 0.898438 12.378906 0.796875 12.632812 0.761719 C 11.910156 0.855469 11.945312 0.621094 11.238281 0.789062 C 11.410156 0.664062 11.59375 0.585938 11.78125 0.480469 C 11.191406 0.515625 10.375 0.824219 10.628906 0.542969 C 9.667969 0.972656 7.960938 1.574219 7.003906 2.472656 L 6.976562 2.269531 C 6.535156 2.796875 5.0625 3.84375 4.945312 4.523438 L 4.828125 4.550781 C 4.597656 4.9375 4.453125 5.375 4.269531 5.773438 C 3.972656 6.28125 3.832031 5.96875 3.875 6.050781 C 3.289062 7.242188 2.996094 8.242188 2.746094 9.0625 C 2.925781 9.328125 2.75 10.675781 2.816406 11.753906 C 2.523438 17.078125 6.554688 22.246094 10.960938 23.441406 C 11.605469 23.671875 12.566406 23.664062 13.382812 23.6875 C 12.421875 23.410156 12.296875 23.539062 11.355469 23.210938 C 10.679688 22.894531 10.53125 22.53125 10.050781 22.113281 L 10.242188 22.449219 C 9.300781 22.117188 9.695312 22.035156 8.929688 21.792969 L 9.132812 21.53125 C 8.824219 21.507812 8.324219 21.015625 8.1875 20.742188 L 7.851562 20.757812 C 7.453125 20.261719 7.238281 19.90625 7.253906 19.628906 L 7.144531 19.820312 C 7.023438 19.613281 5.671875 17.96875 6.371094 18.351562 C 6.242188 18.230469 6.070312 18.15625 5.878906 17.816406 L 6.023438 17.652344 C 5.6875 17.21875 5.402344 16.660156 5.421875 16.472656 C 5.605469 16.71875 5.730469 16.761719 5.851562 16.804688 C 5 14.6875 4.953125 16.6875 4.304688 14.652344 L 4.441406 14.640625 C 4.335938 14.480469 4.273438 14.3125 4.191406 14.144531 L 4.25 13.550781 C 3.636719 12.839844 4.078125 10.53125 4.167969 9.265625 C 4.226562 8.75 4.679688 8.203125 5.023438 7.34375 L 4.8125 7.308594 C 5.210938 6.609375 7.09375 4.507812 7.964844 4.617188 C 8.386719 4.085938 7.882812 4.613281 7.800781 4.480469 C 8.726562 3.519531 9.019531 3.804688 9.644531 3.628906 C 10.320312 3.230469 9.066406 3.785156 9.386719 3.476562 C 10.550781 3.179688 10.210938 2.800781 11.734375 2.648438 C 11.894531 2.738281 11.363281 2.789062 11.226562 2.910156 C 12.199219 2.433594 14.304688 2.542969 15.671875 3.171875 C 17.257812 3.914062 19.039062 6.105469 19.109375 8.164062 L 19.1875 8.1875 C 19.148438 9.007812 19.3125 9.953125 19.027344 10.824219 Z M 9.605469 13.195312 L 9.550781 13.464844 C 9.804688 13.8125 10.007812 14.1875 10.332031 14.457031 C 10.097656 14 9.925781 13.8125 9.605469 13.195312 M 10.207031 13.171875 C 10.074219 13.019531 9.992188 12.839844 9.902344 12.664062 C 9.988281 12.976562 10.164062 13.246094 10.328125 13.519531 Z M 20.855469 10.855469 L 20.796875 11 C 20.691406 11.75 20.464844 12.476562 20.125 13.152344 C 20.503906 12.4375 20.75 11.660156 20.855469 10.855469 M 12.441406 0.429688 C 12.703125 0.332031 13.085938 0.378906 13.363281 0.3125 C 13 0.34375 12.640625 0.363281 12.285156 0.410156 Z M 3.25 5.316406 C 3.308594 5.875 2.828125 6.09375 3.355469 5.726562 C 3.636719 5.089844 3.246094 5.550781 3.25 5.316406 M 2.628906 7.902344 C 2.75 7.53125 2.773438 7.308594 2.820312 7.089844 C 2.484375 7.519531 2.664062 7.613281 2.628906 7.902344 "/>
</g>
</svg>
