<?xml version="1.0" encoding="UTF-8"?>
<svg xmlns="http://www.w3.org/2000/svg" xmlns:xlink="http://www.w3.org/1999/xlink" width="24px" height="24px" viewBox="0 0 24 17" version="1.1">
<g id="surface1">
<path style=" stroke:none;fill-rule:nonzero;fill:rgb(13.725491%,58.823532%,92.941177%);fill-opacity:1;" d="M 23.523438 6.476562 C 22.980469 6.109375 21.742188 5.972656 20.773438 6.15625 C 20.660156 5.238281 20.140625 4.433594 19.238281 3.722656 L 18.722656 3.355469 L 18.359375 3.882812 C 17.910156 4.570312 17.683594 5.535156 17.753906 6.457031 C 17.773438 6.777344 17.886719 7.351562 18.226562 7.855469 C 17.910156 8.039062 17.257812 8.269531 16.402344 8.269531 L 0.109375 8.269531 L 0.0625 8.453125 C -0.09375 9.371094 -0.09375 12.242188 1.753906 14.449219 C 3.152344 16.125 5.222656 16.976562 7.949219 16.976562 C 13.855469 16.976562 18.226562 14.195312 20.277344 9.164062 C 21.085938 9.1875 22.824219 9.164062 23.703125 7.441406 C 23.722656 7.398438 23.769531 7.304688 23.925781 6.960938 L 24.015625 6.777344 Z M 13.132812 0 L 10.65625 0 L 10.65625 2.296875 L 13.132812 2.296875 Z M 13.132812 2.757812 L 10.65625 2.757812 L 10.65625 5.054688 L 13.132812 5.054688 Z M 10.203125 2.757812 L 7.726562 2.757812 L 7.726562 5.054688 L 10.203125 5.054688 Z M 7.273438 2.757812 L 4.796875 2.757812 L 4.796875 5.054688 L 7.273438 5.054688 Z M 4.34375 5.511719 L 1.867188 5.511719 L 1.867188 7.808594 L 4.34375 7.808594 Z M 7.273438 5.511719 L 4.796875 5.511719 L 4.796875 7.808594 L 7.273438 7.808594 Z M 10.203125 5.511719 L 7.726562 5.511719 L 7.726562 7.808594 L 10.203125 7.808594 Z M 13.132812 5.511719 L 10.65625 5.511719 L 10.65625 7.808594 L 13.132812 7.808594 Z M 16.0625 5.511719 L 13.582031 5.511719 L 13.582031 7.808594 L 16.0625 7.808594 Z M 16.0625 5.511719 "/>
</g>
</svg>
