<?xml version="1.0" encoding="UTF-8"?>
<svg xmlns="http://www.w3.org/2000/svg" xmlns:xlink="http://www.w3.org/1999/xlink" width="24px" height="24px" viewBox="0 0 24 24" version="1.1">
<g id="surface1">
<path style=" stroke:none;fill-rule:nonzero;fill:rgb(95.686275%,94.901961%,92.941177%);fill-opacity:1;" d="M 5.625 0 L 18.375 0 C 21.480469 0 24 2.519531 24 5.625 L 24 18.375 C 24 21.480469 21.480469 24 18.375 24 L 5.625 24 C 2.519531 24 0 21.480469 0 18.375 L 0 5.625 C 0 2.519531 2.519531 0 5.625 0 Z M 5.625 0 "/>
<path style=" stroke:none;fill-rule:nonzero;fill:rgb(5.882353%,5.882353%,5.882353%);fill-opacity:1;" d="M 21.375 17.148438 C 20.808594 17.363281 20.175781 17.121094 19.894531 16.585938 C 19.046875 15.316406 18.105469 14.101562 17.203125 12.859375 L 16.8125 12.339844 C 15.738281 13.777344 14.667969 15.160156 13.6875 16.59375 C 13.421875 17.105469 12.820312 17.339844 12.277344 17.144531 L 16.308594 11.738281 L 12.558594 6.855469 C 13.117188 6.65625 13.738281 6.871094 14.046875 7.375 C 14.917969 8.648438 15.882812 9.863281 16.839844 11.152344 C 17.804688 9.875 18.757812 8.652344 19.648438 7.390625 C 19.914062 6.890625 20.515625 6.664062 21.046875 6.871094 L 19.59375 8.800781 C 18.941406 9.660156 18.300781 10.523438 17.621094 11.363281 C 17.511719 11.464844 17.449219 11.605469 17.449219 11.753906 C 17.449219 11.902344 17.511719 12.042969 17.621094 12.140625 C 18.867188 13.792969 20.101562 15.449219 21.375 17.148438 M 2.625 11.671875 C 2.734375 11.152344 2.800781 10.582031 2.953125 10.050781 C 3.855469 6.84375 7.53125 5.511719 10.058594 7.496094 C 11.539062 8.660156 11.910156 10.304688 11.835938 12.160156 L 3.496094 12.160156 C 3.359375 15.476562 5.753906 17.480469 8.8125 16.457031 C 9.820312 16.097656 10.578125 15.25 10.828125 14.210938 C 10.992188 13.6875 11.253906 13.601562 11.746094 13.75 C 11.582031 15.039062 10.835938 16.175781 9.726562 16.84375 C 7.863281 17.859375 5.5625 17.566406 4.015625 16.113281 C 3.273438 15.277344 2.820312 14.21875 2.734375 13.101562 C 2.734375 12.921875 2.667969 12.746094 2.628906 12.578125 C 2.625 12.277344 2.625 11.972656 2.625 11.671875 M 3.507812 11.449219 L 11.046875 11.449219 C 11 9.042969 9.484375 7.339844 7.460938 7.324219 C 5.210938 7.292969 3.601562 8.960938 3.5 11.4375 Z M 3.507812 11.449219 "/>
</g>
</svg>
