<?xml version="1.0" encoding="UTF-8"?>
<svg xmlns="http://www.w3.org/2000/svg" xmlns:xlink="http://www.w3.org/1999/xlink" width="24px" height="24px" viewBox="0 0 24 24" version="1.1">
<g id="surface1">
<path style=" stroke:none;fill-rule:nonzero;fill:rgb(14.117648%,79.607844%,44.313726%);fill-opacity:1;" d="M 7.554688 15.933594 C 7.554688 14.707031 8.550781 13.710938 9.777344 13.710938 L 12 13.710938 L 12 15.933594 C 12 17.160156 11.003906 18.15625 9.777344 18.15625 C 8.550781 18.15625 7.554688 17.160156 7.554688 15.933594 Z M 7.554688 15.933594 "/>
<path style=" stroke:none;fill-rule:nonzero;fill:rgb(100%,44.705883%,21.568628%);fill-opacity:1;" d="M 12 4.820312 L 12 9.265625 L 14.222656 9.265625 C 15.449219 9.265625 16.445312 8.273438 16.445312 7.042969 C 16.445312 5.816406 15.449219 4.820312 14.222656 4.820312 Z M 12 4.820312 "/>
<path style=" stroke:none;fill-rule:nonzero;fill:rgb(0%,71.372551%,100%);fill-opacity:1;" d="M 14.203125 13.710938 C 15.429688 13.710938 16.425781 12.714844 16.425781 11.488281 C 16.425781 10.261719 15.429688 9.265625 14.203125 9.265625 C 12.976562 9.265625 11.980469 10.261719 11.980469 11.488281 C 11.980469 12.714844 12.976562 13.710938 14.203125 13.710938 Z M 14.203125 13.710938 "/>
<path style=" stroke:none;fill-rule:nonzero;fill:rgb(100%,21.568628%,21.568628%);fill-opacity:1;" d="M 7.554688 7.042969 C 7.554688 8.273438 8.550781 9.265625 9.777344 9.265625 L 12 9.265625 L 12 4.820312 L 9.777344 4.820312 C 8.550781 4.820312 7.554688 5.816406 7.554688 7.042969 Z M 7.554688 7.042969 "/>
<path style=" stroke:none;fill-rule:nonzero;fill:rgb(52.941179%,30.980393%,100%);fill-opacity:1;" d="M 7.554688 11.488281 C 7.554688 12.714844 8.550781 13.710938 9.777344 13.710938 L 12 13.710938 L 12 9.265625 L 9.777344 9.265625 C 8.550781 9.265625 7.554688 10.261719 7.554688 11.488281 Z M 7.554688 11.488281 "/>
</g>
</svg>
