<?xml version="1.0" encoding="UTF-8"?>
<svg xmlns="http://www.w3.org/2000/svg" xmlns:xlink="http://www.w3.org/1999/xlink" width="24px" height="24px" viewBox="0 0 24 24" version="1.1">
<g id="surface1">
<path style=" stroke:none;fill-rule:nonzero;fill:rgb(95.294118%,30.980393%,16.078432%);fill-opacity:1;" d="M 23.386719 10.945312 L 13.054688 0.613281 C 12.460938 0.015625 11.492188 0.015625 10.898438 0.613281 L 8.753906 2.757812 L 11.476562 5.480469 C 12.109375 5.265625 12.832031 5.410156 13.335938 5.914062 C 13.84375 6.421875 13.984375 7.152344 13.765625 7.789062 L 16.390625 10.410156 C 17.023438 10.191406 17.757812 10.335938 18.265625 10.84375 C 18.972656 11.550781 18.972656 12.699219 18.265625 13.40625 C 17.554688 14.117188 16.40625 14.117188 15.699219 13.40625 C 15.179688 12.890625 15.027344 12.109375 15.304688 11.433594 L 12.859375 8.988281 L 12.855469 15.425781 C 13.035156 15.515625 13.195312 15.628906 13.335938 15.769531 C 14.046875 16.476562 14.046875 17.625 13.335938 18.335938 C 12.628906 19.042969 11.480469 19.042969 10.773438 18.335938 C 10.0625 17.625 10.0625 16.476562 10.773438 15.769531 C 10.941406 15.597656 11.144531 15.464844 11.367188 15.375 L 11.367188 8.875 C 11.144531 8.785156 10.941406 8.648438 10.773438 8.480469 C 10.234375 7.941406 10.105469 7.15625 10.382812 6.496094 L 7.699219 3.8125 L 0.613281 10.898438 C 0.015625 11.492188 0.015625 12.457031 0.613281 13.054688 L 10.945312 23.386719 C 11.542969 23.984375 12.507812 23.984375 13.101562 23.386719 L 23.386719 13.101562 C 23.984375 12.507812 23.984375 11.542969 23.386719 10.945312 "/>
</g>
</svg>
