<?xml version="1.0" encoding="UTF-8"?>
<svg xmlns="http://www.w3.org/2000/svg" xmlns:xlink="http://www.w3.org/1999/xlink" width="24px" height="24px" viewBox="0 0 24 24" version="1.1">
<g id="surface1">
<path style=" stroke:none;fill-rule:nonzero;fill:rgb(97.647059%,67.058825%,0%);fill-opacity:1;" d="M 22.816406 20.953125 C 22.820312 21.804688 22.460938 22.621094 21.824219 23.1875 C 21.1875 23.757812 20.335938 24.023438 19.488281 23.921875 C 17.964844 23.699219 16.847656 22.371094 16.882812 20.828125 L 16.882812 3.113281 C 16.847656 1.570312 17.96875 0.242188 19.496094 0.0195312 C 20.339844 -0.078125 21.191406 0.191406 21.824219 0.757812 C 22.460938 1.324219 22.820312 2.140625 22.816406 2.992188 Z M 22.816406 20.953125 "/>
<path style=" stroke:none;fill-rule:nonzero;fill:rgb(89.019608%,45.490196%,0%);fill-opacity:1;" d="M 4.148438 18.015625 C 5.789062 18.015625 7.117188 19.34375 7.117188 20.984375 C 7.117188 22.621094 5.789062 23.949219 4.148438 23.949219 C 2.511719 23.949219 1.183594 22.621094 1.183594 20.984375 C 1.183594 19.34375 2.511719 18.015625 4.148438 18.015625 Z M 11.953125 9.027344 C 10.308594 9.117188 9.03125 10.496094 9.070312 12.144531 L 9.070312 20.113281 C 9.070312 22.273438 10.019531 23.585938 11.414062 23.867188 C 12.289062 24.042969 13.199219 23.820312 13.890625 23.253906 C 14.578125 22.6875 14.980469 21.839844 14.976562 20.945312 L 14.976562 12.007812 C 14.976562 11.210938 14.660156 10.445312 14.089844 9.882812 C 13.523438 9.324219 12.753906 9.011719 11.953125 9.027344 Z M 11.953125 9.027344 "/>
</g>
</svg>
