<?xml version="1.0" encoding="UTF-8"?>
<svg xmlns="http://www.w3.org/2000/svg" xmlns:xlink="http://www.w3.org/1999/xlink" width="24px" height="24px" viewBox="0 0 24 24" version="1.1">
<g id="surface1">
<path style=" stroke:none;fill-rule:nonzero;fill:rgb(84.313726%,36.078432%,26.666668%);fill-opacity:1;" d="M 23.96875 21.597656 L 21.480469 12.878906 C 21.382812 12.535156 21.066406 12.296875 20.707031 12.296875 L 14.984375 12.296875 C 16.132812 10.746094 17.25 8.707031 17.25 6.628906 C 17.25 3.730469 14.894531 1.375 12 1.375 C 9.105469 1.375 6.75 3.730469 6.75 6.628906 C 6.75 8.707031 7.867188 10.746094 9.015625 12.296875 L 3.292969 12.296875 C 2.933594 12.296875 2.617188 12.535156 2.519531 12.878906 L 0.03125 21.597656 C -0.0390625 21.84375 0.0117188 22.105469 0.164062 22.304688 C 0.316406 22.507812 0.550781 22.625 0.804688 22.625 L 23.195312 22.625 C 23.449219 22.625 23.683594 22.507812 23.835938 22.304688 C 23.988281 22.105469 24.039062 21.84375 23.96875 21.597656 Z M 12 2.984375 C 14.007812 2.984375 15.640625 4.617188 15.640625 6.628906 C 15.640625 9.320312 13.125 12.160156 12 13.292969 C 10.875 12.160156 8.359375 9.320312 8.359375 6.628906 C 8.359375 4.617188 9.992188 2.984375 12 2.984375 Z M 10.351562 13.90625 C 10.957031 14.558594 11.410156 14.964844 11.46875 15.015625 C 11.621094 15.148438 11.808594 15.214844 12 15.214844 C 12.191406 15.214844 12.378906 15.148438 12.53125 15.015625 C 12.589844 14.964844 13.042969 14.558594 13.648438 13.90625 L 20.097656 13.90625 L 20.324219 14.691406 L 17.207031 17.289062 L 3.640625 14.820312 L 3.902344 13.90625 Z M 6.160156 21.015625 L 6.160156 16.914062 L 15.59375 18.632812 L 12.734375 21.015625 Z M 3.195312 16.375 L 4.550781 16.621094 L 4.550781 21.015625 L 1.871094 21.015625 Z M 15.25 21.015625 L 20.804688 16.386719 L 22.128906 21.015625 Z M 15.25 21.015625 "/>
<path style=" stroke:none;fill-rule:nonzero;fill:rgb(84.313726%,36.078432%,26.666668%);fill-opacity:1;" d="M 14.167969 6.628906 C 14.167969 5.425781 13.195312 4.449219 12 4.449219 C 10.804688 4.449219 9.832031 5.425781 9.832031 6.628906 C 9.832031 7.828125 10.804688 8.804688 12 8.804688 C 13.195312 8.804688 14.167969 7.828125 14.167969 6.628906 Z M 11.445312 6.628906 C 11.445312 6.3125 11.695312 6.058594 12 6.058594 C 12.304688 6.058594 12.554688 6.3125 12.554688 6.628906 C 12.554688 6.941406 12.304688 7.195312 12 7.195312 C 11.695312 7.195312 11.445312 6.941406 11.445312 6.628906 Z M 11.445312 6.628906 "/>
</g>
</svg>
