<?xml version="1.0" encoding="UTF-8"?>
<svg xmlns="http://www.w3.org/2000/svg" xmlns:xlink="http://www.w3.org/1999/xlink" width="24px" height="24px" viewBox="0 0 24 24" version="1.1">
<g id="surface1">
<path style=" stroke:none;fill-rule:nonzero;fill:rgb(54.11765%,70.588237%,97.254902%);fill-opacity:1;" d="M 14.085938 23.015625 L 9.921875 18.953125 L 18.867188 9.820312 L 23.179688 14.046875 Z M 14.085938 23.015625 "/>
<path style=" stroke:none;fill-rule:nonzero;fill:rgb(25.882354%,52.156866%,95.686275%);fill-opacity:1;" d="M 14.105469 5.058594 L 9.953125 0.820312 L 0.878906 9.808594 C -0.292969 10.980469 -0.292969 12.875 0.878906 14.046875 L 9.816406 23.046875 L 14.042969 19.089844 L 7.234375 11.929688 Z M 14.105469 5.058594 "/>
<path style=" stroke:none;fill-rule:nonzero;fill:rgb(54.11765%,70.588237%,97.254902%);fill-opacity:1;" d="M 23.121094 9.878906 L 14.121094 0.878906 C 12.949219 -0.292969 11.050781 -0.292969 9.878906 0.878906 C 8.707031 2.050781 8.707031 3.949219 9.878906 5.121094 L 18.878906 14.121094 C 20.050781 15.292969 21.949219 15.292969 23.121094 14.121094 C 24.292969 12.949219 24.292969 11.050781 23.121094 9.878906 Z M 23.121094 9.878906 "/>
<path style=" stroke:none;fill-rule:nonzero;fill:rgb(14.117648%,43.529412%,85.882354%);fill-opacity:1;" d="M 14.863281 21.070312 C 14.863281 19.449219 13.550781 18.136719 11.929688 18.136719 C 10.3125 18.136719 9 19.449219 9 21.070312 C 9 22.6875 10.3125 24 11.929688 24 C 13.550781 24 14.863281 22.6875 14.863281 21.070312 Z M 14.863281 21.070312 "/>
</g>
</svg>
