<?xml version="1.0" encoding="UTF-8"?>
<svg xmlns="http://www.w3.org/2000/svg" xmlns:xlink="http://www.w3.org/1999/xlink" width="24px" height="24px" viewBox="0 0 24 24" version="1.1">
<defs>
<linearGradient id="linear0" gradientUnits="userSpaceOnUse" x1="0.358706" y1="0.0722395" x2="0.603144" y2="1.159879" gradientTransform="matrix(15.570312,0,0,11.085938,3.828125,3.828125)">
<stop offset="0" style="stop-color:rgb(40%,89.019608%,100%);stop-opacity:1;"/>
<stop offset="1" style="stop-color:rgb(43.921569%,39.215686%,97.647059%);stop-opacity:1;"/>
</linearGradient>
<linearGradient id="linear1" gradientUnits="userSpaceOnUse" x1="0.391716" y1="-0.00000258115" x2="0.550501" y2="0.991812" gradientTransform="matrix(23.148438,0,0,23.148438,0.425781,0.425781)">
<stop offset="0" style="stop-color:rgb(40%,89.019608%,100%);stop-opacity:1;"/>
<stop offset="1" style="stop-color:rgb(43.921569%,39.215686%,97.647059%);stop-opacity:1;"/>
</linearGradient>
</defs>
<g id="surface1">
<path style=" stroke:none;fill-rule:nonzero;fill:url(#linear0);" d="M 4.753906 14.914062 L 19.398438 10.023438 C 19.105469 8.195312 18.898438 6.972656 18.65625 6.039062 C 18.394531 5.035156 18.191406 4.765625 18.109375 4.675781 C 17.824219 4.351562 17.472656 4.09375 17.078125 3.925781 C 16.964844 3.878906 16.644531 3.765625 15.613281 3.828125 C 14.519531 3.894531 13.082031 4.117188 10.808594 4.476562 C 8.535156 4.835938 7.097656 5.070312 6.039062 5.34375 C 5.035156 5.601562 4.765625 5.808594 4.671875 5.890625 C 4.351562 6.175781 4.097656 6.523438 3.925781 6.917969 C 3.878906 7.035156 3.765625 7.351562 3.828125 8.386719 C 3.894531 9.480469 4.117188 10.917969 4.476562 13.191406 C 4.578125 13.828125 4.667969 14.398438 4.753906 14.914062 Z M 4.753906 14.914062 "/>
<path style=" stroke:none;fill-rule:nonzero;fill:url(#linear1);" d="M 0.714844 13.789062 C 0.0195312 9.386719 -0.332031 7.1875 0.425781 5.421875 C 0.816406 4.503906 1.414062 3.683594 2.167969 3.023438 C 3.613281 1.761719 5.8125 1.414062 10.210938 0.714844 C 14.613281 0.0195312 16.808594 -0.332031 18.578125 0.425781 C 19.5 0.816406 20.316406 1.414062 20.976562 2.167969 C 22.242188 3.613281 22.589844 5.8125 23.285156 10.210938 C 23.980469 14.613281 24.332031 16.8125 23.574219 18.578125 C 23.183594 19.496094 22.585938 20.316406 21.832031 20.976562 C 20.386719 22.242188 18.1875 22.589844 13.789062 23.285156 C 9.390625 23.980469 7.1875 24.328125 5.421875 23.574219 C 4.503906 23.183594 3.683594 22.585938 3.023438 21.832031 C 1.761719 20.386719 1.414062 18.1875 0.714844 13.789062 Z M 8.472656 21.597656 C 9.652344 21.527344 11.167969 21.289062 13.414062 20.933594 C 15.660156 20.578125 17.175781 20.335938 18.320312 20.039062 C 19.425781 19.753906 19.9375 19.472656 20.265625 19.183594 C 20.75 18.761719 21.132812 18.234375 21.386719 17.640625 C 21.558594 17.238281 21.667969 16.667969 21.597656 15.527344 C 21.527344 14.347656 21.289062 12.832031 20.933594 10.585938 C 20.578125 8.339844 20.335938 6.824219 20.039062 5.679688 C 19.75 4.574219 19.472656 4.0625 19.183594 3.734375 C 18.761719 3.25 18.234375 2.867188 17.640625 2.613281 C 17.238281 2.441406 16.667969 2.332031 15.523438 2.402344 C 14.347656 2.472656 12.832031 2.710938 10.585938 3.066406 C 8.339844 3.421875 6.824219 3.664062 5.679688 3.960938 C 4.574219 4.246094 4.0625 4.527344 3.734375 4.816406 C 3.25 5.238281 2.867188 5.765625 2.613281 6.359375 C 2.441406 6.761719 2.332031 7.332031 2.402344 8.472656 C 2.472656 9.652344 2.710938 11.167969 3.066406 13.414062 C 3.421875 15.660156 3.664062 17.175781 3.960938 18.320312 C 4.246094 19.425781 4.527344 19.9375 4.816406 20.265625 C 5.238281 20.75 5.765625 21.132812 6.359375 21.386719 C 6.761719 21.558594 7.332031 21.667969 8.472656 21.597656 Z M 8.472656 21.597656 "/>
</g>
</svg>
