<?xml version="1.0" encoding="UTF-8"?>
<svg xmlns="http://www.w3.org/2000/svg" xmlns:xlink="http://www.w3.org/1999/xlink" width="24px" height="24px" viewBox="0 0 24 24" version="1.1">
<g id="surface1">
<path style=" stroke:none;fill-rule:nonzero;fill:rgb(89.411765%,30.19608%,14.901961%);fill-opacity:1;" d="M 3.570312 21.351562 L 1.695312 0.3125 L 22.304688 0.3125 L 20.429688 21.347656 L 11.988281 23.6875 Z M 3.570312 21.351562 "/>
<path style=" stroke:none;fill-rule:nonzero;fill:rgb(94.509804%,39.607844%,16.078432%);fill-opacity:1;" d="M 12 21.898438 L 18.820312 20.007812 L 20.425781 2.03125 L 12 2.03125 Z M 12 21.898438 "/>
<path style=" stroke:none;fill-rule:nonzero;fill:rgb(92.156863%,92.156863%,92.156863%);fill-opacity:1;" d="M 12 9.835938 L 8.585938 9.835938 L 8.347656 7.191406 L 12 7.191406 L 12 4.613281 L 5.527344 4.613281 L 5.589844 5.304688 L 6.226562 12.414062 L 12 12.414062 Z M 12 16.539062 L 11.988281 16.539062 L 9.113281 15.765625 L 8.929688 13.707031 L 6.339844 13.707031 L 6.703125 17.757812 L 11.988281 19.226562 L 12 19.222656 Z M 12 16.539062 "/>
<path style=" stroke:none;fill-rule:nonzero;fill:rgb(100%,100%,100%);fill-opacity:1;" d="M 11.992188 9.835938 L 11.992188 12.414062 L 15.167969 12.414062 L 14.867188 15.761719 L 11.992188 16.539062 L 11.992188 19.222656 L 17.28125 17.757812 L 17.320312 17.320312 L 17.925781 10.527344 L 17.988281 9.835938 Z M 11.992188 4.613281 L 11.992188 7.191406 L 18.222656 7.191406 L 18.277344 6.613281 L 18.394531 5.304688 L 18.457031 4.613281 Z M 11.992188 4.613281 "/>
</g>
</svg>
