<?xml version="1.0" encoding="UTF-8"?>
<svg xmlns="http://www.w3.org/2000/svg" xmlns:xlink="http://www.w3.org/1999/xlink" width="24px" height="24px" viewBox="0 0 24 24" version="1.1">
<g id="surface1">
<rect x="0" y="0" width="24" height="24" style="fill:rgb(96.862745%,87.450981%,11.764706%);fill-opacity:1;stroke:none;"/>
<path style=" stroke:none;fill-rule:nonzero;fill:rgb(0%,0%,0%);fill-opacity:1;" d="M 6.308594 20.054688 L 8.148438 18.945312 C 8.5 19.574219 8.824219 20.105469 9.597656 20.105469 C 10.339844 20.105469 10.804688 19.816406 10.804688 18.6875 L 10.804688 11.019531 L 13.0625 11.019531 L 13.0625 18.71875 C 13.0625 21.054688 11.691406 22.117188 9.695312 22.117188 C 7.890625 22.117188 6.84375 21.183594 6.308594 20.054688 M 14.285156 19.8125 L 16.121094 18.75 C 16.605469 19.539062 17.234375 20.121094 18.34375 20.121094 C 19.28125 20.121094 19.875 19.652344 19.875 19.007812 C 19.875 18.234375 19.261719 17.960938 18.234375 17.511719 L 17.667969 17.269531 C 16.042969 16.578125 14.960938 15.707031 14.960938 13.871094 C 14.960938 12.179688 16.25 10.890625 18.265625 10.890625 C 19.699219 10.890625 20.730469 11.390625 21.472656 12.695312 L 19.714844 13.820312 C 19.328125 13.128906 18.910156 12.855469 18.265625 12.855469 C 17.605469 12.855469 17.183594 13.273438 17.183594 13.820312 C 17.183594 14.5 17.605469 14.773438 18.570312 15.191406 L 19.132812 15.433594 C 21.050781 16.253906 22.132812 17.09375 22.132812 18.976562 C 22.132812 21.007812 20.535156 22.117188 18.394531 22.117188 C 16.300781 22.117188 14.945312 21.121094 14.285156 19.816406 "/>
</g>
</svg>
