<?xml version="1.0" encoding="UTF-8"?>
<svg xmlns="http://www.w3.org/2000/svg" xmlns:xlink="http://www.w3.org/1999/xlink" width="24px" height="24px" viewBox="0 0 24 41" version="1.1">
<g id="surface1">
<path style=" stroke:none;fill-rule:nonzero;fill:rgb(30.588236%,47.058824%,58.823532%);fill-opacity:1;" d="M 8.261719 21.90625 C 8.261719 21.90625 7.28125 22.5 8.941406 22.671875 C 10.949219 22.925781 12.011719 22.882812 14.226562 22.457031 C 14.226562 22.457031 14.824219 22.84375 15.632812 23.140625 C 10.648438 25.269531 4.339844 23.011719 8.261719 21.90625 Z M 7.621094 19.136719 C 7.621094 19.136719 6.554688 19.945312 8.21875 20.117188 C 10.390625 20.328125 12.097656 20.371094 15.039062 19.773438 C 15.039062 19.773438 15.421875 20.203125 16.058594 20.414062 C 10.050781 22.203125 3.316406 20.585938 7.621094 19.136719 Z M 19.382812 23.992188 C 19.382812 23.992188 20.109375 24.589844 18.574219 25.058594 C 15.71875 25.910156 6.597656 26.164062 4.042969 25.058594 C 3.148438 24.671875 4.851562 24.121094 5.40625 24.035156 C 5.960938 23.90625 6.257812 23.90625 6.257812 23.90625 C 5.277344 23.226562 -0.261719 25.3125 3.445312 25.914062 C 13.628906 27.574219 22.027344 25.1875 19.382812 23.996094 Z M 8.730469 16.238281 C 8.730469 16.238281 4.085938 17.347656 7.066406 17.730469 C 8.347656 17.898438 10.859375 17.855469 13.203125 17.6875 C 15.121094 17.515625 17.042969 17.175781 17.042969 17.175781 C 17.042969 17.175781 16.363281 17.472656 15.894531 17.773438 C 11.160156 19.007812 2.082031 18.453125 4.679688 17.175781 C 6.898438 16.109375 8.730469 16.238281 8.730469 16.238281 Z M 17.039062 20.882812 C 21.8125 18.410156 19.597656 16.027344 18.0625 16.324219 C 17.679688 16.410156 17.507812 16.496094 17.507812 16.496094 C 17.507812 16.496094 17.636719 16.238281 17.933594 16.152344 C 20.960938 15.089844 23.347656 19.347656 16.953125 21.011719 C 16.953125 21.011719 16.996094 20.96875 17.039062 20.882812 Z M 9.199219 27.613281 C 13.800781 27.910156 20.832031 27.441406 21.003906 25.269531 C 21.003906 25.269531 20.664062 26.121094 17.210938 26.761719 C 13.289062 27.484375 8.429688 27.398438 5.578125 26.929688 C 5.578125 26.929688 6.171875 27.441406 9.199219 27.613281 Z M 9.199219 27.613281 "/>
<path style=" stroke:none;fill-rule:nonzero;fill:rgb(96.078432%,50.980395%,9.803922%);fill-opacity:1;" d="M 14.136719 2.179688 C 14.136719 2.179688 16.78125 4.863281 11.625 8.910156 C 7.488281 12.191406 10.6875 14.066406 11.625 16.195312 C 9.195312 14.023438 7.449219 12.105469 8.640625 10.316406 C 10.390625 7.675781 15.207031 6.398438 14.136719 2.179688 Z M 12.773438 14.40625 C 14.011719 15.8125 12.433594 17.089844 12.433594 17.089844 C 12.433594 17.089844 15.585938 15.472656 14.140625 13.46875 C 12.816406 11.550781 11.792969 10.613281 17.335938 7.417969 C 17.335938 7.417969 8.597656 9.59375 12.777344 14.40625 Z M 12.773438 14.40625 "/>
<path style=" stroke:none;fill-rule:nonzero;fill:rgb(30.588236%,47.058824%,58.823532%);fill-opacity:1;" d="M 10.574219 36.730469 L 10.574219 32.558594 C 10.574219 31.492188 9.980469 30.769531 8.488281 30.769531 C 7.632812 30.769531 6.910156 30.980469 6.269531 31.238281 L 6.484375 32.003906 C 6.953125 31.832031 7.546875 31.664062 8.1875 31.664062 C 8.996094 31.664062 9.382812 32.003906 9.382812 32.6875 L 9.382812 33.238281 L 8.953125 33.238281 C 6.910156 33.238281 5.972656 34.007812 5.972656 35.246094 C 5.972656 36.269531 6.609375 36.863281 7.761719 36.863281 C 8.484375 36.863281 9.039062 36.523438 9.550781 36.097656 L 9.636719 36.738281 L 10.574219 36.738281 Z M 9.382812 35.367188 C 8.957031 35.753906 8.488281 35.964844 8.058594 35.964844 C 7.507812 35.964844 7.164062 35.625 7.164062 35.027344 C 7.164062 34.429688 7.507812 34.003906 8.871094 34.003906 L 9.382812 34.003906 Z M 14.582031 36.730469 L 13.089844 36.730469 L 11.300781 30.894531 L 12.578125 30.894531 L 13.6875 34.472656 L 13.941406 35.539062 C 14.496094 34.007812 14.921875 32.429688 15.09375 30.894531 L 16.371094 30.894531 C 16.03125 32.8125 15.433594 34.898438 14.582031 36.730469 Z M 21.484375 36.730469 L 21.484375 32.558594 C 21.484375 31.492188 20.890625 30.769531 19.398438 30.769531 C 18.542969 30.769531 17.820312 30.980469 17.179688 31.238281 L 17.351562 32.003906 C 17.863281 31.832031 18.457031 31.664062 19.097656 31.664062 C 19.90625 31.664062 20.289062 32.003906 20.289062 32.6875 L 20.289062 33.238281 L 19.863281 33.238281 C 17.820312 33.238281 16.882812 34.007812 16.882812 35.246094 C 16.882812 36.269531 17.476562 36.863281 18.628906 36.863281 C 19.394531 36.863281 19.949219 36.523438 20.460938 36.097656 L 20.546875 36.738281 L 21.484375 36.738281 Z M 20.292969 35.367188 C 19.867188 35.753906 19.398438 35.964844 18.96875 35.964844 C 18.417969 35.964844 18.074219 35.625 18.074219 35.027344 C 18.074219 34.429688 18.417969 34.003906 19.78125 34.003906 L 20.292969 34.003906 Z M 4.652344 37.710938 C 4.3125 38.222656 3.800781 38.605469 3.160156 38.820312 L 2.605469 38.136719 C 3.03125 37.882812 3.457031 37.5 3.628906 37.15625 C 3.800781 36.859375 3.839844 36.433594 3.839844 35.453125 L 3.839844 28.808594 L 5.121094 28.808594 L 5.121094 35.367188 C 5.121094 36.691406 4.992188 37.199219 4.652344 37.710938 Z M 4.652344 37.710938 "/>
</g>
</svg>
