<?xml version="1.0" encoding="UTF-8"?>
<svg xmlns="http://www.w3.org/2000/svg" xmlns:xlink="http://www.w3.org/1999/xlink" width="24px" height="24px" viewBox="0 0 24 24" version="1.1">
<g id="surface1">
<path style=" stroke:none;fill-rule:nonzero;fill:rgb(60.000002%,25.882354%,35.686275%);fill-opacity:1;" d="M 20.316406 11.839844 C 20.316406 10.761719 19.441406 9.886719 18.363281 9.886719 C 18.292969 9.886719 18.222656 9.886719 18.15625 9.894531 L 20.839844 1.976562 L 9.433594 1.976562 L 12.113281 9.890625 C 12.074219 9.890625 12.035156 9.886719 11.996094 9.886719 C 11.03125 9.886719 10.210938 10.589844 10.066406 11.539062 C 9.917969 12.492188 10.484375 13.410156 11.402344 13.703125 C 10.984375 14.417969 10.46875 15.070312 9.863281 15.636719 C 9.078125 16.386719 8.144531 16.96875 7.125 17.335938 C 5.9375 16.773438 5.390625 15.386719 5.875 14.164062 C 5.933594 14.03125 5.992188 13.894531 6.046875 13.757812 C 6.945312 13.546875 7.574219 12.734375 7.554688 11.8125 C 7.535156 10.886719 6.875 10.105469 5.96875 9.929688 C 5.0625 9.757812 4.15625 10.242188 3.796875 11.09375 C 3.441406 11.941406 3.722656 12.929688 4.480469 13.457031 C 3.855469 14.585938 3.378906 15.792969 3.066406 17.046875 C 2.800781 18.648438 3.066406 20.347656 4.449219 21.308594 C 7.671875 23.542969 11.175781 19.921875 14.867188 19.011719 C 16.203125 18.683594 17.671875 18.734375 18.851562 18.050781 C 19.714844 17.5625 20.3125 16.714844 20.484375 15.738281 C 20.644531 14.808594 20.417969 13.855469 19.863281 13.097656 C 20.15625 12.746094 20.316406 12.300781 20.316406 11.84375 Z M 13.949219 11.851562 L 13.949219 11.84375 C 13.949219 11.160156 13.59375 10.523438 13.007812 10.171875 L 15.140625 5.851562 L 17.277344 10.210938 C 16.734375 10.574219 16.40625 11.183594 16.40625 11.835938 L 16.40625 11.878906 Z M 13.949219 11.851562 "/>
<path style=" stroke:none;fill-rule:nonzero;fill:rgb(100%,100%,100%);fill-opacity:1;" d="M 20.792969 11.839844 C 20.792969 10.671875 19.960938 9.667969 18.8125 9.449219 L 21.507812 1.5 L 8.765625 1.5 L 11.464844 9.464844 C 10.503906 9.679688 9.761719 10.457031 9.597656 11.433594 C 9.433594 12.40625 9.875 13.382812 10.714844 13.90625 C 10.375 14.410156 9.980469 14.871094 9.535156 15.289062 C 8.851562 15.945312 8.046875 16.460938 7.167969 16.8125 C 6.3125 16.316406 5.953125 15.269531 6.316406 14.351562 L 6.347656 14.28125 L 6.402344 14.148438 C 7.429688 13.792969 8.09375 12.800781 8.035156 11.714844 C 7.972656 10.628906 7.199219 9.71875 6.140625 9.476562 C 5.082031 9.238281 3.992188 9.730469 3.46875 10.683594 C 2.949219 11.640625 3.121094 12.820312 3.898438 13.585938 C 3.816406 13.757812 3.730469 13.933594 3.644531 14.113281 C 3.15625 15.007812 2.804688 15.96875 2.59375 16.964844 C 2.242188 19.0625 2.804688 20.746094 4.175781 21.695312 C 4.914062 22.222656 5.796875 22.503906 6.699219 22.5 C 8.300781 22.5 9.917969 21.695312 11.5 20.910156 C 12.605469 20.308594 13.773438 19.828125 14.980469 19.472656 C 15.425781 19.371094 15.878906 19.289062 16.332031 19.234375 C 17.292969 19.15625 18.230469 18.894531 19.089844 18.460938 C 20.074219 17.902344 20.757812 16.929688 20.957031 15.816406 C 21.117188 14.878906 20.933594 13.917969 20.4375 13.105469 C 20.671875 12.726562 20.796875 12.285156 20.796875 11.839844 Z M 19.839844 11.839844 C 19.839844 12.65625 19.179688 13.316406 18.363281 13.316406 C 17.546875 13.316406 16.882812 12.65625 16.882812 11.839844 C 16.882812 11.023438 17.546875 10.363281 18.363281 10.363281 C 19.179688 10.363281 19.839844 11.023438 19.839844 11.839844 M 20.175781 2.453125 L 17.792969 9.476562 C 17.691406 9.5 17.59375 9.53125 17.496094 9.570312 L 15.144531 4.769531 L 12.785156 9.539062 C 12.683594 9.503906 12.578125 9.476562 12.46875 9.453125 L 10.097656 2.453125 Z M 11.996094 10.363281 C 12.8125 10.363281 13.472656 11.023438 13.472656 11.839844 C 13.472656 12.65625 12.8125 13.316406 11.996094 13.316406 C 11.179688 13.316406 10.515625 12.65625 10.515625 11.839844 C 10.515625 11.023438 11.179688 10.363281 11.996094 10.363281 M 5.601562 10.375 C 6.417969 10.375 7.078125 11.039062 7.078125 11.855469 C 7.078125 12.667969 6.417969 13.332031 5.601562 13.332031 C 4.785156 13.332031 4.125 12.667969 4.125 11.855469 C 4.125 11.039062 4.785156 10.375 5.601562 10.375 Z M 20.015625 15.652344 C 19.863281 16.488281 19.351562 17.214844 18.613281 17.636719 C 17.855469 18.003906 17.035156 18.226562 16.195312 18.289062 C 15.722656 18.355469 15.230469 18.425781 14.75 18.546875 C 13.476562 18.914062 12.242188 19.421875 11.078125 20.054688 C 8.703125 21.234375 6.652344 22.25 4.722656 20.914062 C 3.308594 19.933594 3.371094 18.117188 3.539062 17.121094 C 3.730469 16.21875 4.054688 15.34375 4.5 14.53125 L 4.703125 14.113281 C 4.902344 14.191406 5.117188 14.246094 5.332031 14.269531 C 4.933594 15.664062 5.601562 17.136719 6.90625 17.761719 L 7.089844 17.855469 L 7.285156 17.785156 C 8.367188 17.394531 9.359375 16.78125 10.191406 15.984375 C 10.742188 15.46875 11.226562 14.882812 11.628906 14.246094 C 12.695312 14.40625 13.738281 13.851562 14.195312 12.875 C 14.652344 11.902344 14.414062 10.742188 13.609375 10.027344 L 15.136719 6.933594 L 16.683594 10.085938 C 15.769531 10.964844 15.6875 12.394531 16.488281 13.375 C 17.289062 14.351562 18.707031 14.554688 19.75 13.835938 C 20.027344 14.398438 20.121094 15.03125 20.015625 15.652344 Z M 20.015625 15.652344 "/>
</g>
</svg>
