<?xml version="1.0" encoding="UTF-8"?>
<svg xmlns="http://www.w3.org/2000/svg" xmlns:xlink="http://www.w3.org/1999/xlink" width="24px" height="24px" viewBox="0 0 24 24" version="1.1">
<g id="surface1">
<path style=" stroke:none;fill-rule:nonzero;fill:rgb(3.137255%,40.784314%,67.450982%);fill-opacity:1;" d="M 1.609375 5.777344 C -0.515625 8.832031 -0.253906 12.800781 1.371094 16.054688 C 1.410156 16.132812 1.449219 16.207031 1.488281 16.285156 L 1.566406 16.429688 C 1.578125 16.460938 1.597656 16.488281 1.613281 16.515625 C 1.640625 16.566406 1.667969 16.617188 1.695312 16.667969 L 1.851562 16.933594 L 1.941406 17.078125 L 2.121094 17.359375 L 2.195312 17.476562 C 2.28125 17.601562 2.367188 17.730469 2.457031 17.851562 L 2.507812 17.921875 C 2.585938 18.027344 2.664062 18.132812 2.746094 18.234375 L 2.835938 18.351562 L 3.054688 18.621094 L 3.136719 18.722656 C 3.238281 18.839844 3.339844 18.957031 3.441406 19.070312 C 3.453125 19.082031 3.457031 19.085938 3.460938 19.089844 C 3.5625 19.199219 3.667969 19.308594 3.773438 19.414062 L 3.871094 19.515625 L 4.117188 19.757812 L 4.21875 19.855469 C 4.332031 19.960938 4.445312 20.066406 4.558594 20.164062 L 4.933594 20.480469 L 5.058594 20.582031 L 5.316406 20.785156 L 5.453125 20.890625 L 5.742188 21.097656 L 5.878906 21.191406 C 5.96875 21.253906 6.0625 21.316406 6.160156 21.375 L 6.28125 21.457031 C 6.425781 21.550781 6.570312 21.640625 6.71875 21.726562 L 6.839844 21.800781 L 7.171875 21.984375 C 7.230469 22.019531 7.292969 22.046875 7.351562 22.078125 L 7.585938 22.203125 L 7.640625 22.226562 L 7.738281 22.273438 L 8.113281 22.445312 L 8.191406 22.480469 C 8.335938 22.542969 8.480469 22.605469 8.628906 22.664062 L 8.734375 22.703125 L 9.144531 22.855469 L 9.195312 22.875 C 9.347656 22.925781 9.5 22.976562 9.652344 23.023438 L 9.765625 23.058594 C 9.914062 23.105469 10.078125 23.164062 10.238281 23.191406 C 20.507812 25.0625 23.488281 17.019531 23.488281 17.019531 C 20.984375 20.28125 16.539062 21.144531 12.316406 20.183594 C 12.15625 20.148438 12 20.101562 11.84375 20.054688 L 11.726562 20.019531 C 11.574219 19.972656 11.425781 19.921875 11.273438 19.871094 L 11.210938 19.847656 C 11.078125 19.800781 10.945312 19.75 10.8125 19.699219 L 10.699219 19.65625 C 10.554688 19.597656 10.414062 19.539062 10.269531 19.476562 L 10.183594 19.4375 L 9.820312 19.269531 L 9.714844 19.21875 C 9.621094 19.171875 9.527344 19.121094 9.433594 19.066406 L 9.246094 18.96875 C 9.132812 18.910156 9.019531 18.847656 8.910156 18.78125 L 8.792969 18.71875 C 8.648438 18.628906 8.5 18.542969 8.355469 18.449219 C 8.316406 18.421875 8.277344 18.398438 8.238281 18.371094 L 7.925781 18.164062 C 7.890625 18.140625 7.851562 18.113281 7.824219 18.09375 L 7.527344 17.878906 L 7.398438 17.78125 L 7.132812 17.570312 L 7.011719 17.476562 L 6.683594 17.195312 L 6.296875 16.847656 L 6.199219 16.753906 L 5.949219 16.507812 L 5.851562 16.410156 C 5.746094 16.300781 5.644531 16.195312 5.550781 16.082031 C 5.546875 16.078125 5.539062 16.074219 5.535156 16.066406 C 5.429688 15.949219 5.328125 15.832031 5.222656 15.710938 L 5.148438 15.613281 L 4.925781 15.335938 L 4.847656 15.234375 L 4.589844 14.890625 C 2.238281 11.699219 1.394531 7.292969 3.265625 3.675781 M 8.199219 3.207031 C 6.664062 5.417969 6.746094 8.382812 7.945312 10.714844 C 8.144531 11.105469 8.375 11.484375 8.625 11.847656 C 8.855469 12.179688 9.109375 12.570312 9.414062 12.835938 C 9.527344 12.957031 9.640625 13.074219 9.761719 13.191406 L 9.851562 13.28125 C 9.964844 13.394531 10.082031 13.503906 10.203125 13.609375 C 10.207031 13.613281 10.210938 13.617188 10.21875 13.621094 C 10.355469 13.742188 10.492188 13.847656 10.632812 13.964844 L 10.726562 14.039062 C 10.867188 14.148438 11.007812 14.25 11.15625 14.351562 L 11.167969 14.363281 C 11.234375 14.40625 11.296875 14.449219 11.363281 14.492188 C 11.394531 14.511719 11.425781 14.535156 11.457031 14.554688 C 11.5625 14.621094 11.667969 14.683594 11.777344 14.746094 L 11.820312 14.773438 L 12.101562 14.925781 C 12.136719 14.941406 12.179688 14.957031 12.203125 14.976562 L 12.402344 15.078125 C 12.410156 15.085938 12.421875 15.085938 12.429688 15.09375 C 12.566406 15.160156 12.703125 15.222656 12.84375 15.285156 L 12.933594 15.320312 C 13.042969 15.367188 13.15625 15.414062 13.269531 15.457031 L 13.414062 15.511719 C 13.515625 15.546875 13.621094 15.582031 13.722656 15.617188 L 13.863281 15.664062 C 14.011719 15.707031 14.164062 15.765625 14.3125 15.792969 C 22.242188 17.105469 24.070312 10.992188 24.070312 10.992188 C 22.421875 13.371094 19.226562 14.503906 15.816406 13.617188 C 15.664062 13.578125 15.515625 13.535156 15.367188 13.488281 C 15.320312 13.472656 15.277344 13.457031 15.230469 13.445312 L 14.917969 13.335938 L 14.765625 13.285156 C 14.652344 13.238281 14.539062 13.195312 14.429688 13.148438 L 14.335938 13.109375 C 14.199219 13.046875 14.058594 12.984375 13.921875 12.917969 L 13.714844 12.8125 L 13.597656 12.75 C 13.507812 12.703125 13.421875 12.652344 13.332031 12.601562 L 13.269531 12.566406 C 13.164062 12.503906 13.058594 12.441406 12.953125 12.371094 C 12.921875 12.351562 12.890625 12.328125 12.855469 12.308594 L 12.648438 12.171875 C 12.503906 12.070312 12.363281 11.96875 12.222656 11.859375 L 12.125 11.785156 C 10.625 10.605469 9.449219 8.992188 8.886719 7.167969 C 8.296875 5.273438 8.425781 3.148438 9.445312 1.421875 M 13.746094 1.285156 C 12.839844 2.625 12.75 4.273438 13.378906 5.746094 C 14.039062 7.308594 15.398438 8.53125 16.984375 9.121094 L 17.179688 9.195312 L 17.265625 9.222656 L 17.550781 9.296875 C 21.929688 10.144531 23.113281 7.050781 23.429688 6.59375 C 22.390625 8.09375 20.644531 8.453125 18.496094 7.929688 C 18.328125 7.890625 18.140625 7.828125 17.980469 7.769531 C 17.769531 7.695312 17.5625 7.609375 17.363281 7.515625 C 16.980469 7.332031 16.621094 7.109375 16.28125 6.855469 C 14.363281 5.398438 13.171875 2.613281 14.421875 0.351562 "/>
</g>
</svg>
