<?xml version="1.0" encoding="UTF-8"?>
<svg xmlns="http://www.w3.org/2000/svg" xmlns:xlink="http://www.w3.org/1999/xlink" width="24px" height="24px" viewBox="0 0 24 24" version="1.1">
<g id="surface1">
<path style=" stroke:none;fill-rule:nonzero;fill:rgb(100%,100%,100%);fill-opacity:1;" d="M 13.765625 6.449219 L 13.742188 0 L 10.144531 0 L 10.167969 6.449219 L 11.964844 8.921875 Z M 10.167969 17.503906 L 10.167969 23.980469 L 13.765625 23.980469 L 13.765625 17.503906 L 11.964844 15.035156 Z M 10.167969 17.503906 "/>
<path style=" stroke:none;fill-rule:nonzero;fill:rgb(0%,94.901961%,90.196079%);fill-opacity:1;" d="M 13.765625 17.503906 L 17.554688 22.730469 L 20.453125 20.621094 L 16.664062 15.394531 L 13.765625 14.460938 Z M 10.167969 6.449219 L 6.355469 1.222656 L 3.453125 3.332031 L 7.242188 8.558594 L 10.167969 9.496094 Z M 10.167969 6.449219 "/>
<path style=" stroke:none;fill-rule:nonzero;fill:rgb(0%,72.549021%,94.509804%);fill-opacity:1;" d="M 7.242188 8.558594 L 1.105469 6.570312 L 0 9.976562 L 6.140625 11.988281 L 9.039062 11.03125 Z M 14.867188 12.925781 L 16.664062 15.394531 L 22.804688 17.382812 L 23.90625 13.980469 L 17.769531 11.988281 Z M 14.867188 12.925781 "/>
<path style=" stroke:none;fill-rule:nonzero;fill:rgb(83.92157%,22.745098%,100%);fill-opacity:1;" d="M 17.769531 11.988281 L 23.90625 9.976562 L 22.804688 6.570312 L 16.664062 8.558594 L 14.867188 11.03125 Z M 6.140625 11.988281 L 0 13.980469 L 1.105469 17.382812 L 7.242188 15.394531 L 9.039062 12.925781 Z M 6.140625 11.988281 "/>
<path style=" stroke:none;fill-rule:nonzero;fill:rgb(98.431373%,0.392157%,35.686275%);fill-opacity:1;" d="M 7.242188 15.394531 L 3.453125 20.621094 L 6.355469 22.730469 L 10.167969 17.503906 L 10.167969 14.460938 Z M 16.664062 8.558594 L 20.453125 3.332031 L 17.554688 1.222656 L 13.765625 6.449219 L 13.765625 9.496094 Z M 16.664062 8.558594 "/>
</g>
</svg>
