<?xml version="1.0" encoding="UTF-8"?>
<svg xmlns="http://www.w3.org/2000/svg" xmlns:xlink="http://www.w3.org/1999/xlink" width="24px" height="24px" viewBox="0 0 24 24" version="1.1">
<g id="surface1">
<path style="fill-rule:nonzero;fill:rgb(26.666668%,45.490196%,74.117649%);fill-opacity:1;stroke-width:1;stroke-linecap:butt;stroke-linejoin:miter;stroke:rgb(26.666668%,45.490196%,74.117649%);stroke-opacity:1;stroke-miterlimit:4;" d="M 35.14666 7.003222 C 35.14666 8.187521 35.668871 9.381146 36.489488 10.117837 C 37.431333 9.949983 38.149373 8.290098 38.149373 8.290098 L 40.144965 8.290098 C 40.144965 9.29722 39.622754 10.378942 38.811462 11.115633 C 38.923364 11.124958 39.035267 11.078332 39.147169 11.078332 C 41.35724 11.078332 43.147678 9.241268 43.147678 7.040522 C 43.147678 4.830451 41.35724 3.021363 39.147169 3.021363 C 36.937098 3.021363 35.14666 4.79315 35.14666 7.003222 Z M 35.14666 7.003222 " transform="matrix(0.418892,0,0,0.418892,0,0)"/>
<path style="fill-rule:nonzero;fill:rgb(26.666668%,45.490196%,74.117649%);fill-opacity:1;stroke-width:1;stroke-linecap:butt;stroke-linejoin:miter;stroke:rgb(26.666668%,45.490196%,74.117649%);stroke-opacity:1;stroke-miterlimit:4;" d="M 4.149712 19.004748 C 4.149712 21.205494 5.940149 23.005256 8.150221 23.005256 C 8.262123 23.005256 8.374025 23.126484 8.485928 23.117159 C 7.674636 22.380468 7.143099 21.28942 7.143099 20.291625 L 9.148016 20.291625 C 9.148016 20.291625 9.866056 21.951509 10.807901 22.110038 C 11.619193 21.382672 12.150729 20.254324 12.150729 19.070024 C 12.150729 16.869278 10.350967 15.04154 8.150221 15.04154 C 5.940149 15.04154 4.149712 16.794676 4.149712 19.004748 Z M 4.149712 19.004748 " transform="matrix(0.418892,0,0,0.418892,0,0)"/>
<path style="fill-rule:nonzero;fill:rgb(26.666668%,45.490196%,74.117649%);fill-opacity:1;stroke-width:1;stroke-linecap:butt;stroke-linejoin:miter;stroke:rgb(26.666668%,45.490196%,74.117649%);stroke-opacity:1;stroke-miterlimit:4;" d="M 51.148695 3.618176 L 52.985759 3.002713 L 51.148695 2.38725 Z M 51.148695 3.618176 " transform="matrix(0.418892,0,0,0.418892,0,0)"/>
<path style="fill-rule:nonzero;fill:rgb(26.666668%,45.490196%,74.117649%);fill-opacity:1;stroke-width:1;stroke-linecap:butt;stroke-linejoin:miter;stroke:rgb(26.666668%,45.490196%,74.117649%);stroke-opacity:1;stroke-miterlimit:4;" d="M 40.667176 16.002035 L 39.622754 16.002035 L 40.144965 17.307562 Z M 40.667176 16.002035 " transform="matrix(0.418892,0,0,0.418892,0,0)"/>
<path style="fill-rule:nonzero;fill:rgb(26.666668%,45.490196%,74.117649%);fill-opacity:1;stroke-width:1;stroke-linecap:butt;stroke-linejoin:miter;stroke:rgb(26.666668%,45.490196%,74.117649%);stroke-opacity:1;stroke-miterlimit:4;" d="M 18.14683 38.298576 L 13.148525 38.298576 C 12.598339 38.298576 12.150729 37.552561 12.150729 37.002374 L 12.150729 32.00407 C 12.150729 31.714989 12.271957 31.435233 12.495761 31.248729 C 12.710241 31.0529 12.999322 30.968973 13.288403 31.015599 L 19.974568 31.966769 L 26.688708 28.619024 L 26.380977 28.162089 L 25.774839 27.24822 L 19.545609 29.924551 C 19.321804 30.017803 19.060699 30.176331 18.827569 30.10173 L 12.980672 28.292642 L 10.145812 28.292642 L 10.145812 35.295863 L 8.150221 35.295863 L 8.150221 28.292642 L 5.147508 28.292642 C 3.496948 28.292642 2.144795 29.346389 2.144795 31.006274 L 2.144795 41.291964 L 4.149712 41.291964 L 4.149712 32.293151 L 6.145304 32.293151 L 6.145304 55.298407 L 9.148016 55.298407 L 9.148016 42.000679 C 9.148016 41.450492 9.595626 41.291964 10.145812 41.291964 L 17.149034 41.291964 C 17.69922 41.291964 18.14683 41.450492 18.14683 42.000679 L 18.14683 49.292981 L 21.149542 49.292981 L 21.149542 41.002883 C 21.149542 39.342998 19.797389 38.298576 18.14683 38.298576 Z M 18.14683 38.298576 " transform="matrix(0.418892,0,0,0.418892,0,0)"/>
<path style="fill-rule:nonzero;fill:rgb(26.666668%,45.490196%,74.117649%);fill-opacity:1;stroke-width:1;stroke-linecap:butt;stroke-linejoin:miter;stroke:rgb(26.666668%,45.490196%,74.117649%);stroke-opacity:1;stroke-miterlimit:4;" d="M 51.148695 15.004239 C 51.148695 15.554425 50.701086 16.291116 50.150899 16.291116 L 42.821296 16.291116 L 41.077484 20.515429 C 40.928281 20.897762 40.555274 21.074941 40.144965 21.074941 C 39.734656 21.074941 39.370974 20.935063 39.221771 20.55273 L 37.468634 16.291116 L 35.510343 16.291116 L 29.943201 20.78586 L 27.304171 25.998644 L 28.143439 27.238895 L 31.314005 22.464395 C 31.379282 22.371143 31.453883 22.277891 31.547135 22.212615 L 35.547644 19.209902 C 35.84605 18.976772 36.256359 18.939471 36.592066 19.107325 C 36.937098 19.275178 37.151577 19.62021 37.151577 20.002543 L 37.151577 43.296881 L 40.144965 43.296881 L 40.144965 29.999153 C 40.144965 29.448966 40.592574 29.290438 41.142761 29.290438 L 48.145982 29.290438 C 48.696169 29.290438 49.143778 29.448966 49.143778 29.999153 L 49.143778 37.291455 L 52.146491 37.291455 L 52.146491 29.001357 C 52.146491 27.350797 50.803663 26.29705 49.143778 26.29705 L 44.145474 26.29705 C 43.595287 26.29705 43.147678 25.551035 43.147678 25.000848 L 43.147678 19.004748 C 43.147678 18.445236 43.595287 18.296033 44.145474 18.296033 L 50.150899 18.296033 C 51.801459 18.296033 53.144287 16.654798 53.144287 15.004239 L 53.144287 10.295015 L 51.148695 10.295015 Z M 51.148695 15.004239 " transform="matrix(0.418892,0,0,0.418892,0,0)"/>
<path style="fill-rule:nonzero;fill:rgb(100%,100%,100%);fill-opacity:1;stroke-width:1;stroke-linecap:butt;stroke-linejoin:miter;stroke:rgb(26.666668%,45.490196%,74.117649%);stroke-opacity:1;stroke-miterlimit:4;" d="M 39.147169 12.999322 C 42.457613 12.999322 45.143269 10.313666 45.143269 7.003222 C 45.143269 3.692777 42.457613 0.997796 39.147169 0.997796 C 35.836725 0.997796 33.151069 3.692777 33.151069 7.003222 C 33.151069 10.313666 35.836725 12.999322 39.147169 12.999322 Z M 39.147169 3.002713 C 41.35724 3.002713 43.147678 4.79315 43.147678 7.003222 C 43.147678 9.203968 41.35724 11.00373 39.147169 11.00373 C 39.025942 11.00373 38.923364 11.124958 38.811462 11.115633 C 39.622754 10.378942 40.144965 9.29722 40.144965 8.290098 L 38.149373 8.290098 C 38.149373 8.290098 37.431333 9.949983 36.489488 10.108511 C 35.668871 9.381146 35.14666 8.252798 35.14666 7.077823 C 35.14666 4.867752 36.937098 3.002713 39.147169 3.002713 Z M 39.147169 3.002713 " transform="matrix(0.418892,0,0,0.418892,0,0)"/>
<path style="fill-rule:nonzero;fill:rgb(100%,100%,100%);fill-opacity:1;stroke-width:1;stroke-linecap:butt;stroke-linejoin:miter;stroke:rgb(26.666668%,45.490196%,74.117649%);stroke-opacity:1;stroke-miterlimit:4;" d="M 8.150221 25.000848 C 11.45134 25.000848 14.146321 22.315192 14.146321 19.004748 C 14.146321 15.694303 11.45134 12.999322 8.150221 12.999322 C 4.839776 12.999322 2.144795 15.694303 2.144795 19.004748 C 2.144795 22.315192 4.839776 25.000848 8.150221 25.000848 Z M 8.150221 15.004239 C 10.350967 15.004239 12.150729 16.794676 12.150729 19.004748 C 12.150729 20.179722 11.619193 21.382672 10.807901 22.110038 C 9.866056 21.951509 9.148016 20.291625 9.148016 20.291625 L 7.143099 20.291625 C 7.143099 21.28942 7.674636 22.380468 8.485928 23.117159 C 8.374025 23.126484 8.262123 23.070533 8.150221 23.070533 C 5.940149 23.070533 4.149712 21.242794 4.149712 19.032723 C 4.149712 16.831977 5.940149 15.004239 8.150221 15.004239 Z M 8.150221 15.004239 " transform="matrix(0.418892,0,0,0.418892,0,0)"/>
<path style="fill-rule:nonzero;fill:rgb(100%,100%,100%);fill-opacity:1;stroke-width:1;stroke-linecap:butt;stroke-linejoin:miter;stroke:rgb(26.666668%,45.490196%,74.117649%);stroke-opacity:1;stroke-miterlimit:4;" d="M 56.464056 2.051543 L 50.458631 0.0559512 C 50.160224 -0.0559512 49.824517 0 49.563412 0.186504 C 49.302307 0.382333 49.143778 0.680739 49.143778 0.997796 L 49.143778 14.295524 L 35.14666 14.295524 C 34.91353 14.295524 34.689726 14.230248 34.503222 14.379451 L 28.507121 19.303154 C 28.404544 19.396406 28.311292 19.471007 28.255341 19.592235 L 25.420482 25.243303 L 19.098 27.938285 L 13.465582 26.203798 C 13.363005 26.166497 13.251102 26.29705 13.148525 26.29705 L 5.147508 26.29705 C 2.38725 26.29705 0.149203 28.246016 0.149203 31.006274 L 0.149203 42.000679 C 0.149203 42.550865 0.596812 43.296881 1.146999 43.296881 L 4.149712 43.296881 L 4.149712 55.298407 L 0.149203 55.298407 L 0.149203 57.293999 L 14.146321 57.293999 C 14.696507 57.293999 15.144117 56.557308 15.144117 55.997797 L 15.144117 51.297898 L 29.15056 51.297898 C 29.700746 51.297898 30.148356 50.551883 30.148356 50.001696 L 30.148356 45.292473 L 41.142761 45.292473 C 41.702273 45.292473 42.149882 44.555782 42.149882 44.005596 L 42.149882 39.296372 L 56.147 39.296372 L 56.147 37.291455 L 54.151408 37.291455 L 54.151408 29.001357 C 54.151408 26.241099 51.904036 24.292133 49.143778 24.292133 L 45.143269 24.292133 L 45.143269 20.291625 L 50.150899 20.291625 C 52.901832 20.291625 55.149204 17.755171 55.149204 15.004239 L 55.149204 8.998813 C 55.149204 8.448627 54.701594 8.290098 54.151408 8.290098 L 51.148695 8.290098 L 51.148695 5.72567 L 56.464056 3.953883 C 56.874365 3.814005 57.144796 3.431672 57.144796 3.002713 C 57.144796 2.573754 56.874365 2.191421 56.464056 2.051543 Z M 40.667176 16.002035 L 40.144965 17.307562 L 39.622754 16.002035 Z M 14.146321 49.292981 C 13.596134 49.292981 13.148525 49.45151 13.148525 50.001696 L 13.148525 55.298407 L 11.143608 55.298407 L 11.143608 43.296881 L 16.151238 43.296881 L 16.151238 49.292981 Z M 18.14683 49.292981 L 18.14683 42.000679 C 18.14683 41.450492 17.69922 41.291964 17.149034 41.291964 L 10.145812 41.291964 C 9.595626 41.291964 9.148016 41.450492 9.148016 42.000679 L 9.148016 55.298407 L 6.145304 55.298407 L 6.145304 32.293151 L 4.149712 32.293151 L 4.149712 41.291964 L 2.144795 41.291964 L 2.144795 31.006274 C 2.144795 29.346389 3.496948 28.292642 5.147508 28.292642 L 8.150221 28.292642 L 8.150221 35.295863 L 10.145812 35.295863 L 10.145812 28.292642 L 12.980672 28.292642 L 18.827569 30.092405 C 19.060699 30.176331 19.312479 30.092405 19.545609 29.989827 L 25.774839 27.285521 L 26.380977 28.18074 L 26.688708 28.628349 L 19.974568 31.976094 L 13.288403 31.015599 C 12.999322 30.968973 12.710241 31.062225 12.486436 31.248729 C 12.271957 31.435233 12.150729 31.714989 12.150729 32.00407 L 12.150729 37.002374 C 12.150729 37.552561 12.598339 38.298576 13.148525 38.298576 L 18.14683 38.298576 C 19.797389 38.298576 21.149542 39.342998 21.149542 41.002883 L 21.149542 49.292981 Z M 29.15056 43.296881 C 28.591048 43.296881 28.143439 43.446084 28.143439 44.005596 L 28.143439 49.292981 L 23.145134 49.292981 L 23.145134 41.002883 C 23.145134 38.242625 20.907087 36.293659 18.14683 36.293659 L 14.146321 36.293659 L 14.146321 33.151069 L 20.002543 33.990336 C 20.207698 34.018312 20.412852 33.990336 20.590031 33.897084 L 28.591048 29.896576 C 28.740251 29.821974 28.852154 29.710072 28.945406 29.579519 C 28.954731 29.570194 28.973381 29.570194 28.982706 29.560868 L 32.880638 23.704646 L 35.14666 21.998135 L 35.14666 43.296881 Z M 47.148186 37.291455 L 42.149882 37.291455 L 42.149882 31.295355 L 47.148186 31.295355 Z M 53.144287 15.004239 C 53.144287 16.654798 51.801459 18.296033 50.150899 18.296033 L 44.145474 18.296033 C 43.595287 18.296033 43.147678 18.445236 43.147678 19.004748 L 43.147678 25.000848 C 43.147678 25.551035 43.595287 26.29705 44.145474 26.29705 L 49.143778 26.29705 C 50.803663 26.29705 52.146491 27.350797 52.146491 29.001357 L 52.146491 37.291455 L 49.143778 37.291455 L 49.143778 29.999153 C 49.143778 29.448966 48.696169 29.290438 48.145982 29.290438 L 41.142761 29.290438 C 40.592574 29.290438 40.144965 29.448966 40.144965 29.999153 L 40.144965 43.296881 L 37.151577 43.296881 L 37.151577 20.002543 C 37.151577 19.62021 36.937098 19.275178 36.592066 19.107325 C 36.256359 18.939471 35.84605 18.976772 35.547644 19.200577 L 31.547135 22.20329 C 31.453883 22.268566 31.379282 22.352493 31.314005 22.445745 L 28.143439 27.201594 L 27.304171 25.933368 L 29.943201 20.78586 L 35.510343 16.291116 L 37.468634 16.291116 L 39.221771 20.515429 C 39.370974 20.897762 39.734656 21.074941 40.144965 21.074941 C 40.555274 21.074941 40.918956 20.935063 41.077484 20.55273 L 42.821296 16.291116 L 50.150899 16.291116 C 50.701086 16.291116 51.148695 15.554425 51.148695 15.004239 L 51.148695 10.295015 L 53.144287 10.295015 C 53.144287 10.295015 53.144287 15.004239 53.144287 15.004239 Z M 51.148695 3.618176 L 51.148695 2.38725 L 52.985759 3.002713 Z M 51.148695 3.618176 " transform="matrix(0.418892,0,0,0.418892,0,0)"/>
</g>
</svg>
