<?xml version="1.0" encoding="UTF-8"?>
<svg xmlns="http://www.w3.org/2000/svg" xmlns:xlink="http://www.w3.org/1999/xlink" width="24px" height="24px" viewBox="0 0 24 24" version="1.1">
<g id="surface1">
<path style=" stroke:none;fill-rule:nonzero;fill:rgb(56.470591%,79.215688%,97.647059%);fill-opacity:1;" d="M 8.699219 16.5 L 7.5 16.5 L 7.5 14.5 L 9.5 14.5 L 9.699219 15.25 C 9.851562 15.898438 9.351562 16.5 8.699219 16.5 M 18.5 18 C 18.5 18 12.601562 14.5 9.5 14.5 L 9.5 7.5 C 12.398438 7.5 18.5 4 18.5 4 Z M 18.5 18 "/>
<path style=" stroke:none;fill-rule:nonzero;fill:rgb(15.686275%,20.784314%,57.647061%);fill-opacity:1;" d="M 7 11 C 7 9.621094 5.878906 8.5 4.5 8.5 C 3.121094 8.5 2 9.621094 2 11 C 2 12.378906 3.121094 13.5 4.5 13.5 C 5.878906 13.5 7 12.378906 7 11 Z M 7 11 "/>
<path style=" stroke:none;fill-rule:nonzero;fill:rgb(15.686275%,20.784314%,57.647061%);fill-opacity:1;" d="M 20 9.5 L 18.5 9.5 L 18.5 12.5 L 20 12.5 C 20.851562 12.5 21.5 11.851562 21.5 11 C 21.5 10.148438 20.851562 9.5 20 9.5 M 9.300781 20.601562 C 8.851562 20.898438 8.050781 21.199219 7 21.300781 C 6.699219 21.351562 6.398438 21.148438 6.300781 20.800781 L 4.101562 13.949219 C 4.101562 13.949219 8.5 10.851562 8.5 14.5 C 8.5 17.25 9.25 18.699219 9.601562 19.25 C 9.851562 19.601562 9.851562 20.050781 9.601562 20.398438 C 9.5 20.5 9.398438 20.550781 9.300781 20.601562 "/>
<path style=" stroke:none;fill-rule:nonzero;fill:rgb(24.705882%,31.764707%,70.980394%);fill-opacity:1;" d="M 4.5 14.5 L 9.5 14.5 L 9.5 7.5 L 4.5 7.5 C 3.949219 7.5 3.5 7.949219 3.5 8.5 L 3.5 13.5 C 3.5 14.050781 3.949219 14.5 4.5 14.5 "/>
<path style=" stroke:none;fill-rule:nonzero;fill:rgb(25.882354%,64.705884%,96.078432%);fill-opacity:1;" d="M 19 19 C 18.449219 19 18 18.550781 18 18 L 18 4 C 18 3.449219 18.449219 3 19 3 C 19.550781 3 20 3.449219 20 4 L 20 18 C 20 18.550781 19.550781 19 19 19 "/>
</g>
</svg>
