<?xml version="1.0" encoding="UTF-8"?>
<svg xmlns="http://www.w3.org/2000/svg" xmlns:xlink="http://www.w3.org/1999/xlink" width="24px" height="24px" viewBox="0 0 24 20" version="1.1">
<g id="surface1">
<path style=" stroke:none;fill-rule:nonzero;fill:rgb(0%,49.803922%,100%);fill-opacity:1;" d="M 20.175781 13.613281 C 20.378906 13.5 20.507812 13.289062 20.507812 13.058594 L 20.519531 9.351562 C 20.519531 9.125 20.648438 8.914062 20.855469 8.796875 L 22.941406 7.644531 C 23.144531 7.53125 23.398438 7.53125 23.605469 7.644531 C 23.808594 7.757812 23.9375 7.972656 23.9375 8.199219 L 23.9375 14.941406 C 23.9375 15.167969 23.808594 15.382812 23.601562 15.496094 L 15.730469 19.851562 C 15.527344 19.964844 15.273438 19.964844 15.070312 19.851562 L 8.890625 16.449219 C 8.683594 16.335938 8.558594 16.121094 8.558594 15.890625 L 8.558594 12.492188 C 8.558594 12.488281 8.5625 12.488281 8.566406 12.488281 C 8.570312 12.492188 8.574219 12.488281 8.574219 12.484375 L 8.574219 12.480469 C 8.574219 12.476562 8.574219 12.476562 8.578125 12.472656 L 13.664062 9.65625 C 13.671875 9.65625 13.667969 9.648438 13.664062 9.648438 L 13.667969 6.3125 C 13.667969 6.082031 13.542969 5.871094 13.335938 5.753906 C 13.128906 5.640625 12.875 5.640625 12.671875 5.753906 L 8.890625 7.851562 C 8.683594 7.96875 8.429688 7.96875 8.226562 7.851562 L 4.433594 5.75 C 4.226562 5.632812 3.972656 5.632812 3.769531 5.75 C 3.5625 5.863281 3.433594 6.074219 3.433594 6.304688 L 3.433594 12.324219 C 3.4375 12.554688 3.308594 12.765625 3.105469 12.878906 C 2.898438 12.996094 2.648438 12.996094 2.441406 12.882812 L 0.335938 11.722656 C 0.128906 11.609375 0 11.394531 0 11.164062 L 0.0195312 0.640625 C 0.0195312 0.410156 0.144531 0.199219 0.351562 0.0859375 C 0.558594 -0.0273438 0.808594 -0.0273438 1.015625 0.0859375 L 8.226562 4.074219 C 8.429688 4.1875 8.683594 4.1875 8.886719 4.074219 L 16.097656 0.0859375 C 16.304688 -0.0273438 16.554688 -0.0273438 16.761719 0.0859375 C 16.96875 0.199219 17.09375 0.414062 17.09375 0.640625 L 17.09375 11.167969 C 17.09375 11.398438 16.964844 11.609375 16.761719 11.726562 L 12.984375 13.820312 C 12.777344 13.933594 12.652344 14.148438 12.652344 14.375 C 12.652344 14.605469 12.78125 14.816406 12.988281 14.929688 L 15.070312 16.074219 C 15.273438 16.1875 15.527344 16.1875 15.730469 16.074219 Z M 20.613281 4.167969 C 20.613281 4.398438 20.742188 4.613281 20.949219 4.726562 C 21.15625 4.839844 21.414062 4.835938 21.617188 4.71875 L 23.613281 3.566406 C 23.8125 3.449219 23.9375 3.242188 23.9375 3.015625 L 23.9375 0.664062 C 23.9375 0.433594 23.808594 0.222656 23.597656 0.109375 C 23.390625 -0.00390625 23.136719 0 22.929688 0.117188 L 20.933594 1.269531 C 20.734375 1.386719 20.613281 1.59375 20.613281 1.820312 Z M 20.613281 4.167969 "/>
</g>
</svg>
