<?xml version="1.0" encoding="UTF-8"?>
<svg xmlns="http://www.w3.org/2000/svg" xmlns:xlink="http://www.w3.org/1999/xlink" width="24px" height="24px" viewBox="0 0 24 24" version="1.1">
<g id="surface1">
<path style=" stroke:none;fill-rule:evenodd;fill:rgb(26.274511%,60.000002%,20.392157%);fill-opacity:1;" d="M 16.507812 8.027344 C 16.808594 8.898438 17.023438 9.785156 17.097656 10.707031 C 17.183594 11.851562 17.144531 12.984375 16.902344 14.109375 C 16.898438 14.140625 16.882812 14.167969 16.871094 14.199219 C 16.796875 14.199219 16.71875 14.191406 16.644531 14.203125 C 16.023438 14.300781 15.398438 14.402344 14.773438 14.503906 C 14.128906 14.605469 13.484375 14.707031 12.839844 14.820312 C 12.613281 14.859375 12.332031 14.8125 12.238281 15.125 C 12.234375 15.136719 12.210938 15.136719 12.195312 15.140625 L 12.226562 13.257812 L 12.195312 8.710938 L 12.496094 8.65625 C 12.984375 8.578125 13.476562 8.496094 13.96875 8.417969 C 14.554688 8.324219 15.140625 8.234375 15.730469 8.144531 C 15.988281 8.101562 16.246094 8.066406 16.507812 8.027344 "/>
<path style=" stroke:none;fill-rule:evenodd;fill:rgb(27.058825%,64.705884%,21.960784%);fill-opacity:1;" d="M 11.574219 20.636719 C 11.257812 20.363281 10.929688 20.101562 10.625 19.816406 C 8.992188 18.273438 7.796875 16.460938 7.207031 14.273438 C 7.042969 13.671875 6.9375 13.058594 6.902344 12.4375 C 6.878906 12 6.84375 11.5625 6.871094 11.128906 C 6.953125 9.976562 7.121094 8.835938 7.460938 7.726562 L 7.476562 7.699219 C 7.511719 7.742188 7.558594 7.78125 7.574219 7.832031 C 7.90625 8.804688 8.230469 9.773438 8.558594 10.746094 C 9.582031 13.804688 10.601562 16.859375 11.628906 19.917969 C 11.648438 19.976562 11.699219 20.023438 11.738281 20.078125 Z M 11.574219 20.636719 "/>
<path style=" stroke:none;fill-rule:evenodd;fill:rgb(27.450982%,62.7451%,21.568628%);fill-opacity:1;" d="M 16.507812 8.027344 C 16.246094 8.066406 15.988281 8.101562 15.730469 8.144531 C 15.140625 8.234375 14.554688 8.324219 13.96875 8.417969 C 13.476562 8.496094 12.984375 8.578125 12.492188 8.65625 L 12.195312 8.710938 L 12.191406 8.511719 C 12.179688 8.351562 12.164062 8.191406 12.164062 8.03125 C 12.148438 7.003906 12.140625 5.976562 12.128906 4.949219 C 12.121094 4.304688 12.109375 3.664062 12.097656 3.019531 C 12.089844 2.621094 12.078125 2.222656 12.0625 1.824219 C 12.050781 1.609375 12.015625 1.394531 12.003906 1.179688 C 11.996094 1.058594 12.007812 0.933594 12.007812 0.808594 C 12.160156 1.105469 12.3125 1.40625 12.46875 1.699219 C 12.71875 2.164062 13.113281 2.507812 13.472656 2.882812 C 14.882812 4.363281 15.882812 6.082031 16.507812 8.027344 "/>
<path style=" stroke:none;fill-rule:evenodd;fill:rgb(25.098041%,58.039218%,20%);fill-opacity:1;" d="M 12.195312 15.140625 C 12.210938 15.136719 12.234375 15.136719 12.238281 15.125 C 12.332031 14.8125 12.613281 14.859375 12.839844 14.820312 C 13.484375 14.707031 14.128906 14.605469 14.773438 14.503906 C 15.398438 14.402344 16.023438 14.300781 16.644531 14.203125 C 16.71875 14.191406 16.796875 14.199219 16.871094 14.199219 C 16.753906 14.617188 16.664062 15.039062 16.515625 15.445312 C 16.347656 15.90625 16.144531 16.351562 15.929688 16.792969 C 15.605469 17.449219 15.207031 18.0625 14.738281 18.621094 C 14.378906 19.054688 13.976562 19.457031 13.574219 19.851562 C 13.351562 20.070312 13.089844 20.246094 12.847656 20.441406 L 12.785156 20.398438 L 12.554688 20.207031 L 12.320312 19.6875 C 12.160156 19.085938 12.070312 18.46875 12.058594 17.84375 L 12.0625 17.738281 L 12.09375 17.285156 C 12.105469 17.128906 12.121094 16.972656 12.125 16.820312 C 12.152344 16.257812 12.171875 15.699219 12.195312 15.140625 "/>
<path style=" stroke:none;fill-rule:evenodd;fill:rgb(30.980393%,66.666669%,25.490198%);fill-opacity:1;" d="M 12.195312 15.140625 C 12.171875 15.699219 12.152344 16.257812 12.128906 16.820312 C 12.121094 16.972656 12.105469 17.128906 12.097656 17.285156 L 11.953125 17.339844 C 11.632812 16.402344 11.316406 15.472656 11.003906 14.542969 C 10.488281 13.003906 9.976562 11.460938 9.464844 9.921875 C 9.046875 8.679688 8.628906 7.4375 8.207031 6.195312 C 8.1875 6.140625 8.128906 6.09375 8.089844 6.042969 L 9.007812 4.355469 C 9.039062 4.410156 9.082031 4.460938 9.101562 4.519531 C 9.527344 5.777344 9.949219 7.035156 10.371094 8.292969 C 10.917969 9.929688 11.460938 11.566406 12.007812 13.203125 C 12.03125 13.269531 12.066406 13.328125 12.101562 13.402344 L 12.226562 13.257812 Z M 12.195312 15.140625 "/>
<path style=" stroke:none;fill-rule:evenodd;fill:rgb(29.019609%,65.490198%,23.529412%);fill-opacity:1;" d="M 8.089844 6.042969 C 8.132812 6.09375 8.1875 6.140625 8.207031 6.199219 C 8.628906 7.4375 9.046875 8.679688 9.464844 9.921875 C 9.976562 11.460938 10.488281 13.003906 11.003906 14.542969 C 11.316406 15.472656 11.632812 16.402344 11.953125 17.339844 L 12.097656 17.285156 L 12.0625 17.738281 L 12.035156 17.84375 C 11.984375 18.34375 11.941406 18.839844 11.882812 19.339844 C 11.851562 19.585938 11.785156 19.832031 11.738281 20.078125 C 11.699219 20.023438 11.648438 19.976562 11.628906 19.917969 C 10.601562 16.859375 9.582031 13.804688 8.558594 10.746094 C 8.230469 9.773438 7.90625 8.804688 7.574219 7.832031 C 7.558594 7.78125 7.511719 7.742188 7.476562 7.699219 Z M 8.089844 6.042969 "/>
<path style=" stroke:none;fill-rule:evenodd;fill:rgb(34.117648%,68.235296%,27.843139%);fill-opacity:1;" d="M 12.226562 13.257812 L 12.101562 13.402344 C 12.066406 13.328125 12.03125 13.269531 12.007812 13.203125 C 11.460938 11.566406 10.917969 9.929688 10.371094 8.292969 C 9.949219 7.035156 9.527344 5.777344 9.101562 4.519531 C 9.082031 4.460938 9.039062 4.410156 9.007812 4.355469 L 10.144531 2.859375 C 10.179688 2.910156 10.230469 2.953125 10.25 3.003906 C 10.566406 3.929688 10.878906 4.851562 11.1875 5.777344 C 11.476562 6.640625 11.765625 7.503906 12.058594 8.367188 C 12.078125 8.425781 12.144531 8.464844 12.191406 8.511719 L 12.191406 8.710938 C 12.203125 10.226562 12.214844 11.742188 12.226562 13.257812 "/>
<path style=" stroke:none;fill-rule:evenodd;fill:rgb(37.64706%,69.803923%,30.980393%);fill-opacity:1;" d="M 12.191406 8.511719 C 12.144531 8.464844 12.078125 8.421875 12.058594 8.367188 C 11.765625 7.503906 11.476562 6.640625 11.1875 5.777344 C 10.878906 4.851562 10.566406 3.929688 10.25 3.003906 C 10.230469 2.953125 10.179688 2.910156 10.144531 2.859375 C 10.515625 2.5 10.871094 2.125 11.253906 1.78125 C 11.597656 1.472656 11.871094 1.144531 11.882812 0.660156 C 11.886719 0.640625 11.894531 0.621094 11.910156 0.566406 L 12.007812 0.808594 C 12.007812 0.933594 11.996094 1.058594 12.003906 1.179688 C 12.015625 1.394531 12.050781 1.609375 12.0625 1.824219 C 12.078125 2.222656 12.089844 2.621094 12.097656 3.019531 C 12.109375 3.664062 12.121094 4.304688 12.128906 4.949219 C 12.140625 5.976562 12.148438 7.003906 12.164062 8.03125 C 12.164062 8.191406 12.179688 8.351562 12.191406 8.511719 "/>
<path style=" stroke:none;fill-rule:evenodd;fill:rgb(66.274512%,66.666669%,53.333336%);fill-opacity:1;" d="M 11.738281 20.078125 C 11.785156 19.832031 11.851562 19.585938 11.882812 19.339844 C 11.941406 18.839844 11.984375 18.34375 12.035156 17.84375 L 12.058594 17.84375 C 12.070312 18.46875 12.160156 19.085938 12.320312 19.6875 C 12.289062 19.734375 12.242188 19.773438 12.222656 19.820312 C 12.085938 20.203125 11.957031 20.59375 11.820312 20.976562 C 11.804688 21.027344 11.75 21.070312 11.714844 21.117188 L 11.574219 20.636719 Z M 11.738281 20.078125 "/>
<path style=" stroke:none;fill-rule:evenodd;fill:rgb(71.372551%,70.980394%,59.607846%);fill-opacity:1;" d="M 11.714844 21.117188 C 11.75 21.070312 11.804688 21.03125 11.820312 20.976562 C 11.957031 20.59375 12.085938 20.207031 12.222656 19.820312 C 12.242188 19.773438 12.289062 19.734375 12.320312 19.6875 L 12.554688 20.207031 C 12.507812 20.273438 12.445312 20.332031 12.417969 20.40625 L 11.96875 21.726562 C 11.949219 21.78125 11.886719 21.820312 11.84375 21.863281 Z M 11.714844 21.117188 "/>
<path style=" stroke:none;fill-rule:evenodd;fill:rgb(76.078433%,75.686276%,65.490198%);fill-opacity:1;" d="M 11.84375 21.863281 C 11.886719 21.820312 11.949219 21.78125 11.96875 21.726562 L 12.417969 20.40625 C 12.445312 20.332031 12.507812 20.273438 12.554688 20.207031 L 12.785156 20.398438 C 12.675781 20.507812 12.613281 20.632812 12.648438 20.792969 L 12.582031 21.019531 C 12.546875 21.058594 12.503906 21.09375 12.488281 21.136719 C 12.332031 21.585938 12.179688 22.039062 12.023438 22.492188 C 12 22.546875 11.945312 22.59375 11.90625 22.644531 C 11.886719 22.382812 11.867188 22.125 11.84375 21.863281 "/>
<path style=" stroke:none;fill-rule:evenodd;fill:rgb(80.784315%,80.392158%,71.764708%);fill-opacity:1;" d="M 11.90625 22.644531 C 11.945312 22.59375 12 22.546875 12.023438 22.492188 C 12.179688 22.039062 12.332031 21.585938 12.488281 21.136719 C 12.503906 21.09375 12.546875 21.058594 12.582031 21.019531 L 12.484375 22.058594 C 12.460938 22.089844 12.421875 22.113281 12.410156 22.148438 C 12.300781 22.453125 12.199219 22.757812 12.09375 23.058594 C 12.070312 23.121094 12.027344 23.175781 11.996094 23.234375 C 11.964844 23.195312 11.910156 23.160156 11.910156 23.117188 C 11.898438 22.960938 11.90625 22.800781 11.90625 22.644531 "/>
<path style=" stroke:none;fill-rule:evenodd;fill:rgb(85.882354%,85.490197%,78.039217%);fill-opacity:1;" d="M 11.996094 23.234375 C 12.027344 23.175781 12.070312 23.121094 12.09375 23.058594 C 12.199219 22.757812 12.300781 22.453125 12.410156 22.148438 C 12.421875 22.113281 12.460938 22.089844 12.484375 22.058594 L 12.488281 22.742188 L 12.257812 23.328125 Z M 11.996094 23.234375 "/>
<path style=" stroke:none;fill-rule:evenodd;fill:rgb(92.156863%,91.37255%,86.274511%);fill-opacity:1;" d="M 12.257812 23.328125 L 12.488281 22.742188 L 12.535156 23.433594 Z M 12.257812 23.328125 "/>
<path style=" stroke:none;fill-rule:evenodd;fill:rgb(80.784315%,80.392158%,71.764708%);fill-opacity:1;" d="M 12.648438 20.792969 C 12.613281 20.632812 12.671875 20.507812 12.785156 20.398438 L 12.847656 20.441406 Z M 12.648438 20.792969 "/>
<path style=" stroke:none;fill-rule:evenodd;fill:rgb(30.980393%,66.666669%,25.490198%);fill-opacity:1;" d="M 12.058594 17.84375 L 12.035156 17.84375 L 12.0625 17.738281 Z M 12.058594 17.84375 "/>
</g>
</svg>
