<?xml version="1.0" encoding="UTF-8"?>
<svg xmlns="http://www.w3.org/2000/svg" xmlns:xlink="http://www.w3.org/1999/xlink" width="24px" height="24px" viewBox="0 0 24 24" version="1.1">
<g id="surface1">
<path style=" stroke:none;fill-rule:nonzero;fill:rgb(0%,0%,0%);fill-opacity:1;" d="M 21.640625 13 C 21.34375 12.757812 20.9375 12.703125 20.589844 12.859375 C 19.53125 13.34375 18.382812 13.59375 17.21875 13.589844 C 12.742188 13.585938 9.109375 9.96875 9.078125 5.488281 C 9.085938 4.816406 9.167969 4.144531 9.328125 3.488281 C 9.398438 3.132812 9.273438 2.769531 8.996094 2.535156 C 8.71875 2.300781 8.339844 2.234375 8 2.359375 C 3.675781 4.304688 1.277344 8.984375 2.222656 13.628906 C 3.167969 18.273438 7.203125 21.644531 11.941406 21.746094 C 16.683594 21.847656 20.859375 18.652344 22 14.050781 C 22.101562 13.660156 21.960938 13.246094 21.640625 13 Z M 12.140625 19.691406 C 8.703125 19.664062 5.648438 17.484375 4.515625 14.238281 C 3.378906 10.992188 4.40625 7.382812 7.078125 5.21875 L 7.078125 5.488281 C 7.085938 11.085938 11.621094 15.625 17.21875 15.628906 C 17.925781 15.632812 18.628906 15.558594 19.320312 15.410156 C 17.914062 18.070312 15.148438 19.734375 12.140625 19.730469 Z M 12.140625 19.691406 "/>
</g>
</svg>
