<?xml version="1.0" encoding="UTF-8"?>
<svg xmlns="http://www.w3.org/2000/svg" xmlns:xlink="http://www.w3.org/1999/xlink" width="24px" height="24px" viewBox="0 0 24 24" version="1.1">
<defs>
<clipPath id="clip1">
  <path d="M 3.5625 3.5625 L 20.4375 3.5625 L 20.4375 20.4375 L 3.5625 20.4375 Z M 3.5625 3.5625 "/>
</clipPath>
</defs>
<g id="surface1">
<path style=" stroke:none;fill-rule:nonzero;fill:rgb(28.627452%,42.745098%,56.470591%);fill-opacity:1;" d="M 5.625 0 L 18.375 0 C 21.480469 0 24 2.519531 24 5.625 L 24 18.375 C 24 21.480469 21.480469 24 18.375 24 L 5.625 24 C 2.519531 24 0 21.480469 0 18.375 L 0 5.625 C 0 2.519531 2.519531 0 5.625 0 Z M 5.625 0 "/>
<g clip-path="url(#clip1)" clip-rule="nonzero">
<path style=" stroke:none;fill-rule:evenodd;fill:rgb(100%,100%,100%);fill-opacity:1;" d="M 19.105469 16.707031 C 18.1875 16.683594 17.476562 16.777344 16.878906 17.027344 C 16.707031 17.097656 16.433594 17.097656 16.410156 17.3125 C 16.5 17.402344 16.511719 17.550781 16.59375 17.675781 C 16.730469 17.90625 16.972656 18.214844 17.191406 18.371094 L 17.925781 18.898438 C 18.371094 19.171875 18.875 19.332031 19.3125 19.605469 C 19.566406 19.765625 19.816406 19.96875 20.070312 20.140625 C 20.199219 20.230469 20.277344 20.378906 20.4375 20.4375 L 20.4375 20.402344 C 20.355469 20.300781 20.335938 20.152344 20.253906 20.039062 L 19.910156 19.707031 C 19.578125 19.261719 19.164062 18.875 18.714844 18.554688 C 18.347656 18.304688 17.546875 17.960938 17.394531 17.539062 L 17.375 17.515625 C 17.625 17.488281 17.925781 17.402344 18.164062 17.332031 C 18.554688 17.230469 18.910156 17.253906 19.3125 17.148438 L 19.863281 16.988281 L 19.863281 16.886719 C 19.65625 16.683594 19.507812 16.410156 19.289062 16.214844 C 18.707031 15.714844 18.0625 15.222656 17.394531 14.8125 C 17.039062 14.582031 16.582031 14.433594 16.203125 14.242188 C 16.066406 14.171875 15.835938 14.140625 15.753906 14.023438 C 15.546875 13.773438 15.433594 13.445312 15.285156 13.148438 L 14.34375 11.164062 C 14.136719 10.71875 14.011719 10.273438 13.757812 9.863281 C 12.574219 7.921875 11.289062 6.75 9.316406 5.597656 C 8.890625 5.355469 8.386719 5.253906 7.851562 5.128906 L 6.988281 5.082031 C 6.804688 5.003906 6.621094 4.785156 6.460938 4.683594 C 5.808594 4.273438 4.121094 3.382812 3.636719 4.554688 C 3.328125 5.296875 4.097656 6.027344 4.359375 6.402344 C 4.554688 6.664062 4.804688 6.960938 4.945312 7.257812 C 5.019531 7.453125 5.046875 7.65625 5.128906 7.863281 C 5.3125 8.363281 5.484375 8.925781 5.722656 9.390625 C 5.851562 9.632812 5.988281 9.882812 6.148438 10.097656 C 6.238281 10.226562 6.402344 10.28125 6.433594 10.488281 C 6.273438 10.714844 6.261719 11.058594 6.171875 11.34375 C 5.757812 12.632812 5.917969 14.226562 6.503906 15.175781 C 6.6875 15.460938 7.121094 16.089844 7.710938 15.851562 C 8.226562 15.644531 8.109375 14.996094 8.261719 14.425781 C 8.292969 14.289062 8.273438 14.195312 8.339844 14.105469 L 8.339844 14.128906 L 8.8125 15.078125 C 9.167969 15.636719 9.785156 16.21875 10.304688 16.605469 C 10.578125 16.8125 10.796875 17.164062 11.140625 17.289062 L 11.140625 17.253906 L 11.117188 17.253906 C 11.046875 17.152344 10.945312 17.105469 10.855469 17.027344 C 10.648438 16.820312 10.417969 16.570312 10.257812 16.34375 C 9.773438 15.703125 9.351562 14.996094 8.972656 14.265625 C 8.789062 13.914062 8.628906 13.527344 8.476562 13.171875 C 8.410156 13.035156 8.410156 12.828125 8.292969 12.761719 C 8.121094 13.011719 7.871094 13.230469 7.742188 13.539062 C 7.523438 14.027344 7.503906 14.632812 7.421875 15.257812 C 7.375 15.269531 7.394531 15.257812 7.375 15.285156 C 7.007812 15.195312 6.882812 14.816406 6.746094 14.5 C 6.402344 13.6875 6.34375 12.386719 6.640625 11.453125 C 6.722656 11.214844 7.066406 10.460938 6.929688 10.234375 C 6.859375 10.015625 6.628906 9.890625 6.503906 9.71875 C 6.355469 9.503906 6.195312 9.230469 6.089844 8.988281 C 5.816406 8.351562 5.679688 7.644531 5.378906 7.003906 C 5.242188 6.707031 5 6.398438 4.804688 6.125 C 4.585938 5.820312 4.347656 5.601562 4.175781 5.238281 C 4.117188 5.109375 4.035156 4.90625 4.128906 4.769531 C 4.152344 4.679688 4.199219 4.640625 4.289062 4.621094 C 4.4375 4.492188 4.863281 4.65625 5.011719 4.722656 C 5.4375 4.894531 5.792969 5.054688 6.148438 5.292969 C 6.308594 5.40625 6.480469 5.625 6.6875 5.679688 L 6.929688 5.679688 C 7.296875 5.761719 7.710938 5.707031 8.054688 5.808594 C 8.660156 6.003906 9.210938 6.289062 9.707031 6.597656 C 11.210938 7.542969 12.449219 8.890625 13.285156 10.496094 C 13.425781 10.757812 13.480469 11 13.609375 11.273438 C 13.847656 11.832031 14.148438 12.402344 14.386719 12.949219 C 14.628906 13.484375 14.859375 14.035156 15.203125 14.480469 C 15.375 14.71875 16.0625 14.84375 16.375 14.96875 C 16.601562 15.070312 16.960938 15.164062 17.167969 15.289062 C 17.554688 15.527344 17.945312 15.800781 18.3125 16.0625 C 18.496094 16.199219 19.070312 16.484375 19.105469 16.714844 Z M 7.402344 6.796875 C 7.242188 6.792969 7.085938 6.8125 6.933594 6.851562 L 6.933594 6.878906 L 6.953125 6.878906 C 7.046875 7.0625 7.207031 7.1875 7.320312 7.347656 L 7.585938 7.894531 L 7.609375 7.867188 C 7.769531 7.753906 7.851562 7.570312 7.851562 7.296875 C 7.78125 7.21875 7.769531 7.136719 7.710938 7.058594 C 7.644531 6.945312 7.496094 6.886719 7.402344 6.796875 Z M 7.402344 6.796875 "/>
</g>
</g>
</svg>
