<?xml version="1.0" encoding="UTF-8"?>
<svg xmlns="http://www.w3.org/2000/svg" xmlns:xlink="http://www.w3.org/1999/xlink" width="24px" height="24px" viewBox="0 0 24 24" version="1.1">
<g id="surface1">
<path style=" stroke:none;fill-rule:nonzero;fill:rgb(0%,0%,0%);fill-opacity:1;" d="M 2.269531 22.835938 C 2.859375 21.839844 4.011719 21.324219 5.148438 21.539062 C 7.765625 21.824219 10.414062 21.808594 13.03125 21.492188 C 13.890625 21.378906 14.761719 21.371094 15.621094 21.472656 C 16.960938 21.625 18.308594 21.6875 19.652344 21.804688 C 20.066406 21.832031 20.480469 21.890625 20.886719 21.976562 C 21.25 22.03125 21.539062 22.304688 21.617188 22.660156 C 21.703125 23.058594 21.5 23.457031 21.128906 23.625 C 20.773438 23.828125 20.375 23.945312 19.964844 23.960938 C 18.519531 23.925781 17.078125 23.78125 15.632812 23.757812 C 14.382812 23.71875 13.132812 23.757812 11.886719 23.863281 C 10.164062 24.035156 8.429688 24.046875 6.703125 23.894531 C 5.746094 23.8125 4.78125 23.867188 3.816406 23.847656 C 3.226562 23.929688 2.640625 23.691406 2.273438 23.222656 Z M 21.578125 5.734375 L 21.71875 9.011719 C 21.742188 9.71875 21.722656 10.425781 21.652344 11.128906 C 21.445312 12.597656 21.445312 14.085938 21.652344 15.550781 C 21.742188 16.1875 21.722656 16.835938 21.59375 17.464844 C 21.53125 18.394531 20.710938 19.085938 19.78125 18.988281 C 18.726562 18.929688 17.675781 18.777344 16.648438 18.53125 C 15.898438 18.300781 15.257812 17.800781 14.847656 17.132812 C 14.425781 16.527344 14.035156 15.898438 13.679688 15.25 C 13.070312 14.113281 12.320312 13.058594 11.445312 12.113281 C 10.933594 11.496094 10.472656 10.839844 10.058594 10.152344 C 9.96875 9.984375 9.867188 9.820312 9.753906 9.664062 C 9.429688 9.230469 8.746094 9.359375 8.601562 9.878906 C 8.519531 10.125 8.480469 10.382812 8.480469 10.640625 L 8.394531 15.074219 C 8.386719 15.332031 8.328125 15.585938 8.230469 15.820312 C 7.921875 16.394531 7.90625 17.082031 8.183594 17.671875 C 8.292969 17.878906 8.292969 18.128906 8.1875 18.339844 C 8.082031 18.546875 7.882812 18.695312 7.652344 18.738281 C 6.558594 19.15625 5.339844 19.125 4.269531 18.644531 C 3.683594 18.40625 3.308594 17.835938 3.320312 17.207031 C 3.304688 16.140625 3.261719 15.082031 3.203125 14.019531 C 3.132812 13.359375 3.386719 12.703125 3.882812 12.257812 C 4.09375 12.0625 4.273438 11.835938 4.417969 11.585938 C 4.746094 11.121094 4.726562 10.492188 4.367188 10.050781 C 3.402344 8.777344 2.980469 7.175781 3.195312 5.597656 C 3.269531 4.539062 3.246094 3.476562 3.265625 2.417969 C 3.265625 2.164062 3.25 1.902344 3.273438 1.648438 C 3.148438 0.945312 3.816406 0.355469 4.503906 0.570312 C 5.308594 0.566406 6.105469 0.417969 6.859375 0.132812 C 7.640625 -0.226562 8.558594 0.179688 8.8125 1 C 8.933594 1.261719 9.027344 1.539062 9.136719 1.804688 C 9.289062 2.273438 9.648438 2.644531 10.109375 2.8125 C 10.59375 3.003906 11 3.351562 11.257812 3.800781 L 14.285156 8.164062 C 14.597656 8.613281 14.953125 9.03125 15.355469 9.40625 C 15.785156 9.796875 16.144531 9.675781 16.214844 9.082031 C 16.347656 8.160156 16.390625 7.226562 16.339844 6.296875 C 16.257812 4.855469 16.273438 3.40625 16.390625 1.964844 C 16.191406 0.910156 17.175781 0.0117188 18.210938 0.308594 L 19.277344 0.371094 C 20.324219 0.308594 21.246094 1.046875 21.421875 2.078125 C 21.535156 2.484375 21.597656 2.898438 21.617188 3.316406 C 21.644531 4.117188 21.625 4.925781 21.625 5.726562 Z M 21.578125 5.734375 "/>
</g>
</svg>
