<?xml version="1.0" encoding="UTF-8"?>
<svg xmlns="http://www.w3.org/2000/svg" xmlns:xlink="http://www.w3.org/1999/xlink" width="24px" height="24px" viewBox="0 0 24 24" version="1.1">
<g id="surface1">
<path style=" stroke:none;fill-rule:nonzero;fill:rgb(87.450981%,13.725491%,30.980393%);fill-opacity:1;" d="M 14.125 0.0742188 C 13.953125 0.0742188 13.785156 0.113281 13.636719 0.167969 C 13.953125 0.375 14.125 0.65625 14.214844 0.972656 C 14.214844 1.011719 14.234375 1.046875 14.234375 1.085938 C 14.234375 1.121094 14.253906 1.160156 14.253906 1.195312 C 14.273438 1.738281 14.105469 1.816406 13.992188 2.132812 C 13.804688 2.542969 13.859375 2.992188 14.085938 3.347656 C 14.105469 3.386719 14.125 3.441406 14.160156 3.480469 C 13.917969 1.90625 15.226562 1.683594 15.46875 1.195312 C 15.488281 0.765625 15.132812 0.488281 14.851562 0.28125 C 14.570312 0.113281 14.347656 0.0742188 14.125 0.0742188 Z M 16.085938 0.410156 C 16.070312 0.5625 16.085938 0.523438 16.070312 0.597656 C 16.070312 0.65625 16.070312 0.710938 16.050781 0.765625 C 16.03125 0.824219 16.03125 0.859375 16.011719 0.917969 C 15.992188 0.972656 15.976562 1.011719 15.957031 1.066406 C 15.9375 1.105469 15.917969 1.140625 15.898438 1.195312 C 15.882812 1.214844 15.863281 1.253906 15.84375 1.273438 C 15.824219 1.289062 15.824219 1.308594 15.808594 1.328125 C 15.769531 1.367188 15.75 1.421875 15.714844 1.457031 L 15.601562 1.570312 C 15.5625 1.609375 15.527344 1.644531 15.488281 1.664062 C 15.359375 1.757812 15.207031 1.832031 15.078125 1.925781 C 15.039062 1.964844 14.984375 1.984375 14.945312 2.019531 C 14.910156 2.058594 14.871094 2.078125 14.835938 2.113281 L 14.722656 2.226562 C 14.683594 2.261719 14.648438 2.300781 14.628906 2.355469 C 14.589844 2.394531 14.570312 2.449219 14.535156 2.488281 C 14.515625 2.542969 14.496094 2.582031 14.460938 2.636719 C 14.441406 2.695312 14.421875 2.730469 14.402344 2.785156 C 14.386719 2.84375 14.367188 2.898438 14.367188 2.9375 C 14.367188 2.957031 14.367188 2.992188 14.347656 3.011719 C 14.347656 3.03125 14.347656 3.066406 14.328125 3.085938 L 14.328125 3.347656 C 14.328125 3.40625 14.328125 3.441406 14.347656 3.496094 C 14.347656 3.554688 14.367188 3.589844 14.386719 3.648438 C 14.402344 3.703125 14.421875 3.742188 14.441406 3.796875 C 14.460938 3.835938 14.480469 3.851562 14.480469 3.890625 L 13.058594 3.347656 C 12.824219 3.277344 12.585938 3.214844 12.347656 3.160156 C 12.214844 3.125 12.085938 3.105469 11.953125 3.066406 C 11.582031 2.992188 11.207031 2.9375 10.832031 2.898438 L 10.792969 2.898438 C 10.417969 2.863281 10.0625 2.84375 9.691406 2.84375 C 9.410156 2.84375 9.148438 2.863281 8.886719 2.878906 C 8.511719 2.898438 8.136719 2.957031 7.761719 3.011719 L 7.484375 3.066406 C 7.296875 3.105469 7.109375 3.140625 6.921875 3.199219 C 6.828125 3.21875 6.734375 3.253906 6.640625 3.273438 C 6.546875 3.3125 6.453125 3.347656 6.378906 3.386719 C 6.304688 3.421875 6.25 3.441406 6.171875 3.480469 C 6.15625 3.480469 6.15625 3.480469 6.136719 3.496094 C 6.078125 3.535156 6.023438 3.554688 5.96875 3.589844 C 5.949219 3.589844 5.929688 3.609375 5.929688 3.609375 C 5.855469 3.648438 5.800781 3.683594 5.742188 3.703125 C 5.707031 3.722656 5.648438 3.742188 5.613281 3.761719 C 5.59375 3.777344 5.574219 3.777344 5.554688 3.796875 C 5.5 3.835938 5.445312 3.851562 5.386719 3.890625 C 5.332031 3.929688 5.273438 3.945312 5.238281 3.984375 C 5.199219 4.023438 5.144531 4.039062 5.105469 4.078125 C 5.105469 4.078125 5.089844 4.078125 5.089844 4.097656 C 5.050781 4.117188 5.011719 4.152344 4.976562 4.191406 L 4.957031 4.207031 C 4.917969 4.226562 4.902344 4.265625 4.863281 4.285156 C 4.84375 4.285156 4.84375 4.300781 4.828125 4.300781 C 4.789062 4.320312 4.769531 4.359375 4.734375 4.378906 C 4.734375 4.394531 4.714844 4.394531 4.714844 4.394531 L 4.582031 4.527344 L 4.472656 4.640625 C 4.472656 4.640625 4.472656 4.65625 4.453125 4.65625 L 4.359375 4.75 C 4.339844 4.769531 4.320312 4.769531 4.320312 4.789062 L 4.210938 4.902344 C 4.210938 4.917969 4.191406 4.917969 4.191406 4.9375 L 4.039062 5.085938 L 4.023438 5.105469 C 3.929688 5.21875 3.816406 5.3125 3.703125 5.40625 C 3.59375 5.5 3.480469 5.59375 3.347656 5.6875 C 3.21875 5.78125 3.105469 5.855469 2.972656 5.929688 C 2.84375 6.003906 2.710938 6.0625 2.582031 6.117188 C 2.449219 6.171875 2.320312 6.230469 2.1875 6.265625 C 1.925781 6.324219 1.664062 6.433594 1.441406 6.453125 C 1.441406 6.359375 1.382812 6.378906 1.328125 6.378906 C 1.273438 6.398438 1.214844 6.398438 1.179688 6.417969 C 1.121094 6.433594 1.085938 6.453125 1.027344 6.472656 C 0.976562 6.488281 0.925781 6.515625 0.878906 6.546875 C 0.84375 6.585938 0.785156 6.601562 0.75 6.640625 C 0.710938 6.679688 0.65625 6.714844 0.617188 6.753906 C 0.578125 6.789062 0.523438 6.828125 0.488281 6.863281 C 0.449219 6.902344 0.410156 6.941406 0.375 6.996094 C 0.335938 7.050781 0.300781 7.089844 0.28125 7.144531 C 0.242188 7.183594 0.226562 7.238281 0.1875 7.296875 C 0.167969 7.351562 0.132812 7.40625 0.113281 7.464844 L 0.0546875 7.632812 C 0.0390625 7.6875 0.0390625 7.726562 0.0195312 7.78125 L 0.0195312 7.800781 C 0 7.855469 0 7.929688 0 7.96875 C 0.0195312 7.949219 0.0195312 7.988281 0.0195312 8.023438 L 0.0195312 8.101562 C 0.0195312 8.136719 0.0390625 8.175781 0.0390625 8.210938 C 0.0546875 8.25 0.0546875 8.285156 0.0742188 8.324219 C 0.09375 8.363281 0.113281 8.398438 0.148438 8.4375 C 0.167969 8.472656 0.207031 8.511719 0.226562 8.546875 C 0.261719 8.585938 0.300781 8.625 0.335938 8.640625 C 0.375 8.679688 0.410156 8.71875 0.449219 8.734375 C 0.597656 8.867188 0.636719 8.902344 0.824219 9.015625 C 0.859375 9.035156 0.878906 9.054688 0.917969 9.074219 L 0.933594 9.074219 L 0.933594 9.109375 C 0.933594 9.164062 0.953125 9.203125 0.972656 9.257812 C 0.992188 9.316406 1.011719 9.371094 1.027344 9.410156 L 1.085938 9.519531 C 1.085938 9.539062 1.105469 9.539062 1.105469 9.558594 C 1.121094 9.613281 1.160156 9.652344 1.179688 9.691406 C 1.214844 9.726562 1.234375 9.78125 1.273438 9.820312 L 1.382812 9.933594 L 1.496094 10.046875 L 1.515625 10.046875 C 1.550781 10.082031 1.589844 10.101562 1.628906 10.140625 C 1.664062 10.175781 1.722656 10.195312 1.757812 10.214844 C 1.796875 10.230469 1.851562 10.269531 1.90625 10.289062 C 1.945312 10.308594 1.984375 10.324219 2.039062 10.324219 C 2.039062 10.324219 2.058594 10.324219 2.058594 10.34375 C 2.078125 10.34375 2.113281 10.363281 2.132812 10.363281 C 2.113281 10.699219 2.113281 11.019531 2.152344 11.128906 C 2.207031 11.261719 2.488281 10.867188 2.75 10.4375 C 2.710938 10.867188 2.695312 11.375 2.75 11.523438 C 2.824219 11.671875 3.179688 11.1875 3.515625 10.664062 C 7.894531 9.652344 11.898438 12.683594 12.328125 16.964844 C 12.253906 16.292969 11.429688 15.917969 11.035156 16.011719 C 10.847656 16.460938 10.53125 17.058594 10.027344 17.414062 C 10.0625 17.003906 10.046875 16.59375 9.96875 16.179688 C 9.839844 16.742188 9.578125 17.285156 9.203125 17.734375 C 8.625 17.769531 8.023438 17.488281 7.726562 17.058594 C 7.707031 17.042969 7.6875 17.003906 7.667969 16.984375 C 7.652344 16.949219 7.632812 16.890625 7.613281 16.855469 C 7.59375 16.816406 7.574219 16.761719 7.574219 16.722656 L 7.574219 16.5 C 7.574219 16.460938 7.59375 16.40625 7.613281 16.367188 C 7.632812 16.332031 7.632812 16.273438 7.652344 16.238281 C 7.667969 16.199219 7.6875 16.144531 7.726562 16.105469 C 7.835938 15.804688 7.835938 15.5625 7.632812 15.433594 L 7.519531 15.375 C 7.5 15.375 7.464844 15.359375 7.445312 15.359375 C 7.425781 15.359375 7.40625 15.339844 7.390625 15.339844 C 7.351562 15.320312 7.296875 15.320312 7.257812 15.300781 C 7.21875 15.28125 7.164062 15.28125 7.128906 15.28125 C 7.089844 15.28125 7.035156 15.265625 6.996094 15.265625 L 6.902344 15.265625 C 6.847656 15.265625 6.808594 15.265625 6.773438 15.28125 C 6.734375 15.28125 6.679688 15.300781 6.640625 15.300781 C 6.601562 15.320312 6.546875 15.320312 6.507812 15.339844 C 6.472656 15.359375 6.433594 15.375 6.378906 15.394531 L 6.265625 15.449219 C 4.824219 16.386719 5.6875 18.59375 6.660156 19.230469 C 6.285156 19.304688 5.910156 19.378906 5.796875 19.453125 L 5.78125 19.472656 C 6.042969 19.640625 6.324219 19.773438 6.621094 19.882812 C 7.015625 20.015625 7.445312 20.128906 7.632812 20.183594 C 8.136719 20.296875 8.660156 20.332031 9.183594 20.296875 C 11.914062 20.109375 14.160156 18.015625 14.570312 15.28125 C 14.589844 15.339844 14.589844 15.394531 14.609375 15.449219 C 14.628906 15.5625 14.648438 15.675781 14.664062 15.804688 C 14.683594 15.863281 14.683594 15.917969 14.683594 15.976562 L 14.683594 15.992188 C 14.683594 16.050781 14.703125 16.105469 14.703125 16.160156 C 14.703125 16.238281 14.722656 16.292969 14.722656 16.367188 L 14.722656 17.152344 C 14.722656 17.210938 14.703125 17.246094 14.703125 17.304688 L 14.703125 17.359375 C 14.703125 17.414062 14.683594 17.472656 14.683594 17.546875 C 14.664062 17.601562 14.664062 17.660156 14.648438 17.714844 L 14.648438 17.734375 C 14.628906 17.789062 14.628906 17.84375 14.609375 17.902344 L 14.609375 17.921875 C 14.589844 17.976562 14.589844 18.03125 14.570312 18.089844 L 14.570312 18.109375 L 14.515625 18.277344 L 14.515625 18.292969 C 14.496094 18.351562 14.476562 18.425781 14.460938 18.480469 C 14.441406 18.539062 14.421875 18.59375 14.386719 18.667969 C 14.367188 18.726562 14.347656 18.800781 14.308594 18.855469 C 14.292969 18.910156 14.253906 18.96875 14.234375 19.042969 C 14.214844 19.097656 14.179688 19.15625 14.160156 19.210938 C 14.160156 19.230469 14.140625 19.25 14.140625 19.25 C 14.140625 19.25 14.140625 19.265625 14.125 19.265625 C 13.730469 20.070312 13.132812 20.78125 12.382812 21.34375 C 12.328125 21.382812 12.289062 21.417969 12.234375 21.457031 C 12.214844 21.472656 12.195312 21.472656 12.195312 21.492188 C 12.160156 21.53125 12.101562 21.550781 12.066406 21.585938 L 12.085938 21.625 C 12.175781 21.605469 12.253906 21.605469 12.347656 21.585938 C 12.515625 21.566406 12.664062 21.53125 12.832031 21.492188 C 12.871094 21.492188 12.925781 21.472656 12.964844 21.457031 C 13 21.457031 13.019531 21.4375 13.058594 21.4375 C 13.09375 21.4375 13.152344 21.417969 13.1875 21.417969 C 13.226562 21.398438 13.261719 21.398438 13.300781 21.378906 C 13.917969 21.230469 14.515625 21.027344 15.097656 20.78125 C 14.105469 22.128906 12.796875 23.214844 11.261719 23.925781 C 11.972656 23.867188 12.683594 23.757812 13.375 23.550781 C 15.859375 22.820312 17.957031 21.140625 19.210938 18.875 C 18.949219 20.296875 18.386719 21.660156 17.546875 22.859375 C 18.144531 22.464844 18.6875 22 19.191406 21.492188 C 20.578125 20.054688 21.492188 18.199219 21.792969 16.238281 C 22 17.210938 22.074219 18.21875 21.980469 19.210938 C 26.449219 12.980469 22.355469 6.527344 20.632812 4.824219 C 20.632812 4.808594 20.613281 4.808594 20.613281 4.789062 C 20.613281 4.863281 20.613281 4.9375 20.59375 5.011719 C 20.578125 5.164062 20.558594 5.292969 20.539062 5.425781 C 20.5 5.554688 20.464844 5.707031 20.425781 5.835938 C 20.390625 5.96875 20.332031 6.097656 20.277344 6.230469 C 20.222656 6.359375 20.164062 6.492188 20.089844 6.601562 C 20.015625 6.714844 19.941406 6.847656 19.867188 6.957031 C 19.789062 7.070312 19.699219 7.183594 19.605469 7.296875 C 19.511719 7.40625 19.417969 7.5 19.304688 7.613281 C 19.25 7.667969 19.191406 7.726562 19.117188 7.761719 C 19.0625 7.800781 19.023438 7.835938 18.96875 7.894531 C 18.855469 7.988281 18.742188 8.0625 18.613281 8.136719 C 18.5 8.210938 18.371094 8.285156 18.238281 8.34375 L 17.84375 8.511719 C 17.714844 8.566406 17.582031 8.605469 17.453125 8.640625 C 17.320312 8.679688 17.171875 8.71875 17.042969 8.734375 C 16.890625 8.753906 16.761719 8.773438 16.628906 8.792969 C 16.535156 8.792969 16.425781 8.808594 16.332031 8.808594 C 16.179688 8.808594 16.050781 8.792969 15.917969 8.792969 C 15.769531 8.773438 15.636719 8.753906 15.507812 8.734375 C 15.367188 8.71875 15.226562 8.679688 15.097656 8.625 C 15.226562 8.605469 15.375 8.605469 15.507812 8.566406 C 15.65625 8.546875 15.789062 8.511719 15.917969 8.472656 C 16.050781 8.4375 16.199219 8.398438 16.3125 8.34375 L 16.703125 8.175781 C 16.835938 8.117188 16.949219 8.042969 17.078125 7.96875 C 17.191406 7.894531 17.320312 7.800781 17.433594 7.726562 C 17.546875 7.632812 17.660156 7.539062 17.753906 7.445312 C 17.863281 7.351562 17.957031 7.238281 18.050781 7.144531 C 18.144531 7.035156 18.238281 6.921875 18.3125 6.808594 C 18.332031 6.789062 18.332031 6.769531 18.351562 6.753906 C 18.40625 6.660156 18.480469 6.546875 18.539062 6.453125 C 18.605469 6.332031 18.667969 6.207031 18.726562 6.078125 C 18.78125 5.949219 18.835938 5.816406 18.875 5.6875 L 18.988281 5.292969 C 19.003906 5.144531 19.042969 5.011719 19.042969 4.882812 C 19.0625 4.734375 19.0625 4.601562 19.0625 4.46875 C 19.0625 4.378906 19.0625 4.265625 19.042969 4.171875 C 19.023438 4.023438 19.003906 3.890625 18.988281 3.757812 C 18.96875 3.609375 18.929688 3.480469 18.894531 3.347656 C 18.855469 3.21875 18.800781 3.085938 18.761719 2.957031 C 18.707031 2.824219 18.648438 2.695312 18.59375 2.582031 C 18.519531 2.449219 18.464844 2.339844 18.386719 2.207031 C 18.3125 2.09375 18.21875 1.984375 18.144531 1.871094 C 18.050781 1.757812 17.957031 1.664062 17.863281 1.550781 C 17.808594 1.496094 17.753906 1.441406 17.695312 1.402344 C 17.414062 1.179688 17.132812 0.992188 16.835938 0.804688 C 16.796875 0.785156 16.761719 0.765625 16.703125 0.746094 C 16.460938 0.542969 16.273438 0.484375 16.085938 0.410156 Z M 16.085938 0.410156 "/>
</g>
</svg>
