<?xml version="1.0" encoding="UTF-8"?>
<svg xmlns="http://www.w3.org/2000/svg" xmlns:xlink="http://www.w3.org/1999/xlink" width="24px" height="24px" viewBox="0 0 24 24" version="1.1">
<defs>
<linearGradient id="linear0" gradientUnits="userSpaceOnUse" x1="109" y1="116.5" x2="144.5" y2="160.5" gradientTransform="matrix(0.133333,0,0,0.133333,0,0)">
<stop offset="0" style="stop-color:rgb(100%,100%,100%);stop-opacity:1;"/>
<stop offset="1" style="stop-color:rgb(100%,100%,100%);stop-opacity:0;"/>
</linearGradient>
<linearGradient id="linear1" gradientUnits="userSpaceOnUse" x1="121" y1="54" x2="120.799004" y2="106.875" gradientTransform="matrix(0.133333,0,0,0.133333,0,0)">
<stop offset="0" style="stop-color:rgb(100%,100%,100%);stop-opacity:1;"/>
<stop offset="1" style="stop-color:rgb(100%,100%,100%);stop-opacity:0;"/>
</linearGradient>
</defs>
<g id="surface1">
<path style=" stroke:none;fill-rule:nonzero;fill:rgb(0%,0%,0%);fill-opacity:1;" d="M 24 12 C 24 5.371094 18.628906 0 12 0 C 5.371094 0 0 5.371094 0 12 C 0 18.628906 5.371094 24 12 24 C 18.628906 24 24 18.628906 24 12 Z M 24 12 "/>
<path style=" stroke:none;fill-rule:nonzero;fill:url(#linear0);" d="M 19.933594 21.003906 L 9.21875 7.199219 L 7.199219 7.199219 L 7.199219 16.796875 L 8.816406 16.796875 L 8.816406 9.25 L 18.667969 21.980469 C 19.109375 21.683594 19.535156 21.355469 19.933594 21.003906 "/>
<path style=" stroke:none;fill-rule:nonzero;fill:url(#linear1);" d="M 15.332031 7.199219 L 16.933594 7.199219 L 16.933594 16.800781 L 15.332031 16.800781 Z M 15.332031 7.199219 "/>
</g>
</svg>
