<?xml version="1.0" encoding="UTF-8"?>
<svg xmlns="http://www.w3.org/2000/svg" xmlns:xlink="http://www.w3.org/1999/xlink" width="24px" height="24px" viewBox="0 0 24 27" version="1.1">
<g id="surface1">
<path style=" stroke:none;fill-rule:nonzero;fill:rgb(0%,58.823532%,22.352941%);fill-opacity:1;" d="M 0.191406 20.246094 C 0.316406 20.460938 0.492188 20.625 0.714844 20.746094 L 11.265625 26.792969 C 11.703125 27.050781 12.238281 27.050781 12.664062 26.792969 L 23.21875 20.746094 C 23.65625 20.503906 23.917969 20.039062 23.917969 19.535156 L 23.917969 7.449219 C 23.917969 6.945312 23.65625 6.484375 23.21875 6.238281 L 12.664062 0.195312 C 12.226562 -0.0664062 11.691406 -0.0664062 11.265625 0.195312 L 0.714844 6.238281 C 0.261719 6.484375 0 6.945312 0 7.449219 L 0 19.550781 C 0 19.796875 0.0546875 20.027344 0.191406 20.246094 "/>
<path style=" stroke:none;fill-rule:nonzero;fill:rgb(100%,100%,100%);fill-opacity:1;" d="M 8.582031 18.105469 C 8.582031 18.464844 8.4375 18.808594 8.183594 19.0625 C 7.929688 19.316406 7.582031 19.457031 7.222656 19.453125 C 6.863281 19.457031 6.515625 19.316406 6.261719 19.0625 C 6.007812 18.808594 5.863281 18.464844 5.867188 18.105469 L 5.867188 8.863281 C 5.867188 8.144531 6.511719 7.558594 7.402344 7.558594 C 8.046875 7.558594 8.800781 7.816406 9.25 8.375 L 9.664062 8.863281 L 15.335938 15.601562 L 15.335938 8.890625 C 15.335938 8.535156 15.476562 8.191406 15.734375 7.9375 C 15.988281 7.683594 16.332031 7.542969 16.695312 7.542969 C 17.054688 7.542969 17.398438 7.683594 17.65625 7.9375 C 17.910156 8.191406 18.050781 8.535156 18.050781 8.890625 L 18.050781 18.132812 C 18.050781 18.855469 17.40625 19.441406 16.515625 19.441406 C 15.871094 19.441406 15.117188 19.183594 14.664062 18.625 L 8.582031 11.410156 Z M 8.582031 18.105469 "/>
</g>
</svg>
