<?xml version="1.0" encoding="UTF-8"?>
<svg xmlns="http://www.w3.org/2000/svg" xmlns:xlink="http://www.w3.org/1999/xlink" width="24px" height="24px" viewBox="0 0 24 24" version="1.1">
<g id="surface1">
<path style=" stroke:none;fill-rule:nonzero;fill:rgb(100%,100%,100%);fill-opacity:1;" d="M 11.140625 0.0351562 C 16.441406 -0.332031 19.960938 2.261719 21.972656 5.425781 C 22.980469 7.011719 23.96875 9.417969 23.972656 11.894531 C 23.976562 14.582031 23.105469 16.910156 21.972656 18.617188 C 20.804688 20.375 19.292969 21.824219 17.402344 22.777344 C 14.242188 24.367188 9.824219 24.410156 6.929688 22.878906 C 3.707031 21.171875 1.230469 18.734375 0.308594 14.511719 C -0.0625 12.820312 -0.105469 10.636719 0.410156 8.761719 C 0.53125 8.324219 0.75 7.859375 0.921875 7.425781 C 1.757812 5.351562 3.175781 3.542969 4.925781 2.292969 C 5.632812 1.792969 6.484375 1.292969 7.238281 0.960938 C 8.175781 0.542969 9.753906 0.132812 11.140625 0.0351562 M 11.140625 0.0351562 "/>
<path style=" stroke:none;fill-rule:nonzero;fill:rgb(0%,0%,0%);fill-opacity:1;" d="M 12.113281 0 C 11.789062 0 11.464844 0.0117188 11.140625 0.0351562 C 9.753906 0.132812 8.175781 0.542969 7.238281 0.960938 C 6.484375 1.292969 5.632812 1.792969 4.925781 2.292969 C 3.175781 3.542969 1.757812 5.351562 0.921875 7.425781 C 0.75 7.859375 0.53125 8.324219 0.410156 8.761719 C -0.105469 10.636719 -0.0625 12.820312 0.308594 14.511719 C 1.230469 18.734375 3.707031 21.171875 6.929688 22.878906 C 9.824219 24.410156 14.242188 24.367188 17.402344 22.777344 C 19.292969 21.824219 20.804688 20.375 21.972656 18.617188 C 23.105469 16.910156 23.976562 14.582031 23.972656 11.894531 C 23.96875 9.417969 22.980469 7.011719 21.972656 5.425781 C 20.085938 2.460938 16.878906 -0.00390625 12.113281 0 M 12.171875 0.574219 C 15.730469 0.570312 18.511719 2.257812 20.277344 4.191406 C 20.773438 4.742188 21.273438 5.285156 21.613281 5.835938 C 22.238281 6.859375 22.640625 8.066406 22.945312 9.222656 C 24.09375 13.558594 22.371094 17.667969 20.226562 19.902344 C 18.625 21.570312 16.65625 22.699219 14.066406 23.1875 C 11.148438 23.738281 8.351562 23.019531 6.363281 21.902344 C 4.320312 20.757812 2.875 19.125 1.796875 17.027344 C 0.757812 15.003906 0.273438 11.78125 1.027344 9.121094 C 1.703125 6.730469 2.859375 4.742188 4.671875 3.320312 C 5.929688 2.335938 7.375 1.417969 9.34375 0.90625 C 10.050781 0.722656 10.703125 0.648438 11.449219 0.601562 C 11.6875 0.585938 11.929688 0.574219 12.171875 0.574219 Z M 11.894531 1.078125 C 11.660156 1.082031 11.425781 1.09375 11.191406 1.113281 C 8.136719 1.375 5.992188 2.742188 4.363281 4.347656 C 3.222656 5.46875 2.363281 6.847656 1.796875 8.453125 C 0.964844 10.8125 1.015625 13.597656 1.949219 16 C 2.75 18.046875 4.054688 19.699219 5.902344 20.980469 C 7.640625 22.183594 10.132812 23.117188 12.9375 22.878906 C 16.347656 22.589844 18.84375 20.839844 20.480469 18.824219 C 20.902344 18.308594 21.316406 17.722656 21.558594 17.027344 C 21.796875 16.523438 21.914062 16.183594 22.023438 16 C 22.476562 14.980469 22.71875 13.90625 22.792969 12.714844 C 23.019531 9.054688 21.609375 6.195312 19.660156 4.246094 C 18.71875 3.300781 17.554688 2.449219 16.171875 1.933594 C 14.914062 1.464844 13.511719 1.0625 11.894531 1.078125 Z M 11.894531 1.078125 "/>
<path style=" stroke:none;fill-rule:nonzero;fill:rgb(100%,100%,100%);fill-opacity:1;" d="M 12.054688 0.917969 L 12 0.976562 L 12.109375 1.085938 C 12.148438 1.085938 12.1875 1.085938 12.226562 1.085938 Z M 11.226562 1.816406 L 11.222656 2.785156 C 11.21875 3.324219 11.527344 3.574219 12.015625 3.574219 C 12.507812 3.578125 12.828125 3.335938 12.828125 2.777344 L 12.832031 1.820312 L 12.347656 1.820312 L 12.34375 2.789062 C 12.339844 3.03125 12.21875 3.144531 12.023438 3.144531 C 11.832031 3.144531 11.707031 3.023438 11.707031 2.777344 L 11.710938 1.816406 Z M 14.210938 2.0625 L 14.089844 2.464844 L 14.585938 2.613281 L 14.203125 3.863281 L 14.660156 4.003906 L 15.042969 2.753906 L 15.539062 2.90625 L 15.660156 2.503906 Z M 9.203125 2.210938 L 8.761719 2.355469 L 8.59375 4.230469 L 9.074219 4.078125 L 9.097656 3.746094 L 9.730469 3.542969 L 9.945312 3.800781 L 10.433594 3.640625 Z M 9.152344 2.824219 L 9.484375 3.230469 L 9.117188 3.351562 Z M 16.953125 3.0625 L 15.996094 4.5 L 16.394531 4.765625 L 16.757812 4.21875 L 17.269531 4.558594 L 16.90625 5.105469 L 17.304688 5.367188 L 18.257812 3.933594 L 17.863281 3.667969 L 17.503906 4.207031 L 16.992188 3.863281 L 17.351562 3.328125 Z M 6.683594 3.511719 C 6.507812 3.519531 6.332031 3.582031 6.167969 3.699219 C 5.738281 4.011719 5.65625 4.570312 5.945312 4.972656 L 5.949219 4.976562 C 6.242188 5.375 6.792969 5.464844 7.222656 5.148438 C 7.652344 4.835938 7.738281 4.277344 7.445312 3.875 L 7.445312 3.871094 C 7.269531 3.628906 6.984375 3.492188 6.683594 3.511719 Z M 6.675781 3.964844 C 6.820312 3.964844 6.960938 4.039062 7.054688 4.164062 L 7.054688 4.167969 C 7.203125 4.367188 7.1875 4.644531 6.972656 4.800781 C 6.761719 4.953125 6.488281 4.882812 6.34375 4.683594 L 6.339844 4.679688 C 6.191406 4.476562 6.210938 4.203125 6.421875 4.050781 C 6.492188 3.996094 6.582031 3.964844 6.675781 3.964844 M 11.925781 4.398438 L 12 4.472656 L 11.183594 5.289062 L 10.503906 4.609375 L 10.417969 4.636719 L 11.125 5.34375 L 10.308594 6.160156 L 9.492188 5.34375 L 10.109375 4.726562 L 9.941406 4.78125 L 9.4375 5.289062 L 9.191406 5.042969 C 9.164062 5.054688 9.136719 5.066406 9.109375 5.078125 L 9.378906 5.34375 L 8.5625 6.160156 L 8.027344 5.625 C 8.003906 5.640625 7.980469 5.65625 7.957031 5.667969 L 8.503906 6.21875 L 7.6875 7.035156 L 7.035156 6.382812 C 7.015625 6.398438 6.996094 6.417969 6.976562 6.4375 L 7.632812 7.09375 L 6.8125 7.910156 L 6.1875 7.28125 C 6.171875 7.304688 6.152344 7.324219 6.136719 7.34375 L 6.757812 7.964844 L 5.941406 8.78125 L 5.484375 8.328125 C 5.46875 8.351562 5.457031 8.375 5.445312 8.402344 L 5.882812 8.839844 L 5.066406 9.65625 L 4.9375 9.527344 C 4.925781 9.554688 4.914062 9.582031 4.90625 9.609375 L 5.011719 9.714844 L 4.804688 9.917969 C 4.789062 9.96875 4.777344 10.019531 4.765625 10.070312 L 5.066406 9.769531 L 5.882812 10.585938 L 5.066406 11.40625 L 4.613281 10.953125 C 4.609375 10.984375 4.609375 11.019531 4.605469 11.054688 L 5.011719 11.460938 L 4.554688 11.914062 C 4.554688 11.953125 4.554688 11.992188 4.554688 12.03125 L 5.066406 11.515625 L 5.882812 12.335938 L 5.066406 13.152344 L 4.570312 12.65625 C 4.574219 12.695312 4.574219 12.734375 4.578125 12.777344 L 5.011719 13.210938 L 4.664062 13.554688 C 4.667969 13.589844 4.675781 13.617188 4.679688 13.652344 L 5.066406 13.265625 L 5.882812 14.082031 L 5.066406 14.898438 L 4.976562 14.8125 C 5.007812 14.882812 5.019531 14.917969 5.0625 15.015625 L 5.066406 15.011719 L 5.882812 15.828125 L 5.625 16.089844 C 5.640625 16.113281 5.65625 16.136719 5.671875 16.15625 L 5.941406 15.886719 L 6.757812 16.703125 L 6.390625 17.070312 C 6.410156 17.089844 6.429688 17.109375 6.445312 17.128906 L 6.8125 16.761719 L 7.632812 17.578125 L 7.304688 17.90625 C 7.324219 17.921875 7.347656 17.9375 7.371094 17.953125 L 7.6875 17.632812 L 8.503906 18.453125 L 8.363281 18.59375 C 8.390625 18.605469 8.414062 18.617188 8.4375 18.628906 L 8.5625 18.507812 L 8.914062 18.863281 C 8.980469 18.890625 9.046875 18.917969 9.113281 18.949219 L 8.617188 18.453125 L 9.4375 17.632812 L 10.253906 18.453125 L 9.582031 19.121094 C 9.609375 19.128906 9.640625 19.140625 9.667969 19.148438 L 10.308594 18.507812 L 11.125 19.324219 L 10.996094 19.453125 C 11.03125 19.457031 11.0625 19.464844 11.09375 19.46875 L 11.183594 19.382812 L 11.292969 19.492188 C 11.335938 19.496094 11.375 19.5 11.417969 19.503906 L 11.238281 19.324219 L 12.054688 18.507812 L 12.875 19.324219 L 12.707031 19.492188 C 12.75 19.488281 12.792969 19.480469 12.835938 19.476562 L 12.929688 19.382812 L 13.007812 19.457031 C 13.039062 19.453125 13.070312 19.449219 13.105469 19.441406 L 12.988281 19.324219 L 13.804688 18.507812 L 14.421875 19.125 L 14.503906 19.09375 L 13.859375 18.453125 L 14.675781 17.632812 L 15.496094 18.453125 L 15.082031 18.863281 C 15.15625 18.828125 15.226562 18.796875 15.296875 18.761719 L 15.550781 18.507812 L 15.628906 18.585938 C 15.65625 18.574219 15.679688 18.558594 15.703125 18.546875 L 15.609375 18.453125 L 16.425781 17.632812 L 16.675781 17.882812 L 16.734375 17.832031 L 16.480469 17.578125 L 17.300781 16.761719 L 17.574219 17.035156 C 17.589844 17.015625 17.609375 16.996094 17.625 16.976562 L 17.355469 16.703125 L 18.171875 15.886719 L 18.339844 16.050781 C 18.351562 16.027344 18.363281 16.003906 18.378906 15.980469 L 18.230469 15.828125 L 18.648438 15.410156 L 18.65625 15.398438 C 18.695312 15.328125 18.726562 15.253906 18.765625 15.183594 L 18.171875 15.773438 L 17.355469 14.957031 L 18.171875 14.140625 L 18.917969 14.882812 C 18.929688 14.855469 18.9375 14.828125 18.949219 14.804688 L 18.230469 14.082031 L 19.046875 13.265625 L 19.363281 13.582031 C 19.367188 13.550781 19.375 13.519531 19.382812 13.488281 L 19.101562 13.210938 L 19.5 12.8125 C 19.507812 12.769531 19.511719 12.722656 19.519531 12.679688 L 19.046875 13.152344 L 18.230469 12.335938 L 19.046875 11.519531 L 19.558594 12.03125 C 19.5625 11.996094 19.566406 11.960938 19.566406 11.921875 L 19.101562 11.460938 L 19.511719 11.050781 L 19.5 10.953125 L 19.046875 11.40625 L 18.230469 10.589844 L 19.046875 9.769531 L 19.324219 10.050781 C 19.3125 9.996094 19.296875 9.941406 19.277344 9.890625 L 19.101562 9.714844 L 19.191406 9.625 C 19.183594 9.597656 19.171875 9.570312 19.160156 9.542969 L 19.046875 9.65625 L 18.230469 8.839844 L 18.644531 8.421875 L 18.605469 8.347656 L 18.171875 8.785156 L 17.355469 7.964844 L 17.960938 7.359375 L 17.90625 7.304688 L 17.300781 7.910156 L 16.480469 7.09375 L 17.089844 6.484375 L 17.035156 6.425781 L 16.425781 7.035156 L 15.609375 6.21875 L 16.179688 5.648438 C 16.15625 5.632812 16.132812 5.617188 16.109375 5.601562 L 15.550781 6.164062 L 14.734375 5.34375 L 15.027344 5.050781 L 14.949219 5.015625 L 14.675781 5.289062 L 14.105469 4.714844 C 14.054688 4.699219 14 4.6875 13.949219 4.671875 L 14.621094 5.34375 L 13.804688 6.160156 L 12.988281 5.34375 L 13.71875 4.613281 L 13.628906 4.589844 L 12.929688 5.289062 L 12.113281 4.472656 L 12.183594 4.398438 C 12.148438 4.398438 12.109375 4.398438 12.074219 4.398438 L 12.058594 4.414062 L 12.042969 4.398438 C 12.003906 4.398438 11.964844 4.398438 11.925781 4.398438 M 12.054688 4.527344 L 12.875 5.34375 L 12.058594 6.160156 L 11.238281 5.34375 Z M 9.4375 5.402344 L 10.253906 6.21875 L 9.4375 7.035156 L 8.617188 6.21875 Z M 11.183594 5.402344 L 12 6.21875 L 11.183594 7.035156 L 10.367188 6.21875 Z M 12.929688 5.402344 L 13.746094 6.21875 L 12.929688 7.035156 L 12.113281 6.21875 Z M 14.679688 5.402344 L 15.496094 6.21875 L 14.679688 7.035156 L 13.859375 6.21875 Z M 8.5625 6.273438 L 9.378906 7.09375 L 8.5625 7.910156 L 7.746094 7.09375 Z M 10.308594 6.273438 L 11.125 7.09375 L 10.859375 7.359375 C 10.921875 7.328125 10.984375 7.300781 11.054688 7.28125 L 11.183594 7.148438 L 11.265625 7.234375 C 11.300781 7.226562 11.335938 7.226562 11.371094 7.222656 L 11.238281 7.09375 L 12.054688 6.273438 L 12.875 7.09375 L 12.742188 7.222656 C 12.777344 7.226562 12.8125 7.226562 12.847656 7.234375 L 12.929688 7.148438 L 13.0625 7.28125 C 13.125 7.300781 13.191406 7.324219 13.25 7.355469 L 12.988281 7.09375 L 13.804688 6.273438 L 14.621094 7.09375 L 13.808594 7.90625 C 13.835938 7.964844 13.863281 8.023438 13.882812 8.085938 L 13.890625 8.109375 L 14.621094 8.839844 L 14.253906 9.207031 L 14.28125 9.292969 L 14.675781 8.898438 L 15.496094 9.714844 L 14.691406 10.519531 L 14.757812 10.726562 L 15.496094 11.460938 L 15.125 11.828125 L 15.15625 11.914062 L 15.550781 11.515625 L 16.367188 12.335938 L 15.5625 13.140625 L 15.628906 13.34375 L 16.367188 14.082031 L 15.996094 14.453125 L 16.027344 14.539062 L 16.425781 14.140625 L 17.242188 14.957031 L 16.425781 15.773438 L 16.398438 15.746094 C 16.40625 15.800781 16.402344 15.855469 16.402344 15.910156 L 16.425781 15.886719 L 17.242188 16.703125 L 16.425781 17.519531 L 15.851562 16.945312 C 15.828125 16.960938 15.808594 16.980469 15.785156 16.992188 L 16.367188 17.578125 L 15.550781 18.394531 L 14.734375 17.578125 L 15.148438 17.164062 L 15.140625 17.164062 C 15.109375 17.164062 15.074219 17.160156 15.042969 17.15625 L 14.675781 17.519531 L 13.859375 16.703125 L 14.042969 16.523438 C 14.027344 16.496094 14.015625 16.472656 14.003906 16.449219 L 13.804688 16.648438 L 12.988281 15.828125 L 13.589844 15.226562 L 13.5625 15.140625 L 12.929688 15.773438 L 12.113281 14.957031 L 12.378906 14.691406 L 12.261719 14.691406 L 12.058594 14.898438 L 11.851562 14.691406 L 11.734375 14.691406 L 12 14.957031 L 11.183594 15.773438 L 10.648438 15.238281 L 10.621094 15.324219 L 11.125 15.832031 L 10.308594 16.648438 L 10.1875 16.523438 C 10.175781 16.550781 10.160156 16.574219 10.144531 16.597656 L 10.253906 16.703125 L 9.4375 17.519531 L 9.070312 17.15625 C 9.027344 17.152344 8.980469 17.144531 8.9375 17.136719 L 9.378906 17.578125 L 8.5625 18.394531 L 7.746094 17.578125 L 8.386719 16.933594 C 8.367188 16.917969 8.34375 16.90625 8.320312 16.886719 L 7.6875 17.519531 L 6.871094 16.703125 L 7.6875 15.886719 L 7.851562 16.050781 C 7.84375 16.007812 7.847656 15.96875 7.84375 15.929688 L 7.746094 15.832031 L 7.851562 15.722656 C 7.859375 15.675781 7.871094 15.628906 7.878906 15.582031 L 7.6875 15.773438 L 6.871094 14.957031 L 7.6875 14.140625 L 8.175781 14.625 L 8.203125 14.539062 L 7.746094 14.082031 L 8.5625 13.265625 L 8.59375 13.296875 L 8.621094 13.210938 L 8.617188 13.210938 L 8.625 13.203125 L 8.675781 13.039062 L 8.5625 13.152344 L 7.746094 12.335938 L 8.5625 11.519531 L 9.011719 11.96875 L 9.039062 11.882812 L 8.617188 11.460938 L 9.429688 10.652344 L 9.480469 10.484375 L 9.4375 10.53125 L 8.617188 9.714844 L 9.4375 8.898438 L 9.851562 9.3125 L 9.878906 9.226562 L 9.492188 8.839844 L 10.234375 8.097656 C 10.257812 8.027344 10.289062 7.960938 10.320312 7.898438 L 10.308594 7.910156 L 9.492188 7.09375 Z M 15.550781 6.273438 L 16.367188 7.09375 L 15.550781 7.910156 L 14.734375 7.09375 Z M 7.6875 7.148438 L 8.503906 7.964844 L 7.6875 8.78125 L 6.871094 7.964844 Z M 9.4375 7.148438 L 10.253906 7.964844 L 9.4375 8.78125 L 8.617188 7.964844 Z M 14.679688 7.148438 L 15.496094 7.964844 L 14.675781 8.785156 L 13.859375 7.964844 Z M 16.425781 7.148438 L 17.242188 7.964844 L 16.425781 8.785156 L 15.609375 7.964844 Z M 11.4375 7.457031 C 10.988281 7.457031 10.597656 7.757812 10.460938 8.175781 L 8.121094 15.589844 C 7.960938 16.128906 8.257812 16.710938 8.796875 16.875 C 8.902344 16.90625 9.007812 16.925781 9.117188 16.925781 C 9.5625 16.925781 9.960938 16.636719 10.097656 16.210938 L 10.640625 14.453125 L 13.589844 14.453125 L 14.167969 16.226562 C 14.308594 16.65625 14.710938 16.925781 15.140625 16.925781 C 15.253906 16.925781 15.363281 16.910156 15.46875 16.875 C 16.007812 16.699219 16.292969 16.117188 16.117188 15.574219 L 13.65625 8.160156 C 13.519531 7.742188 13.113281 7.457031 12.679688 7.457031 Z M 6.8125 8.023438 L 7.632812 8.839844 L 6.8125 9.65625 L 5.996094 8.839844 Z M 8.5625 8.023438 L 9.378906 8.839844 L 8.5625 9.65625 L 7.746094 8.839844 Z M 15.550781 8.023438 L 16.367188 8.839844 L 15.550781 9.65625 L 14.734375 8.839844 Z M 17.300781 8.023438 L 18.117188 8.839844 L 17.300781 9.65625 L 16.480469 8.839844 Z M 5.941406 8.898438 L 6.757812 9.714844 L 5.941406 10.53125 L 5.125 9.714844 Z M 7.6875 8.898438 L 8.503906 9.714844 L 7.6875 10.53125 L 6.871094 9.714844 Z M 16.425781 8.898438 L 17.242188 9.714844 L 16.425781 10.53125 L 15.609375 9.714844 Z M 18.171875 8.898438 L 18.988281 9.714844 L 18.171875 10.53125 L 17.355469 9.714844 Z M 6.8125 9.769531 L 7.632812 10.585938 L 6.8125 11.40625 L 5.996094 10.585938 Z M 8.5625 9.769531 L 9.378906 10.585938 L 8.5625 11.40625 L 7.742188 10.585938 Z M 15.550781 9.769531 L 16.367188 10.585938 L 15.550781 11.40625 L 14.734375 10.589844 Z M 17.300781 9.769531 L 18.117188 10.589844 L 17.300781 11.40625 L 16.480469 10.585938 L 17.296875 9.769531 Z M 5.941406 10.644531 L 6.757812 11.460938 L 5.941406 12.277344 L 5.125 11.460938 Z M 7.6875 10.644531 L 8.503906 11.460938 L 7.6875 12.277344 L 6.871094 11.460938 Z M 16.425781 10.644531 L 17.242188 11.460938 L 16.425781 12.277344 L 15.609375 11.460938 Z M 18.171875 10.644531 L 18.988281 11.460938 L 18.171875 12.277344 L 17.355469 11.460938 Z M 6.8125 11.519531 L 7.632812 12.335938 L 6.8125 13.152344 L 5.996094 12.335938 Z M 17.296875 11.519531 L 18.117188 12.335938 L 17.300781 13.152344 L 16.480469 12.335938 Z M 22.808594 11.671875 C 22.808594 11.710938 22.808594 11.75 22.808594 11.789062 L 22.96875 11.945312 L 23.023438 11.886719 Z M 1.210938 11.765625 L 0.726562 12.253906 L 0.78125 12.308594 L 1.210938 11.878906 C 1.210938 11.839844 1.210938 11.804688 1.210938 11.765625 Z M 0.777344 12.359375 L 0.71875 12.414062 L 1.25 12.945312 C 1.246094 12.902344 1.242188 12.863281 1.238281 12.820312 Z M 5.941406 12.390625 L 6.757812 13.210938 L 5.941406 14.027344 L 5.125 13.210938 Z M 7.6875 12.390625 L 8.503906 13.210938 L 7.6875 14.027344 L 6.871094 13.210938 Z M 16.425781 12.390625 L 17.242188 13.210938 L 16.425781 14.027344 L 15.609375 13.210938 Z M 18.171875 12.390625 L 18.988281 13.210938 L 18.171875 14.027344 L 17.355469 13.210938 Z M 23.132812 12.5625 L 22.777344 12.917969 L 22.765625 13.042969 L 23.1875 12.617188 Z M 6.8125 13.265625 L 7.632812 14.082031 L 6.8125 14.898438 L 5.996094 14.082031 Z M 17.300781 13.265625 L 18.117188 14.082031 L 17.300781 14.898438 L 16.480469 14.082031 Z M 5.941406 14.140625 L 6.757812 14.957031 L 5.941406 15.773438 L 5.125 14.957031 Z M 6.8125 15.011719 L 7.632812 15.832031 L 6.8125 16.648438 L 5.996094 15.832031 Z M 12.054688 15.011719 L 12.875 15.832031 L 12.058594 16.648438 L 11.238281 15.832031 Z M 17.300781 15.011719 L 18.117188 15.832031 L 17.300781 16.648438 L 16.480469 15.832031 Z M 11.183594 15.886719 L 12 16.703125 L 11.183594 17.519531 L 10.367188 16.703125 Z M 12.929688 15.886719 L 13.746094 16.703125 L 12.929688 17.519531 L 12.113281 16.703125 Z M 10.308594 16.761719 L 11.125 17.578125 L 10.308594 18.394531 L 9.492188 17.578125 Z M 12.054688 16.761719 L 12.875 17.578125 L 12.054688 18.394531 L 11.238281 17.578125 Z M 13.804688 16.761719 L 14.621094 17.578125 L 13.804688 18.394531 L 12.988281 17.578125 Z M 11.183594 17.632812 L 12 18.453125 L 11.183594 19.269531 L 10.363281 18.453125 Z M 12.929688 17.632812 L 13.746094 18.453125 L 12.929688 19.269531 L 12.113281 18.453125 Z M 17.695312 18.425781 C 17.65625 18.421875 17.621094 18.425781 17.585938 18.425781 C 17.398438 18.445312 17.222656 18.519531 17.078125 18.636719 C 16.660156 18.964844 16.597656 19.527344 16.902344 19.917969 L 16.90625 19.921875 C 17.214844 20.308594 17.769531 20.375 18.1875 20.046875 C 18.605469 19.714844 18.667969 19.152344 18.359375 18.765625 L 18.355469 18.761719 C 18.199219 18.554688 17.953125 18.433594 17.695312 18.425781 Z M 6.996094 18.84375 L 6.109375 20.324219 L 6.519531 20.570312 L 6.851562 20.015625 L 7.375 20.332031 L 7.046875 20.882812 L 7.453125 21.128906 L 8.34375 19.648438 L 7.933594 19.40625 L 7.59375 19.96875 L 7.070312 19.652344 L 7.40625 19.089844 Z M 17.59375 18.882812 C 17.734375 18.878906 17.878906 18.945312 17.976562 19.070312 L 17.980469 19.074219 C 18.132812 19.269531 18.128906 19.542969 17.921875 19.703125 C 17.714844 19.867188 17.441406 19.808594 17.285156 19.613281 L 17.28125 19.609375 C 17.128906 19.414062 17.132812 19.140625 17.339844 18.976562 C 17.414062 18.917969 17.5 18.886719 17.59375 18.882812 Z M 15.746094 19.609375 L 15.273438 19.785156 L 15.265625 20.113281 L 14.640625 20.347656 L 14.417969 20.101562 L 13.9375 20.28125 L 15.226562 21.652344 L 15.660156 21.492188 Z M 9.695312 20.097656 L 9.355469 21.355469 L 8.855469 21.222656 L 8.746094 21.625 L 10.207031 22.019531 L 10.316406 21.617188 L 9.816406 21.480469 L 10.15625 20.222656 Z M 12.355469 20.414062 C 11.863281 20.433594 11.558594 20.691406 11.582031 21.25 L 11.625 22.203125 L 12.109375 22.183594 L 12.066406 21.210938 C 12.054688 20.972656 12.175781 20.851562 12.367188 20.84375 C 12.558594 20.835938 12.691406 20.949219 12.703125 21.195312 L 12.742188 22.15625 L 13.226562 22.132812 L 13.1875 21.164062 C 13.164062 20.625 12.84375 20.390625 12.355469 20.414062 M 15.261719 20.511719 L 15.25 21.039062 L 14.898438 20.648438 Z M 11.183594 22.875 L 11.417969 23.113281 L 11.476562 23.058594 L 11.304688 22.886719 C 11.265625 22.882812 11.222656 22.878906 11.183594 22.875 M 12.925781 22.878906 C 12.886719 22.882812 12.847656 22.882812 12.808594 22.886719 L 12.644531 23.050781 L 12.699219 23.105469 Z M 12.925781 22.878906 "/>
</g>
</svg>
