<?xml version="1.0" encoding="UTF-8"?>
<svg xmlns="http://www.w3.org/2000/svg" xmlns:xlink="http://www.w3.org/1999/xlink" width="24px" height="24px" viewBox="0 0 24 24" version="1.1">
<g id="surface1">
<path style=" stroke:none;fill-rule:nonzero;fill:rgb(0%,0%,0%);fill-opacity:1;" d="M 7.984375 16.398438 C 7.871094 15.664062 7.5625 15.066406 6.8125 14.777344 C 6.515625 14.667969 6.261719 14.460938 5.972656 14.332031 C 5.644531 14.183594 5.308594 14.042969 4.960938 13.953125 C 4.699219 13.882812 4.453125 14 4.296875 14.230469 C 4.152344 14.445312 4.257812 14.652344 4.382812 14.832031 C 4.519531 15.035156 4.675781 15.230469 4.832031 15.421875 C 5.089844 15.738281 5.363281 16.042969 5.617188 16.367188 C 5.855469 16.675781 6.0625 17.015625 6.027344 17.421875 C 5.949219 18.316406 5.542969 19.058594 4.890625 19.664062 C 4.820312 19.726562 4.691406 19.773438 4.601562 19.765625 C 4.183594 19.71875 3.804688 19.5625 3.5 19.273438 C 3.152344 18.9375 3.203125 18.546875 3.625 18.300781 C 3.722656 18.246094 3.828125 18.191406 3.917969 18.121094 C 4.175781 17.929688 4.261719 17.597656 4.121094 17.3125 C 4.054688 17.175781 3.980469 17.027344 3.871094 16.925781 C 3.335938 16.4375 2.808594 15.9375 2.234375 15.492188 C 0.84375 14.410156 0.128906 12.984375 0.0195312 11.253906 C -0.105469 9.332031 0.34375 7.539062 1.355469 5.898438 C 1.738281 5.273438 2.1875 4.679688 2.875 4.375 C 3.339844 4.164062 3.851562 4.046875 4.351562 3.914062 C 5.726562 3.554688 7.113281 3.28125 8.542969 3.523438 C 9.773438 3.730469 10.675781 4.367188 11.089844 5.574219 C 11.359375 6.367188 11.425781 7.1875 11.339844 8.023438 C 11.175781 9.671875 9.957031 11.144531 8.371094 11.578125 C 7.683594 11.769531 7.308594 11.664062 6.894531 11.089844 C 6.597656 10.679688 6.351562 10.230469 6.085938 9.792969 C 6.046875 9.730469 6.019531 9.65625 5.984375 9.585938 C 5.953125 9.519531 5.917969 9.453125 5.882812 9.382812 C 5.984375 10.097656 6.148438 10.785156 6.539062 11.398438 C 6.75 11.730469 7.03125 11.976562 7.445312 12.015625 C 8.960938 12.148438 10.238281 11.652344 11.148438 10.433594 C 12.164062 9.070312 12.386719 7.5 12.09375 5.847656 C 12.035156 5.519531 11.941406 5.203125 11.871094 4.878906 C 11.824219 4.667969 11.90625 4.511719 12.113281 4.441406 C 12.210938 4.40625 12.308594 4.378906 12.402344 4.359375 C 13.644531 4.09375 14.898438 4.003906 16.164062 4.132812 C 17.597656 4.277344 18.953125 4.671875 20.167969 5.46875 C 22.066406 6.71875 23.246094 8.496094 23.882812 10.648438 C 23.976562 10.960938 23.992188 11.300781 24 11.632812 C 24.003906 11.851562 23.863281 11.910156 23.699219 11.769531 C 23.511719 11.621094 23.34375 11.449219 23.1875 11.269531 C 23.039062 11.105469 22.917969 10.914062 22.777344 10.738281 C 22.664062 10.597656 22.566406 10.621094 22.515625 10.792969 C 22.480469 10.894531 22.453125 11 22.421875 11.101562 C 22.089844 12.285156 21.566406 13.367188 20.71875 14.277344 C 20.601562 14.40625 20.496094 14.59375 20.480469 14.761719 C 20.445312 15.230469 20.417969 15.707031 20.464844 16.171875 C 20.554688 17.171875 20.699219 18.167969 20.8125 19.167969 C 20.875 19.730469 20.695312 20.0625 20.164062 20.257812 C 19.792969 20.394531 19.394531 20.492188 19 20.523438 C 18.371094 20.566406 17.738281 20.535156 17.109375 20.535156 C 17.09375 19.832031 17.152344 19.140625 16.492188 18.765625 C 16.621094 18.242188 16.765625 17.746094 16.855469 17.242188 C 16.929688 16.820312 16.867188 16.40625 16.570312 16.0625 C 16.296875 15.738281 15.949219 15.648438 15.628906 15.835938 C 14.671875 16.394531 13.675781 16.394531 12.664062 16.03125 C 12.195312 15.863281 11.871094 15.957031 11.613281 16.382812 C 11.335938 16.839844 11.222656 17.351562 11.253906 17.871094 C 11.292969 18.523438 11.40625 19.171875 11.492188 19.824219 C 11.539062 20.1875 11.5 20.28125 11.136719 20.375 C 10.335938 20.578125 9.519531 20.601562 8.695312 20.535156 C 8.652344 20.53125 8.609375 20.511719 8.582031 20.503906 C 8.539062 19.824219 8.613281 19.113281 7.800781 18.75 C 8.160156 17.988281 8.109375 17.195312 7.988281 16.40625 Z M 3.128906 13.722656 C 3.25 13.609375 3.34375 13.433594 3.378906 13.269531 C 3.460938 12.867188 3.160156 12.324219 2.808594 12.171875 C 2.621094 12.089844 2.457031 12.121094 2.324219 12.269531 C 2.003906 12.632812 1.683594 13.003906 1.367188 13.371094 C 1.316406 13.4375 1.265625 13.511719 1.230469 13.585938 C 1.101562 13.828125 1.175781 14.003906 1.449219 14.070312 C 1.609375 14.113281 1.78125 14.121094 1.945312 14.144531 C 2.382812 14.101562 2.804688 14.027344 3.128906 13.722656 Z M 3.164062 9.671875 C 3.164062 9.382812 2.921875 9.140625 2.636719 9.140625 C 2.34375 9.136719 2.089844 9.402344 2.101562 9.691406 C 2.113281 9.980469 2.355469 10.214844 2.644531 10.210938 C 2.9375 10.207031 3.171875 9.964844 3.167969 9.675781 Z M 3.164062 9.671875 "/>
</g>
</svg>
