<?xml version="1.0" encoding="UTF-8"?>
<svg xmlns="http://www.w3.org/2000/svg" xmlns:xlink="http://www.w3.org/1999/xlink" width="24px" height="24px" viewBox="0 0 24 24" version="1.1">
<g id="surface1">
<path style=" stroke:none;fill-rule:nonzero;fill:rgb(17.647059%,27.058825%,32.156864%);fill-opacity:1;" d="M 8.1875 13.292969 C 7.414062 13.511719 6.90625 13.898438 6.570312 14.28125 C 6.890625 14 7.320312 13.746094 7.898438 13.582031 C 8.492188 13.414062 8.996094 13.414062 9.410156 13.496094 L 9.410156 13.167969 C 9.054688 13.136719 8.648438 13.164062 8.1875 13.292969 Z M 6.535156 10.550781 L 3.664062 11.308594 C 3.664062 11.308594 3.71875 11.382812 3.816406 11.480469 L 6.25 10.839844 C 6.25 10.839844 6.214844 11.285156 5.914062 11.683594 C 6.480469 11.253906 6.535156 10.550781 6.535156 10.550781 Z M 8.941406 17.300781 C 4.898438 18.390625 2.761719 13.707031 2.113281 11.277344 C 1.816406 10.152344 1.683594 9.304688 1.648438 8.753906 C 1.648438 8.707031 1.648438 8.65625 1.652344 8.605469 C 1.441406 8.621094 1.34375 8.726562 1.363281 9.042969 C 1.398438 9.589844 1.527344 10.441406 1.828125 11.5625 C 2.472656 13.992188 4.613281 18.675781 8.652344 17.589844 C 9.53125 17.351562 10.191406 16.917969 10.6875 16.367188 C 10.230469 16.78125 9.660156 17.105469 8.941406 17.300781 M 9.699219 7.6875 L 9.699219 7.972656 L 11.285156 7.972656 C 11.253906 7.871094 11.21875 7.78125 11.1875 7.6875 Z M 9.699219 7.6875 "/>
<path style=" stroke:none;fill-rule:nonzero;fill:rgb(17.647059%,27.058825%,32.156864%);fill-opacity:1;" d="M 11.640625 10.054688 C 12.351562 10.257812 12.730469 10.757812 12.929688 11.199219 L 13.722656 11.425781 C 13.722656 11.425781 13.613281 9.878906 12.214844 9.480469 C 10.90625 9.109375 10.097656 10.207031 10 10.351562 C 10.382812 10.078125 10.9375 9.855469 11.640625 10.054688 M 17.964844 11.207031 C 16.65625 10.832031 15.847656 11.933594 15.753906 12.074219 C 16.132812 11.804688 16.6875 11.582031 17.390625 11.78125 C 18.101562 11.984375 18.476562 12.484375 18.679688 12.925781 L 19.472656 13.152344 C 19.472656 13.152344 19.363281 11.605469 17.964844 11.207031 M 17.175781 15.289062 L 10.5625 13.4375 C 10.5625 13.4375 10.636719 13.800781 10.910156 14.273438 L 16.476562 15.828125 C 16.933594 15.5625 17.175781 15.289062 17.175781 15.289062 Z M 12.59375 19.265625 C 7.355469 17.863281 7.988281 11.191406 8.835938 8.03125 C 9.1875 6.730469 9.542969 5.761719 9.839844 5.113281 C 9.664062 5.074219 9.515625 5.167969 9.371094 5.464844 C 9.054688 6.105469 8.652344 7.148438 8.261719 8.605469 C 7.414062 11.765625 6.78125 18.4375 12.015625 19.839844 C 14.484375 20.5 16.40625 19.496094 17.839844 17.917969 C 16.480469 19.152344 14.742188 19.84375 12.59375 19.265625 Z M 12.59375 19.265625 "/>
<path style=" stroke:none;fill-rule:nonzero;fill:rgb(88.627452%,34.117648%,29.803923%);fill-opacity:1;" d="M 9.699219 15.738281 L 9.699219 14.390625 L 5.960938 15.453125 C 5.960938 15.453125 6.238281 13.847656 8.1875 13.292969 C 8.777344 13.125 9.28125 13.125 9.699219 13.207031 L 9.699219 7.6875 L 11.574219 7.6875 C 11.367188 7.054688 11.171875 6.570312 11.003906 6.234375 C 10.730469 5.675781 10.449219 6.046875 9.8125 6.578125 C 9.363281 6.957031 8.226562 7.753906 6.519531 8.214844 C 4.8125 8.675781 3.429688 8.554688 2.855469 8.453125 C 2.039062 8.3125 1.609375 8.132812 1.648438 8.753906 C 1.683594 9.304688 1.816406 10.152344 2.113281 11.277344 C 2.761719 13.707031 4.898438 18.390625 8.941406 17.300781 C 9.996094 17.015625 10.742188 16.453125 11.257812 15.738281 Z M 3.664062 11.308594 L 6.535156 10.550781 C 6.535156 10.550781 6.453125 11.65625 5.375 11.941406 C 4.300781 12.222656 3.664062 11.308594 3.664062 11.308594 Z M 3.664062 11.308594 "/>
<path style=" stroke:none;fill-rule:nonzero;fill:rgb(18.039216%,67.843139%,20%);fill-opacity:1;" d="M 20.507812 7.75 C 19.761719 7.882812 17.96875 8.042969 15.757812 7.453125 C 13.542969 6.859375 12.074219 5.820312 11.492188 5.335938 C 10.667969 4.644531 10.304688 4.164062 9.945312 4.890625 C 9.632812 5.53125 9.226562 6.574219 8.835938 8.03125 C 7.992188 11.191406 7.355469 17.863281 12.59375 19.265625 C 17.824219 20.667969 20.613281 14.574219 21.457031 11.414062 C 21.847656 9.957031 22.019531 8.851562 22.066406 8.136719 C 22.121094 7.332031 21.566406 7.566406 20.507812 7.75 Z M 9.988281 10.367188 C 9.988281 10.367188 10.816406 9.082031 12.214844 9.480469 C 13.613281 9.878906 13.722656 11.425781 13.722656 11.425781 Z M 13.40625 16.121094 C 10.945312 15.402344 10.566406 13.4375 10.566406 13.4375 L 17.175781 15.289062 C 17.175781 15.289062 15.839844 16.835938 13.40625 16.121094 M 15.742188 12.089844 C 15.742188 12.089844 16.566406 10.808594 17.964844 11.207031 C 19.363281 11.605469 19.472656 13.152344 19.472656 13.152344 Z M 15.742188 12.089844 "/>
<path style=" stroke:none;fill-rule:nonzero;fill:rgb(83.92157%,32.549021%,28.235295%);fill-opacity:1;" d="M 8.394531 14.761719 L 5.960938 15.453125 C 5.960938 15.453125 6.222656 13.945312 8.015625 13.351562 L 6.640625 8.179688 L 6.519531 8.214844 C 4.8125 8.675781 3.429688 8.554688 2.855469 8.453125 C 2.039062 8.3125 1.609375 8.132812 1.648438 8.753906 C 1.683594 9.304688 1.816406 10.152344 2.113281 11.277344 C 2.761719 13.707031 4.898438 18.390625 8.941406 17.300781 L 9.058594 17.261719 Z M 3.664062 11.308594 L 6.535156 10.550781 C 6.535156 10.550781 6.453125 11.65625 5.375 11.941406 C 4.300781 12.222656 3.664062 11.308594 3.664062 11.308594 Z M 3.664062 11.308594 "/>
<path style=" stroke:none;fill-rule:nonzero;fill:rgb(11.372549%,55.29412%,13.333334%);fill-opacity:1;" d="M 13.515625 16.148438 L 13.40625 16.121094 C 10.945312 15.402344 10.5625 13.4375 10.5625 13.4375 L 13.972656 14.390625 L 15.777344 7.457031 L 15.757812 7.449219 C 13.542969 6.859375 12.074219 5.820312 11.492188 5.332031 C 10.667969 4.644531 10.304688 4.164062 9.945312 4.890625 C 9.632812 5.53125 9.226562 6.570312 8.835938 8.03125 C 7.988281 11.191406 7.355469 17.863281 12.59375 19.265625 L 12.699219 19.289062 Z M 9.988281 10.367188 C 9.988281 10.367188 10.816406 9.082031 12.214844 9.480469 C 13.613281 9.878906 13.722656 11.425781 13.722656 11.425781 Z M 9.988281 10.367188 "/>
<path style=" stroke:none;fill-rule:nonzero;fill:rgb(75.294119%,29.411766%,25.490198%);fill-opacity:1;" d="M 8.515625 14.726562 L 7.863281 14.914062 C 8.019531 15.78125 8.289062 16.613281 8.714844 17.351562 C 8.789062 17.335938 8.863281 17.320312 8.941406 17.300781 C 9.128906 17.25 9.316406 17.183594 9.5 17.109375 C 9.023438 16.402344 8.707031 15.585938 8.515625 14.726562 Z M 8.261719 8.605469 C 7.925781 9.859375 7.625 11.660156 7.710938 13.464844 C 7.863281 13.398438 8.023438 13.339844 8.1875 13.292969 L 8.308594 13.265625 C 8.160156 11.335938 8.476562 9.371094 8.835938 8.03125 C 8.921875 7.714844 9.011719 7.398438 9.109375 7.085938 C 8.953125 7.1875 8.789062 7.28125 8.625 7.371094 C 8.496094 7.78125 8.371094 8.191406 8.261719 8.605469 "/>
</g>
</svg>
