<?xml version="1.0" encoding="UTF-8"?>
<svg xmlns="http://www.w3.org/2000/svg" xmlns:xlink="http://www.w3.org/1999/xlink" width="24px" height="24px" viewBox="0 0 24 24" version="1.1">
<g id="surface1">
<path style=" stroke:none;fill-rule:nonzero;fill:rgb(0%,0%,0%);fill-opacity:1;" d="M 23.929688 14.371094 C 23.789062 13.949219 23.410156 13.65625 22.921875 13.582031 C 22.691406 13.550781 22.429688 13.566406 22.117188 13.628906 C 21.574219 13.734375 21.167969 13.777344 20.875 13.785156 C 21.984375 11.96875 22.890625 9.894531 23.410156 7.945312 C 24.25 4.792969 23.800781 3.355469 23.277344 2.707031 C 21.886719 0.984375 19.859375 0.0625 17.414062 0.0351562 C 16.109375 0.0195312 14.964844 0.269531 14.367188 0.449219 C 13.808594 0.351562 13.210938 0.300781 12.582031 0.289062 C 11.40625 0.269531 10.367188 0.519531 9.480469 1.03125 C 8.988281 0.871094 8.199219 0.640625 7.289062 0.496094 C 5.144531 0.15625 3.417969 0.421875 2.152344 1.285156 C 0.621094 2.332031 -0.0859375 4.152344 0.0429688 6.695312 C 0.0859375 7.5 0.550781 9.957031 1.285156 12.28125 C 1.707031 13.621094 2.15625 14.730469 2.621094 15.585938 C 3.28125 16.796875 3.984375 17.507812 4.777344 17.765625 C 5.222656 17.910156 6.027344 18.007812 6.878906 17.324219 C 6.984375 17.449219 7.128906 17.574219 7.320312 17.691406 C 7.558594 17.839844 7.855469 17.960938 8.152344 18.03125 C 9.214844 18.289062 10.210938 18.226562 11.0625 17.863281 C 11.070312 18.011719 11.074219 18.152344 11.074219 18.273438 C 11.082031 18.46875 11.085938 18.660156 11.09375 18.839844 C 11.144531 20.054688 11.230469 21 11.484375 21.664062 C 11.496094 21.699219 11.515625 21.753906 11.535156 21.8125 C 11.660156 22.1875 11.871094 22.8125 12.410156 23.304688 C 12.964844 23.8125 13.636719 23.96875 14.253906 23.96875 C 14.5625 23.96875 14.859375 23.929688 15.117188 23.875 C 16.039062 23.683594 17.085938 23.394531 17.84375 22.347656 C 18.558594 21.363281 18.90625 19.875 18.96875 17.53125 C 18.976562 17.464844 18.984375 17.402344 18.992188 17.34375 L 19.007812 17.21875 L 19.175781 17.234375 L 19.21875 17.234375 C 20.15625 17.277344 21.304688 17.085938 22.007812 16.765625 C 22.566406 16.515625 24.351562 15.605469 23.929688 14.371094 "/>
<path style=" stroke:none;fill-rule:nonzero;fill:rgb(20%,40.392157%,56.862748%);fill-opacity:1;" d="M 22.328125 14.609375 C 19.535156 15.167969 19.34375 14.253906 19.34375 14.253906 C 22.289062 10.019531 23.523438 4.640625 22.460938 3.324219 C 19.558594 -0.265625 14.539062 1.433594 14.457031 1.476562 L 14.429688 1.480469 C 13.875 1.371094 13.261719 1.304688 12.566406 1.292969 C 11.304688 1.273438 10.34375 1.613281 9.617188 2.148438 C 9.617188 2.148438 0.664062 -1.425781 1.078125 6.644531 C 1.167969 8.359375 3.621094 19.632812 6.542969 16.226562 C 7.613281 14.984375 8.644531 13.929688 8.644531 13.929688 C 9.15625 14.261719 9.769531 14.429688 10.414062 14.367188 L 10.464844 14.328125 C 10.449219 14.480469 10.457031 14.632812 10.484375 14.8125 C 9.730469 15.625 9.953125 15.769531 8.445312 16.070312 C 6.921875 16.375 7.820312 16.914062 8.402344 17.058594 C 9.113281 17.230469 10.75 17.472656 11.859375 15.96875 L 11.8125 16.140625 C 12.109375 16.371094 12.316406 17.632812 12.28125 18.773438 C 12.246094 19.917969 12.222656 20.699219 12.457031 21.3125 C 12.6875 21.925781 12.917969 23.304688 14.898438 22.894531 C 16.554688 22.550781 17.410156 21.660156 17.527344 20.175781 C 17.613281 19.121094 17.804688 19.277344 17.816406 18.335938 L 17.972656 17.886719 C 18.148438 16.457031 18 15.996094 19.019531 16.210938 L 19.265625 16.230469 C 20.015625 16.265625 20.996094 16.113281 21.574219 15.855469 C 22.8125 15.296875 23.550781 14.367188 22.324219 14.609375 Z M 22.328125 14.609375 "/>
<path style=" stroke:none;fill-rule:nonzero;fill:rgb(100%,100%,100%);fill-opacity:1;" d="M 10.144531 7.410156 C 9.890625 7.378906 9.664062 7.410156 9.546875 7.492188 C 9.484375 7.539062 9.464844 7.597656 9.457031 7.632812 C 9.445312 7.734375 9.515625 7.84375 9.5625 7.902344 C 9.6875 8.066406 9.871094 8.175781 10.054688 8.199219 C 10.082031 8.203125 10.105469 8.207031 10.132812 8.207031 C 10.4375 8.207031 10.714844 7.976562 10.738281 7.808594 C 10.769531 7.59375 10.453125 7.453125 10.144531 7.410156 M 18.472656 7.417969 C 18.449219 7.25 18.144531 7.203125 17.855469 7.242188 C 17.566406 7.28125 17.285156 7.410156 17.308594 7.574219 C 17.324219 7.707031 17.566406 7.925781 17.855469 7.925781 C 17.878906 7.925781 17.902344 7.925781 17.925781 7.921875 C 18.117188 7.898438 18.257812 7.777344 18.324219 7.710938 C 18.425781 7.609375 18.484375 7.492188 18.472656 7.417969 "/>
<path style=" stroke:none;fill-rule:nonzero;fill:rgb(100%,100%,100%);fill-opacity:1;" d="M 23.253906 14.546875 C 23.148438 14.234375 22.804688 14.136719 22.238281 14.25 C 20.546875 14.585938 19.941406 14.351562 19.742188 14.210938 C 21.058594 12.273438 22.136719 9.929688 22.71875 7.746094 C 22.996094 6.710938 23.148438 5.746094 23.160156 4.964844 C 23.175781 4.101562 23.023438 3.472656 22.710938 3.085938 C 21.453125 1.527344 19.609375 0.691406 17.375 0.671875 C 15.835938 0.652344 14.539062 1.035156 14.289062 1.140625 C 13.757812 1.015625 13.179688 0.933594 12.550781 0.925781 C 11.398438 0.90625 10.402344 1.175781 9.578125 1.71875 C 9.21875 1.589844 8.292969 1.28125 7.160156 1.105469 C 5.199219 0.800781 3.644531 1.03125 2.535156 1.792969 C 1.207031 2.703125 0.597656 4.328125 0.714844 6.625 C 0.753906 7.398438 1.210938 9.777344 1.925781 12.054688 C 2.871094 15.050781 3.898438 16.746094 4.976562 17.097656 C 5.101562 17.136719 5.25 17.164062 5.410156 17.164062 C 5.804688 17.164062 6.285156 16.992188 6.789062 16.40625 C 7.402344 15.695312 8.035156 15 8.691406 14.324219 C 9.117188 14.542969 9.582031 14.667969 10.058594 14.679688 C 10.058594 14.691406 10.0625 14.703125 10.0625 14.714844 C 9.980469 14.8125 9.898438 14.90625 9.820312 15.003906 C 9.492188 15.410156 9.421875 15.496094 8.359375 15.707031 C 8.054688 15.769531 7.25 15.929688 7.238281 16.476562 C 7.226562 17.070312 8.191406 17.320312 8.300781 17.347656 C 8.679688 17.441406 9.050781 17.488281 9.402344 17.488281 C 10.253906 17.488281 11.007812 17.214844 11.609375 16.6875 C 11.589844 18.816406 11.679688 20.910156 11.945312 21.546875 C 12.160156 22.070312 12.6875 23.347656 14.351562 23.347656 C 14.597656 23.347656 14.867188 23.320312 15.160156 23.257812 C 16.898438 22.898438 17.65625 22.152344 17.945312 20.511719 C 18.101562 19.636719 18.371094 17.542969 18.496094 16.417969 C 18.761719 16.5 19.105469 16.535156 19.476562 16.535156 C 20.25 16.535156 21.140625 16.378906 21.699219 16.125 C 22.328125 15.84375 23.460938 15.148438 23.253906 14.546875 M 19.117188 6.957031 C 19.109375 7.289062 19.0625 7.589844 19.011719 7.90625 C 18.960938 8.242188 18.902344 8.59375 18.890625 9.015625 C 18.875 9.429688 18.929688 9.859375 18.980469 10.273438 C 19.085938 11.113281 19.191406 11.976562 18.777344 12.824219 C 18.710938 12.707031 18.648438 12.585938 18.59375 12.460938 C 18.542969 12.339844 18.433594 12.148438 18.277344 11.878906 C 17.679688 10.835938 16.273438 8.394531 16.992188 7.394531 C 17.207031 7.097656 17.75 6.792969 19.117188 6.957031 M 17.460938 1.339844 C 19.460938 1.382812 21.046875 2.109375 22.167969 3.496094 C 23.027344 4.5625 22.082031 9.40625 19.339844 13.585938 C 19.3125 13.550781 19.285156 13.519531 19.253906 13.484375 L 19.222656 13.441406 C 19.929688 12.308594 19.789062 11.1875 19.667969 10.195312 C 19.617188 9.785156 19.570312 9.398438 19.582031 9.039062 C 19.59375 8.65625 19.644531 8.324219 19.695312 8.007812 C 19.757812 7.617188 19.824219 7.210938 19.804688 6.730469 C 19.816406 6.679688 19.824219 6.621094 19.816406 6.550781 C 19.773438 6.09375 19.230469 4.71875 18.128906 3.476562 C 17.527344 2.796875 16.648438 2.039062 15.449219 1.523438 C 15.964844 1.421875 16.671875 1.324219 17.460938 1.339844 M 6.257812 15.980469 C 5.703125 16.625 5.320312 16.5 5.195312 16.460938 C 4.375 16.195312 3.425781 14.519531 2.589844 11.859375 C 1.863281 9.558594 1.4375 7.242188 1.40625 6.59375 C 1.300781 4.539062 1.8125 3.109375 2.933594 2.339844 C 4.753906 1.089844 7.746094 1.839844 8.949219 2.21875 C 8.933594 2.234375 8.914062 2.25 8.898438 2.269531 C 6.921875 4.199219 6.96875 7.5 6.976562 7.699219 C 6.976562 7.777344 6.980469 7.886719 6.992188 8.039062 C 7.023438 8.59375 7.085938 9.628906 6.917969 10.796875 C 6.761719 11.882812 7.109375 12.949219 7.867188 13.714844 C 7.945312 13.796875 8.027344 13.871094 8.113281 13.941406 C 7.773438 14.292969 7.039062 15.066406 6.257812 15.980469 M 8.367188 13.253906 C 7.753906 12.632812 7.476562 11.773438 7.605469 10.890625 C 7.78125 9.65625 7.714844 8.578125 7.679688 8 C 7.675781 7.917969 7.671875 7.847656 7.667969 7.792969 C 7.957031 7.546875 9.292969 6.851562 10.246094 7.0625 C 10.683594 7.160156 10.945312 7.445312 11.058594 7.941406 C 11.628906 10.496094 11.132812 11.558594 10.734375 12.414062 C 10.652344 12.589844 10.574219 12.757812 10.507812 12.929688 L 10.457031 13.0625 C 10.328125 13.402344 10.207031 13.714844 10.132812 14.011719 C 9.480469 14.007812 8.847656 13.738281 8.367188 13.253906 M 8.46875 16.699219 C 8.277344 16.652344 8.105469 16.574219 8.003906 16.507812 C 8.089844 16.46875 8.238281 16.417969 8.496094 16.363281 C 9.75 16.113281 9.941406 15.9375 10.363281 15.417969 C 10.460938 15.300781 10.570312 15.164062 10.722656 15 C 10.949219 14.753906 11.050781 14.796875 11.238281 14.871094 C 11.390625 14.933594 11.539062 15.117188 11.601562 15.320312 C 11.628906 15.417969 11.660156 15.601562 11.554688 15.742188 C 10.675781 16.9375 9.390625 16.921875 8.46875 16.699219 M 15.015625 22.601562 C 13.484375 22.921875 12.945312 22.164062 12.585938 21.300781 C 12.355469 20.742188 12.242188 18.222656 12.324219 15.441406 C 12.324219 15.402344 12.320312 15.367188 12.308594 15.332031 C 12.296875 15.265625 12.285156 15.203125 12.265625 15.136719 C 12.144531 14.734375 11.855469 14.394531 11.503906 14.253906 C 11.367188 14.199219 11.109375 14.097656 10.804688 14.171875 C 10.871094 13.910156 10.984375 13.617188 11.105469 13.296875 L 11.15625 13.164062 C 11.214844 13.011719 11.289062 12.855469 11.367188 12.691406 C 11.78125 11.792969 12.351562 10.570312 11.734375 7.796875 C 11.5 6.761719 10.726562 6.253906 9.554688 6.371094 C 8.851562 6.441406 8.210938 6.714844 7.890625 6.875 C 7.820312 6.90625 7.757812 6.941406 7.699219 6.972656 C 7.789062 5.925781 8.125 3.972656 9.390625 2.738281 C 10.1875 1.957031 11.25 1.574219 12.539062 1.59375 C 15.085938 1.636719 16.722656 2.902344 17.640625 3.957031 C 18.4375 4.867188 18.867188 5.78125 19.039062 6.277344 C 17.746094 6.148438 16.871094 6.394531 16.425781 7.011719 C 15.457031 8.351562 16.953125 10.953125 17.675781 12.207031 C 17.804688 12.433594 17.921875 12.632812 17.957031 12.71875 C 18.191406 13.265625 18.492188 13.636719 18.714844 13.902344 C 18.785156 13.984375 18.847656 14.066406 18.898438 14.132812 C 18.507812 14.242188 17.804688 14.496094 17.871094 15.757812 C 17.820312 16.390625 17.453125 19.351562 17.265625 20.398438 C 17.019531 21.78125 16.492188 22.296875 15.015625 22.601562 M 21.40625 15.519531 C 21.007812 15.699219 20.339844 15.832031 19.703125 15.863281 C 19 15.894531 18.644531 15.785156 18.558594 15.71875 C 18.519531 14.933594 18.824219 14.851562 19.140625 14.765625 C 19.191406 14.75 19.242188 14.738281 19.289062 14.722656 C 19.316406 14.746094 19.351562 14.765625 19.386719 14.789062 C 19.949219 15.152344 20.957031 15.191406 22.375 14.90625 L 22.390625 14.902344 C 22.199219 15.078125 21.871094 15.308594 21.40625 15.519531 "/>
</g>
</svg>
