<?xml version="1.0" encoding="UTF-8"?>
<svg xmlns="http://www.w3.org/2000/svg" xmlns:xlink="http://www.w3.org/1999/xlink" width="24px" height="24px" viewBox="0 0 24 24" version="1.1">
<g id="surface1">
<path style=" stroke:none;fill-rule:nonzero;fill:rgb(100%,42.352942%,21.568628%);fill-opacity:1;" d="M 13.335938 1.585938 C 7.585938 0.847656 2.324219 4.910156 1.585938 10.664062 C 0.847656 16.414062 4.910156 21.675781 10.664062 22.414062 C 16.414062 23.152344 21.675781 19.089844 22.414062 13.335938 C 23.152344 7.585938 19.089844 2.324219 13.335938 1.585938 "/>
<path style=" stroke:none;fill-rule:nonzero;fill:rgb(100%,100%,100%);fill-opacity:1;" d="M 9.089844 12.664062 L 10.816406 12.324219 L 10.109375 11.605469 L 9.101562 12.613281 M 16.957031 5.449219 C 16.316406 5.453125 15.742188 5.84375 15.503906 6.4375 C 15.269531 7.03125 15.417969 7.710938 15.882812 8.152344 C 16.351562 8.59375 17.035156 8.703125 17.617188 8.4375 L 16.550781 7.371094 L 17.945312 5.796875 C 17.664062 5.570312 17.316406 5.449219 16.957031 5.449219 "/>
<path style=" stroke:none;fill-rule:nonzero;fill:rgb(100%,100%,100%);fill-opacity:1;" d="M 18.136719 5.976562 L 16.832031 7.273438 L 17.855469 8.296875 C 18.21875 8.042969 18.457031 7.640625 18.511719 7.199219 C 18.5625 6.757812 18.425781 6.3125 18.136719 5.976562 Z M 15.527344 8.371094 L 15.503906 8.371094 L 15.414062 8.378906 L 15.304688 8.414062 L 15.21875 8.460938 L 11.28125 12.390625 L 11.761719 12.867188 L 15.855469 9.273438 L 15.9375 9.183594 C 15.96875 9.136719 15.992188 9.085938 16.007812 9.03125 C 16.007812 9.019531 16.015625 9.003906 16.019531 8.992188 L 16.03125 8.820312 C 16.03125 8.804688 16.03125 8.796875 16.023438 8.785156 C 15.984375 8.582031 15.828125 8.421875 15.625 8.382812 L 15.605469 8.382812 M 10.292969 11.421875 L 11.085938 12.210938 L 14.960938 8.332031 C 15.089844 8.207031 15.253906 8.132812 15.429688 8.113281 C 14.742188 7.589844 13.996094 7.726562 10.292969 11.421875 M 16.074219 9.425781 L 16.027344 9.472656 L 11.933594 13.0625 L 12.628906 13.757812 C 14.355469 12.125 15.886719 10.570312 16.074219 9.425781 M 5.859375 17.84375 L 7.679688 17.992188 L 6.675781 16.992188 L 5.867188 17.800781 Z M 6.863281 16.808594 L 7.917969 17.863281 L 7.882812 17.027344 C 9.847656 15.847656 11.339844 14.890625 12.4375 13.9375 L 11.703125 13.203125 L 10.125 13.542969 Z M 11.476562 12.980469 L 11.082031 12.585938 L 10.535156 13.132812 Z M 11.476562 12.980469 "/>
<path style=" stroke:none;fill-rule:nonzero;fill:rgb(100%,42.352942%,21.568628%);fill-opacity:1;" d="M 18.171875 6.824219 C 18.019531 7.058594 18 7.210938 17.910156 7.320312 C 18.25 7.292969 18.277344 7.035156 18.171875 6.824219 "/>
</g>
</svg>
