<?xml version="1.0" encoding="UTF-8"?>
<svg xmlns="http://www.w3.org/2000/svg" xmlns:xlink="http://www.w3.org/1999/xlink" width="24px" height="24px" viewBox="0 0 24 24" version="1.1">
<g id="surface1">
<path style=" stroke:none;fill-rule:nonzero;fill:rgb(0%,0%,0%);fill-opacity:1;" d="M 11.914062 0 C 5.820312 0 6.199219 2.65625 6.199219 2.65625 L 6.207031 5.40625 L 12.019531 5.40625 L 12.019531 6.234375 L 3.898438 6.234375 C 3.898438 6.234375 0 5.789062 0 11.96875 C 0 18.148438 3.402344 17.929688 3.402344 17.929688 L 5.433594 17.929688 L 5.433594 15.0625 C 5.433594 15.0625 5.324219 11.640625 8.78125 11.640625 L 14.550781 11.640625 C 14.550781 11.640625 17.789062 11.695312 17.789062 8.492188 L 17.789062 3.203125 C 17.789062 3.203125 18.28125 0 11.914062 0 M 8.707031 1.851562 C 9.285156 1.851562 9.753906 2.320312 9.753906 2.902344 C 9.753906 3.484375 9.285156 3.953125 8.707031 3.953125 C 8.128906 3.953125 7.660156 3.484375 7.660156 2.902344 C 7.660156 2.320312 8.128906 1.851562 8.707031 1.851562 "/>
<path style=" stroke:none;fill-rule:nonzero;fill:rgb(0%,0%,0%);fill-opacity:1;" d="M 12.085938 24 C 18.179688 24 17.800781 21.34375 17.800781 21.34375 L 17.792969 18.59375 L 11.976562 18.59375 L 11.976562 17.765625 L 20.101562 17.765625 C 20.101562 17.765625 24 18.210938 24 12.03125 C 24 5.851562 20.597656 6.070312 20.597656 6.070312 L 18.566406 6.070312 L 18.566406 8.9375 C 18.566406 8.9375 18.675781 12.359375 15.21875 12.359375 L 9.453125 12.359375 C 9.453125 12.359375 6.210938 12.304688 6.210938 15.507812 L 6.210938 20.796875 C 6.210938 20.796875 5.71875 24 12.085938 24 M 15.292969 22.148438 C 14.714844 22.148438 14.246094 21.679688 14.246094 21.097656 C 14.246094 20.515625 14.714844 20.046875 15.292969 20.046875 C 15.871094 20.046875 16.339844 20.515625 16.339844 21.097656 C 16.339844 21.679688 15.871094 22.148438 15.292969 22.148438 "/>
</g>
</svg>
