<?xml version="1.0" encoding="UTF-8"?>
<svg xmlns="http://www.w3.org/2000/svg" xmlns:xlink="http://www.w3.org/1999/xlink" width="24px" height="24px" viewBox="0 0 24 24" version="1.1">
<g id="surface1">
<path style=" stroke:none;fill-rule:nonzero;fill:rgb(38.039216%,85.490197%,98.431373%);fill-opacity:1;" d="M 14.136719 12 C 14.136719 10.820312 13.179688 9.863281 12 9.863281 C 10.820312 9.863281 9.863281 10.820312 9.863281 12 C 9.863281 13.179688 10.820312 14.136719 12 14.136719 C 13.179688 14.136719 14.136719 13.179688 14.136719 12 Z M 14.136719 12 "/>
<path style=" stroke:none;fill-rule:nonzero;fill:rgb(38.039216%,85.490197%,98.431373%);fill-opacity:1;" d="M 20.117188 8.476562 C 19.707031 8.324219 19.273438 8.175781 18.824219 8.042969 C 18.9375 7.59375 19.03125 7.144531 19.105469 6.710938 C 19.5 4.238281 19.070312 2.492188 17.867188 1.820312 C 17.511719 1.613281 17.117188 1.519531 16.667969 1.519531 C 15.355469 1.519531 13.6875 2.492188 12 4.125 C 10.3125 2.492188 8.644531 1.519531 7.332031 1.519531 C 6.882812 1.519531 6.488281 1.613281 6.132812 1.820312 C 4.929688 2.511719 4.5 4.257812 4.894531 6.710938 C 4.96875 7.144531 5.0625 7.59375 5.175781 8.042969 C 4.726562 8.175781 4.292969 8.304688 3.882812 8.476562 C 1.539062 9.375 0.261719 10.613281 0.261719 12 C 0.261719 13.386719 1.554688 14.625 3.882812 15.523438 C 4.292969 15.675781 4.726562 15.824219 5.175781 15.957031 C 5.0625 16.40625 4.96875 16.855469 4.894531 17.289062 C 4.5 19.761719 4.929688 21.507812 6.132812 22.179688 C 6.488281 22.386719 6.882812 22.480469 7.332031 22.480469 C 8.664062 22.480469 10.332031 21.507812 12 19.875 C 13.6875 21.507812 15.355469 22.480469 16.667969 22.480469 C 17.117188 22.480469 17.511719 22.386719 17.867188 22.179688 C 19.070312 21.488281 19.5 19.742188 19.105469 17.289062 C 19.03125 16.855469 18.9375 16.40625 18.824219 15.957031 C 19.273438 15.824219 19.707031 15.695312 20.117188 15.523438 C 22.460938 14.625 23.738281 13.386719 23.738281 12 C 23.738281 10.613281 22.460938 9.375 20.117188 8.476562 M 17.34375 2.757812 C 18.113281 3.207031 18.375 4.59375 18.054688 6.5625 C 18 6.957031 17.90625 7.367188 17.792969 7.800781 C 16.820312 7.574219 15.789062 7.425781 14.699219 7.332031 C 14.0625 6.429688 13.40625 5.625 12.75 4.894531 C 14.136719 3.523438 15.542969 2.585938 16.6875 2.585938 C 16.929688 2.585938 17.15625 2.644531 17.34375 2.757812 M 15.242188 13.875 C 14.90625 14.476562 14.511719 15.074219 14.101562 15.675781 C 13.40625 15.730469 12.710938 15.75 12 15.75 C 11.269531 15.75 10.574219 15.730469 9.898438 15.675781 C 9.488281 15.074219 9.113281 14.476562 8.773438 13.875 C 8.417969 13.257812 8.082031 12.617188 7.78125 12 C 8.082031 11.382812 8.417969 10.742188 8.773438 10.125 C 9.113281 9.523438 9.507812 8.925781 9.917969 8.324219 C 10.613281 8.269531 11.304688 8.25 12.019531 8.25 C 12.75 8.25 13.445312 8.269531 14.117188 8.324219 C 14.53125 8.925781 14.90625 9.523438 15.242188 10.125 C 15.601562 10.742188 15.9375 11.382812 16.238281 12 C 15.917969 12.617188 15.601562 13.238281 15.242188 13.875 M 16.800781 13.257812 C 17.082031 13.914062 17.304688 14.550781 17.511719 15.1875 C 16.875 15.335938 16.199219 15.449219 15.488281 15.542969 C 15.710938 15.1875 15.957031 14.8125 16.164062 14.417969 C 16.386719 14.023438 16.59375 13.632812 16.800781 13.257812 M 12 18.335938 C 11.550781 17.851562 11.117188 17.324219 10.707031 16.78125 C 11.136719 16.800781 11.570312 16.820312 12 16.820312 C 12.429688 16.820312 12.863281 16.800781 13.292969 16.78125 C 12.882812 17.324219 12.449219 17.851562 12 18.335938 M 8.511719 15.523438 C 7.800781 15.429688 7.125 15.320312 6.488281 15.167969 C 6.695312 14.550781 6.917969 13.894531 7.199219 13.238281 C 7.40625 13.613281 7.613281 14.007812 7.835938 14.382812 C 8.0625 14.792969 8.289062 15.148438 8.511719 15.523438 M 7.199219 10.742188 C 6.917969 10.085938 6.695312 9.449219 6.488281 8.8125 C 7.125 8.664062 7.800781 8.550781 8.511719 8.457031 C 8.289062 8.8125 8.042969 9.1875 7.835938 9.582031 C 7.613281 9.976562 7.40625 10.367188 7.199219 10.742188 M 12 5.664062 C 12.449219 6.148438 12.882812 6.675781 13.292969 7.21875 C 12.863281 7.199219 12.429688 7.179688 12 7.179688 C 11.570312 7.179688 11.136719 7.199219 10.707031 7.21875 C 11.117188 6.675781 11.550781 6.148438 12 5.664062 M 16.164062 9.601562 L 15.488281 8.476562 C 16.199219 8.570312 16.875 8.679688 17.511719 8.832031 C 17.304688 9.449219 17.082031 10.105469 16.800781 10.761719 C 16.59375 10.367188 16.386719 9.976562 16.164062 9.601562 M 5.945312 6.5625 C 5.625 4.59375 5.886719 3.207031 6.65625 2.757812 C 6.84375 2.644531 7.070312 2.585938 7.3125 2.585938 C 8.4375 2.585938 9.84375 3.507812 11.25 4.894531 C 10.59375 5.605469 9.9375 6.429688 9.300781 7.332031 C 8.210938 7.425781 7.179688 7.59375 6.207031 7.800781 C 6.09375 7.367188 6.019531 6.957031 5.945312 6.5625 M 1.3125 12 C 1.3125 11.117188 2.382812 10.179688 4.257812 9.488281 C 4.632812 9.335938 5.042969 9.207031 5.457031 9.09375 C 5.757812 10.03125 6.132812 11.023438 6.582031 12.019531 C 6.132812 13.011719 5.738281 13.988281 5.457031 14.925781 C 2.867188 14.175781 1.3125 13.050781 1.3125 12 M 6.65625 21.242188 C 5.886719 20.792969 5.625 19.40625 5.945312 17.4375 C 6 17.042969 6.09375 16.632812 6.207031 16.199219 C 7.179688 16.425781 8.210938 16.574219 9.300781 16.667969 C 9.9375 17.570312 10.59375 18.375 11.25 19.105469 C 9.863281 20.476562 8.457031 21.414062 7.3125 21.414062 C 7.070312 21.414062 6.84375 21.355469 6.65625 21.242188 M 18.054688 17.4375 C 18.375 19.40625 18.113281 20.792969 17.34375 21.242188 C 17.15625 21.355469 16.929688 21.414062 16.6875 21.414062 C 15.5625 21.414062 14.15625 20.492188 12.75 19.105469 C 13.40625 18.394531 14.0625 17.570312 14.699219 16.667969 C 15.789062 16.574219 16.820312 16.40625 17.792969 16.199219 C 17.90625 16.632812 17.980469 17.042969 18.054688 17.4375 M 19.742188 14.511719 C 19.367188 14.664062 18.957031 14.792969 18.542969 14.90625 C 18.242188 13.96875 17.867188 12.976562 17.417969 11.980469 C 17.867188 10.988281 18.261719 10.011719 18.542969 9.074219 C 21.132812 9.824219 22.6875 10.949219 22.6875 12 C 22.6875 12.882812 21.601562 13.820312 19.742188 14.511719 "/>
</g>
</svg>
