<?xml version="1.0" encoding="UTF-8"?>
<svg xmlns="http://www.w3.org/2000/svg" xmlns:xlink="http://www.w3.org/1999/xlink" width="24px" height="24px" viewBox="0 0 24 24" version="1.1">
<g id="surface1">
<path style=" stroke:none;fill-rule:nonzero;fill:rgb(28.235295%,30.19608%,52.549022%);fill-opacity:1;" d="M 21.75 3 L 2.25 3 L 1.5 3.75 L 1.5 17.25 L 2.25 18 L 6 18 L 6 21.75 L 7.28125 22.28125 L 11.558594 18 L 21.75 18 L 22.5 17.25 L 22.5 3.75 Z M 21 16.5 L 11.25 16.5 L 10.71875 16.71875 L 7.5 19.941406 L 7.5 17.25 L 6.75 16.5 L 3 16.5 L 3 4.5 L 21 4.5 Z M 21 16.5 "/>
<path style=" stroke:none;fill-rule:nonzero;fill:rgb(28.235295%,30.19608%,52.549022%);fill-opacity:1;" d="M 10.617188 7.808594 L 7.894531 10.550781 L 10.617188 13.28125 L 9.554688 14.339844 L 6.300781 11.078125 L 6.300781 10.019531 L 9.554688 6.75 Z M 14.550781 6.757812 L 13.5 7.820312 L 16.238281 10.550781 L 13.492188 13.28125 L 14.550781 14.34375 L 17.832031 11.082031 L 17.832031 10.019531 Z M 14.550781 6.757812 "/>
</g>
</svg>
