<?xml version="1.0" encoding="UTF-8"?>
<svg xmlns="http://www.w3.org/2000/svg" xmlns:xlink="http://www.w3.org/1999/xlink" width="24px" height="24px" viewBox="0 0 24 24" version="1.1">
<g id="surface1">
<path style=" stroke:none;fill-rule:nonzero;fill:rgb(0%,83.92157%,22.352941%);fill-opacity:1;" d="M 2.417969 14.488281 C 1.304688 14.3125 0.457031 13.605469 0.199219 12.636719 C 0.117188 12.328125 0.109375 11.78125 0.183594 11.476562 C 0.292969 11.03125 0.558594 10.644531 0.808594 10.558594 C 1.023438 10.488281 1.304688 10.585938 1.445312 10.777344 C 1.554688 10.925781 1.550781 11.105469 1.433594 11.410156 C 1.300781 11.753906 1.273438 11.9375 1.316406 12.214844 C 1.410156 12.78125 1.808594 13.214844 2.398438 13.386719 C 2.636719 13.457031 3.085938 13.453125 3.324219 13.378906 C 4.160156 13.121094 4.53125 12.21875 4.125 11.449219 C 3.921875 11.066406 3.46875 10.777344 2.542969 10.4375 C 1.550781 10.070312 1.183594 9.867188 0.777344 9.464844 C 0.457031 9.148438 0.304688 8.894531 0.199219 8.5 C 0.109375 8.15625 0.109375 7.550781 0.199219 7.207031 C 0.390625 6.496094 0.859375 5.925781 1.515625 5.597656 C 1.917969 5.402344 2.257812 5.324219 2.742188 5.324219 C 3.570312 5.328125 4.195312 5.574219 4.734375 6.121094 C 5.164062 6.550781 5.363281 6.960938 5.429688 7.542969 C 5.492188 8.105469 5.28125 8.390625 4.824219 8.359375 C 4.527344 8.339844 4.335938 8.164062 4.304688 7.875 C 4.242188 7.363281 4.132812 7.09375 3.871094 6.832031 C 3.363281 6.328125 2.492188 6.238281 1.886719 6.628906 C 1.265625 7.027344 1.105469 7.945312 1.550781 8.527344 C 1.78125 8.832031 2.175781 9.054688 3.101562 9.414062 C 3.824219 9.691406 4.078125 9.8125 4.394531 10.019531 C 4.863281 10.320312 5.167969 10.691406 5.324219 11.136719 C 5.667969 12.132812 5.351562 13.28125 4.554688 13.933594 C 4.3125 14.132812 3.878906 14.347656 3.558594 14.429688 C 3.273438 14.5 2.695312 14.53125 2.417969 14.488281 Z M 2.417969 14.488281 "/>
<path style=" stroke:none;fill-rule:nonzero;fill:rgb(0%,83.92157%,22.352941%);fill-opacity:1;" d="M 8.375 14.484375 C 7.515625 14.359375 6.683594 13.734375 6.3125 12.933594 C 6.128906 12.535156 6.066406 12.246094 6.070312 11.765625 C 6.074219 11.269531 6.132812 11 6.339844 10.578125 C 6.609375 10.019531 7.035156 9.59375 7.609375 9.324219 C 8.023438 9.128906 8.242188 9.074219 8.722656 9.054688 C 9.347656 9.03125 9.824219 9.140625 10.296875 9.421875 C 10.53125 9.5625 10.910156 9.90625 11.074219 10.125 C 11.242188 10.355469 11.429688 10.761719 11.515625 11.082031 C 11.597656 11.378906 11.597656 11.390625 11.609375 12.707031 C 11.617188 13.894531 11.613281 14.050781 11.566406 14.171875 C 11.402344 14.601562 10.714844 14.628906 10.503906 14.214844 C 10.449219 14.109375 10.445312 14 10.433594 12.832031 C 10.421875 11.777344 10.410156 11.535156 10.367188 11.367188 C 10.234375 10.867188 9.929688 10.460938 9.53125 10.265625 C 8.578125 9.796875 7.472656 10.375 7.269531 11.445312 C 7.214844 11.738281 7.214844 11.851562 7.269531 12.125 C 7.332031 12.417969 7.472656 12.691406 7.675781 12.910156 C 8.082031 13.351562 8.527344 13.484375 9.191406 13.375 C 9.507812 13.324219 9.636719 13.347656 9.789062 13.492188 C 10.109375 13.796875 9.988281 14.222656 9.53125 14.394531 C 9.207031 14.511719 8.804688 14.546875 8.375 14.484375 Z M 8.375 14.484375 "/>
<path style=" stroke:none;fill-rule:nonzero;fill:rgb(0%,83.92157%,22.352941%);fill-opacity:1;" d="M 14.660156 18.628906 C 13.5625 18.484375 12.652344 17.789062 12.34375 16.859375 C 12.082031 16.082031 12.234375 15.476562 12.707031 15.425781 C 12.921875 15.402344 13.058594 15.4375 13.191406 15.558594 C 13.328125 15.683594 13.363281 15.773438 13.394531 16.082031 C 13.480469 16.976562 14.144531 17.582031 15.042969 17.582031 C 15.367188 17.582031 15.570312 17.535156 15.84375 17.40625 C 16.371094 17.15625 16.652344 16.679688 16.617188 16.082031 C 16.597656 15.683594 16.433594 15.378906 16.097656 15.128906 C 15.839844 14.929688 15.480469 14.765625 14.804688 14.535156 C 13.867188 14.210938 13.445312 14.007812 13.042969 13.679688 C 12.300781 13.074219 12.023438 11.957031 12.347656 10.917969 C 12.488281 10.472656 12.675781 10.167969 13.015625 9.824219 C 13.523438 9.308594 14.183594 9.046875 14.960938 9.046875 C 16.363281 9.046875 17.5 9.917969 17.757812 11.183594 C 17.796875 11.378906 17.804688 11.527344 17.792969 11.8125 C 17.761719 12.398438 17.617188 12.816406 17.351562 13.082031 C 17.054688 13.382812 16.59375 13.328125 16.417969 12.972656 C 16.328125 12.796875 16.328125 12.691406 16.429688 12.464844 C 16.574219 12.121094 16.625 11.921875 16.625 11.699219 C 16.625 11.269531 16.480469 10.910156 16.1875 10.605469 C 15.972656 10.378906 15.730469 10.242188 15.402344 10.160156 C 14.554688 9.941406 13.738281 10.371094 13.46875 11.171875 C 13.375 11.457031 13.371094 11.886719 13.46875 12.152344 C 13.558594 12.40625 13.722656 12.636719 13.933594 12.804688 C 14.167969 12.996094 14.6875 13.246094 15.265625 13.449219 C 16.195312 13.773438 16.511719 13.921875 16.910156 14.214844 C 17.3125 14.515625 17.558594 14.863281 17.710938 15.355469 C 17.773438 15.554688 17.785156 15.652344 17.785156 16.050781 C 17.785156 16.441406 17.773438 16.550781 17.714844 16.753906 C 17.441406 17.703125 16.707031 18.371094 15.695312 18.585938 C 15.421875 18.644531 14.925781 18.664062 14.660156 18.628906 Z M 14.660156 18.628906 "/>
<path style=" stroke:none;fill-rule:nonzero;fill:rgb(0%,83.92157%,22.352941%);fill-opacity:1;" d="M 20.824219 14.484375 C 19.847656 14.34375 19.027344 13.734375 18.628906 12.859375 C 18.328125 12.191406 18.335938 11.316406 18.648438 10.640625 C 18.988281 9.902344 19.621094 9.363281 20.414062 9.132812 C 20.75 9.035156 21.523438 9.03125 21.882812 9.121094 C 23.0625 9.421875 23.832031 10.316406 23.839844 11.410156 C 23.84375 11.664062 23.835938 11.707031 23.753906 11.855469 C 23.699219 11.953125 23.609375 12.054688 23.53125 12.109375 C 23.296875 12.273438 23.140625 12.292969 22.097656 12.292969 C 21.179688 12.292969 21.148438 12.292969 21.015625 12.222656 C 20.835938 12.128906 20.761719 12.023438 20.746094 11.824219 C 20.734375 11.6875 20.746094 11.640625 20.804688 11.554688 C 20.964844 11.320312 20.964844 11.320312 21.824219 11.304688 C 22.554688 11.289062 22.601562 11.285156 22.644531 11.226562 C 22.738281 11.097656 22.609375 10.765625 22.378906 10.535156 C 22.097656 10.253906 21.683594 10.097656 21.226562 10.097656 C 20.746094 10.101562 20.414062 10.234375 20.089844 10.5625 C 19.421875 11.230469 19.40625 12.28125 20.058594 12.945312 C 20.390625 13.285156 20.765625 13.4375 21.265625 13.4375 C 21.761719 13.4375 21.957031 13.371094 22.734375 12.9375 C 23.410156 12.5625 23.933594 13.261719 23.367188 13.789062 C 22.796875 14.324219 21.722656 14.617188 20.824219 14.484375 Z M 20.824219 14.484375 "/>
</g>
</svg>
