<?xml version="1.0" encoding="UTF-8"?>
<svg xmlns="http://www.w3.org/2000/svg" xmlns:xlink="http://www.w3.org/1999/xlink" width="24px" height="24px" viewBox="0 0 24 24" version="1.1">
<g id="surface1">
<path style=" stroke:none;fill-rule:nonzero;fill:rgb(0%,48.627451%,77.254903%);fill-opacity:1;" d="M 24 12 C 24 5.371094 18.628906 0 12 0 C 5.371094 0 0 5.371094 0 12 C 0 18.628906 5.371094 24 12 24 C 18.628906 24 24 18.628906 24 12 Z M 24 12 "/>
<path style=" stroke:none;fill-rule:nonzero;fill:rgb(100%,100%,100%);fill-opacity:1;" d="M 6 8.433594 L 6 15.566406 L 13.285156 15.566406 L 20.414062 8.433594 Z M 7.960938 9.761719 L 7.964844 9.761719 C 8.480469 9.761719 9.113281 9.90625 9.570312 10.140625 L 9.078125 11 C 8.578125 10.757812 8.324219 10.734375 8.039062 10.71875 C 7.613281 10.695312 7.398438 10.847656 7.398438 11.011719 C 7.394531 11.210938 7.796875 11.394531 8.179688 11.515625 C 8.757812 11.699219 9.496094 11.945312 9.609375 12.65625 L 10.667969 9.859375 L 11.894531 9.859375 L 13.136719 13.207031 L 13.128906 9.859375 L 14.554688 9.859375 C 15.910156 9.859375 16.546875 10.320312 16.546875 11.375 C 16.546875 12.320312 15.890625 12.882812 14.78125 12.882812 L 14.324219 12.882812 L 14.320312 14.140625 L 12.164062 14.140625 L 12.015625 13.59375 C 11.777344 13.671875 11.527344 13.707031 11.273438 13.707031 C 11.015625 13.707031 10.761719 13.667969 10.515625 13.585938 L 10.300781 14.140625 L 9.101562 14.140625 L 9.15625 13.863281 C 9.136719 13.878906 9.121094 13.894531 9.101562 13.910156 C 8.78125 14.167969 8.378906 14.289062 7.878906 14.296875 L 7.75 14.296875 C 7.179688 14.296875 6.675781 14.160156 6.203125 13.890625 L 6.640625 13.019531 C 7.113281 13.300781 7.414062 13.363281 7.8125 13.355469 C 8.023438 13.351562 8.171875 13.3125 8.273438 13.210938 C 8.328125 13.152344 8.363281 13.074219 8.367188 12.992188 C 8.371094 12.765625 8.046875 12.660156 7.652344 12.539062 C 7.335938 12.4375 6.972656 12.304688 6.6875 12.097656 C 6.355469 11.847656 6.195312 11.539062 6.203125 11.105469 C 6.203125 10.796875 6.324219 10.5 6.542969 10.277344 C 6.855469 9.957031 7.355469 9.757812 7.960938 9.757812 Z M 14.324219 10.765625 L 14.324219 11.90625 L 14.636719 11.90625 C 15.054688 11.90625 15.386719 11.769531 15.386719 11.328125 C 15.386719 10.902344 15.054688 10.765625 14.636719 10.765625 Z M 11.269531 11.222656 L 10.820312 12.644531 C 10.964844 12.695312 11.121094 12.722656 11.273438 12.722656 C 11.425781 12.722656 11.578125 12.699219 11.71875 12.648438 L 11.277344 11.222656 Z M 11.269531 11.222656 "/>
</g>
</svg>
