<?xml version="1.0" encoding="UTF-8"?>
<svg xmlns="http://www.w3.org/2000/svg" xmlns:xlink="http://www.w3.org/1999/xlink" width="24px" height="24px" viewBox="0 0 24 24" version="1.1">
<g id="surface1">
<path style=" stroke:none;fill-rule:nonzero;fill:rgb(25.098041%,34.509805%,43.529412%);fill-opacity:1;" d="M 14.171875 21.769531 L 14.898438 21.773438 C 14.726562 21.875 14.40625 21.839844 14.171875 21.839844 Z M 13.96875 21.703125 C 14.035156 21.640625 14.183594 21.789062 14.046875 21.738281 C 14.046875 21.738281 13.878906 21.792969 13.96875 21.703125 Z M 12.164062 21.234375 C 12.171875 21.230469 12.1875 21.246094 12.1875 21.257812 C 12.1875 21.261719 12.195312 21.265625 12.195312 21.265625 C 12.191406 21.261719 12.074219 21.324219 12.164062 21.234375 Z M 11.964844 21.171875 C 11.972656 21.164062 11.984375 21.179688 11.984375 21.191406 C 11.984375 21.195312 11.992188 21.199219 11.992188 21.199219 C 11.992188 21.195312 11.875 21.261719 11.964844 21.171875 Z M 11.765625 21.105469 C 11.828125 21.039062 11.976562 21.1875 11.84375 21.140625 C 11.84375 21.140625 11.675781 21.195312 11.765625 21.105469 Z M 13.839844 21.039062 C 13.84375 21.03125 13.859375 21.046875 13.859375 21.058594 C 13.859375 21.0625 13.867188 21.066406 13.867188 21.066406 C 13.863281 21.0625 13.746094 21.128906 13.839844 21.039062 Z M 11.566406 21.039062 L 11.699219 21.070312 Z M 13.496094 21.023438 L 13.304688 21.042969 C 13.339844 21.015625 13.277344 20.898438 13.496094 21.023438 Z M 13.035156 20.90625 C 13.101562 20.84375 13.246094 20.988281 13.113281 20.941406 C 13.113281 20.941406 12.945312 20.996094 13.035156 20.90625 Z M 16.910156 20.839844 C 16.976562 20.777344 17.121094 20.925781 16.988281 20.875 C 16.988281 20.875 16.820312 20.929688 16.910156 20.839844 Z M 12.703125 20.839844 C 12.765625 20.777344 12.910156 20.925781 12.78125 20.875 C 12.777344 20.875 12.609375 20.929688 12.703125 20.839844 Z M 17.179688 20.773438 C 17.183594 20.769531 17.199219 20.785156 17.199219 20.792969 C 17.199219 20.796875 17.207031 20.800781 17.207031 20.800781 C 17.203125 20.800781 17.089844 20.863281 17.179688 20.773438 Z M 17.445312 20.707031 C 17.453125 20.703125 17.464844 20.71875 17.464844 20.726562 C 17.464844 20.730469 17.472656 20.734375 17.472656 20.734375 C 17.472656 20.734375 17.355469 20.796875 17.445312 20.707031 Z M 12.234375 20.707031 C 12.296875 20.644531 12.445312 20.792969 12.3125 20.742188 C 12.308594 20.742188 12.144531 20.796875 12.234375 20.707031 Z M 17.042969 20.707031 C 17.164062 20.632812 17.078125 20.578125 17.304688 20.691406 Z M 17.378906 20.574219 C 17.382812 20.566406 17.398438 20.585938 17.398438 20.59375 C 17.398438 20.597656 17.40625 20.601562 17.40625 20.601562 C 17.402344 20.601562 17.289062 20.664062 17.378906 20.574219 Z M 11.898438 20.574219 C 11.90625 20.566406 11.921875 20.585938 11.921875 20.59375 C 11.921875 20.597656 11.929688 20.601562 11.929688 20.601562 C 11.925781 20.601562 11.808594 20.664062 11.898438 20.574219 Z M 16.710938 20.574219 C 16.828125 20.496094 16.746094 20.445312 16.972656 20.554688 Z M 11.699219 20.507812 L 11.835938 20.539062 Z M 17.046875 20.441406 C 17.050781 20.4375 17.066406 20.453125 17.066406 20.460938 C 17.066406 20.464844 17.074219 20.46875 17.074219 20.46875 C 17.070312 20.46875 16.957031 20.53125 17.046875 20.441406 Z M 13.699219 20.460938 L 13.507812 20.519531 C 13.601562 20.4375 13.378906 20.445312 13.699219 20.460938 Z M 11.703125 20.511719 L 11.566406 20.445312 Z M 13.238281 20.375 C 13.242188 20.371094 13.257812 20.386719 13.257812 20.394531 C 13.257812 20.398438 13.265625 20.402344 13.265625 20.402344 C 13.265625 20.402344 13.148438 20.464844 13.238281 20.375 Z M 11.566406 20.441406 L 11.433594 20.375 Z M 13.039062 20.308594 C 13.042969 20.300781 13.058594 20.316406 13.058594 20.328125 C 13.058594 20.332031 13.066406 20.335938 13.066406 20.335938 C 13.0625 20.335938 12.949219 20.398438 13.039062 20.308594 Z M 12.769531 20.242188 C 12.777344 20.234375 12.789062 20.253906 12.789062 20.261719 C 12.789062 20.265625 12.796875 20.269531 12.796875 20.269531 C 12.796875 20.269531 12.679688 20.332031 12.769531 20.242188 Z M 17.914062 19.972656 C 17.921875 19.96875 17.933594 19.984375 17.933594 19.992188 C 17.933594 19.996094 17.941406 20.003906 17.941406 20.003906 C 17.941406 20 17.824219 20.0625 17.914062 19.972656 Z M 18.046875 19.90625 C 18.054688 19.902344 18.066406 19.917969 18.066406 19.929688 C 18.066406 19.933594 18.074219 19.9375 18.074219 19.9375 C 18.074219 19.933594 17.957031 19.996094 18.046875 19.90625 Z M 18.183594 19.84375 C 18.1875 19.835938 18.203125 19.851562 18.203125 19.863281 C 18.203125 19.867188 18.210938 19.871094 18.210938 19.871094 C 18.207031 19.867188 18.09375 19.933594 18.183594 19.84375 Z M 18.449219 19.777344 L 18.328125 19.847656 Z M 18.585938 19.710938 L 18.449219 19.777344 Z M 18.585938 19.710938 L 18.601562 19.648438 L 18.652344 19.6875 L 18.585938 19.707031 Z M 18.785156 19.574219 L 18.765625 19.636719 L 18.714844 19.601562 L 18.78125 19.578125 Z M 18.917969 19.511719 L 18.785156 19.574219 Z M 19.050781 19.445312 L 18.917969 19.511719 Z M 19.117188 19.378906 L 19.050781 19.445312 Z M 19.117188 19.378906 C 19.222656 19.230469 19.351562 19.15625 19.519531 19.109375 C 19.382812 19.3125 19.351562 19.320312 19.117188 19.378906 Z M 11.566406 21.050781 C 10.769531 20.980469 8.96875 19.597656 8.5625 18.976562 C 8.757812 19.03125 9.671875 19.898438 9.976562 20.101562 C 10.242188 20.277344 10.480469 20.425781 10.753906 20.597656 C 11.011719 20.757812 11.363281 20.867188 11.570312 21.050781 Z M 19.519531 19.113281 C 19.644531 18.917969 19.589844 18.964844 19.785156 18.910156 C 19.660156 19.105469 19.714844 19.058594 19.519531 19.113281 Z M 8.558594 18.976562 L 8.492188 18.910156 Z M 8.492188 18.910156 L 8.429688 18.847656 Z M 8.429688 18.847656 L 8.363281 18.78125 Z M 19.785156 18.910156 L 20.054688 18.644531 C 20.011719 18.859375 19.980469 18.859375 19.785156 18.910156 Z M 16.511719 18.710938 L 16.496094 18.773438 L 16.445312 18.734375 L 16.511719 18.714844 Z M 8.359375 18.777344 L 8.296875 18.761719 L 8.335938 18.710938 Z M 16.511719 18.710938 L 16.632812 18.640625 Z M 20.054688 18.644531 L 20.070312 18.585938 L 20.121094 18.621094 Z M 21.324219 17.175781 C 21.328125 17.171875 21.34375 17.1875 21.34375 17.195312 C 21.34375 17.199219 21.351562 17.203125 21.351562 17.203125 C 21.351562 17.203125 21.234375 17.265625 21.324219 17.175781 Z M 21.523438 16.976562 L 21.507812 17.039062 L 21.457031 17 Z M 21.589844 16.84375 L 21.523438 16.976562 Z M 21.589844 16.84375 L 21.722656 16.640625 Z M 21.789062 16.507812 L 21.722656 16.640625 Z M 6.957031 16.507812 C 6.964844 16.503906 6.976562 16.519531 6.976562 16.527344 C 6.976562 16.53125 6.984375 16.535156 6.984375 16.535156 C 6.984375 16.535156 6.867188 16.597656 6.957031 16.507812 Z M 21.859375 16.375 L 21.792969 16.507812 Z M 21.925781 16.238281 L 21.859375 16.375 Z M 21.925781 16.238281 L 21.957031 16.105469 Z M 22.058594 15.90625 L 22.027344 16.039062 Z M 22.058594 15.90625 L 22.089844 15.773438 Z M 22.125 15.636719 C 22.128906 15.632812 22.144531 15.648438 22.144531 15.65625 C 22.144531 15.660156 22.152344 15.664062 22.152344 15.664062 C 22.148438 15.664062 22.035156 15.726562 22.125 15.636719 Z M 22.191406 15.503906 C 22.191406 15.351562 22.273438 15.492188 22.230469 15.503906 C 22.230469 15.503906 22.191406 15.675781 22.191406 15.503906 Z M 22.257812 15.234375 C 22.261719 15.230469 22.277344 15.246094 22.277344 15.257812 C 22.277344 15.261719 22.285156 15.265625 22.285156 15.265625 C 22.28125 15.261719 22.164062 15.324219 22.257812 15.234375 Z M 22.390625 14.835938 C 22.390625 14.679688 22.472656 14.820312 22.433594 14.835938 C 22.433594 14.835938 22.390625 15.007812 22.390625 14.835938 Z M 22.457031 14.5 C 22.460938 14.492188 22.476562 14.511719 22.476562 14.519531 C 22.476562 14.523438 22.484375 14.527344 22.484375 14.527344 C 22.480469 14.527344 22.367188 14.589844 22.457031 14.5 Z M 22.515625 14.167969 C 22.589844 14.253906 22.582031 14.074219 22.574219 14.363281 Z M 22.609375 14.09375 C 22.59375 13.949219 22.675781 12.5625 22.707031 12.5 C 22.753906 12.921875 22.800781 13.769531 22.609375 14.09375 Z M 17.113281 18.511719 L 16.910156 18.578125 C 16.871094 18.78125 16.714844 18.578125 16.710938 18.578125 C 16.371094 18.578125 16.222656 18.675781 15.90625 18.710938 C 15.628906 18.742188 15.246094 18.753906 14.988281 18.792969 C 14.542969 18.863281 13.5625 18.875 13.234375 18.644531 C 12.601562 18.589844 11.59375 17.925781 11.242188 17.921875 C 11.304688 18.28125 11.621094 18.605469 11.828125 18.894531 C 10.769531 19.011719 9.859375 17.789062 9.113281 17.246094 L 9.21875 17.5625 C 8.902344 17.515625 8.925781 17.277344 8.695312 17.109375 L 8.585938 17.179688 L 8.316406 16.90625 C 8.390625 17.597656 9.859375 18.902344 10.421875 19.328125 C 11.1875 19.90625 12.839844 20.589844 13.773438 20.589844 C 13.929688 20.382812 13.949219 20.585938 14.179688 20.648438 C 14.207031 20.65625 14.308594 20.664062 14.355469 20.675781 C 15.257812 20.835938 16.042969 20.589844 16.710938 20.589844 C 16.347656 20.84375 15.734375 20.820312 15.246094 20.871094 C 15.753906 21.109375 16.515625 20.730469 17.046875 20.722656 C 16.226562 21.292969 13.703125 21.042969 12.460938 20.628906 C 12.183594 20.539062 11.351562 20.15625 11.171875 20.136719 L 11.433594 20.386719 C 10.351562 20.125 8.882812 18.667969 8.246094 17.828125 C 7.867188 17.324219 7.433594 16.625 7.1875 16.015625 C 6.9375 15.398438 6.558594 14.386719 6.558594 13.71875 L 6.359375 13.699219 C 6.445312 14.070312 6.460938 14.523438 6.613281 15.121094 C 6.714844 15.535156 6.84375 16.054688 7.019531 16.425781 C 6.789062 16.367188 6.605469 15.785156 6.511719 15.554688 C 6.441406 15.375 6.394531 15.226562 6.332031 15.0625 C 6.242188 14.832031 6.207031 14.707031 6.019531 14.632812 C 5.816406 14.992188 5.988281 15.511719 6.097656 15.835938 C 6.972656 18.410156 8.988281 20.753906 11.542969 21.617188 C 12.65625 21.992188 13.109375 22.058594 14.308594 22.058594 C 15.96875 22.058594 18.050781 21.605469 19.425781 20.765625 C 21.398438 19.558594 22.695312 17.0625 23.066406 14.78125 C 23.226562 13.816406 23.226562 12.789062 23.066406 11.820312 C 22.519531 8.476562 20.21875 6.054688 17.039062 5.019531 C 16.316406 4.78125 15.074219 4.507812 14.324219 4.550781 C 14.144531 4.308594 14.003906 3.9375 13.765625 3.617188 C 13.277344 2.96875 12.039062 1.734375 11.304688 1.667969 C 11.429688 1.84375 11.914062 2.074219 12.121094 2.253906 C 12.640625 2.703125 14 4.027344 14.097656 4.53125 C 13.621094 4.570312 12.882812 4.476562 12.511719 4.660156 C 13.046875 4.71875 13.546875 4.554688 14.160156 4.628906 C 14.367188 4.8125 14.277344 4.816406 14.429688 4.941406 L 14.371094 4.628906 C 14.578125 4.65625 14.765625 4.660156 14.964844 4.691406 C 15.171875 4.722656 15.335938 4.800781 15.570312 4.824219 C 15.53125 5.050781 15.445312 4.960938 16.1875 5.238281 C 15.824219 5.296875 15.003906 5.09375 14.578125 5.074219 C 14.378906 5.066406 13.253906 5.101562 13.195312 5.464844 C 13.578125 5.742188 15.554688 5.554688 16.3125 5.933594 C 16.007812 5.964844 15.757812 5.894531 15.449219 5.882812 C 15.136719 5.871094 14.949219 5.804688 14.578125 5.8125 C 14.277344 5.820312 13.210938 5.933594 13.050781 6.132812 C 13.660156 6.203125 13.949219 6.097656 14.988281 6.210938 C 15.636719 6.285156 16.011719 6.222656 16.652344 6.550781 C 16.949219 6.707031 17.035156 6.640625 17.257812 6.75 C 17.421875 6.832031 18.183594 7.285156 18.289062 7.386719 C 19.464844 8.566406 20.054688 8.988281 20.699219 10.65625 C 20.800781 10.914062 20.945312 11.042969 20.996094 11.230469 L 21.078125 12.644531 C 21.007812 13.113281 21.070312 13.632812 20.957031 14.132812 C 20.8125 14.785156 20.433594 15.839844 19.96875 16.355469 C 19.980469 16.554688 19.964844 16.296875 20.046875 16.566406 C 19.667969 16.71875 19.128906 17.375 18.742188 17.664062 C 18.445312 17.890625 18.386719 18.042969 18.046875 18.175781 C 17.792969 18.269531 17.367188 18.496094 17.121094 18.515625 Z M 17.113281 18.511719 "/>
<path style=" stroke:none;fill-rule:nonzero;fill:rgb(12.941177%,60.392159%,70.980394%);fill-opacity:1;" d="M 7.15625 13.476562 C 7.21875 13.414062 7.367188 13.5625 7.234375 13.515625 C 7.230469 13.515625 7.066406 13.566406 7.15625 13.476562 Z M 6.753906 13.410156 L 6.949219 13.421875 C 6.730469 13.542969 6.832031 13.460938 6.753906 13.410156 Z M 6.753906 13.410156 L 6.558594 13.402344 C 6.777344 13.28125 6.675781 13.363281 6.753906 13.410156 Z M 6.421875 13.277344 C 6.425781 13.273438 6.441406 13.289062 6.441406 13.296875 C 6.441406 13.300781 6.449219 13.304688 6.449219 13.304688 C 6.445312 13.304688 6.328125 13.367188 6.421875 13.277344 Z M 4.882812 12.476562 L 4.945312 12.492188 L 4.90625 12.542969 L 4.886719 12.476562 Z M 4.882812 12.476562 L 4.820312 12.457031 L 4.859375 12.40625 L 4.882812 12.472656 Z M 4.617188 12.277344 L 4.679688 12.292969 L 4.640625 12.34375 Z M 4.617188 12.277344 L 4.550781 12.210938 Z M 4.550781 12.210938 L 4.488281 12.191406 L 4.527344 12.140625 L 4.546875 12.207031 Z M 3.214844 10.605469 L 3.277344 10.621094 L 3.238281 10.671875 Z M 3.214844 10.605469 L 3.152344 10.589844 L 3.191406 10.539062 L 3.210938 10.605469 Z M 3.078125 10.40625 L 3.140625 10.421875 L 3.105469 10.472656 L 3.082031 10.40625 Z M 3.078125 10.40625 L 3.011719 10.285156 Z M 2.945312 10.136719 C 2.953125 10.132812 2.964844 10.148438 2.964844 10.15625 C 2.964844 10.160156 2.972656 10.164062 2.972656 10.164062 C 2.972656 10.164062 2.855469 10.226562 2.945312 10.136719 Z M 2.878906 10.003906 C 2.886719 9.996094 2.898438 10.015625 2.898438 10.023438 C 2.898438 10.027344 2.90625 10.03125 2.90625 10.03125 C 2.90625 10.03125 2.789062 10.09375 2.878906 10.003906 Z M 2.8125 9.871094 C 2.8125 9.714844 2.894531 9.859375 2.855469 9.871094 C 2.855469 9.871094 2.8125 10.042969 2.8125 9.871094 Z M 2.746094 9.671875 C 2.753906 9.664062 2.769531 9.679688 2.769531 9.691406 C 2.769531 9.695312 2.777344 9.699219 2.777344 9.699219 C 2.773438 9.695312 2.65625 9.761719 2.746094 9.671875 Z M 14.105469 9.535156 L 14.089844 9.597656 L 14.039062 9.558594 L 14.105469 9.539062 Z M 13.570312 9.46875 L 13.539062 9.605469 Z M 2.683594 9.46875 C 2.6875 9.464844 2.703125 9.480469 2.703125 9.488281 C 2.703125 9.492188 2.710938 9.496094 2.710938 9.496094 C 2.707031 9.496094 2.59375 9.558594 2.683594 9.46875 Z M 13.640625 9.335938 L 13.574219 9.46875 Z M 3.816406 8.199219 L 3.808594 8.394531 C 3.6875 8.175781 3.769531 8.277344 3.816406 8.199219 Z M 2.128906 7.003906 L 2.144531 8.058594 C 2.03125 7.847656 2.027344 7.207031 2.128906 7.003906 Z M 3.683594 7.933594 C 3.691406 7.925781 3.703125 7.941406 3.703125 7.953125 C 3.703125 7.957031 3.710938 7.960938 3.710938 7.960938 C 3.710938 7.957031 3.59375 8.023438 3.683594 7.933594 Z M 1.613281 5.992188 C 1.613281 5.839844 1.695312 5.980469 1.652344 5.992188 C 1.652344 5.992188 1.613281 6.164062 1.613281 5.992188 Z M 1.679688 5.726562 C 1.683594 5.71875 1.699219 5.734375 1.699219 5.746094 C 1.699219 5.75 1.707031 5.753906 1.707031 5.753906 C 1.703125 5.753906 1.589844 5.816406 1.679688 5.726562 Z M 4.285156 5.457031 L 4.265625 5.519531 L 4.214844 5.480469 L 4.28125 5.460938 Z M 3.148438 3.921875 L 3.128906 3.980469 L 3.078125 3.945312 L 3.144531 3.921875 Z M 3.148438 3.921875 L 3.164062 3.859375 L 3.214844 3.894531 L 3.148438 3.917969 Z M 2.613281 3.855469 C 2.621094 3.847656 2.632812 3.863281 2.632812 3.875 C 2.632812 3.878906 2.640625 3.882812 2.640625 3.882812 C 2.640625 3.878906 2.523438 3.945312 2.613281 3.855469 Z M 2.8125 3.652344 L 2.796875 3.714844 L 2.746094 3.679688 L 2.8125 3.65625 Z M 2.878906 3.589844 L 2.8125 3.652344 Z M 2.945312 3.453125 L 2.878906 3.589844 Z M 3.011719 3.386719 L 2.945312 3.453125 Z M 3.078125 3.320312 L 3.011719 3.386719 Z M 3.078125 3.320312 C 3.132812 3.125 3.085938 3.183594 3.277344 3.054688 C 3.222656 3.25 3.269531 3.195312 3.078125 3.320312 Z M 3.410156 2.921875 L 3.40625 3.042969 L 3.28125 3.054688 L 3.414062 2.921875 Z M 3.546875 2.785156 L 3.539062 2.90625 L 3.414062 2.921875 Z M 3.546875 2.785156 C 3.675781 2.59375 3.859375 2.378906 4.078125 2.316406 C 3.953125 2.511719 3.765625 2.726562 3.546875 2.785156 Z M 4.078125 2.316406 C 4.210938 2.121094 4.386719 1.976562 4.613281 1.914062 C 4.507812 2.078125 4.257812 2.269531 4.078125 2.316406 Z M 4.613281 1.914062 L 4.628906 1.855469 L 4.679688 1.890625 Z M 6.351562 13.679688 L 6.550781 13.699219 C 6.871094 13.980469 8.796875 14.054688 9.222656 13.851562 L 9.289062 13.851562 C 10.285156 13.96875 12.507812 12.613281 13.273438 11.582031 C 14.234375 10.289062 15.035156 8.78125 15.035156 7.0625 C 14.953125 7.191406 14.863281 7.929688 14.808594 8.171875 C 14.699219 8.636719 14.675781 8.78125 14.457031 9.226562 L 14.28125 9.230469 L 14.101562 9.539062 C 14.128906 9.214844 14.3125 8.851562 14.386719 8.484375 C 14.46875 8.070312 14.570312 7.730469 14.371094 7.332031 C 14.003906 7.59375 13.976562 8.953125 13.636719 9.339844 C 13.648438 8.738281 14.128906 7.792969 13.859375 7.210938 C 13.699219 7.425781 13.667969 7.910156 13.597656 8.230469 C 13.527344 8.558594 13.425781 8.890625 13.3125 9.214844 C 12.921875 10.335938 11.851562 11.3125 10.789062 11.835938 C 9.816406 12.3125 9.171875 12.230469 8.832031 12.484375 C 8.148438 12.300781 7.972656 12.386719 7.835938 12.371094 C 7.707031 12.359375 7.753906 12.320312 7.554688 12.300781 C 7.191406 12.308594 7.40625 12.300781 7.292969 12.214844 C 7.148438 12.214844 7.273438 12.230469 7.222656 12.148438 C 7.035156 12.21875 6.617188 12.042969 6.421875 11.941406 L 6.199219 11.8125 C 5.796875 11.578125 5.449219 11.402344 5.160156 11.0625 C 5.007812 10.882812 5.03125 10.902344 4.828125 10.933594 C 4.734375 10.402344 3.769531 9.480469 3.820312 8.609375 C 3.835938 8.367188 3.984375 8.429688 3.8125 8.203125 C 3.8125 7.394531 3.835938 6.351562 4.148438 5.664062 L 4.347656 5.464844 L 4.28125 5.464844 L 4.347656 5.328125 L 4.414062 5.195312 L 4.546875 4.996094 C 4.625 4.71875 4.90625 4.355469 5.148438 4.195312 L 5.109375 4.046875 C 4.667969 4.078125 4.628906 4.261719 4.292969 4.316406 C 4.410156 3.597656 5.386719 3.011719 5.941406 2.566406 L 5.6875 2.496094 L 6.222656 2.191406 L 6.089844 2.15625 L 6.222656 2.121094 L 6.355469 1.941406 C 5.367188 2.050781 4.128906 3.164062 3.492188 4.003906 C 2.339844 5.535156 2.316406 7.554688 2.230469 7.730469 L 2.214844 6.9375 C 1.992188 6.769531 2.464844 5.488281 2.574219 5.222656 C 2.726562 4.84375 3.296875 3.980469 3.351562 3.792969 L 3.222656 3.769531 C 4.023438 2.933594 4.429688 2.347656 5.710938 1.742188 C 6.261719 1.484375 6.8125 1.332031 7.398438 1.226562 C 8.542969 1.019531 8.632812 1.1875 9.5625 1.105469 C 9.144531 0.871094 8.0625 0.890625 7.546875 0.96875 C 7.390625 0.992188 6.949219 1.046875 6.828125 1.039062 C 7.160156 0.851562 8.171875 0.820312 8.375 0.585938 C 8 0.148438 6.34375 0.640625 5.867188 0.828125 C 3.890625 1.632812 2.585938 2.742188 1.765625 4.746094 C 1.019531 6.582031 1.273438 9.863281 2.464844 11.164062 C 3.078125 11.835938 3.347656 12.171875 4.136719 12.699219 C 4.707031 13.074219 5.707031 13.640625 6.355469 13.683594 Z M 6.351562 13.679688 "/>
<path style=" stroke:none;fill-rule:nonzero;fill:rgb(25.098041%,34.509805%,43.529412%);fill-opacity:1;" d="M 6.199219 11.808594 L 6.421875 11.933594 C 6.429688 11.5 6.777344 10.488281 6.945312 10.058594 C 7.308594 9.125 8.121094 7.859375 8.839844 7.144531 C 9.066406 6.914062 9.972656 6.097656 10.09375 5.925781 C 9.3125 5.992188 8.058594 7.601562 7.609375 8.316406 C 7.300781 8.804688 6.972656 9.460938 6.820312 10 C 6.730469 10.320312 6.390625 11.679688 6.199219 11.804688 Z M 7.292969 12.207031 C 7.40625 12.296875 7.191406 12.304688 7.554688 12.292969 C 7.660156 11.800781 7.742188 11.289062 7.898438 10.808594 C 8.023438 10.417969 8.34375 9.867188 8.425781 9.53125 C 7.929688 9.886719 7.488281 11.480469 7.488281 12.070312 C 7.421875 12.300781 7.550781 12.140625 7.296875 12.207031 Z M 7.957031 16.820312 C 7.796875 16.160156 7.460938 15.910156 7.160156 14.34375 C 7.136719 14.207031 7.167969 14.265625 7.117188 14.121094 C 7.027344 13.847656 7.097656 14.050781 7.023438 13.949219 C 6.890625 14.171875 7.207031 15.273438 7.289062 15.488281 C 7.402344 15.785156 7.707031 16.644531 7.957031 16.824219 Z M 11.960938 3.164062 C 11.460938 2.472656 9.890625 1.789062 9.039062 1.859375 L 9.441406 1.964844 C 11.007812 2.339844 11.726562 3.132812 11.960938 3.167969 Z M 6.621094 1.644531 L 8.28125 1.460938 C 8.386719 1.46875 8.4375 1.601562 8.761719 1.375 C 8.121094 1.375 7.082031 1.324219 6.621094 1.644531 Z M 6.621094 1.644531 "/>
<path style=" stroke:none;fill-rule:nonzero;fill:rgb(12.941177%,60.392159%,70.980394%);fill-opacity:1;" d="M 11.03125 1.511719 C 10.796875 1.179688 10.035156 0.949219 9.632812 0.992188 C 9.675781 1.027344 10.890625 1.476562 11.03125 1.511719 Z M 11.03125 1.511719 "/>
<path style=" stroke:none;fill-rule:nonzero;fill:rgb(25.098041%,34.509805%,43.529412%);fill-opacity:1;" d="M 11.898438 17.957031 L 10.90625 17.171875 C 10.980469 17.609375 11.464844 17.851562 11.898438 17.957031 Z M 7.222656 12.140625 C 7.289062 12.039062 7.359375 11.519531 7.40625 11.324219 C 7.476562 11.054688 7.597656 10.808594 7.621094 10.539062 C 7.355469 10.839844 7.222656 11.691406 7.222656 12.140625 Z M 7.222656 12.140625 "/>
<path style=" stroke:none;fill-rule:nonzero;fill:rgb(12.941177%,60.392159%,70.980394%);fill-opacity:1;" d="M 5.152344 4.183594 L 4.953125 4.585938 L 5.6875 3.917969 C 5.339844 3.949219 5.402344 4.019531 5.152344 4.1875 Z M 5.152344 4.183594 "/>
<path style=" stroke:none;fill-rule:nonzero;fill:rgb(25.098041%,34.509805%,43.529412%);fill-opacity:1;" d="M 9.695312 15.550781 C 9.714844 15.785156 9.761719 15.925781 9.894531 16.097656 C 10.003906 15.90625 9.878906 15.683594 9.695312 15.550781 Z M 9.292969 13.847656 L 9.226562 13.847656 C 9.140625 14.089844 9.109375 14.203125 9.355469 14.265625 Z M 9.308594 11.601562 C 9.433594 11.4375 9.480469 11.199219 9.480469 11.015625 C 9.347656 11.179688 9.285156 11.339844 9.308594 11.601562 Z M 6.691406 3.261719 C 6.730469 3.355469 6.597656 3.449219 6.90625 3.351562 C 6.988281 3.324219 7.105469 3.234375 7.148438 3.203125 L 6.691406 3.265625 Z M 16.710938 18.558594 L 16.910156 18.558594 L 17.109375 18.492188 L 17.109375 18.429688 C 16.847656 18.433594 16.890625 18.398438 16.710938 18.5625 Z M 13.234375 18.625 L 13.5625 18.621094 L 13.101562 18.492188 Z M 10.496094 3.648438 C 10.351562 3.523438 10.347656 3.480469 10.167969 3.566406 Z M 13.101562 18.492188 L 12.703125 18.359375 C 12.882812 18.519531 12.84375 18.488281 13.101562 18.492188 Z M 8.089844 3.117188 L 8.488281 3.097656 L 8.089844 3.046875 Z M 12.367188 4.921875 C 12.089844 4.921875 12.234375 4.894531 12.097656 4.984375 C 12.375 4.984375 12.226562 5.011719 12.367188 4.921875 Z M 10.160156 1.847656 C 10.023438 1.757812 10.171875 1.78125 9.894531 1.78125 C 10.03125 1.871094 9.882812 1.847656 10.160156 1.847656 Z M 7.625 10.535156 L 7.757812 10.269531 L 7.636719 10.347656 Z M 9.894531 1.777344 C 9.824219 1.734375 9.921875 1.648438 9.699219 1.761719 Z M 6.21875 1.777344 C 6.285156 1.84375 6.429688 1.695312 6.296875 1.742188 C 6.296875 1.742188 6.128906 1.6875 6.21875 1.777344 Z M 6.621094 1.644531 L 6.425781 1.652344 C 6.644531 1.773438 6.542969 1.695312 6.621094 1.644531 Z M 4.351562 5.457031 L 4.414062 5.320312 L 4.351562 5.320312 Z M 4.414062 5.320312 L 4.484375 5.1875 L 4.414062 5.1875 Z M 4.550781 5.121094 L 4.617188 4.988281 L 4.550781 4.988281 Z M 6.21875 2.113281 L 6.21875 2.179688 L 6.355469 2.148438 Z M 14.789062 6.71875 L 14.847656 6.460938 C 14.828125 6.472656 14.8125 6.476562 14.8125 6.5 Z M 8.089844 17.089844 L 8.109375 17.148438 L 8.15625 17.113281 Z M 4.816406 4.71875 L 4.757812 4.738281 L 4.792969 4.785156 Z M 8.425781 9.535156 L 8.484375 9.515625 L 8.449219 9.46875 Z M 9.695312 15.550781 L 9.679688 15.488281 L 9.628906 15.527344 Z M 11.964844 5.054688 L 11.90625 5.070312 L 11.945312 5.121094 Z M 7.824219 10.066406 L 7.882812 10.050781 L 7.847656 10.003906 Z M 12.300781 18.160156 L 12.316406 18.21875 L 12.367188 18.183594 Z M 10.628906 3.71875 L 10.648438 3.777344 L 10.695312 3.738281 Z M 4.683594 4.921875 L 4.742188 4.902344 L 4.707031 4.855469 Z M 17.109375 18.425781 L 17.171875 18.410156 L 17.132812 18.359375 Z M 8.089844 17.089844 L 8.074219 17.027344 L 8.023438 17.066406 Z M 11.632812 2.648438 L 11.648438 2.707031 L 11.699219 2.671875 Z M 11.632812 2.648438 "/>
<path style=" stroke:none;fill-rule:nonzero;fill:rgb(12.941177%,60.392159%,70.980394%);fill-opacity:1;" d="M 5.6875 3.917969 L 5.746094 3.898438 L 5.707031 3.851562 Z M 3.347656 3.785156 L 3.40625 3.765625 L 3.371094 3.71875 Z M 3.347656 3.785156 "/>
<path style=" stroke:none;fill-rule:nonzero;fill:rgb(25.098041%,34.509805%,43.529412%);fill-opacity:1;" d="M 7.890625 9.9375 C 7.894531 9.941406 7.910156 9.90625 7.910156 9.914062 C 7.910156 9.921875 7.917969 9.90625 7.917969 9.90625 C 7.914062 9.910156 7.800781 9.847656 7.890625 9.9375 Z M 9.492188 10.9375 C 9.5 10.945312 9.515625 10.910156 9.515625 10.917969 C 9.515625 10.921875 9.523438 10.910156 9.523438 10.910156 C 9.519531 10.910156 9.402344 10.847656 9.492188 10.9375 Z M 2.210938 6.65625 C 2.21875 6.664062 2.230469 6.628906 2.230469 6.636719 C 2.230469 6.640625 2.238281 6.628906 2.238281 6.628906 C 2.238281 6.632812 2.121094 6.566406 2.210938 6.65625 Z M 15.039062 7.058594 L 15.109375 6.941406 Z M 7.757812 10.269531 L 7.824219 10.066406 Z M 4.550781 5.121094 L 4.484375 5.1875 Z M 12.101562 4.988281 L 11.964844 5.054688 Z M 4.683594 4.921875 L 4.617188 4.988281 Z M 4.882812 4.652344 L 4.816406 4.71875 Z M 4.949219 4.585938 L 4.882812 4.652344 Z M 12.367188 4.921875 L 12.5 4.890625 Z M 11.164062 1.578125 L 11.03125 1.511719 Z M 10.628906 3.71875 L 10.496094 3.648438 Z M 7.957031 16.820312 L 7.988281 16.957031 Z M 8.625 17.023438 L 8.59375 16.886719 Z M 11.296875 1.644531 L 11.164062 1.578125 Z M 8.691406 17.089844 L 8.625 17.023438 Z M 10.296875 1.910156 L 10.160156 1.847656 Z M 10.765625 2.113281 L 10.628906 2.046875 Z M 12.035156 18.027344 L 11.898438 17.957031 Z M 10.496094 1.976562 L 10.296875 1.910156 Z M 12.164062 18.09375 L 12.035156 18.027344 Z M 12.300781 18.160156 L 12.164062 18.09375 Z M 10.628906 2.046875 L 10.496094 1.976562 Z M 12.566406 18.292969 L 12.445312 18.222656 Z M 11.632812 2.648438 L 11.433594 2.515625 Z M 12.703125 18.359375 L 12.566406 18.292969 Z M 11.433594 2.515625 L 11.363281 2.445312 Z M 11.433594 2.515625 "/>
<path style=" stroke:none;fill-rule:nonzero;fill:rgb(12.941177%,60.392159%,70.980394%);fill-opacity:1;" d="M 2.210938 6.925781 L 2.28125 6.804688 Z M 2.210938 6.925781 "/>
</g>
</svg>
