<?xml version="1.0" encoding="UTF-8"?>
<svg xmlns="http://www.w3.org/2000/svg" xmlns:xlink="http://www.w3.org/1999/xlink" width="24px" height="24px" viewBox="0 0 24 24" version="1.1">
<g id="surface1">
<path style=" stroke:none;fill-rule:nonzero;fill:rgb(69.411767%,70.588237%,70.980394%);fill-opacity:1;" d="M 17.660156 16.363281 C 17.027344 16.363281 16.511719 15.851562 16.511719 15.214844 L 16.511719 8.527344 C 16.511719 6.273438 14.679688 4.441406 12.425781 4.441406 C 10.171875 4.441406 8.335938 6.273438 8.335938 8.527344 L 8.335938 12.417969 C 8.335938 13.050781 7.820312 13.566406 7.1875 13.566406 C 6.554688 13.566406 6.039062 13.050781 6.039062 12.417969 L 6.039062 8.527344 C 6.039062 5.007812 8.902344 2.144531 12.425781 2.144531 C 15.945312 2.144531 18.808594 5.007812 18.808594 8.527344 L 18.808594 15.214844 C 18.808594 15.851562 18.292969 16.363281 17.660156 16.363281 "/>
<path style=" stroke:none;fill-rule:nonzero;fill:rgb(100%,71.372551%,21.176471%);fill-opacity:1;" d="M 19.410156 23.320312 L 5.4375 23.320312 C 4.132812 23.320312 3.074219 22.261719 3.074219 20.957031 L 3.074219 12.875 C 3.074219 11.570312 4.132812 10.511719 5.4375 10.511719 L 19.410156 10.511719 C 20.714844 10.511719 21.773438 11.570312 21.773438 12.875 L 21.773438 20.957031 C 21.773438 22.261719 20.714844 23.320312 19.410156 23.320312 "/>
<path style=" stroke:none;fill-rule:nonzero;fill:rgb(100%,83.137256%,41.176471%);fill-opacity:1;" d="M 5.125 21.414062 L 5.003906 21.414062 C 4.632812 21.414062 4.332031 21.113281 4.332031 20.738281 L 4.332031 13.09375 C 4.332031 12.71875 4.632812 12.417969 5.003906 12.417969 L 5.125 12.417969 C 5.496094 12.417969 5.800781 12.71875 5.800781 13.09375 L 5.800781 20.738281 C 5.800781 21.113281 5.496094 21.414062 5.125 21.414062 "/>
</g>
</svg>
