<?xml version="1.0" encoding="UTF-8"?>
<svg xmlns="http://www.w3.org/2000/svg" xmlns:xlink="http://www.w3.org/1999/xlink" width="24px" height="24px" viewBox="0 0 24 24" version="1.1">
<g id="surface1">
<path style=" stroke:none;fill-rule:nonzero;fill:rgb(100%,100%,100%);fill-opacity:1;" d="M 0 7.96875 L 8.015625 7.96875 L 8.015625 15.984375 L 0 15.984375 Z M 0 7.96875 "/>
<path style=" stroke:none;fill-rule:nonzero;fill:rgb(60.000002%,88.235295%,95.686275%);fill-opacity:1;" d="M 0 7.96875 L 8.015625 7.96875 L 8.015625 15.984375 L 0 15.984375 Z M 0 7.96875 "/>
<path style=" stroke:none;fill-rule:nonzero;fill:rgb(100%,100%,100%);fill-opacity:1;" d="M 8.015625 15.984375 L 15.984375 15.984375 L 15.984375 23.953125 L 8.015625 23.953125 Z M 8.015625 15.984375 "/>
<path style=" stroke:none;fill-rule:nonzero;fill:rgb(60.000002%,88.235295%,95.686275%);fill-opacity:1;" d="M 8.015625 15.984375 L 15.984375 15.984375 L 15.984375 23.953125 L 8.015625 23.953125 Z M 8.015625 15.984375 "/>
<path style=" stroke:none;fill-rule:nonzero;fill:rgb(10.196079%,50.980395%,88.627452%);fill-opacity:1;" d="M 0 23.953125 L 8.015625 23.953125 L 8.015625 24 L 0 24 Z M 0 15.984375 L 8.015625 15.984375 L 8.015625 23.953125 L 0 23.953125 Z M 0 15.984375 "/>
<path style=" stroke:none;fill-rule:nonzero;fill:rgb(0%,70.19608%,89.019608%);fill-opacity:1;" d="M 8.015625 0 L 15.984375 0 L 15.984375 7.96875 L 8.015625 7.96875 Z M 15.984375 8.015625 L 24 8.015625 L 24 15.984375 L 15.984375 15.984375 Z M 15.984375 8.015625 "/>
<path style=" stroke:none;fill-rule:nonzero;fill:rgb(0%,61.56863%,85.09804%);fill-opacity:1;" d="M 8.015625 15.984375 L 15.984375 15.984375 L 15.984375 7.96875 L 8.015625 7.96875 Z M 8.015625 15.984375 "/>
<path style=" stroke:none;fill-rule:nonzero;fill:rgb(10.196079%,50.980395%,88.627452%);fill-opacity:1;" d="M 15.984375 0 L 24 0 L 24 7.96875 L 15.984375 7.96875 Z M 15.984375 0 "/>
<path style=" stroke:none;fill-rule:nonzero;fill:rgb(10.196079%,50.980395%,88.627452%);fill-opacity:1;" d="M 15.984375 7.96875 L 24 7.96875 L 24 8.015625 L 15.984375 8.015625 Z M 15.984375 7.96875 "/>
</g>
</svg>
