<?xml version="1.0" encoding="UTF-8"?>
<svg xmlns="http://www.w3.org/2000/svg" xmlns:xlink="http://www.w3.org/1999/xlink" width="24px" height="24px" viewBox="0 0 24 23" version="1.1">
<g id="surface1">
<path style=" stroke:none;fill-rule:nonzero;fill:rgb(32.941177%,32.941177%,32.941177%);fill-opacity:1;" d="M 23.871094 21.230469 L 22.167969 22.871094 C 21.996094 23.035156 21.714844 23.035156 21.542969 22.871094 L 16.519531 18.023438 C 16.34375 17.855469 16.34375 17.585938 16.519531 17.417969 L 16.96875 16.984375 L 16.03125 16.082031 L 15.84375 16.261719 C 15.726562 16.375 15.53125 16.375 15.410156 16.261719 L 14.898438 15.765625 C 11.296875 18.550781 6.023438 18.335938 2.683594 15.113281 C -0.894531 11.65625 -0.894531 6.054688 2.683594 2.597656 C 6.265625 -0.859375 12.074219 -0.859375 15.65625 2.597656 C 18.933594 5.761719 19.207031 10.722656 16.484375 14.191406 L 17.023438 14.707031 C 17.140625 14.824219 17.140625 15.011719 17.023438 15.125 L 16.835938 15.304688 L 17.355469 15.804688 L 17.773438 16.210938 L 18.21875 15.777344 C 18.394531 15.609375 18.675781 15.609375 18.847656 15.777344 L 23.542969 20.308594 L 23.871094 20.625 C 24.042969 20.792969 24.042969 21.0625 23.871094 21.230469 Z M 14.480469 3.753906 C 11.5625 0.9375 6.832031 0.9375 3.910156 3.753906 C 0.992188 6.570312 0.992188 11.136719 3.910156 13.957031 C 6.832031 16.769531 11.5625 16.769531 14.480469 13.957031 C 17.402344 11.136719 17.402344 6.570312 14.480469 3.753906 Z M 14.480469 3.753906 "/>
<path style=" stroke:none;fill-rule:nonzero;fill:rgb(85.490197%,70.588237%,40.000001%);fill-opacity:1;" d="M 6.230469 11.019531 L 6.230469 13.03125 C 6.230469 13.132812 6.144531 13.214844 6.042969 13.214844 L 4.964844 13.214844 C 4.863281 13.214844 4.777344 13.132812 4.777344 13.03125 L 4.777344 11.019531 C 4.777344 10.917969 4.863281 10.839844 4.964844 10.839844 L 6.042969 10.839844 C 6.144531 10.839844 6.230469 10.917969 6.230469 11.019531 Z M 10.433594 9.992188 L 9.359375 9.992188 C 9.253906 9.992188 9.171875 10.074219 9.171875 10.171875 L 9.171875 13.03125 C 9.171875 13.132812 9.253906 13.214844 9.359375 13.214844 L 10.433594 13.214844 C 10.535156 13.214844 10.621094 13.132812 10.621094 13.03125 L 10.621094 10.171875 C 10.621094 10.074219 10.535156 9.992188 10.433594 9.992188 Z M 8.238281 9.078125 L 7.160156 9.078125 C 7.058594 9.078125 6.972656 9.160156 6.972656 9.257812 L 6.972656 13.03125 C 6.972656 13.132812 7.058594 13.214844 7.160156 13.214844 L 8.238281 13.214844 C 8.339844 13.214844 8.425781 13.132812 8.425781 13.03125 L 8.425781 9.257812 C 8.425781 9.160156 8.339844 9.078125 8.238281 9.078125 Z M 12.628906 8.199219 L 11.554688 8.199219 C 11.449219 8.199219 11.367188 8.277344 11.367188 8.378906 L 11.367188 13.03125 C 11.367188 13.132812 11.449219 13.214844 11.554688 13.214844 L 12.628906 13.214844 C 12.734375 13.214844 12.816406 13.132812 12.816406 13.03125 L 12.816406 8.378906 C 12.816406 8.277344 12.734375 8.199219 12.628906 8.199219 Z M 12.628906 8.199219 "/>
<path style=" stroke:none;fill-rule:nonzero;fill:rgb(32.941177%,32.941177%,32.941177%);fill-opacity:1;" d="M 13.917969 4.171875 L 10.777344 5.003906 C 10.675781 5.03125 10.65625 5.109375 10.730469 5.179688 L 11.558594 5.980469 L 9.828125 7.652344 C 9.753906 7.722656 9.632812 7.722656 9.558594 7.652344 L 7.898438 6.050781 C 7.828125 5.980469 7.707031 5.980469 7.632812 6.050781 L 4.859375 8.726562 C 4.785156 8.796875 4.785156 8.914062 4.859375 8.984375 L 5.191406 9.308594 C 5.265625 9.378906 5.386719 9.378906 5.460938 9.308594 L 7.632812 7.210938 C 7.707031 7.136719 7.828125 7.136719 7.898438 7.210938 L 9.558594 8.808594 C 9.632812 8.882812 9.753906 8.882812 9.828125 8.808594 L 12.15625 6.558594 L 12.945312 7.320312 C 13.019531 7.390625 13.101562 7.371094 13.132812 7.273438 L 14.046875 4.300781 C 14.078125 4.203125 14.019531 4.148438 13.917969 4.171875 Z M 13.917969 4.171875 "/>
</g>
</svg>
