<?xml version="1.0" encoding="UTF-8"?>
<svg xmlns="http://www.w3.org/2000/svg" xmlns:xlink="http://www.w3.org/1999/xlink" width="24px" height="24px" viewBox="0 0 24 24" version="1.1">
<defs>
<linearGradient id="linear0" gradientUnits="userSpaceOnUse" x1="-15.614694" y1="-9.108298" x2="-6.741007" y2="-9.108298" gradientTransform="matrix(-0.0000000730781,1.670447,-1.670447,-0.0000000730781,-4.249642,28.418321)">
<stop offset="0" style="stop-color:rgb(59.215686%,85.098039%,96.470588%);stop-opacity:1;"/>
<stop offset="0.920245" style="stop-color:rgb(5.882353%,50.196078%,80%);stop-opacity:1;"/>
<stop offset="1" style="stop-color:rgb(5.882353%,50.196078%,80%);stop-opacity:1;"/>
</linearGradient>
</defs>
<g id="surface1">
<path style=" stroke:none;fill-rule:nonzero;fill:rgb(5.882353%,50.196081%,80.000001%);fill-opacity:1;" d="M 12.929688 18.335938 C 12.921875 18.207031 12.914062 18.121094 12.914062 18.121094 C 12.914062 18.121094 12.515625 15.4375 12.042969 14.636719 C 11.96875 14.511719 12.050781 13.988281 12.257812 13.21875 C 12.382812 13.429688 12.898438 14.332031 13 14.625 C 13.117188 14.953125 13.144531 15.046875 13.144531 15.046875 C 13.144531 15.046875 12.859375 13.59375 12.394531 12.742188 C 12.496094 12.398438 12.617188 12.019531 12.757812 11.613281 C 12.933594 11.921875 13.355469 12.667969 13.445312 12.929688 C 13.464844 12.980469 13.480469 13.027344 13.496094 13.066406 C 13.5 13.042969 13.503906 13.019531 13.507812 12.992188 C 13.402344 12.542969 13.195312 11.757812 12.90625 11.175781 C 13.542969 7.875 15.707031 3.460938 17.925781 1.492188 L 3.453125 1.492188 C 2.484375 1.492188 1.691406 2.285156 1.691406 3.253906 L 1.691406 19.214844 C 1.691406 20.183594 2.484375 20.976562 3.453125 20.976562 L 12.984375 20.976562 C 12.914062 20.144531 12.890625 19.226562 12.929688 18.335938 "/>
<path style=" stroke:none;fill-rule:nonzero;fill:url(#linear0);" d="M 12.257812 13.21875 C 12.382812 13.429688 12.898438 14.332031 13 14.625 C 13.117188 14.953125 13.144531 15.046875 13.144531 15.046875 C 13.144531 15.046875 12.859375 13.59375 12.394531 12.742188 C 12.496094 12.398438 12.617188 12.019531 12.757812 11.613281 C 12.917969 11.894531 13.28125 12.542969 13.414062 12.851562 C 13.421875 12.792969 13.425781 12.734375 13.429688 12.675781 C 13.3125 12.226562 13.136719 11.640625 12.90625 11.175781 C 13.492188 8.136719 15.371094 4.15625 17.398438 2.007812 L 3.453125 2.007812 C 2.765625 2.007812 2.203125 2.566406 2.203125 3.253906 L 2.203125 18.050781 C 5.363281 16.839844 9.171875 15.730469 12.449219 15.777344 C 12.328125 15.308594 12.1875 14.882812 12.042969 14.636719 C 11.96875 14.511719 12.050781 13.988281 12.257812 13.21875 "/>
<path style=" stroke:none;fill-rule:nonzero;fill:rgb(0%,23.137255%,34.117648%);fill-opacity:1;" d="M 21.300781 0.96875 C 20.308594 0.0859375 19.109375 0.441406 17.925781 1.492188 C 17.75 1.648438 17.574219 1.820312 17.398438 2.007812 C 15.371094 4.15625 13.492188 8.136719 12.90625 11.175781 C 13.136719 11.640625 13.3125 12.226562 13.429688 12.675781 C 13.460938 12.792969 13.488281 12.902344 13.507812 12.992188 C 13.558594 13.210938 13.585938 13.351562 13.585938 13.351562 C 13.585938 13.351562 13.570312 13.285156 13.496094 13.066406 C 13.480469 13.027344 13.464844 12.980469 13.445312 12.929688 C 13.4375 12.90625 13.425781 12.878906 13.414062 12.851562 C 13.28125 12.542969 12.917969 11.894531 12.757812 11.613281 C 12.617188 12.019531 12.496094 12.398438 12.394531 12.742188 C 12.859375 13.59375 13.144531 15.046875 13.144531 15.046875 C 13.144531 15.046875 13.117188 14.953125 13 14.625 C 12.898438 14.332031 12.382812 13.429688 12.257812 13.21875 C 12.050781 13.988281 11.96875 14.511719 12.042969 14.636719 C 12.1875 14.882812 12.328125 15.308594 12.449219 15.777344 C 12.722656 16.835938 12.914062 18.121094 12.914062 18.121094 C 12.914062 18.121094 12.921875 18.207031 12.929688 18.335938 C 12.890625 19.226562 12.914062 20.144531 12.984375 20.976562 C 13.074219 22.078125 13.246094 23.023438 13.464844 23.53125 L 13.613281 23.449219 C 13.292969 22.453125 13.164062 21.144531 13.21875 19.636719 C 13.304688 17.332031 13.835938 14.554688 14.816406 11.660156 C 16.472656 7.285156 18.769531 3.777344 20.871094 2.101562 C 18.953125 3.832031 16.359375 9.433594 15.585938 11.507812 C 14.714844 13.828125 14.101562 16.007812 13.726562 18.097656 C 14.367188 16.140625 16.441406 15.296875 16.441406 15.296875 C 16.441406 15.296875 17.457031 14.046875 18.640625 12.257812 C 17.929688 12.417969 16.765625 12.695312 16.371094 12.859375 C 15.796875 13.101562 15.640625 13.183594 15.640625 13.183594 C 15.640625 13.183594 17.507812 12.046875 19.113281 11.53125 C 21.316406 8.058594 23.71875 3.128906 21.300781 0.96875 "/>
</g>
</svg>
