<?xml version="1.0" encoding="UTF-8"?>
<svg xmlns="http://www.w3.org/2000/svg" xmlns:xlink="http://www.w3.org/1999/xlink" width="24px" height="24px" viewBox="0 0 24 24" version="1.1">
<g id="surface1">
<path style=" stroke:none;fill-rule:nonzero;fill:rgb(81.176472%,84.705883%,86.274511%);fill-opacity:1;" d="M 11.542969 5.636719 C 10.726562 4.414062 10.550781 2.777344 10.511719 2.105469 C 8.4375 2.554688 6.375 3.359375 6.496094 3.949219 C 6.511719 4.023438 6.605469 4.113281 6.761719 4.203125 L 6.515625 4.636719 C 6.21875 4.472656 6.050781 4.277344 6.003906 4.046875 C 5.871094 3.378906 6.628906 2.773438 8.324219 2.195312 C 9.484375 1.800781 10.652344 1.5625 10.703125 1.554688 L 11 1.496094 L 11 1.800781 C 11 1.820312 11.011719 3.945312 11.957031 5.363281 Z M 11.542969 5.636719 "/>
<path style=" stroke:none;fill-rule:nonzero;fill:rgb(81.176472%,84.705883%,86.274511%);fill-opacity:1;" d="M 12.375 21.5 L 12.25 21.5 C 8.152344 21.5 3.59375 20.214844 3.058594 18.058594 C 2.726562 16.746094 3.804688 15.292969 6.164062 13.859375 L 6.425781 14.285156 C 4.300781 15.578125 3.277344 16.871094 3.542969 17.941406 C 4.011719 19.808594 8.328125 20.972656 12.117188 21 C 12.570312 20.324219 14.988281 16.371094 13.609375 11.0625 L 14.09375 10.9375 C 15.667969 16.984375 12.484375 21.355469 12.449219 21.398438 Z M 12.375 21.5 "/>
<path style=" stroke:none;fill-rule:nonzero;fill:rgb(81.176472%,84.705883%,86.274511%);fill-opacity:1;" d="M 4.964844 19.652344 C 4.695312 19.652344 4.5625 19.625 4.539062 19.617188 C 4.453125 19.597656 4.382812 19.527344 4.359375 19.441406 C 4.335938 19.355469 4.359375 19.261719 4.425781 19.199219 C 4.460938 19.160156 8.023438 15.59375 8.503906 12.710938 L 8.996094 12.789062 C 8.582031 15.273438 6.140625 18.101562 5.167969 19.144531 C 6.136719 19.089844 8.585938 18.636719 13.285156 16.003906 C 9.617188 15.601562 9.039062 12.667969 9.03125 12.636719 L 9.523438 12.542969 C 9.546875 12.667969 10.136719 15.550781 14.144531 15.550781 C 14.148438 15.550781 14.148438 15.550781 14.148438 15.550781 C 14.261719 15.550781 14.363281 15.625 14.390625 15.734375 C 14.421875 15.84375 14.371094 15.960938 14.273438 16.015625 C 8.65625 19.269531 5.933594 19.652344 4.964844 19.652344 Z M 4.964844 19.652344 "/>
<path style=" stroke:none;fill-rule:nonzero;fill:rgb(81.176472%,84.705883%,86.274511%);fill-opacity:1;" d="M 7.261719 20.851562 C 7.160156 20.851562 7.066406 20.785156 7.027344 20.6875 C 6.988281 20.582031 7.023438 20.460938 7.117188 20.398438 C 7.132812 20.382812 8.023438 19.726562 8.96875 18.28125 C 8.605469 18.121094 8.238281 17.933594 7.871094 17.714844 C 7.425781 17.449219 7.09375 17.160156 6.839844 16.867188 C 5.554688 17.207031 4.371094 17.339844 3.328125 17.253906 L 3.371094 16.753906 C 4.308594 16.835938 5.375 16.722656 6.53125 16.433594 C 5.746094 15.089844 6.46875 13.757812 6.476562 13.738281 L 6.914062 13.984375 C 6.878906 14.042969 6.28125 15.167969 7.039062 16.300781 C 8.140625 15.984375 9.3125 15.515625 10.527344 14.90625 C 10.808594 13.992188 11.027344 12.945312 11.140625 11.769531 C 11.148438 11.691406 11.195312 11.617188 11.265625 11.578125 C 11.335938 11.535156 11.421875 11.535156 11.492188 11.566406 C 11.507812 11.574219 13.125 12.3125 14.296875 12.792969 C 14.378906 12.828125 14.441406 12.90625 14.449219 13 C 14.460938 13.089844 14.417969 13.179688 14.339844 13.230469 C 13.195312 14.011719 12.058594 14.6875 10.953125 15.253906 C 10.601562 16.367188 10.167969 17.292969 9.722656 18.046875 C 11.574219 18.738281 13.179688 18.75 13.199219 18.75 C 13.316406 18.75 13.414062 18.828125 13.441406 18.9375 C 13.472656 19.046875 13.421875 19.164062 13.320312 19.21875 C 11.050781 20.480469 7.4375 20.835938 7.285156 20.851562 C 7.277344 20.847656 7.269531 20.851562 7.261719 20.851562 Z M 9.453125 18.484375 C 8.933594 19.289062 8.421875 19.871094 8.042969 20.25 C 9.039062 20.101562 10.792969 19.78125 12.246094 19.179688 C 11.550781 19.09375 10.542969 18.902344 9.453125 18.484375 Z M 7.382812 16.714844 C 7.578125 16.910156 7.824219 17.101562 8.128906 17.285156 C 8.496094 17.507812 8.871094 17.695312 9.238281 17.851562 C 9.617188 17.222656 9.988281 16.460938 10.308594 15.570312 C 9.300781 16.050781 8.316406 16.433594 7.382812 16.714844 Z M 11.601562 12.164062 C 11.5 13.046875 11.339844 13.855469 11.144531 14.589844 C 11.972656 14.148438 12.820312 13.640625 13.675781 13.078125 C 12.902344 12.75 12.050781 12.367188 11.601562 12.164062 Z M 11.601562 12.164062 "/>
<path style=" stroke:none;fill-rule:nonzero;fill:rgb(81.176472%,84.705883%,86.274511%);fill-opacity:1;" d="M 8.960938 5.300781 C 8.902344 5.300781 8.84375 5.277344 8.800781 5.238281 C 7.996094 4.550781 7.046875 3.148438 7.007812 3.089844 C 6.941406 2.992188 6.953125 2.867188 7.03125 2.78125 C 7.105469 2.695312 7.234375 2.675781 7.335938 2.730469 C 7.339844 2.730469 7.804688 2.921875 10.941406 3.445312 C 11.03125 3.460938 11.109375 3.523438 11.136719 3.609375 C 11.167969 3.695312 11.148438 3.792969 11.085938 3.859375 C 10.207031 4.835938 9.097656 5.265625 9.050781 5.285156 C 9.023438 5.292969 8.992188 5.300781 8.960938 5.300781 Z M 7.824219 3.371094 C 8.140625 3.796875 8.59375 4.371094 9.007812 4.757812 C 9.265625 4.640625 9.839844 4.347656 10.382812 3.859375 C 9.089844 3.636719 8.300781 3.480469 7.824219 3.371094 Z M 7.824219 3.371094 "/>
<path style=" stroke:none;fill-rule:nonzero;fill:rgb(71.764708%,10.980392%,10.980392%);fill-opacity:1;" d="M 10.921875 12.199219 C 10.886719 12.199219 10.851562 12.191406 10.820312 12.179688 C 10.722656 12.136719 10.660156 12.03125 10.671875 11.925781 C 10.820312 10.550781 8.710938 9.996094 8.6875 9.992188 C 8.601562 9.972656 8.53125 9.902344 8.507812 9.816406 C 8.484375 9.730469 8.511719 9.636719 8.574219 9.574219 C 8.675781 9.46875 11.144531 7.023438 14.238281 5.683594 C 14.324219 5.644531 14.421875 5.660156 14.496094 5.71875 C 14.566406 5.777344 14.601562 5.871094 14.582031 5.960938 C 13.988281 8.832031 11.226562 11.984375 11.109375 12.117188 C 11.058594 12.171875 10.992188 12.199219 10.921875 12.199219 Z M 9.226562 9.640625 C 9.820312 9.863281 10.855469 10.378906 11.117188 11.320312 C 11.84375 10.417969 13.390625 8.335938 13.96875 6.351562 C 11.773438 7.410156 9.925781 9 9.226562 9.640625 Z M 9.226562 9.640625 "/>
<path style=" stroke:none;fill-rule:nonzero;fill:rgb(71.764708%,10.980392%,10.980392%);fill-opacity:1;" d="M 6.539062 14.179688 L 6.300781 13.738281 C 7.242188 13.234375 8.320312 12.296875 9.207031 11.214844 C 8.453125 11.726562 8.023438 12.082031 8.007812 12.09375 L 7.691406 11.707031 C 7.710938 11.691406 8.570312 10.984375 10.003906 10.097656 C 10.398438 9.464844 10.703125 8.8125 10.855469 8.1875 C 10.882812 8.082031 10.90625 7.980469 10.925781 7.882812 C 9.960938 7.539062 9.074219 7.335938 8.464844 7.246094 C 8.371094 7.234375 8.296875 7.171875 8.265625 7.082031 C 8.234375 6.996094 8.253906 6.898438 8.316406 6.828125 C 8.359375 6.785156 9.375 5.695312 10.644531 5.097656 C 10.742188 5.050781 10.859375 5.074219 10.933594 5.15625 C 10.96875 5.191406 11.652344 5.960938 11.480469 7.558594 C 12.054688 7.78125 12.652344 8.054688 13.222656 8.382812 C 14.605469 7.761719 16.171875 7.203125 17.839844 6.867188 C 17.925781 6.847656 18.019531 6.878906 18.078125 6.949219 C 18.136719 7.019531 18.152344 7.117188 18.121094 7.203125 C 17.472656 8.867188 15.726562 10.648438 15.652344 10.722656 C 15.601562 10.773438 15.535156 10.800781 15.460938 10.796875 C 15.390625 10.792969 15.324219 10.757812 15.28125 10.703125 C 14.71875 10 13.988281 9.414062 13.199219 8.941406 C 12.109375 9.441406 11.148438 9.980469 10.355469 10.464844 C 9.347656 12.042969 7.820312 13.488281 6.539062 14.179688 Z M 13.746094 8.699219 C 14.390625 9.113281 14.992188 9.601562 15.488281 10.171875 C 15.902344 9.722656 16.894531 8.589844 17.460938 7.460938 C 16.132812 7.765625 14.878906 8.207031 13.746094 8.699219 Z M 11.398438 8.0625 C 11.382812 8.140625 11.363281 8.226562 11.34375 8.3125 C 11.238281 8.730469 11.070312 9.160156 10.855469 9.589844 C 11.40625 9.277344 12.011719 8.957031 12.664062 8.640625 C 12.246094 8.421875 11.820312 8.226562 11.398438 8.0625 Z M 9.023438 6.835938 C 9.578125 6.945312 10.265625 7.121094 10.996094 7.378906 C 11.070312 6.457031 10.820312 5.894531 10.671875 5.644531 C 9.984375 6.003906 9.378906 6.507812 9.023438 6.835938 Z M 9.023438 6.835938 "/>
<path style=" stroke:none;fill-rule:nonzero;fill:rgb(71.764708%,10.980392%,10.980392%);fill-opacity:1;" d="M 9.023438 9.25 C 9.023438 11.441406 7.199219 13.179688 5.886719 14.449219 C 5.664062 14.664062 4.921875 14.699219 4.921875 14.699219 C 5.105469 14.511719 5.316406 14.308594 5.539062 14.09375 C 6.789062 12.886719 8.523438 11.230469 8.523438 9.25 C 8.523438 6.90625 7.578125 5.980469 6.835938 5.238281 C 6.503906 4.90625 6.226562 4.585938 6.054688 4.195312 L 6.210938 4.128906 C 6.378906 4.203125 6.574219 4.289062 6.726562 4.355469 C 6.84375 4.53125 7.003906 4.699219 7.191406 4.886719 C 7.953125 5.648438 9.023438 6.699219 9.023438 9.25 Z M 9.023438 9.25 "/>
<path style=" stroke:none;fill-rule:nonzero;fill:rgb(71.764708%,10.980392%,10.980392%);fill-opacity:1;" d="M 21.46875 9.898438 C 21.46875 9.898438 21.164062 9.941406 21.078125 9.949219 C 16.699219 10.433594 12.179688 11.695312 9.59375 12.730469 C 8.660156 13.105469 7.691406 13.558594 6.804688 14.070312 C 6.800781 14.074219 6.796875 14.074219 6.785156 14.078125 C 6.265625 14.378906 5 15 3.976562 15.546875 C 5.476562 13.949219 8.285156 12.71875 9.40625 12.269531 C 11.941406 11.253906 16.296875 10.03125 20.578125 9.503906 C 20.074219 8.914062 18.839844 7.664062 16.410156 6.734375 C 14.988281 6.183594 12.828125 5.875 10.925781 5.601562 C 7.894531 5.164062 6.171875 4.875 6.003906 4.050781 C 5.96875 3.886719 5.996094 3.71875 6.070312 3.558594 C 6.234375 3.828125 6.46875 4.019531 6.625 4.128906 C 6.699219 4.179688 6.753906 4.210938 6.773438 4.21875 L 6.78125 4.226562 C 7.488281 4.601562 9.40625 4.875 11 5.105469 C 12.929688 5.386719 15.113281 5.699219 16.589844 6.265625 C 20.023438 7.589844 21.210938 9.484375 21.261719 9.566406 C 21.304688 9.640625 21.46875 9.898438 21.46875 9.898438 Z M 21.46875 9.898438 "/>
</g>
</svg>
