<?xml version="1.0" encoding="UTF-8"?>
<svg xmlns="http://www.w3.org/2000/svg" xmlns:xlink="http://www.w3.org/1999/xlink" width="24px" height="24px" viewBox="0 0 24 24" version="1.1">
<g id="surface1">
<path style=" stroke:none;fill-rule:nonzero;fill:rgb(58.823532%,78.431374%,28.235295%);fill-opacity:1;" d="M 12 2.035156 C 6.320312 2.035156 1.714844 6.496094 1.714844 12 C 1.714844 17.503906 6.320312 21.964844 12 21.964844 C 17.679688 21.964844 22.285156 17.503906 22.285156 12 C 22.285156 6.496094 17.679688 2.035156 12 2.035156 M 7.285156 8.265625 C 7.285156 5.746094 9.402344 3.699219 12 3.699219 C 14.597656 3.699219 16.714844 5.746094 16.714844 8.265625 L 16.714844 9.511719 C 16.714844 9.746094 16.523438 9.929688 16.28125 9.929688 L 15.425781 9.929688 C 15.183594 9.929688 14.996094 9.746094 14.996094 9.511719 L 14.996094 8.265625 C 14.996094 4.414062 8.996094 4.414062 8.996094 8.265625 L 8.996094 9.511719 C 8.996094 9.746094 8.804688 9.929688 8.566406 9.929688 L 7.707031 9.929688 C 7.464844 9.929688 7.277344 9.746094 7.277344 9.511719 L 7.277344 8.265625 Z M 18.855469 17.8125 C 18.855469 18.265625 18.46875 18.640625 18 18.640625 L 6 18.640625 C 5.53125 18.640625 5.144531 18.265625 5.144531 17.8125 L 5.144531 11.171875 C 5.144531 10.714844 5.53125 10.339844 6 10.339844 L 18 10.339844 C 18.46875 10.339844 18.855469 10.714844 18.855469 11.171875 Z M 6.855469 11.375 L 6.855469 17.605469 C 6.855469 17.722656 6.765625 17.8125 6.644531 17.8125 L 6.214844 17.8125 C 6.09375 17.8125 6 17.722656 6 17.605469 L 6 11.375 C 6 11.257812 6.09375 11.171875 6.214844 11.171875 L 6.644531 11.171875 C 6.765625 11.171875 6.855469 11.257812 6.855469 11.375 M 13.714844 13.660156 C 13.714844 14.269531 13.363281 14.804688 12.855469 15.085938 L 12.855469 16.566406 C 12.855469 16.800781 12.667969 16.984375 12.425781 16.984375 L 11.570312 16.984375 C 11.328125 16.984375 11.140625 16.800781 11.140625 16.566406 L 11.140625 15.085938 C 10.628906 14.796875 10.28125 14.269531 10.28125 13.660156 C 10.28125 12.734375 11.046875 12 11.996094 12 C 12.945312 12 13.714844 12.742188 13.714844 13.660156 M 12 0.375 C 5.371094 0.375 0 5.578125 0 12 C 0 18.421875 5.371094 23.625 12 23.625 C 18.628906 23.625 24 18.421875 24 12 C 24 5.578125 18.628906 0.375 12 0.375 M 12 22.796875 C 5.855469 22.796875 0.855469 17.953125 0.855469 12 C 0.855469 6.046875 5.855469 1.203125 12 1.203125 C 18.144531 1.203125 23.144531 6.046875 23.144531 12 C 23.144531 17.953125 18.144531 22.796875 12 22.796875 "/>
</g>
</svg>
