<?xml version="1.0" encoding="UTF-8"?>
<svg xmlns="http://www.w3.org/2000/svg" xmlns:xlink="http://www.w3.org/1999/xlink" width="24px" height="24px" viewBox="0 0 24 24" version="1.1">
<g id="surface1">
<path style=" stroke:none;fill-rule:nonzero;fill:rgb(25.882354%,25.882354%,25.882354%);fill-opacity:1;" d="M 18.574219 17.140625 C 18.574219 17.140625 15.742188 19.800781 11.996094 19.800781 C 8.25 19.800781 5.417969 17.140625 5.417969 17.140625 C 5.417969 17.140625 4.890625 14.613281 6.25 10.246094 C 6.96875 7.941406 17.1875 7.707031 17.988281 9.722656 C 19.351562 13.140625 18.574219 17.140625 18.574219 17.140625 "/>
<path style=" stroke:none;fill-rule:nonzero;fill:rgb(12.941177%,12.941177%,12.941177%);fill-opacity:1;" d="M 5.417969 17.140625 L 6.316406 17.859375 C 6.316406 17.859375 6.308594 16.4375 6.75 15.105469 C 6.914062 14.609375 7.5 14.402344 7.945312 14.679688 L 11.375 16.832031 C 11.757812 17.070312 12.242188 17.074219 12.628906 16.839844 C 14.269531 15.847656 18.542969 13.246094 18.738281 13.085938 C 18.738281 13.085938 18.738281 12.765625 18.65625 12.359375 L 5.367188 12.375 Z M 5.417969 17.140625 "/>
<path style=" stroke:none;fill-rule:nonzero;fill:rgb(25.882354%,25.882354%,25.882354%);fill-opacity:1;" d="M 23.027344 9.753906 L 12.375 16.097656 C 12.144531 16.238281 11.855469 16.238281 11.621094 16.097656 L 0.972656 9.753906 C 0.675781 9.578125 0.675781 9.148438 0.972656 8.972656 L 11.625 2.628906 C 11.855469 2.492188 12.144531 2.492188 12.378906 2.628906 L 23.03125 8.972656 C 23.324219 9.148438 23.324219 9.578125 23.027344 9.753906 "/>
<path style=" stroke:none;fill-rule:nonzero;fill:rgb(61.960787%,61.960787%,61.960787%);fill-opacity:1;" d="M 12.007812 15.632812 C 12.003906 15.632812 12 15.636719 12 15.636719 C 11.96875 15.636719 11.941406 15.628906 11.914062 15.609375 L 0.785156 9.195312 C 0.785156 9.195312 0.730469 9.296875 0.785156 9.484375 C 0.839844 9.667969 0.925781 9.730469 0.972656 9.757812 L 11.625 16.101562 C 11.738281 16.171875 11.871094 16.207031 12 16.207031 L 12.007812 16.207031 Z M 12.007812 15.632812 "/>
<path style=" stroke:none;fill-rule:nonzero;fill:rgb(38.039216%,38.039216%,38.039216%);fill-opacity:1;" d="M 12 15.632812 C 12 15.632812 12.003906 15.636719 12.007812 15.636719 C 12.039062 15.636719 12.066406 15.628906 12.09375 15.609375 L 23.222656 9.195312 C 23.222656 9.195312 23.277344 9.296875 23.222656 9.484375 C 23.167969 9.667969 23.082031 9.730469 23.035156 9.757812 L 12.382812 16.101562 C 12.269531 16.171875 12.136719 16.207031 12.003906 16.207031 L 12 16.207031 Z M 12 15.632812 "/>
<path style=" stroke:none;fill-rule:nonzero;fill:rgb(25.882354%,25.882354%,25.882354%);fill-opacity:1;" d="M 6.648438 13.136719 L 6.707031 12.609375 C 6.707031 12.609375 11.300781 10.109375 11.757812 9.847656 C 12.210938 9.585938 12.6875 9.292969 12.898438 9.058594 C 13.273438 8.644531 13.003906 8.386719 13.003906 8.386719 C 13.003906 8.386719 12.707031 8.867188 12 8.78125 C 11.59375 8.734375 11.066406 8.40625 10.980469 8.25 C 10.890625 8.097656 5.792969 11.984375 5.792969 11.984375 L 5.757812 12.609375 Z M 6.648438 13.136719 "/>
<path style=" stroke:none;fill-rule:nonzero;fill:rgb(88.627452%,65.098041%,6.27451%);fill-opacity:1;" d="M 13.003906 8.390625 C 12.511719 9.074219 11.679688 8.773438 11.679688 8.773438 C 11.679688 8.773438 9.070312 10.027344 8.972656 9.835938 C 8.875 9.648438 11.128906 8.488281 11.128906 8.488281 C 11.128906 8.488281 11.003906 8.027344 11.015625 7.828125 C 11.015625 7.828125 6.941406 10.421875 5.414062 11.292969 C 4.613281 11.75 4.445312 12.183594 4.445312 12.789062 C 4.445312 13.054688 4.449219 13.921875 4.453125 14.4375 C 4.453125 14.53125 4.410156 14.621094 4.339844 14.679688 C 4.113281 14.863281 3.984375 15.140625 3.984375 15.429688 C 3.984375 15.714844 4.109375 15.972656 4.308594 16.152344 C 4.414062 16.246094 4.394531 16.453125 4.402344 16.585938 C 4.421875 16.839844 4.402344 16.957031 4.296875 17.195312 C 4.195312 17.425781 4.097656 17.660156 4.03125 17.90625 C 3.984375 18.09375 3.949219 18.285156 3.914062 18.476562 C 3.691406 19.757812 3.589844 21.125 3 22.304688 C 2.976562 22.347656 2.972656 22.398438 2.988281 22.445312 C 3.003906 22.492188 3.039062 22.53125 3.085938 22.554688 C 3.175781 22.601562 3.289062 22.5625 3.335938 22.472656 C 3.644531 21.859375 3.804688 21.1875 3.9375 20.523438 C 3.929688 21.125 3.925781 21.730469 3.902344 22.386719 C 3.898438 22.515625 3.890625 22.773438 4.007812 22.828125 C 4.445312 23.039062 4.445312 22.386719 4.445312 22.386719 C 4.445312 22.386719 4.449219 22.972656 5.042969 22.972656 C 5.636719 22.972656 5.679688 22.386719 5.679688 22.386719 C 5.679688 22.386719 5.722656 22.925781 6.03125 22.898438 C 6.152344 22.886719 6.316406 22.8125 6.257812 22.171875 C 6.199219 21.527344 6.054688 19.230469 5.996094 18.503906 C 5.90625 17.496094 5.578125 16.898438 5.511719 16.542969 C 5.484375 16.40625 5.484375 16.265625 5.589844 16.175781 C 5.8125 15.996094 5.941406 15.730469 5.945312 15.445312 C 5.949219 15.160156 5.828125 14.886719 5.617188 14.699219 C 5.539062 14.632812 5.5 14.535156 5.507812 14.433594 C 5.542969 13.949219 5.582031 13.242188 5.613281 13.078125 C 5.753906 12.347656 6.113281 12.214844 6.484375 12 C 6.855469 11.777344 12.234375 9.335938 12.546875 9.128906 C 13.125 8.742188 13.003906 8.390625 13.003906 8.390625 "/>
<path style=" stroke:none;fill-rule:nonzero;fill:rgb(100%,79.215688%,15.686275%);fill-opacity:1;" d="M 13.003906 8.390625 C 12.539062 9.042969 11.578125 8.75 11.578125 8.75 C 11.578125 8.75 9.121094 9.839844 9.28125 9.644531 C 9.445312 9.445312 11.128906 8.488281 11.128906 8.488281 C 11.128906 8.488281 11.003906 8.027344 11.015625 7.828125 C 11.015625 7.828125 6.871094 10.222656 5.265625 11.375 C 4.851562 11.671875 4.335938 12.160156 4.753906 12.648438 C 4.949219 12.871094 5.320312 12.917969 5.558594 12.742188 C 5.703125 12.636719 5.816406 12.480469 5.945312 12.359375 C 6.101562 12.207031 6.292969 12.109375 6.480469 12 C 6.851562 11.777344 12.230469 9.335938 12.542969 9.128906 C 13.125 8.742188 13.003906 8.390625 13.003906 8.390625 "/>
<path style=" stroke:none;fill-rule:nonzero;fill:rgb(61.960787%,45.490196%,4.313726%);fill-opacity:1;" d="M 4.894531 17.222656 C 4.648438 17.222656 4.480469 17.203125 4.328125 17.167969 C 4.273438 17.15625 4.234375 17.101562 4.238281 17.046875 L 4.289062 16.328125 C 4.292969 16.257812 4.363281 16.207031 4.433594 16.226562 C 4.601562 16.273438 4.941406 16.324219 5.492188 16.207031 C 5.558594 16.191406 5.625 16.238281 5.632812 16.308594 L 5.710938 17.019531 C 5.714844 17.078125 5.675781 17.132812 5.621094 17.148438 C 5.335938 17.210938 5.125 17.222656 4.894531 17.222656 "/>
<path style=" stroke:none;fill-rule:nonzero;fill:rgb(38.039216%,38.039216%,38.039216%);fill-opacity:1;" d="M 18.574219 17.140625 C 18.574219 17.140625 18.90625 15.410156 18.773438 13.566406 C 18.75 13.253906 18.558594 12.984375 18.410156 14.074219 C 18.328125 14.699219 18.140625 16.570312 17.828125 17.738281 C 18.308594 17.390625 18.574219 17.140625 18.574219 17.140625 M 12.324219 6.898438 C 12.460938 6.941406 12.585938 7.046875 12.621094 7.1875 C 12.667969 7.375 12.550781 7.5625 12.421875 7.707031 C 12.175781 7.996094 11.832031 8.246094 11.449219 8.234375 C 11.324219 8.230469 11.191406 8.1875 11.113281 8.089844 C 11.058594 8.019531 11.039062 7.929688 11.035156 7.839844 C 11 7.199219 11.726562 6.710938 12.324219 6.898438 "/>
</g>
</svg>
