<?xml version="1.0" encoding="UTF-8"?>
<svg xmlns="http://www.w3.org/2000/svg" xmlns:xlink="http://www.w3.org/1999/xlink" width="24px" height="24px" viewBox="0 0 24 24" version="1.1">
<g id="surface1">
<path style=" stroke:none;fill-rule:nonzero;fill:rgb(0%,0%,0%);fill-opacity:1;" d="M 5.640625 17 L 4.929688 17.710938 C 4.542969 18.101562 4.542969 18.730469 4.929688 19.121094 C 5.320312 19.507812 5.949219 19.507812 6.339844 19.121094 L 7.050781 18.410156 C 7.390625 18.011719 7.367188 17.421875 6.996094 17.050781 C 6.628906 16.683594 6.035156 16.660156 5.640625 17 Z M 5 12 C 5 11.449219 4.550781 11 4 11 L 3 11 C 2.449219 11 2 11.449219 2 12 C 2 12.550781 2.449219 13 3 13 L 4 13 C 4.550781 13 5 12.550781 5 12 Z M 12 5 C 12.550781 5 13 4.550781 13 4 L 13 3 C 13 2.449219 12.550781 2 12 2 C 11.449219 2 11 2.449219 11 3 L 11 4 C 11 4.550781 11.449219 5 12 5 Z M 5.640625 7.050781 C 5.828125 7.234375 6.078125 7.339844 6.339844 7.339844 C 6.605469 7.339844 6.859375 7.238281 7.050781 7.050781 C 7.4375 6.660156 7.4375 6.03125 7.050781 5.640625 L 6.339844 4.929688 C 5.941406 4.589844 5.351562 4.613281 4.984375 4.984375 C 4.613281 5.351562 4.589844 5.941406 4.929688 6.339844 Z M 17.640625 7.339844 C 17.902344 7.339844 18.152344 7.234375 18.339844 7.050781 L 19.050781 6.339844 C 19.335938 6.09375 19.460938 5.710938 19.371094 5.347656 C 19.285156 4.980469 19 4.695312 18.632812 4.609375 C 18.269531 4.519531 17.882812 4.644531 17.640625 4.929688 L 17 5.640625 C 16.613281 6.03125 16.613281 6.660156 17 7.050781 C 17.175781 7.226562 17.410156 7.328125 17.660156 7.339844 Z M 21 11 L 20 11 C 19.449219 11 19 11.449219 19 12 C 19 12.550781 19.449219 13 20 13 L 21 13 C 21.550781 13 22 12.550781 22 12 C 22 11.449219 21.550781 11 21 11 Z M 12 19 C 11.449219 19 11 19.449219 11 20 L 11 21 C 11 21.550781 11.449219 22 12 22 C 12.550781 22 13 21.550781 13 21 L 13 20 C 13 19.449219 12.550781 19 12 19 Z M 18.359375 17 C 17.96875 16.78125 17.484375 16.851562 17.167969 17.167969 C 16.851562 17.484375 16.78125 17.96875 17 18.359375 L 17.710938 19.070312 C 18.101562 19.457031 18.730469 19.457031 19.121094 19.070312 C 19.507812 18.679688 19.507812 18.050781 19.121094 17.660156 Z M 12 6.5 C 8.960938 6.5 6.5 8.960938 6.5 12 C 6.5 15.039062 8.960938 17.5 12 17.5 C 15.039062 17.5 17.5 15.039062 17.5 12 C 17.496094 8.964844 15.035156 6.503906 12 6.5 Z M 12 15.5 C 10.066406 15.5 8.5 13.933594 8.5 12 C 8.5 10.066406 10.066406 8.5 12 8.5 C 13.933594 8.5 15.5 10.066406 15.5 12 C 15.5 13.933594 13.933594 15.5 12 15.5 Z M 12 15.5 "/>
</g>
</svg>
