<?xml version="1.0" encoding="UTF-8"?>
<svg xmlns="http://www.w3.org/2000/svg" xmlns:xlink="http://www.w3.org/1999/xlink" width="24px" height="24px" viewBox="0 0 24 24" version="1.1">
<g id="surface1">
<path style=" stroke:none;fill-rule:nonzero;fill:rgb(100%,43.529412%,0%);fill-opacity:1;" d="M 19.351562 5.949219 L 17.800781 7.199219 C 18.898438 8.550781 19.5 10.25 19.5 11.949219 C 19.5 16.101562 16.148438 19.449219 12 19.449219 C 11.550781 19.449219 11.050781 19.398438 10.601562 19.300781 L 10.25 21.25 C 10.851562 21.351562 11.449219 21.398438 12 21.398438 C 17.25 21.398438 21.5 17.148438 21.5 11.898438 C 21.5 9.800781 20.75 7.648438 19.351562 5.949219 "/>
<path style=" stroke:none;fill-rule:nonzero;fill:rgb(100%,43.529412%,0.784314%);fill-opacity:1;" d="M 15.5 4 L 21.449219 4.800781 L 16.550781 9.699219 Z M 15.5 4 "/>
<path style=" stroke:none;fill-rule:nonzero;fill:rgb(100%,43.529412%,0%);fill-opacity:1;" d="M 12 2.5 C 6.75 2.5 2.5 6.75 2.5 12 C 2.5 14.300781 3.300781 16.5 4.800781 18.199219 L 6.300781 16.898438 C 5.148438 15.550781 4.5 13.800781 4.5 12 C 4.5 7.851562 7.851562 4.5 12 4.5 C 12.449219 4.5 12.949219 4.550781 13.398438 4.648438 L 13.75 2.699219 C 13.199219 2.550781 12.601562 2.5 12 2.5 "/>
<path style=" stroke:none;fill-rule:nonzero;fill:rgb(100%,43.529412%,0.784314%);fill-opacity:1;" d="M 8.5 20 L 2.550781 19.199219 L 7.449219 14.300781 Z M 8.5 20 "/>
</g>
</svg>
