<?xml version="1.0" encoding="UTF-8"?>
<svg xmlns="http://www.w3.org/2000/svg" xmlns:xlink="http://www.w3.org/1999/xlink" width="24px" height="24px" viewBox="0 0 24 24" version="1.1">
<g id="surface1">
<path style=" stroke:none;fill-rule:nonzero;fill:rgb(21.960784%,74.117649%,97.254902%);fill-opacity:1;" d="M 12 4.800781 C 8.800781 4.800781 6.800781 6.398438 6 9.601562 C 7.199219 8 8.601562 7.402344 10.199219 7.800781 C 11.113281 8.027344 11.765625 8.691406 12.488281 9.425781 C 13.664062 10.617188 15.027344 12 18 12 C 21.199219 12 23.199219 10.402344 24 7.199219 C 22.800781 8.800781 21.402344 9.398438 19.800781 9 C 18.886719 8.773438 18.234375 8.109375 17.511719 7.375 C 16.335938 6.183594 14.976562 4.800781 12 4.800781 M 6 12 C 2.800781 12 0.800781 13.597656 0 16.800781 C 1.199219 15.199219 2.601562 14.601562 4.199219 15 C 5.113281 15.226562 5.765625 15.890625 6.488281 16.625 C 7.664062 17.816406 9.027344 19.199219 12 19.199219 C 15.199219 19.199219 17.199219 17.601562 18 14.398438 C 16.800781 16 15.402344 16.601562 13.800781 16.199219 C 12.886719 15.972656 12.234375 15.308594 11.511719 14.574219 C 10.335938 13.382812 8.976562 12 6 12 M 6 12 "/>
</g>
</svg>
