<?xml version="1.0" encoding="UTF-8"?>
<svg xmlns="http://www.w3.org/2000/svg" xmlns:xlink="http://www.w3.org/1999/xlink" width="24px" height="24px" viewBox="0 0 24 24" version="1.1">
<g id="surface1">
<path style=" stroke:none;fill-rule:nonzero;fill:rgb(94.509804%,18.039216%,27.058825%);fill-opacity:1;" d="M 12 0 C 18.625 0 24 5.375 24 12 C 24 18.625 18.625 24 12 24 C 5.375 24 0 18.625 0 12 C 0 5.375 5.375 0 12 0 Z M 12 3.167969 C 7.105469 3.167969 3.167969 7.105469 3.167969 12 C 3.167969 16.894531 7.105469 20.832031 12 20.832031 C 16.894531 20.832031 20.832031 16.894531 20.832031 12 C 20.832031 7.105469 16.894531 3.167969 12 3.167969 Z M 14.976562 12.480469 C 16.355469 12.480469 17.472656 13.597656 17.472656 14.976562 C 17.472656 16.355469 16.355469 17.472656 14.976562 17.472656 C 13.597656 17.472656 12.480469 16.355469 12.480469 14.976562 C 12.480469 13.597656 13.597656 12.480469 14.976562 12.480469 Z M 9.023438 12.480469 C 10.402344 12.480469 11.519531 13.597656 11.519531 14.976562 C 11.519531 16.355469 10.402344 17.472656 9.023438 17.472656 C 7.644531 17.472656 6.527344 16.355469 6.527344 14.976562 C 6.527344 13.597656 7.644531 12.480469 9.023438 12.480469 Z M 14.976562 6.527344 C 16.355469 6.527344 17.472656 7.644531 17.472656 9.023438 C 17.472656 10.402344 16.355469 11.519531 14.976562 11.519531 C 13.597656 11.519531 12.480469 10.402344 12.480469 9.023438 C 12.480469 7.644531 13.597656 6.527344 14.976562 6.527344 Z M 9.023438 6.527344 C 10.402344 6.527344 11.519531 7.644531 11.519531 9.023438 C 11.519531 10.402344 10.402344 11.519531 9.023438 11.519531 C 7.644531 11.519531 6.527344 10.402344 6.527344 9.023438 C 6.527344 7.644531 7.644531 6.527344 9.023438 6.527344 Z M 9.023438 6.527344 "/>
</g>
</svg>
