<?xml version="1.0" encoding="UTF-8"?>
<svg xmlns="http://www.w3.org/2000/svg" xmlns:xlink="http://www.w3.org/1999/xlink" width="24px" height="24px" viewBox="0 0 24 24" version="1.1">
<g id="surface1">
<path style=" stroke:none;fill-rule:nonzero;fill:rgb(100%,100%,100%);fill-opacity:1;" d="M 4.25 8.8125 L 22.9375 8.8125 L 22.9375 22.625 L 4.25 22.625 Z M 4.25 8.8125 "/>
<path style=" stroke:none;fill-rule:nonzero;fill:rgb(0%,47.843137%,80.000001%);fill-opacity:1;" d="M 0.28125 11.984375 L 0.28125 23.703125 L 23.71875 23.703125 L 23.71875 0.265625 L 0.28125 0.265625 Z M 19.167969 11.046875 C 19.730469 11.175781 20.238281 11.46875 20.632812 11.890625 C 20.851562 12.117188 21.039062 12.367188 21.195312 12.640625 C 21.195312 12.667969 20.183594 13.355469 19.566406 13.734375 C 19.546875 13.75 19.453125 13.652344 19.355469 13.503906 C 19.125 13.109375 18.710938 12.859375 18.253906 12.84375 C 17.542969 12.796875 17.085938 13.167969 17.089844 13.78125 C 17.085938 13.933594 17.121094 14.085938 17.191406 14.21875 C 17.347656 14.542969 17.636719 14.738281 18.550781 15.132812 C 20.226562 15.851562 20.945312 16.328125 21.390625 17.007812 C 21.890625 17.757812 22 18.96875 21.664062 19.863281 C 21.289062 20.839844 20.371094 21.5 19.070312 21.71875 C 18.476562 21.789062 17.878906 21.78125 17.285156 21.703125 C 16.378906 21.550781 15.542969 21.117188 14.902344 20.457031 C 14.683594 20.21875 14.265625 19.597656 14.292969 19.554688 C 14.359375 19.503906 14.433594 19.457031 14.507812 19.417969 L 15.375 18.9375 L 16.046875 18.546875 L 16.1875 18.753906 C 16.425781 19.09375 16.726562 19.382812 17.078125 19.605469 C 17.828125 20 18.851562 19.945312 19.359375 19.492188 C 19.707031 19.144531 19.761719 18.601562 19.488281 18.191406 C 19.300781 17.933594 18.925781 17.714844 17.875 17.253906 C 16.667969 16.734375 16.144531 16.410156 15.667969 15.898438 C 15.371094 15.558594 15.152344 15.160156 15.027344 14.726562 C 14.933594 14.230469 14.917969 13.726562 14.984375 13.226562 C 15.234375 12.058594 16.109375 11.242188 17.390625 11 C 17.980469 10.925781 18.582031 10.945312 19.167969 11.050781 Z M 13.667969 12.027344 L 13.667969 12.988281 L 10.625 12.988281 L 10.625 21.65625 L 8.464844 21.65625 L 8.464844 12.984375 L 5.414062 12.984375 L 5.414062 12.046875 C 5.40625 11.726562 5.414062 11.402344 5.4375 11.078125 C 5.453125 11.0625 7.3125 11.0625 9.5625 11.0625 L 13.65625 11.0625 Z M 13.667969 12.027344 "/>
</g>
</svg>
