<?xml version="1.0" encoding="UTF-8"?>
<svg xmlns="http://www.w3.org/2000/svg" xmlns:xlink="http://www.w3.org/1999/xlink" width="24px" height="24px" viewBox="0 0 24 24" version="1.1">
<defs>
<clipPath id="clip1">
  <path d="M 0 0.25 L 23.796875 0.25 L 23.796875 24 L 0 24 Z M 0 0.25 "/>
</clipPath>
<clipPath id="clip2">
  <path d="M 23.75 12.125 C 23.75 5.570312 18.429688 0.25 11.875 0.25 C 5.316406 0.25 0 5.570312 0 12.125 C 0 18.683594 5.316406 24 11.875 24 C 18.429688 24 23.75 18.683594 23.75 12.125 Z M 23.75 12.125 "/>
</clipPath>
<clipPath id="clip3">
  <path d="M 12.5 8.5 L 17.5 8.5 L 17.5 15.5 L 12.5 15.5 Z M 12.5 8.5 "/>
</clipPath>
<clipPath id="clip4">
  <path d="M 15.09375 11.320312 C 14.238281 11.320312 13.789062 11.976562 13.789062 12.980469 C 13.789062 13.988281 14.238281 14.640625 15.09375 14.640625 C 15.949219 14.640625 16.351562 13.789062 16.351562 12.980469 C 16.351562 12.125 15.898438 11.320312 15.09375 11.320312 M 12.828125 8.804688 L 13.835938 8.804688 L 13.835938 11.21875 C 14.085938 10.765625 14.691406 10.464844 15.195312 10.464844 C 16.65625 10.464844 17.359375 11.625 17.359375 12.980469 C 17.359375 14.339844 16.753906 15.445312 15.398438 15.445312 C 14.039062 15.445312 14.085938 15.296875 13.789062 14.640625 L 13.789062 15.296875 L 12.828125 15.296875 L 12.828125 8.753906 Z M 12.828125 8.804688 "/>
</clipPath>
<clipPath id="clip5">
  <path d="M 17.5 10 L 22.5 10 L 22.5 15.5 L 17.5 15.5 Z M 17.5 10 "/>
</clipPath>
<clipPath id="clip6">
  <path d="M 21.082031 12.175781 C 20.980469 11.570312 20.578125 11.269531 20.023438 11.269531 C 19.472656 11.269531 18.765625 11.570312 18.765625 12.980469 C 18.765625 14.390625 19.117188 14.59375 19.976562 14.59375 C 20.828125 14.59375 20.980469 14.1875 21.082031 13.484375 L 22.085938 13.484375 C 21.886719 14.691406 21.179688 15.398438 19.976562 15.398438 C 18.765625 15.398438 17.761719 14.339844 17.761719 12.929688 C 17.761719 11.523438 18.515625 10.367188 20.023438 10.367188 C 21.535156 10.367188 21.988281 10.917969 22.085938 12.078125 L 21.082031 12.078125 Z M 21.082031 12.175781 "/>
</clipPath>
<clipPath id="clip7">
  <path d="M 1.5 8.5 L 13 8.5 L 13 15.5 L 1.5 15.5 Z M 1.5 8.5 "/>
</clipPath>
<clipPath id="clip8">
  <path d="M 9.257812 15.34375 L 1.710938 15.34375 L 5.234375 8.804688 L 12.828125 8.804688 Z M 9.257812 15.34375 "/>
</clipPath>
</defs>
<g id="surface1">
<g clip-path="url(#clip1)" clip-rule="nonzero">
<g clip-path="url(#clip2)" clip-rule="nonzero">
<rect x="0" y="0" width="24" height="24" style="fill:rgb(9.019608%,62.7451%,76.862746%);fill-opacity:1;stroke:none;"/>
</g>
</g>
<g clip-path="url(#clip3)" clip-rule="nonzero">
<g clip-path="url(#clip4)" clip-rule="nonzero">
<path style=" stroke:none;fill-rule:nonzero;fill:rgb(100%,100%,100%);fill-opacity:1;" d="M 12.578125 15.695312 L 17.609375 15.695312 L 17.609375 8.554688 L 12.578125 8.554688 Z M 12.578125 15.695312 "/>
</g>
</g>
<g clip-path="url(#clip5)" clip-rule="nonzero">
<g clip-path="url(#clip6)" clip-rule="nonzero">
<path style=" stroke:none;fill-rule:nonzero;fill:rgb(100%,100%,100%);fill-opacity:1;" d="M 17.5625 15.695312 L 22.339844 15.695312 L 22.339844 10.210938 L 17.5625 10.210938 Z M 17.5625 15.695312 "/>
</g>
</g>
<g clip-path="url(#clip7)" clip-rule="nonzero">
<g clip-path="url(#clip8)" clip-rule="nonzero">
<path style=" stroke:none;fill-rule:nonzero;fill:rgb(100%,100%,100%);fill-opacity:1;" d="M 1.460938 15.597656 L 13.082031 15.597656 L 13.082031 8.601562 L 1.460938 8.601562 Z M 1.460938 15.597656 "/>
</g>
</g>
</g>
</svg>
