<?xml version="1.0" encoding="UTF-8"?>
<svg xmlns="http://www.w3.org/2000/svg" xmlns:xlink="http://www.w3.org/1999/xlink" width="24px" height="24px" viewBox="0 0 24 24" version="1.1">
<defs>
<linearGradient id="linear0" gradientUnits="userSpaceOnUse" x1="24" y1="5.565" x2="24" y2="40.967999" gradientTransform="matrix(0.5,0,0,0.5,0,0)">
<stop offset="0" style="stop-color:rgb(23.921569%,61.176471%,100%);stop-opacity:1;"/>
<stop offset="1" style="stop-color:rgb(6.666667%,52.156863%,99.607843%);stop-opacity:1;"/>
</linearGradient>
</defs>
<g id="surface1">
<path style=" stroke:none;fill-rule:nonzero;fill:url(#linear0);" d="M 6.050781 4 C 8.460938 5.808594 11.050781 9.472656 12 11.4375 C 12.949219 9.472656 15.539062 5.808594 17.949219 4 C 19.683594 2.695312 22.5 1.6875 22.5 4.898438 C 22.5 5.539062 22.132812 10.285156 21.917969 11.054688 C 21.167969 13.734375 18.433594 14.417969 16.007812 14.003906 C 20.253906 14.726562 21.332031 17.121094 19 19.515625 C 14.570312 24.0625 12.632812 18.375 12.132812 16.917969 C 12.042969 16.648438 12 16.523438 12 16.628906 C 12 16.523438 11.957031 16.648438 11.867188 16.917969 C 11.367188 18.375 9.429688 24.0625 5 19.515625 C 2.667969 17.121094 3.746094 14.726562 7.992188 14.003906 C 5.5625 14.417969 2.832031 13.734375 2.082031 11.054688 C 1.867188 10.285156 1.5 5.539062 1.5 4.898438 C 1.5 1.6875 4.316406 2.695312 6.050781 4 Z M 6.050781 4 "/>
</g>
</svg>
