<?xml version="1.0" encoding="UTF-8"?>
<svg xmlns="http://www.w3.org/2000/svg" xmlns:xlink="http://www.w3.org/1999/xlink" width="24px" height="24px" viewBox="0 0 24 24" version="1.1">
<g id="surface1">
<path style=" stroke:none;fill-rule:nonzero;fill:rgb(1.176471%,60.784316%,89.803922%);fill-opacity:1;" d="M 12 2.5 C 6.753906 2.5 2.5 6.753906 2.5 12 C 2.5 17.246094 6.753906 21.5 12 21.5 C 17.246094 21.5 21.5 17.246094 21.5 12 C 21.5 6.753906 17.246094 2.5 12 2.5 Z M 12 2.5 "/>
<path style=" stroke:none;fill-rule:nonzero;fill:rgb(100%,100%,100%);fill-opacity:1;" d="M 13.285156 14.519531 L 15.746094 14.519531 L 16.128906 12.019531 L 13.285156 12.019531 L 13.285156 10.65625 C 13.285156 9.617188 13.625 8.699219 14.59375 8.699219 L 16.15625 8.699219 L 16.15625 6.519531 C 15.878906 6.480469 15.300781 6.402344 14.207031 6.402344 C 11.917969 6.402344 10.578125 7.609375 10.578125 10.359375 L 10.578125 12.019531 L 8.226562 12.019531 L 8.226562 14.519531 L 10.578125 14.519531 L 10.578125 21.382812 C 11.042969 21.453125 11.515625 21.5 12 21.5 C 12.4375 21.5 12.863281 21.460938 13.285156 21.402344 Z M 13.285156 14.519531 "/>
</g>
</svg>
