<?xml version="1.0" encoding="UTF-8"?>
<svg xmlns="http://www.w3.org/2000/svg" xmlns:xlink="http://www.w3.org/1999/xlink" width="24px" height="24px" viewBox="0 0 24 24" version="1.1">
<g id="surface1">
<path style=" stroke:none;fill-rule:nonzero;fill:rgb(0.784314%,53.333336%,81.960785%);fill-opacity:1;" d="M 21 18.5 C 21 19.882812 19.882812 21 18.5 21 L 5.5 21 C 4.121094 21 3 19.882812 3 18.5 L 3 5.5 C 3 4.117188 4.121094 3 5.5 3 L 18.5 3 C 19.882812 3 21 4.117188 21 5.5 Z M 21 18.5 "/>
<path style=" stroke:none;fill-rule:nonzero;fill:rgb(100%,100%,100%);fill-opacity:1;" d="M 6 9.5 L 8.5 9.5 L 8.5 18 L 6 18 Z M 7.242188 8.5 L 7.226562 8.5 C 6.484375 8.5 6 7.945312 6 7.25 C 6 6.539062 6.496094 6 7.257812 6 C 8.015625 6 8.484375 6.539062 8.5 7.25 C 8.5 7.945312 8.015625 8.5 7.242188 8.5 Z M 18 18 L 15.5 18 L 15.5 13.449219 C 15.5 12.351562 14.886719 11.601562 13.902344 11.601562 C 13.152344 11.601562 12.746094 12.109375 12.550781 12.597656 C 12.476562 12.773438 12.5 13.253906 12.5 13.5 L 12.5 18 L 10 18 L 10 9.5 L 12.5 9.5 L 12.5 10.808594 C 12.859375 10.25 13.425781 9.5 14.867188 9.5 C 16.65625 9.5 18 10.625 18 13.136719 Z M 18 18 "/>
</g>
</svg>
