<?xml version="1.0" encoding="UTF-8"?>
<svg xmlns="http://www.w3.org/2000/svg" xmlns:xlink="http://www.w3.org/1999/xlink" width="24px" height="24px" viewBox="0 0 24 24" version="1.1">
<g id="surface1">
<path style=" stroke:none;fill-rule:nonzero;fill:rgb(25.882354%,25.882354%,25.882354%);fill-opacity:1;" d="M 13 12 C 13 8.6875 10.3125 6 7 6 C 3.6875 6 1 8.6875 1 12 C 1 15.3125 3.6875 18 7 18 C 10.3125 18 13 15.3125 13 12 Z M 13 12 "/>
<path style=" stroke:none;fill-rule:nonzero;fill:rgb(25.882354%,25.882354%,25.882354%);fill-opacity:1;" d="M 20 12 C 20 8.960938 18.65625 6.5 17 6.5 C 15.34375 6.5 14 8.960938 14 12 C 14 15.039062 15.34375 17.5 17 17.5 C 18.65625 17.5 20 15.039062 20 12 Z M 20 12 "/>
<path style=" stroke:none;fill-rule:nonzero;fill:rgb(25.882354%,25.882354%,25.882354%);fill-opacity:1;" d="M 23 12 C 23 9.238281 22.550781 7 22 7 C 21.449219 7 21 9.238281 21 12 C 21 14.761719 21.449219 17 22 17 C 22.550781 17 23 14.761719 23 12 Z M 23 12 "/>
</g>
</svg>
