<?xml version="1.0" encoding="UTF-8"?>
<svg xmlns="http://www.w3.org/2000/svg" xmlns:xlink="http://www.w3.org/1999/xlink" width="24px" height="24px" viewBox="0 0 24 24" version="1.1">
<g id="surface1">
<path style=" stroke:none;fill-rule:nonzero;fill:rgb(100%,100%,100%);fill-opacity:1;" d="M 6.097656 9.777344 C 5.125 8.90625 3.703125 8.914062 2.914062 9.792969 C 2.125 10.671875 2.261719 12.304688 3.378906 13.109375 Z M 17.902344 9.777344 C 18.871094 8.90625 20.296875 8.914062 21.085938 9.792969 C 21.875 10.671875 21.738281 12.304688 20.621094 13.109375 Z M 19.160156 3.488281 C 18.195312 3.488281 17.410156 4.269531 17.410156 5.238281 C 17.410156 6.203125 18.195312 6.988281 19.160156 6.988281 C 20.125 6.988281 20.910156 6.203125 20.910156 5.238281 C 20.910156 4.269531 20.125 3.488281 19.160156 3.488281 Z M 19.160156 3.488281 "/>
<path style=" stroke:none;fill-rule:nonzero;fill:rgb(100%,100%,100%);fill-opacity:1;" d="M 12.042969 7.832031 C 7.046875 7.832031 3 10.730469 3 14.304688 C 3 17.878906 7.046875 20.777344 12.042969 20.777344 C 17.035156 20.777344 21.085938 17.878906 21.085938 14.304688 C 21.085938 10.730469 17.035156 7.832031 12.042969 7.832031 Z M 12.042969 7.832031 "/>
<path style=" stroke:none;fill-rule:nonzero;fill:rgb(84.705883%,26.274511%,8.235294%);fill-opacity:1;" d="M 15.183594 11.753906 C 14.386719 11.753906 13.742188 12.398438 13.742188 13.195312 C 13.742188 13.992188 14.386719 14.636719 15.183594 14.636719 C 15.980469 14.636719 16.625 13.992188 16.625 13.195312 C 16.625 12.398438 15.980469 11.753906 15.183594 11.753906 Z M 8.816406 11.753906 C 8.019531 11.753906 7.375 12.398438 7.375 13.195312 C 7.375 13.992188 8.019531 14.636719 8.816406 14.636719 C 9.613281 14.636719 10.257812 13.992188 10.257812 13.195312 C 10.257812 12.398438 9.613281 11.753906 8.816406 11.753906 Z M 8.816406 11.753906 "/>
<path style=" stroke:none;fill-rule:nonzero;fill:rgb(21.568628%,27.843139%,30.980393%);fill-opacity:1;" d="M 12 17.449219 C 10.375 17.449219 8.929688 17.078125 8 16.5 C 8.511719 17.523438 10.097656 18.5 12 18.5 C 13.902344 18.5 15.488281 17.523438 16 16.5 C 15.070312 17.078125 13.628906 17.449219 12 17.449219 Z M 20.914062 13.511719 L 20.328125 12.703125 C 20.746094 12.402344 21.015625 11.925781 21.074219 11.390625 C 21.125 10.902344 20.996094 10.441406 20.714844 10.125 C 20.429688 9.808594 20.019531 9.628906 19.558594 9.628906 C 19.097656 9.636719 18.613281 9.8125 18.238281 10.148438 L 17.570312 9.40625 C 18.128906 8.902344 18.839844 8.644531 19.566406 8.628906 C 20.308594 8.632812 20.980469 8.925781 21.457031 9.457031 C 21.929688 9.984375 22.152344 10.726562 22.066406 11.496094 C 21.980469 12.3125 21.558594 13.046875 20.914062 13.511719 Z M 3.085938 13.511719 C 2.441406 13.046875 2.019531 12.3125 1.929688 11.496094 C 1.847656 10.726562 2.070312 9.984375 2.542969 9.457031 C 3.019531 8.925781 3.691406 8.632812 4.433594 8.628906 C 4.4375 8.628906 4.445312 8.628906 4.449219 8.628906 C 5.167969 8.628906 5.871094 8.90625 6.429688 9.40625 L 5.761719 10.148438 C 5.386719 9.8125 4.917969 9.648438 4.441406 9.628906 C 3.980469 9.632812 3.570312 9.808594 3.285156 10.125 C 3.003906 10.441406 2.875 10.902344 2.925781 11.390625 C 2.984375 11.925781 3.253906 12.402344 3.671875 12.703125 Z M 12.5 8.421875 L 11.5 8.421875 C 11.5 6.976562 11.5 3.144531 13.988281 3.144531 C 15.066406 3.144531 15.585938 3.75 15.964844 4.195312 C 16.28125 4.5625 16.445312 4.738281 16.773438 4.738281 L 17.457031 4.738281 L 17.457031 5.738281 L 16.773438 5.738281 C 15.972656 5.738281 15.546875 5.242188 15.207031 4.84375 C 14.871094 4.453125 14.605469 4.144531 13.988281 4.144531 C 12.988281 4.144531 12.5 5.542969 12.5 8.421875 Z M 12.5 8.421875 "/>
<path style=" stroke:none;fill-rule:nonzero;fill:rgb(21.568628%,27.843139%,30.980393%);fill-opacity:1;" d="M 12.042969 8.476562 C 16.753906 8.476562 20.585938 11.089844 20.585938 14.304688 C 20.585938 17.519531 16.753906 20.136719 12.042969 20.136719 C 7.332031 20.136719 3.5 17.519531 3.5 14.304688 C 3.5 11.089844 7.332031 8.476562 12.042969 8.476562 M 12.042969 7.476562 C 6.773438 7.476562 2.5 10.53125 2.5 14.304688 C 2.5 18.078125 6.773438 21.136719 12.042969 21.136719 C 17.3125 21.136719 21.585938 18.078125 21.585938 14.304688 C 21.585938 10.53125 17.3125 7.476562 12.042969 7.476562 Z M 19.160156 3.988281 C 19.847656 3.988281 20.410156 4.546875 20.410156 5.238281 C 20.410156 5.925781 19.847656 6.488281 19.160156 6.488281 C 18.46875 6.488281 17.910156 5.925781 17.910156 5.238281 C 17.910156 4.546875 18.46875 3.988281 19.160156 3.988281 M 19.160156 2.988281 C 17.917969 2.988281 16.910156 3.996094 16.910156 5.238281 C 16.910156 6.480469 17.917969 7.488281 19.160156 7.488281 C 20.402344 7.488281 21.410156 6.480469 21.410156 5.238281 C 21.410156 3.996094 20.402344 2.988281 19.160156 2.988281 Z M 19.160156 2.988281 "/>
</g>
</svg>
