<?xml version="1.0" encoding="UTF-8"?>
<svg xmlns="http://www.w3.org/2000/svg" xmlns:xlink="http://www.w3.org/1999/xlink" width="24px" height="24px" viewBox="0 0 24 24" version="1.1">
<defs>
<linearGradient id="linear0" gradientUnits="userSpaceOnUse" x1="24.000999" y1="-4.765" x2="24.000999" y2="56.310001" gradientTransform="matrix(0.5,0,0,0.5,0,0)">
<stop offset="0" style="stop-color:rgb(29.803922%,68.627451%,31.372549%);stop-opacity:1;"/>
<stop offset="0.489" style="stop-color:rgb(29.019608%,68.627451%,31.372549%);stop-opacity:1;"/>
<stop offset="0.665" style="stop-color:rgb(26.27451%,67.843137%,31.372549%);stop-opacity:1;"/>
<stop offset="0.79" style="stop-color:rgb(21.960784%,66.666667%,31.372549%);stop-opacity:1;"/>
<stop offset="0.892" style="stop-color:rgb(15.294118%,64.705882%,31.372549%);stop-opacity:1;"/>
<stop offset="0.978" style="stop-color:rgb(6.666667%,62.745098%,31.372549%);stop-opacity:1;"/>
<stop offset="1" style="stop-color:rgb(3.921569%,61.960784%,31.372549%);stop-opacity:1;"/>
</linearGradient>
<filter id="alpha" filterUnits="objectBoundingBox" x="0%" y="0%" width="100%" height="100%">
  <feColorMatrix type="matrix" in="SourceGraphic" values="0 0 0 0 1 0 0 0 0 1 0 0 0 0 1 0 0 0 1 0"/>
</filter>
<mask id="mask0">
  <g filter="url(#alpha)">
<rect x="0" y="0" width="24" height="24" style="fill:rgb(0%,0%,0%);fill-opacity:0.0509804;stroke:none;"/>
  </g>
</mask>
<clipPath id="clip1">
  <rect x="0" y="0" width="24" height="24"/>
</clipPath>
<g id="surface5" clip-path="url(#clip1)">
<path style=" stroke:none;fill-rule:nonzero;fill:rgb(0%,0%,0%);fill-opacity:1;" d="M 10.613281 7.96875 C 13.390625 7.96875 16.3125 8.554688 18.503906 9.796875 C 18.796875 9.941406 19.015625 10.234375 19.015625 10.671875 C 18.941406 11.183594 18.578125 11.550781 18.066406 11.550781 C 17.847656 11.550781 17.773438 11.476562 17.554688 11.40625 C 15.800781 10.382812 13.171875 9.796875 10.613281 9.796875 C 9.296875 9.796875 7.980469 9.941406 6.8125 10.234375 C 6.664062 10.234375 6.519531 10.308594 6.300781 10.308594 C 6.261719 10.3125 6.226562 10.316406 6.191406 10.316406 C 5.738281 10.316406 5.421875 9.90625 5.421875 9.429688 C 5.421875 8.917969 5.714844 8.628906 6.082031 8.554688 C 7.46875 8.117188 8.929688 7.96875 10.613281 7.96875 M 10.390625 11.183594 C 12.878906 11.183594 15.289062 11.769531 17.1875 12.9375 C 17.480469 13.082031 17.628906 13.375 17.628906 13.667969 C 17.628906 14.109375 17.335938 14.472656 16.898438 14.472656 C 16.675781 14.472656 16.53125 14.402344 16.386719 14.328125 C 14.851562 13.378906 12.730469 12.792969 10.320312 12.792969 C 9.152344 12.792969 8.054688 12.9375 7.25 13.15625 C 7.03125 13.230469 6.957031 13.230469 6.8125 13.230469 C 6.375 13.230469 6.082031 12.863281 6.082031 12.5 C 6.082031 12.0625 6.300781 11.839844 6.664062 11.695312 C 7.761719 11.402344 8.859375 11.183594 10.390625 11.183594 M 10.613281 14.328125 C 12.65625 14.328125 14.558594 14.835938 16.164062 15.789062 C 16.382812 15.933594 16.53125 16.082031 16.53125 16.445312 C 16.457031 16.738281 16.164062 16.957031 15.875 16.957031 C 15.726562 16.957031 15.582031 16.886719 15.433594 16.8125 C 14.046875 16.007812 12.367188 15.570312 10.539062 15.570312 C 9.515625 15.570312 8.492188 15.714844 7.542969 15.933594 C 7.398438 15.933594 7.175781 16.007812 7.105469 16.007812 C 6.738281 16.007812 6.519531 15.714844 6.519531 15.421875 C 6.519531 15.058594 6.738281 14.835938 7.03125 14.765625 C 8.199219 14.472656 9.371094 14.328125 10.613281 14.328125 M 10.613281 7.46875 C 8.71875 7.46875 7.277344 7.65625 5.953125 8.070312 C 5.328125 8.210938 4.921875 8.742188 4.921875 9.429688 C 4.921875 10.207031 5.480469 10.816406 6.191406 10.816406 C 6.238281 10.816406 6.285156 10.8125 6.335938 10.808594 C 6.496094 10.804688 6.621094 10.773438 6.71875 10.753906 C 6.75 10.746094 6.78125 10.738281 6.8125 10.734375 L 6.875 10.734375 L 6.933594 10.71875 C 8.042969 10.441406 9.316406 10.296875 10.613281 10.296875 C 13.148438 10.296875 15.648438 10.871094 17.304688 11.835938 L 17.347656 11.863281 L 17.398438 11.878906 C 17.453125 11.898438 17.496094 11.917969 17.535156 11.933594 C 17.660156 11.984375 17.816406 12.050781 18.066406 12.050781 C 18.808594 12.050781 19.402344 11.511719 19.511719 10.742188 L 19.515625 10.707031 L 19.515625 10.671875 C 19.515625 10.085938 19.234375 9.609375 18.742188 9.355469 C 16.617188 8.15625 13.65625 7.46875 10.613281 7.46875 Z M 10.390625 10.683594 C 8.746094 10.683594 7.566406 10.9375 6.535156 11.214844 L 6.507812 11.21875 L 6.480469 11.230469 C 5.882812 11.46875 5.582031 11.894531 5.582031 12.5 C 5.582031 13.179688 6.132812 13.730469 6.8125 13.730469 C 6.996094 13.730469 7.125 13.726562 7.40625 13.632812 C 8.191406 13.417969 9.261719 13.292969 10.320312 13.292969 C 12.539062 13.292969 14.601562 13.808594 16.121094 14.753906 L 16.140625 14.765625 L 16.160156 14.773438 C 16.328125 14.859375 16.554688 14.972656 16.894531 14.972656 C 17.597656 14.972656 18.128906 14.410156 18.128906 13.667969 C 18.128906 13.171875 17.863281 12.726562 17.433594 12.5 C 15.519531 11.328125 13.019531 10.683594 10.390625 10.683594 Z M 10.613281 13.828125 C 9.339844 13.828125 8.128906 13.976562 6.910156 14.28125 C 6.363281 14.414062 6.019531 14.851562 6.019531 15.421875 C 6.019531 16.03125 6.496094 16.507812 7.105469 16.507812 C 7.191406 16.507812 7.269531 16.488281 7.363281 16.46875 C 7.414062 16.457031 7.507812 16.433594 7.542969 16.433594 L 7.59375 16.433594 L 7.65625 16.421875 C 8.667969 16.1875 9.636719 16.070312 10.539062 16.070312 C 12.25 16.070312 13.855469 16.476562 15.183594 17.246094 L 15.195312 17.253906 L 15.210938 17.257812 C 15.378906 17.34375 15.605469 17.457031 15.875 17.457031 C 16.398438 17.457031 16.890625 17.074219 17.015625 16.566406 L 17.03125 16.507812 L 17.03125 16.445312 C 17.03125 15.84375 16.734375 15.566406 16.441406 15.371094 L 16.429688 15.367188 L 16.421875 15.359375 C 14.726562 14.355469 12.71875 13.828125 10.613281 13.828125 Z M 10.613281 13.828125 "/>
</g>
<mask id="mask1">
  <g filter="url(#alpha)">
<rect x="0" y="0" width="24" height="24" style="fill:rgb(0%,0%,0%);fill-opacity:0.0705882;stroke:none;"/>
  </g>
</mask>
<clipPath id="clip2">
  <rect x="0" y="0" width="24" height="24"/>
</clipPath>
<g id="surface8" clip-path="url(#clip2)">
<path style=" stroke:none;fill-rule:nonzero;fill:rgb(0%,0%,0%);fill-opacity:1;" d="M 10.613281 7.96875 C 13.390625 7.96875 16.3125 8.554688 18.503906 9.796875 C 18.796875 9.941406 19.015625 10.234375 19.015625 10.671875 C 18.941406 11.183594 18.578125 11.550781 18.066406 11.550781 C 17.847656 11.550781 17.773438 11.476562 17.554688 11.40625 C 15.800781 10.382812 13.171875 9.796875 10.613281 9.796875 C 9.296875 9.796875 7.980469 9.941406 6.8125 10.234375 C 6.664062 10.234375 6.519531 10.308594 6.300781 10.308594 C 6.261719 10.3125 6.226562 10.316406 6.191406 10.316406 C 5.738281 10.316406 5.421875 9.90625 5.421875 9.429688 C 5.421875 8.917969 5.714844 8.628906 6.082031 8.554688 C 7.46875 8.117188 8.929688 7.96875 10.613281 7.96875 M 10.390625 11.183594 C 12.878906 11.183594 15.289062 11.769531 17.1875 12.9375 C 17.480469 13.082031 17.628906 13.375 17.628906 13.667969 C 17.628906 14.109375 17.335938 14.472656 16.898438 14.472656 C 16.675781 14.472656 16.53125 14.402344 16.386719 14.328125 C 14.851562 13.378906 12.730469 12.792969 10.320312 12.792969 C 9.152344 12.792969 8.054688 12.9375 7.25 13.15625 C 7.03125 13.230469 6.957031 13.230469 6.8125 13.230469 C 6.375 13.230469 6.082031 12.863281 6.082031 12.5 C 6.082031 12.0625 6.300781 11.839844 6.664062 11.695312 C 7.761719 11.402344 8.859375 11.183594 10.390625 11.183594 M 10.613281 14.328125 C 12.65625 14.328125 14.558594 14.835938 16.164062 15.789062 C 16.382812 15.933594 16.53125 16.082031 16.53125 16.445312 C 16.457031 16.738281 16.164062 16.957031 15.875 16.957031 C 15.726562 16.957031 15.582031 16.886719 15.433594 16.8125 C 14.046875 16.007812 12.367188 15.570312 10.539062 15.570312 C 9.515625 15.570312 8.492188 15.714844 7.542969 15.933594 C 7.398438 15.933594 7.175781 16.007812 7.105469 16.007812 C 6.738281 16.007812 6.519531 15.714844 6.519531 15.421875 C 6.519531 15.058594 6.738281 14.835938 7.03125 14.765625 C 8.199219 14.472656 9.371094 14.328125 10.613281 14.328125 M 10.613281 7.71875 C 8.738281 7.71875 7.320312 7.902344 6.019531 8.3125 C 5.496094 8.421875 5.171875 8.851562 5.171875 9.429688 C 5.171875 10.066406 5.621094 10.566406 6.191406 10.566406 C 6.230469 10.566406 6.273438 10.5625 6.320312 10.558594 C 6.457031 10.554688 6.570312 10.53125 6.664062 10.511719 C 6.722656 10.496094 6.773438 10.484375 6.8125 10.484375 L 6.84375 10.484375 L 6.871094 10.476562 C 8.003906 10.195312 9.296875 10.046875 10.613281 10.046875 C 13.191406 10.046875 15.738281 10.636719 17.429688 11.621094 L 17.453125 11.632812 L 17.476562 11.640625 C 17.539062 11.664062 17.585938 11.683594 17.632812 11.703125 C 17.746094 11.75 17.867188 11.800781 18.066406 11.800781 C 18.691406 11.800781 19.171875 11.359375 19.261719 10.707031 L 19.265625 10.691406 L 19.265625 10.671875 C 19.265625 10.179688 19.03125 9.777344 18.617188 9.570312 C 16.542969 8.398438 13.621094 7.71875 10.613281 7.71875 Z M 10.390625 10.933594 C 8.867188 10.933594 7.773438 11.140625 6.601562 11.453125 L 6.585938 11.457031 L 6.574219 11.464844 C 6.253906 11.589844 5.832031 11.835938 5.832031 12.5 C 5.832031 12.972656 6.207031 13.480469 6.8125 13.480469 C 6.980469 13.480469 7.082031 13.476562 7.328125 13.394531 C 8.148438 13.171875 9.242188 13.042969 10.320312 13.042969 C 12.585938 13.042969 14.691406 13.574219 16.253906 14.539062 C 16.425781 14.628906 16.617188 14.722656 16.894531 14.722656 C 17.457031 14.722656 17.878906 14.269531 17.878906 13.667969 C 17.878906 13.257812 17.65625 12.890625 17.300781 12.714844 C 15.441406 11.570312 12.984375 10.933594 10.390625 10.933594 Z M 10.613281 14.078125 C 9.359375 14.078125 8.167969 14.222656 6.96875 14.523438 C 6.539062 14.628906 6.269531 14.972656 6.269531 15.421875 C 6.269531 15.832031 6.582031 16.257812 7.105469 16.257812 C 7.160156 16.257812 7.226562 16.242188 7.308594 16.222656 C 7.382812 16.207031 7.484375 16.183594 7.542969 16.183594 L 7.570312 16.183594 L 7.597656 16.179688 C 8.628906 15.941406 9.617188 15.820312 10.539062 15.820312 C 12.292969 15.820312 13.945312 16.238281 15.308594 17.027344 C 15.476562 17.113281 15.664062 17.207031 15.875 17.207031 C 16.285156 17.207031 16.675781 16.90625 16.773438 16.507812 L 16.78125 16.476562 L 16.78125 16.445312 C 16.78125 15.941406 16.535156 15.734375 16.304688 15.582031 C 14.636719 14.59375 12.675781 14.078125 10.613281 14.078125 Z M 10.613281 14.078125 "/>
</g>
</defs>
<g id="surface1">
<path style=" stroke:none;fill-rule:nonzero;fill:url(#linear0);" d="M 12 2 C 6.460938 2 2 6.460938 2 12 C 2 17.539062 6.460938 22 12 22 C 17.539062 22 22 17.539062 22 12 C 22 6.460938 17.539062 2 12 2 Z M 12 2 "/>
<use xlink:href="#surface5" mask="url(#mask0)"/>
<use xlink:href="#surface8" mask="url(#mask1)"/>
<path style=" stroke:none;fill-rule:nonzero;fill:rgb(100%,100%,100%);fill-opacity:1;" d="M 15.875 16.957031 C 15.726562 16.957031 15.582031 16.886719 15.433594 16.8125 C 14.046875 16.007812 12.367188 15.570312 10.539062 15.570312 C 9.515625 15.570312 8.492188 15.714844 7.542969 15.933594 C 7.398438 15.933594 7.175781 16.007812 7.105469 16.007812 C 6.738281 16.007812 6.519531 15.714844 6.519531 15.421875 C 6.519531 15.058594 6.738281 14.835938 7.03125 14.765625 C 8.199219 14.472656 9.371094 14.328125 10.613281 14.328125 C 12.65625 14.328125 14.558594 14.835938 16.164062 15.789062 C 16.382812 15.933594 16.53125 16.082031 16.53125 16.445312 C 16.457031 16.738281 16.164062 16.957031 15.875 16.957031 Z M 16.898438 14.472656 C 16.675781 14.472656 16.53125 14.402344 16.386719 14.328125 C 14.851562 13.378906 12.730469 12.792969 10.320312 12.792969 C 9.152344 12.792969 8.054688 12.9375 7.25 13.15625 C 7.03125 13.230469 6.957031 13.230469 6.8125 13.230469 C 6.375 13.230469 6.082031 12.863281 6.082031 12.5 C 6.082031 12.0625 6.300781 11.839844 6.664062 11.695312 C 7.761719 11.402344 8.859375 11.183594 10.390625 11.183594 C 12.878906 11.183594 15.289062 11.769531 17.1875 12.9375 C 17.480469 13.082031 17.628906 13.375 17.628906 13.667969 C 17.628906 14.109375 17.335938 14.472656 16.898438 14.472656 Z M 18.066406 11.550781 C 17.847656 11.550781 17.773438 11.476562 17.554688 11.40625 C 15.800781 10.382812 13.171875 9.796875 10.613281 9.796875 C 9.296875 9.796875 7.980469 9.941406 6.8125 10.234375 C 6.664062 10.234375 6.519531 10.308594 6.300781 10.308594 C 5.789062 10.382812 5.421875 9.941406 5.421875 9.429688 C 5.421875 8.917969 5.714844 8.628906 6.082031 8.554688 C 7.46875 8.117188 8.929688 7.96875 10.613281 7.96875 C 13.390625 7.96875 16.3125 8.554688 18.503906 9.796875 C 18.796875 9.941406 19.015625 10.234375 19.015625 10.671875 C 18.941406 11.183594 18.578125 11.550781 18.066406 11.550781 Z M 18.066406 11.550781 "/>
</g>
</svg>
